<?xml version="1.0" encoding="utf-8"?>
<!-- Generator: Adobe Illustrator 15.0.0, SVG Export Plug-In . SVG Version: 6.00 Build 0)  -->
<!DOCTYPE svg PUBLIC "-//W3C//DTD SVG 1.1//EN" "http://www.w3.org/Graphics/SVG/1.1/DTD/svg11.dtd">
<svg version="1.1" id="Layer_1" xmlns="http://www.w3.org/2000/svg" xmlns:xlink="http://www.w3.org/1999/xlink" x="0px" y="0px"
	 width="1280px" height="768px" viewBox="0 0 1280 768" enable-background="new 0 0 1280 768" xml:space="preserve">
<g>
	<g>
		<g>
			<g>
				<g>
					<g>
						<path fill="#6A655E" d="M598.988,452.97c-0.349,0-0.703-0.018-1.066-0.054c-1.107-0.109-1.916-1.096-1.807-2.203
							c0.108-1.107,1.094-1.919,2.203-1.807c1.943,0.189,3.33-0.412,3.911-1.697c0.596-1.321,0.355-3.563-1.581-5.363
							c-2.224-2.066-4.986-6.963-3.855-10.91c0.648-2.264,2.469-3.793,5.127-4.306c1.094-0.21,2.15,0.505,2.361,1.597
							c0.209,1.093-0.506,2.15-1.598,2.361c-1.5,0.289-1.865,0.931-2.016,1.457c-0.543,1.889,1.047,5.291,2.725,6.849
							c2.953,2.746,3.964,6.753,2.51,9.972C604.723,451.48,602.182,452.97,598.988,452.97z"/>
					</g>
				</g>
			</g>
		</g>
		<g>
			<g>
				<g>
					<g>
						<path fill="#6A655E" d="M619.524,452.953c-1.05,0-1.935-0.814-2.007-1.877c-0.077-1.111,0.762-2.072,1.871-2.148
							c1.494-0.103,2.502-0.778,2.918-1.953c0.475-1.338,0.139-3.442-1.676-5.129c-2.224-2.066-4.985-6.965-3.855-10.912
							c0.648-2.262,2.471-3.791,5.127-4.304c1.094-0.21,2.149,0.505,2.361,1.597c0.21,1.093-0.505,2.15-1.598,2.361
							c-1.5,0.289-1.865,0.93-2.016,1.456c-0.541,1.889,1.049,5.292,2.725,6.851c2.773,2.576,3.846,6.276,2.731,9.424
							c-0.952,2.688-3.358,4.418-6.442,4.63C619.617,452.951,619.57,452.953,619.524,452.953z"/>
					</g>
				</g>
			</g>
		</g>
		<g>
			<g>
				<g>
					<g>
						<path fill="#6A655E" d="M638.367,452.912c-1,0-1.867-0.742-1.996-1.76c-0.141-1.104,0.639-2.113,1.742-2.254
							c1.366-0.175,2.282-0.87,2.648-2.012c0.426-1.324,0.062-3.396-1.705-5.041c-2.223-2.066-4.986-6.964-3.855-10.912
							c0.648-2.262,2.469-3.791,5.127-4.304c1.092-0.21,2.148,0.505,2.36,1.597c0.21,1.093-0.505,2.15-1.597,2.361
							c-1.501,0.289-1.866,0.93-2.018,1.456c-0.541,1.889,1.049,5.292,2.727,6.851c2.695,2.506,3.793,6.127,2.797,9.225
							c-0.842,2.621-3.075,4.406-5.973,4.777C638.539,452.907,638.451,452.912,638.367,452.912z"/>
					</g>
				</g>
			</g>
		</g>
	</g>
	<g>
		<g>
			<g>
				<g>
					<path fill="#6A655E" d="M682.482,420.148h-88.564c-7.045,0-12.777-5.011-12.777-11.17v-17.17c0-1.113,0.902-2.016,2.016-2.016
						c1.111,0,2.014,0.902,2.014,2.016v17.17c0,3.938,3.926,7.141,8.748,7.141h88.564c4.824,0,8.749-3.203,8.749-7.141V378.41
						c0-3.936-3.925-7.139-8.749-7.139h-88.564c-4.822,0-8.748,3.203-8.748,7.139v0.582c0,1.113-0.902,2.016-2.014,2.016
						c-1.113,0-2.016-0.902-2.016-2.016v-0.659c0-0.021,0-0.042,0-0.063c0.088-6.094,5.785-11.027,12.777-11.027h88.564
						c7.047,0,12.777,5.01,12.777,11.168v30.568C695.26,415.138,689.529,420.148,682.482,420.148z"/>
				</g>
			</g>
		</g>
	</g>
	<g>
		<g>
			<g>
				<g>
					<path fill="#6A655E" d="M583.156,387.416c-1.113,0-2.016-0.902-2.016-2.016v-0.236c0-1.113,0.902-2.016,2.016-2.016
						c1.111,0,2.014,0.902,2.014,2.016v0.236C585.17,386.514,584.268,387.416,583.156,387.416z"/>
				</g>
			</g>
		</g>
	</g>
	<g>
		<g>
			<g>
				<g>
					<g>
						<path fill="#6A655E" d="M666.121,450.688c-1.113,0-2.015-0.902-2.015-2.015v-21.827c0-1.113,0.901-2.016,2.015-2.016
							s2.016,0.902,2.016,2.016v21.827C668.137,449.785,667.234,450.688,666.121,450.688z"/>
					</g>
				</g>
			</g>
		</g>
		<g>
			<g>
				<g>
					<g>
						<path fill="#6A655E" d="M655.498,445.371c-0.724,0-1.424-0.391-1.785-1.076c-0.518-0.984-0.141-2.203,0.844-2.723
							l21.248-11.193c0.984-0.518,2.203-0.141,2.723,0.844s0.141,2.203-0.844,2.723l-21.247,11.193
							C656.137,445.297,655.814,445.371,655.498,445.371z"/>
					</g>
				</g>
			</g>
		</g>
		<g>
			<g>
				<g>
					<g>
						<path fill="#6A655E" d="M676.357,446.051c-0.359,0-0.723-0.096-1.051-0.297l-20.477-12.553
							c-0.949-0.582-1.246-1.822-0.664-2.771c0.582-0.948,1.822-1.246,2.771-0.664l20.476,12.553
							c0.949,0.581,1.246,1.822,0.666,2.771C677.697,445.709,677.035,446.051,676.357,446.051z"/>
					</g>
				</g>
			</g>
		</g>
	</g>
	<g>
		<g>
			<g>
				<g>
					<path fill="#6A655E" d="M692.059,412.081H583.867c-1.113,0-2.014-0.902-2.014-2.015c0-1.113,0.9-2.016,2.014-2.016h108.191
						c1.113,0,2.016,0.902,2.016,2.016C694.074,411.179,693.172,412.081,692.059,412.081z"/>
				</g>
			</g>
		</g>
	</g>
	<g>
		<g>
			<g>
				<g>
					<path fill="#6A655E" d="M692.059,404.488H583.867c-1.113,0-2.014-0.902-2.014-2.015s0.9-2.015,2.014-2.015h108.191
						c1.113,0,2.016,0.902,2.016,2.015S693.172,404.488,692.059,404.488z"/>
				</g>
			</g>
		</g>
	</g>
	<g>
		<g>
			<g>
				<g>
					<path fill="#6A655E" d="M651.725,391.678h-27.049c-1.111,0-2.014-0.902-2.014-2.016s0.902-2.016,2.014-2.016h27.049
						c1.113,0,2.015,0.902,2.015,2.016S652.838,391.678,651.725,391.678z"/>
				</g>
			</g>
		</g>
	</g>
	<g>
		<g>
			<g>
				<g>
					<path fill="#6A655E" d="M683.467,396.027c-0.533,0-1.053-0.219-1.427-0.594s-0.589-0.895-0.589-1.422
						c0-0.532,0.215-1.053,0.589-1.427c0.374-0.375,0.894-0.589,1.427-0.589c0.531,0,1.053,0.214,1.423,0.589
						c0.378,0.374,0.593,0.895,0.593,1.427c0,0.527-0.215,1.047-0.593,1.422C684.514,395.809,683.998,396.027,683.467,396.027z"/>
				</g>
			</g>
		</g>
	</g>
</g>
</svg>
