<?xml version="1.0" encoding="utf-8"?>
<!-- Generator: Adobe Illustrator 15.0.0, SVG Export Plug-In . SVG Version: 6.00 Build 0)  -->
<!DOCTYPE svg PUBLIC "-//W3C//DTD SVG 1.1//EN" "http://www.w3.org/Graphics/SVG/1.1/DTD/svg11.dtd">
<svg version="1.1" id="Layer_1" xmlns="http://www.w3.org/2000/svg" xmlns:xlink="http://www.w3.org/1999/xlink" x="0px" y="0px"
	 width="1280px" height="768px" viewBox="0 0 1280 768" enable-background="new 0 0 1280 768" xml:space="preserve">
<g>
	<g>
		<g>
			<g>
				<g>
					<path fill="#6A655E" d="M667.154,420.269c-5.137,0-11.592-2.547-15.418-4.914c-0.947-0.585-1.239-1.827-0.654-2.773
						c0.586-0.946,1.828-1.239,2.774-0.653c3.462,2.143,9.144,4.311,13.298,4.311c12.166,0,22.064-9.897,22.064-22.063
						c0-3.247-0.688-6.373-2.045-9.291c-0.469-1.01-0.032-2.208,0.979-2.677c1.008-0.469,2.206-0.031,2.676,0.978
						c1.605,3.454,2.42,7.152,2.42,10.99C693.248,408.563,681.543,420.269,667.154,420.269z"/>
				</g>
			</g>
		</g>
	</g>
	<g>
		<g>
			<g>
				<g>
					<path fill="#6A655E" d="M686.509,381.854c-0.007,0-0.013,0-0.019-0.001c-0.668-0.005-1.256-0.336-1.619-0.839l-0.017-0.023
						c-0.296-0.351-0.474-0.803-0.474-1.297c0-1.113,0.902-2.016,2.016-2.016c0.537,0,1.053,0.216,1.432,0.598
						c0.461,0.466,0.695,0.992,0.695,1.562c0,0.006,0,0.012,0,0.019C688.515,380.963,687.613,381.854,686.509,381.854z"/>
				</g>
			</g>
		</g>
	</g>
	<g>
		<g>
			<g>
				<g>
					<path fill="#6A655E" d="M683.195,378.232c-0.477,0-0.957-0.168-1.341-0.512c-4.047-3.617-9.267-5.608-14.7-5.608
						c-3.838,0-7.617,1-10.929,2.893c-0.966,0.553-2.196,0.216-2.749-0.75c-0.552-0.966-0.217-2.197,0.75-2.749
						c3.921-2.24,8.391-3.424,12.928-3.424c6.427,0,12.6,2.355,17.385,6.634c0.83,0.741,0.901,2.015,0.16,2.845
						C684.301,378.006,683.75,378.232,683.195,378.232z"/>
				</g>
			</g>
		</g>
	</g>
	<g>
		<g>
			<g>
				<g>
					<path fill="#6A655E" d="M656.697,424.215c-0.16,0-0.324-0.02-0.486-0.06c-1.08-0.267-1.739-1.359-1.473-2.439
						c0.164-0.661,0.316-1.202,0.463-1.725c0.23-0.818,0.43-1.526,0.613-2.499c0.205-1.095,1.258-1.815,2.352-1.61
						s1.815,1.257,1.609,2.352c-0.216,1.151-0.448,1.977-0.694,2.851c-0.14,0.492-0.282,1.001-0.431,1.599
						C658.424,423.601,657.602,424.215,656.697,424.215z"/>
				</g>
			</g>
		</g>
	</g>
	<g>
		<g>
			<g>
				<g>
					<path fill="#6A655E" d="M655.523,429.322c-0.201,0-0.404-0.031-0.605-0.094c-1.062-0.335-1.65-1.467-1.316-2.528
						c0.007-0.021,0.012-0.039,0.018-0.055c0.021-0.133,0.053-0.272,0.096-0.42c0.314-1.067,1.434-1.68,2.502-1.364
						c1.068,0.313,1.68,1.434,1.365,2.501l-0.023,0.08c-0.023,0.147-0.061,0.305-0.113,0.47
						C657.174,428.772,656.379,429.322,655.523,429.322z M657.584,426.791c0.021,0.191,0.016,0.401-0.021,0.633
						C657.604,427.233,657.613,427.017,657.584,426.791z M653.609,426.71c-0.032,0.171-0.04,0.357-0.02,0.552
						C653.576,427.093,653.582,426.909,653.609,426.71z"/>
				</g>
			</g>
		</g>
	</g>
	<g>
		<g>
			<g>
				<g>
					<path fill="#6A655E" d="M652.572,438.156c-0.211,0-0.425-0.034-0.636-0.104c-0.591-0.196-1.029-0.639-1.239-1.175
						c-0.305-0.55-0.348-1.22-0.086-1.862c0.137-0.327,0.303-0.723,0.482-1.146c0.375-0.881,0.797-1.878,1.037-2.522
						c0.391-1.042,1.549-1.572,2.594-1.183c1.043,0.389,1.573,1.55,1.183,2.592c-0.271,0.728-0.714,1.769-1.103,2.688
						c-0.072,0.169-0.143,0.334-0.209,0.491c0.018,0.276-0.02,0.562-0.111,0.842C654.202,437.621,653.416,438.156,652.572,438.156z"
						/>
				</g>
			</g>
		</g>
	</g>
	<g>
		<g>
			<g>
				<g>
					<path fill="#6A655E" d="M660.024,451.817c-1.644,0-3.235-0.414-4.66-1.233c-3.462-1.985-5.614-5.727-5.757-10.004
						c-0.037-1.112,0.836-2.044,1.947-2.08c1.104-0.038,2.045,0.835,2.08,1.947c0.097,2.872,1.492,5.354,3.735,6.642
						c1.378,0.792,3.065,0.911,4.751,0.336c2.342-0.799,4.307-2.761,5.394-5.385c3.078-7.439,5.315-15.237,6.644-23.177
						c0.109-0.646,0.16-1.294,0.153-1.931c-0.014-1.112,0.878-2.025,1.991-2.038c0.009,0,0.016,0,0.023,0
						c1.102,0,2.001,0.887,2.014,1.991c0.012,0.877-0.059,1.767-0.207,2.646c-1.379,8.237-3.699,16.33-6.896,24.05
						c-1.528,3.694-4.376,6.485-7.815,7.658C662.287,451.625,661.143,451.817,660.024,451.817z"/>
				</g>
			</g>
		</g>
	</g>
	<g>
		<g>
			<g>
				<g>
					<path fill="#6A655E" d="M667.154,409.029c-8.189,0-14.854-6.664-14.854-14.854c0-3.952,1.535-7.671,4.32-10.473
						c0.785-0.789,2.061-0.793,2.85-0.008c0.789,0.784,0.793,2.06,0.01,2.85c-2.031,2.041-3.148,4.751-3.148,7.631
						c0,5.969,4.855,10.824,10.822,10.824c5.97,0,10.827-4.855,10.827-10.824c0-4.296-2.543-8.188-6.479-9.917
						c-1.02-0.447-1.482-1.636-1.035-2.655c0.449-1.019,1.638-1.482,2.655-1.034c5.4,2.371,8.888,7.711,8.888,13.606
						C682.01,402.365,675.346,409.029,667.154,409.029z"/>
				</g>
			</g>
		</g>
	</g>
	<g>
		<g>
			<g>
				<g>
					<path fill="#6A655E" d="M667.9,383.742c-0.098,0-0.201-0.006-0.309-0.018c-0.055-0.006-0.109-0.015-0.164-0.025
						c-1.213-0.225-1.787-1.272-1.713-2.172c0.09-1.087,0.999-1.887,2.115-1.861c0.268,0.006,0.52,0.064,0.752,0.164
						c0.916,0.318,1.498,1.259,1.332,2.24C669.794,382.78,669.162,383.742,667.9,383.742z"/>
				</g>
			</g>
		</g>
	</g>
	<g>
		<g>
			<g>
				<g>
					<path fill="#6A655E" d="M663.147,384.236c-0.804,0-1.563-0.484-1.875-1.277c-0.013-0.031-0.024-0.062-0.035-0.094
						c-0.006-0.02-0.013-0.038-0.019-0.057c-0.117-0.374-0.114-0.758-0.018-1.115c0.072-0.265,0.197-0.514,0.371-0.73
						c0.24-0.305,0.566-0.547,0.957-0.679c0.707-0.241,1.341-0.123,1.82,0.185c0.404,0.254,0.719,0.651,0.86,1.146
						c0.297,1.032-0.269,2.108-1.27,2.459c-0.019,0.007-0.036,0.015-0.056,0.022C663.643,384.191,663.393,384.236,663.147,384.236z"
						/>
				</g>
			</g>
		</g>
	</g>
	<g>
		<g>
			<g>
				<g>
					<g>
						<path fill="#6A655E" d="M596.187,386.937c-1.911,0-4.044-0.925-5.802-2.237c-0.195-0.145-0.402-0.307-0.617-0.475
							c-0.558-0.436-1.716-1.342-2.188-1.389h-0.006c-0.17,0-0.557,0.164-0.666,0.316c-0.646,0.906-1.904,1.115-2.811,0.469
							c-0.905-0.647-1.115-1.906-0.469-2.812c1.059-1.479,2.988-2.117,4.348-1.984c1.637,0.163,3.098,1.306,4.273,2.225
							c0.191,0.149,0.373,0.292,0.544,0.421c1.817,1.355,3.532,1.607,3.77,1.352c0.755-0.816,2.03-0.866,2.847-0.11
							c0.818,0.756,0.866,2.03,0.112,2.848C598.623,386.529,597.453,386.937,596.187,386.937z"/>
					</g>
				</g>
			</g>
		</g>
	</g>
	<g>
		<g>
			<g>
				<g>
					<g>
						<path fill="#6A655E" d="M596.188,396.249c-1.912,0-4.045-0.925-5.803-2.237c-0.195-0.145-0.402-0.307-0.617-0.475
							c-0.557-0.436-1.715-1.342-2.187-1.389c-0.173-0.012-0.563,0.162-0.673,0.316c-0.646,0.905-1.905,1.114-2.811,0.468
							c-0.905-0.647-1.115-1.905-0.469-2.812c1.06-1.481,2.992-2.117,4.351-1.982c1.634,0.161,3.096,1.305,4.271,2.223
							c0.191,0.15,0.373,0.293,0.544,0.421c1.817,1.355,3.532,1.609,3.77,1.353c0.755-0.816,2.032-0.867,2.847-0.11
							c0.818,0.756,0.866,2.031,0.112,2.847C598.623,395.842,597.453,396.249,596.188,396.249z"/>
					</g>
				</g>
			</g>
		</g>
	</g>
	<g>
		<g>
			<g>
				<g>
					<g>
						<path fill="#6A655E" d="M596.188,406.086c-1.912,0-4.045-0.926-5.803-2.236c-0.195-0.146-0.4-0.307-0.617-0.476
							c-0.557-0.436-1.715-1.342-2.187-1.389c-0.169-0.009-0.562,0.162-0.672,0.315c-0.647,0.906-1.905,1.115-2.812,0.469
							c-0.905-0.646-1.115-1.904-0.469-2.811c1.06-1.481,2.992-2.118,4.351-1.984c1.634,0.162,3.097,1.306,4.271,2.225
							c0.191,0.15,0.374,0.292,0.545,0.42c1.816,1.355,3.531,1.609,3.77,1.353c0.756-0.817,2.031-0.866,2.846-0.11
							c0.818,0.756,0.866,2.03,0.111,2.848C598.623,405.679,597.453,406.086,596.188,406.086z"/>
					</g>
				</g>
			</g>
		</g>
	</g>
	<g>
		<g>
			<g>
				<g>
					<path fill="#6A655E" d="M651.617,415.515c-0.181,0-0.367-0.025-0.551-0.077l-34.891-9.904l-10.492,1.75
						c-0.584,0.097-1.182-0.068-1.633-0.451c-0.453-0.383-0.713-0.945-0.713-1.537v-23.959c0-0.58,0.249-1.133,0.686-1.515
						c0.436-0.383,1.017-0.558,1.59-0.483l11.468,1.501l37.849-9.647c1.078-0.275,2.175,0.377,2.449,1.455
						c0.275,1.078-0.377,2.176-1.455,2.45l-38.223,9.743c-0.248,0.062-0.506,0.078-0.76,0.045l-9.574-1.253v19.284l8.592-1.433
						c0.295-0.049,0.596-0.032,0.882,0.05l35.325,10.027c1.071,0.304,1.693,1.418,1.389,2.488
						C653.303,414.936,652.497,415.515,651.617,415.515z"/>
				</g>
			</g>
		</g>
	</g>
	<g>
		<g>
			<g>
				<g>
					<path fill="#6A655E" d="M628.518,390.096c-0.926,0-1.761-0.644-1.967-1.586c-0.236-1.088,0.453-2.161,1.54-2.398l11.474-2.498
						l0.857,3.938l-11.473,2.498C628.805,390.081,628.66,390.096,628.518,390.096z"/>
				</g>
			</g>
		</g>
	</g>
	<g>
		<g>
			<g>
				<g>
					<path fill="#6A655E" d="M623.979,391.428c-0.528,0-1.048-0.218-1.423-0.593s-0.594-0.891-0.594-1.423
						c0-0.531,0.219-1.052,0.594-1.426c0.375-0.375,0.895-0.589,1.423-0.589c0.531,0,1.052,0.214,1.426,0.589
						c0.376,0.374,0.588,0.895,0.588,1.426c0,0.532-0.212,1.048-0.588,1.423C625.031,391.21,624.511,391.428,623.979,391.428z"/>
				</g>
			</g>
		</g>
	</g>
</g>
</svg>
