<?xml version="1.0" encoding="utf-8"?>
<!-- Generator: Adobe Illustrator 15.0.0, SVG Export Plug-In . SVG Version: 6.00 Build 0)  -->
<!DOCTYPE svg PUBLIC "-//W3C//DTD SVG 1.1//EN" "http://www.w3.org/Graphics/SVG/1.1/DTD/svg11.dtd">
<svg version="1.1" id="Layer_1" xmlns="http://www.w3.org/2000/svg" xmlns:xlink="http://www.w3.org/1999/xlink" x="0px" y="0px"
	 width="1280px" height="768px" viewBox="0 0 1280 768" enable-background="new 0 0 1280 768" xml:space="preserve">
<g>
	<g>
		<g>
			<g>
				<g>
					<path fill="#6A655E" d="M676.979,450.078h-77.912c-5.766,0-10.457-4.691-10.457-10.457V393.94
						c0-5.766,4.691-10.456,10.457-10.456h77.912c5.765,0,10.455,4.69,10.455,10.456v45.681
						C687.434,445.387,682.743,450.078,676.979,450.078z M599.066,387.514c-3.543,0-6.427,2.883-6.427,6.427v45.681
						c0,3.544,2.884,6.428,6.427,6.428h77.912c3.544,0,6.426-2.884,6.426-6.428V393.94c0-3.544-2.882-6.427-6.426-6.427H599.066z"/>
				</g>
			</g>
		</g>
	</g>
	<g>
		<g>
			<g>
				<g>
					<path fill="#6A655E" d="M619.537,387.04c-1.113,0-2.015-0.902-2.015-2.015v-3.651c0-5.793,4.886-10.688,10.667-10.688h19.84
						c5.688,0,10.493,4.895,10.493,10.688v3.177c0,1.113-0.903,2.016-2.016,2.016c-1.111,0-2.015-0.902-2.015-2.016v-3.177
						c0-3.608-2.961-6.657-6.463-6.657h-19.84c-3.535,0-6.637,3.11-6.637,6.657v3.651C621.553,386.138,620.65,387.04,619.537,387.04
						z"/>
				</g>
			</g>
		</g>
	</g>
	<g>
		<g>
			<g>
				<g>
					<path fill="#6A655E" d="M611.48,450.078H602c-1.113,0-2.015-0.902-2.015-2.016v-55.928c0-1.113,0.901-2.016,2.015-2.016
						s2.016,0.902,2.016,2.016v53.914h5.449v-53.914c0-1.113,0.902-2.016,2.016-2.016c1.111,0,2.014,0.902,2.014,2.016v55.928
						C613.494,449.176,612.592,450.078,611.48,450.078z"/>
				</g>
			</g>
		</g>
	</g>
	<g>
		<g>
			<g>
				<g>
					<path fill="#6A655E" d="M677.361,450.078h-9.953c-1.113,0-2.016-0.902-2.016-2.016v-55.928c0-1.113,0.902-2.016,2.016-2.016
						s2.015,0.902,2.015,2.016v53.914h5.925v-53.914c0-1.113,0.9-2.016,2.014-2.016s2.016,0.902,2.016,2.016v55.928
						C679.377,449.176,678.475,450.078,677.361,450.078z"/>
				</g>
			</g>
		</g>
	</g>
	<g>
		<g>
			<g>
				<g>
					<path fill="#6A655E" d="M623.465,437.346c-0.263,0-0.525-0.051-0.776-0.156c-0.707-0.295-1.187-0.967-1.235-1.732l-0.264-4.213
						l-3.621-2.171c-0.658-0.395-1.035-1.128-0.973-1.892c0.062-0.765,0.553-1.428,1.268-1.711l3.924-1.553l0.945-4.115
						c0.172-0.748,0.753-1.332,1.5-1.51c0.747-0.177,1.527,0.086,2.018,0.677l2.689,3.253l4.206-0.373
						c0.765-0.068,1.5,0.305,1.898,0.96c0.399,0.655,0.393,1.479-0.02,2.128l-2.263,3.564l1.654,3.883
						c0.301,0.707,0.174,1.521-0.326,2.104s-1.287,0.83-2.028,0.639l-4.09-1.051l-3.183,2.773
						C624.416,437.175,623.942,437.346,623.465,437.346z M623.141,427.715l1.029,0.617c0.568,0.341,0.934,0.939,0.976,1.602
						l0.073,1.195l0.904-0.787c0.5-0.436,1.184-0.596,1.825-0.432l1.159,0.297l-0.469-1.102c-0.26-0.61-0.202-1.309,0.152-1.869
						l0.643-1.012l-1.193,0.105c-0.664,0.059-1.309-0.211-1.73-0.723l-0.764-0.924l-0.268,1.169
						c-0.148,0.646-0.605,1.178-1.223,1.423L623.141,427.715z"/>
				</g>
			</g>
		</g>
	</g>
	<g>
		<g>
			<g>
				<g>
					<path fill="#6A655E" d="M655.287,442.145c-0.107,0-0.215-0.008-0.324-0.025l-13.33-2.176c-1.098-0.18-1.843-1.215-1.664-2.314
						l3.877-23.744c0.179-1.098,1.216-1.844,2.312-1.664l13.33,2.176c0.527,0.086,1,0.379,1.311,0.812
						c0.312,0.434,0.439,0.974,0.354,1.501l-3.876,23.745c-0.086,0.527-0.378,0.998-0.812,1.311
						C656.119,442.014,655.707,442.145,655.287,442.145z M644.272,436.291l9.352,1.525l3.226-19.767l-9.352-1.526L644.272,436.291z"
						/>
				</g>
			</g>
		</g>
	</g>
	<g>
		<g>
			<g>
				<g>
					<g>
						<path fill="#6A655E" d="M631.568,415.619c-0.529,0-1.037-0.208-1.414-0.578l-10.164-9.99c-0.311-0.303-0.512-0.698-0.58-1.127
							l-0.809-5.205c-0.105-0.685,0.146-1.376,0.67-1.83l4.045-3.518c0.404-0.352,0.91-0.514,1.406-0.492
							c0.118-0.006,0.24,0,0.363,0.016l5.17,0.703c0.428,0.059,0.825,0.252,1.133,0.553l9.848,9.566
							c0.385,0.373,0.604,0.885,0.611,1.42c0.007,0.536-0.199,1.053-0.575,1.436l-8.266,8.441c-0.374,0.382-0.886,0.6-1.421,0.605
							C631.581,415.619,631.574,415.619,631.568,415.619z M623.29,402.645l8.25,8.107l5.439-5.555l-7.923-7.695l-3.762-0.512
							l-2.54,2.209L623.29,402.645z"/>
					</g>
				</g>
			</g>
		</g>
		<g>
			<g>
				<g>
					<g>
						<path fill="#6A655E" d="M626.187,401.966c-0.651,0-1.414-0.308-1.868-1.205c-0.504-0.993-0.104-2.206,0.888-2.708
							c0.026-0.014,0.053-0.025,0.08-0.038c0.049-0.026,0.099-0.049,0.147-0.069c0.589-0.25,1.489-0.273,2.246,0.413
							c0.826,0.747,0.887,2.021,0.141,2.847c-0.129,0.141-0.271,0.259-0.425,0.355c-0.239,0.179-0.509,0.299-0.776,0.358
							C626.484,401.949,626.338,401.966,626.187,401.966z M627.914,398.941l-1.799,0.91L627.914,398.941L627.914,398.941
							L627.914,398.941z"/>
					</g>
				</g>
			</g>
		</g>
	</g>
	<g>
		<g>
			<g>
				<g>
					<path fill="#6A655E" d="M675.939,381.826h-9.953c-1.113,0-2.016-0.902-2.016-2.016c0-1.112,0.902-2.015,2.016-2.015h9.953
						c1.113,0,2.016,0.902,2.016,2.015C677.955,380.924,677.053,381.826,675.939,381.826z"/>
				</g>
			</g>
		</g>
	</g>
	<g>
		<g>
			<g>
				<g>
					<path fill="#6A655E" d="M611.48,381.826h-9.954c-1.112,0-2.015-0.902-2.015-2.016c0-1.112,0.902-2.015,2.015-2.015h9.954
						c1.111,0,2.014,0.902,2.014,2.015C613.494,380.924,612.592,381.826,611.48,381.826z"/>
				</g>
			</g>
		</g>
	</g>
</g>
</svg>
