<?xml version="1.0" encoding="utf-8"?>
<!-- Generator: Adobe Illustrator 15.0.0, SVG Export Plug-In . SVG Version: 6.00 Build 0)  -->
<!DOCTYPE svg PUBLIC "-//W3C//DTD SVG 1.1//EN" "http://www.w3.org/Graphics/SVG/1.1/DTD/svg11.dtd">
<svg version="1.1" id="Layer_1" xmlns="http://www.w3.org/2000/svg" xmlns:xlink="http://www.w3.org/1999/xlink" x="0px" y="0px"
	 width="1280px" height="768px" viewBox="0 0 1280 768" enable-background="new 0 0 1280 768" xml:space="preserve">
<g>
	<g>
		<g>
			<g>
				<g>
					<g>
						<path fill="#6A655E" d="M686.941,422.712h-55.613c-1.111,0-2.014-0.901-2.014-2.015s0.902-2.016,2.014-2.016h55.613
							c1.113,0,2.015,0.902,2.015,2.016S688.055,422.712,686.941,422.712z"/>
					</g>
				</g>
			</g>
		</g>
		<g>
			<g>
				<g>
					<g>
						<g>
							<path fill="#6A655E" d="M674.425,459.258h-5.645c-1.114,0-2.017-0.902-2.017-2.016c0-1.112,0.902-2.015,2.017-2.015h5.056
								c0.965-0.657,3.598-2.698,6.105-6.804c2.923-4.783,6.269-13.42,5.613-27.412c-0.053-1.111,0.807-2.055,1.918-2.107
								c1.118-0.053,2.055,0.808,2.108,1.919c1.316,28.111-12.313,37.079-14.043,38.1c-0.318,0.211-0.7,0.334-1.11,0.335
								C674.427,459.258,674.426,459.258,674.425,459.258z"/>
						</g>
					</g>
				</g>
			</g>
			<g>
				<g>
					<g>
						<g>
							<path fill="#6A655E" d="M644.451,459.258c-0.312,0-0.629-0.072-0.925-0.225c-0.509-0.264-12.474-6.795-14.327-37.45
								c-0.066-1.11,0.78-2.065,1.891-2.133c1.107-0.064,2.064,0.778,2.133,1.89c1.689,27.941,12.052,34.06,12.156,34.113
								c0.988,0.512,1.375,1.727,0.863,2.716C645.885,458.861,645.18,459.258,644.451,459.258z"/>
						</g>
					</g>
				</g>
			</g>
		</g>
		<g>
			<g>
				<g>
					<g>
						<g>
							<path fill="#6A655E" d="M649.564,416.444c-0.824,0-1.623-0.269-2.324-0.796c-1.202-0.9-2.003-2.549-1.947-4.006
								c0.063-1.637,1.109-3.156,1.95-4.378c0.138-0.2,0.269-0.391,0.386-0.568c1.079-1.646,1.395-3.306,1.146-3.772
								c-0.043-0.081-0.343-0.213-0.961-0.219c-1.114-0.012-2.007-0.923-1.995-2.035c0.01-1.106,0.911-1.995,2.014-1.995
								c0.007,0,0.014,0,0.02,0c2.819,0.027,4.018,1.485,4.479,2.353c1.27,2.379,0.145,5.63-1.332,7.879
								c-0.131,0.202-0.279,0.418-0.435,0.644c-0.398,0.577-1.226,1.778-1.243,2.246c0.007,0.16,0.164,0.47,0.297,0.597
								c1.037-0.305,2.145,0.26,2.489,1.293c0.351,1.056-0.21,2.194-1.267,2.547C650.414,416.374,649.985,416.444,649.564,416.444z"
								/>
						</g>
					</g>
				</g>
			</g>
			<g>
				<g>
					<g>
						<g>
							<path fill="#6A655E" d="M659.787,416.444c-0.824,0-1.621-0.269-2.324-0.796c-1.201-0.901-2.002-2.549-1.947-4.007
								c0.062-1.635,1.109-3.155,1.949-4.376c0.14-0.2,0.27-0.391,0.387-0.569c1.08-1.646,1.395-3.306,1.146-3.771
								c-0.044-0.082-0.344-0.214-0.963-0.22c-1.113-0.012-2.006-0.923-1.994-2.035c0.01-1.106,0.91-1.995,2.014-1.995
								c0.008,0,0.014,0,0.021,0c2.819,0.027,4.016,1.485,4.478,2.353c1.27,2.379,0.145,5.63-1.33,7.879
								c-0.133,0.202-0.281,0.418-0.438,0.645c-0.397,0.577-1.224,1.778-1.242,2.245c0.008,0.16,0.164,0.471,0.297,0.597
								c1.035-0.306,2.145,0.26,2.488,1.293c0.354,1.056-0.209,2.194-1.265,2.547C660.637,416.374,660.208,416.444,659.787,416.444z
								"/>
						</g>
					</g>
				</g>
			</g>
			<g>
				<g>
					<g>
						<g>
							<path fill="#6A655E" d="M670.01,416.444c-0.823,0-1.621-0.269-2.323-0.796c-1.202-0.9-2.003-2.549-1.948-4.006
								c0.062-1.636,1.109-3.155,1.95-4.376c0.137-0.2,0.269-0.392,0.386-0.57c1.08-1.646,1.395-3.306,1.146-3.772
								c-0.044-0.082-0.344-0.213-0.962-0.219c-1.111-0.012-2.005-0.923-1.995-2.035c0.012-1.106,0.911-1.995,2.016-1.995
								c0.006,0,0.013,0,0.02,0c2.818,0.027,4.016,1.485,4.477,2.353c1.27,2.378,0.145,5.629-1.33,7.879
								c-0.132,0.202-0.281,0.419-0.438,0.646c-0.397,0.577-1.224,1.777-1.241,2.244c0.008,0.159,0.165,0.47,0.298,0.596
								c1.036-0.305,2.144,0.261,2.487,1.294c0.354,1.055-0.209,2.194-1.266,2.547C670.859,416.374,670.432,416.444,670.01,416.444z
								"/>
						</g>
					</g>
				</g>
			</g>
		</g>
		<g>
			<g>
				<g>
					<g>
						<path fill="#6A655E" d="M684.049,451.936c-0.887,0-1.779-0.068-2.653-0.204c-1.101-0.171-1.854-1.2-1.683-2.3
							c0.17-1.1,1.201-1.852,2.299-1.684c0.67,0.104,1.355,0.157,2.037,0.157c6.477,0,11.744-4.693,11.744-10.463
							c0-4.323-2.918-8.145-7.434-9.736c-1.05-0.37-1.601-1.521-1.23-2.57c0.369-1.05,1.521-1.601,2.57-1.23
							c6.056,2.134,10.125,7.573,10.125,13.537C699.824,445.434,692.748,451.936,684.049,451.936z"/>
					</g>
				</g>
			</g>
		</g>
		<g>
			<g>
				<g>
					<g>
						<path fill="#6A655E" d="M688.928,459.258h-20.955c-1.112,0-2.015-0.902-2.015-2.016c0-1.112,0.902-2.015,2.015-2.015h20.955
							c1.112,0,2.015,0.902,2.015,2.015C690.942,458.355,690.04,459.258,688.928,459.258z"/>
					</g>
				</g>
			</g>
		</g>
		<g>
			<g>
				<g>
					<g>
						<path fill="#6A655E" d="M663.471,459.258h-5.092c-1.113,0-2.015-0.902-2.015-2.016c0-1.112,0.901-2.015,2.015-2.015h5.092
							c1.113,0,2.016,0.902,2.016,2.015C665.486,458.355,664.584,459.258,663.471,459.258z"/>
					</g>
				</g>
			</g>
		</g>
		<g>
			<g>
				<g>
					<g>
						<path fill="#6A655E" d="M652.654,459.258h-0.132c-1.113,0-2.016-0.902-2.016-2.016c0-1.112,0.902-2.015,2.016-2.015h0.132
							c1.113,0,2.016,0.902,2.016,2.015C654.67,458.355,653.768,459.258,652.654,459.258z"/>
					</g>
				</g>
			</g>
		</g>
		<g>
			<g>
				<g>
					<g>
						<path fill="#6A655E" d="M647.449,459.258h-18.9c-1.112,0-2.016-0.902-2.016-2.016c0-1.112,0.903-2.015,2.016-2.015h18.9
							c1.114,0,2.016,0.902,2.016,2.015C649.465,458.355,648.563,459.258,647.449,459.258z"/>
					</g>
				</g>
			</g>
		</g>
		<g>
			<g>
				<g>
					<g>
						<path fill="#6A655E" d="M679.49,467.057h-40.314c-5.506,0-10.439-3.613-12.566-9.205c-0.396-1.04,0.125-2.204,1.166-2.6
							c1.039-0.396,2.204,0.126,2.6,1.166c1.527,4.015,4.982,6.608,8.801,6.608h40.314c3.787,0,7.227-2.54,8.764-6.473
							c0.404-1.036,1.572-1.548,2.61-1.144c1.036,0.405,1.548,1.574,1.143,2.61C689.864,463.51,684.949,467.057,679.49,467.057z"/>
					</g>
				</g>
			</g>
		</g>
	</g>
	<g>
		<g>
			<g>
				<g>
					<g>
						<path fill="#6A655E" d="M624.004,459.433c-0.674,0-1.328-0.341-1.705-0.943l-20.133-32.036
							c-0.437-0.697-0.407-1.591,0.077-2.257l7.999-10.997c0.45-0.619,1.211-0.932,1.965-0.802
							c0.224,0.037,22.275,3.759,31.293,4.973c1.104,0.148,1.877,1.163,1.729,2.267c-0.148,1.103-1.165,1.876-2.267,1.728
							c-7.842-1.056-25.395-3.981-30.195-4.786l-6.463,8.887l18.449,29.357c2.283-1.176,6.775-3.776,11.021-7.908
							c0.799-0.776,2.074-0.759,2.85,0.039c0.775,0.797,0.76,2.073-0.039,2.85c-6.574,6.396-13.51,9.35-13.801,9.473
							C624.531,459.382,624.266,459.433,624.004,459.433z"/>
					</g>
				</g>
			</g>
		</g>
		<g>
			<g>
				<g>
					<g>
						<path fill="#6A655E" d="M644.437,420.065c-0.073,0-0.147-0.004-0.223-0.013c-1.107-0.121-1.905-1.116-1.783-2.223
							c1.78-16.208-8.081-24.922-11.473-27.408l-17.686,14.18l2.268,5.627c0.417,1.033-0.083,2.207-1.115,2.623
							c-1.03,0.414-2.206-0.084-2.622-1.115l-2.829-7.016c-0.333-0.825-0.085-1.771,0.608-2.326l20.011-16.043
							c0.648-0.52,1.55-0.588,2.269-0.172c0.695,0.401,16.993,10.091,14.575,32.091
							C646.322,419.302,645.449,420.065,644.437,420.065z"/>
					</g>
				</g>
			</g>
		</g>
		<g>
			<g>
				<g>
					<g>
						<path fill="#6A655E" d="M604.785,461.562c-11.865,0-20.138-6.552-20.599-6.926c-0.677-0.548-0.925-1.467-0.616-2.281
							l9.098-23.979c0.316-0.831,1.139-1.364,2.025-1.296l7.547,0.531c1.111,0.078,1.948,1.041,1.869,2.151
							c-0.078,1.11-1.045,1.948-2.152,1.868l-6.052-0.426l-8.021,21.137c3.601,2.408,15.041,8.705,28.852,2.59
							c1.018-0.45,2.207,0.009,2.659,1.026c0.448,1.018-0.011,2.208-1.028,2.658C613.522,460.762,608.934,461.562,604.785,461.562z"
							/>
					</g>
				</g>
			</g>
		</g>
		<g>
			<g>
				<g>
					<g>
						<path fill="#6A655E" d="M612.59,402.789c-0.672,0-1.328-0.336-1.711-0.947c-1.086-1.736-1.828-2.872-2.975-3.997
							c-0.647-0.637-1.742-1.162-2.9-1.718c-2.299-1.102-5.158-2.473-5.939-5.685c-1.014-4.167,2.969-7.819,6.122-9.082
							c7.389-2.961,18.712,0.063,23.756,6.346c0.696,0.868,0.558,2.136-0.31,2.833s-2.135,0.558-2.832-0.31
							c-3.922-4.884-13.389-7.425-19.115-5.128c-1.971,0.789-4.062,2.922-3.704,4.389c0.308,1.265,1.627,1.978,3.765,3.003
							c1.404,0.674,2.858,1.37,3.983,2.477c1.569,1.54,2.585,3.165,3.565,4.735c0.592,0.943,0.305,2.187-0.639,2.776
							C613.323,402.689,612.954,402.789,612.59,402.789z"/>
					</g>
				</g>
			</g>
		</g>
		<g>
			<g>
				<g>
					<g>
						<path fill="#6A655E" d="M586.081,451.843c-0.239,0-0.481-0.042-0.716-0.132c-7.531-2.865-13.896-12.705-13.357-20.646
							c0.233-3.389,2.482-8.303,6.756-8.623c3.295-0.251,5.484,2.054,7.239,3.9c0.886,0.932,1.722,1.812,2.526,2.231
							c1.521,0.793,3.002,1.166,4.719,1.597c1.08,0.271,1.736,1.366,1.465,2.445s-1.367,1.735-2.445,1.464
							c-1.801-0.452-3.661-0.92-5.603-1.934c-1.399-0.73-2.509-1.897-3.583-3.026c-1.633-1.719-2.719-2.764-4.018-2.658
							c-1.503,0.112-2.891,2.761-3.035,4.878c-0.418,6.152,4.916,14.378,10.769,16.604c1.04,0.396,1.562,1.56,1.167,2.6
							C587.658,451.348,586.893,451.843,586.081,451.843z"/>
					</g>
				</g>
			</g>
		</g>
		<g>
			<g>
				<g>
					<g>
						<path fill="#6A655E" d="M625.914,448.609c-0.324,0-0.642-0.072-0.932-0.213c-0.52-0.144-0.98-0.494-1.25-1.009
							c-0.518-0.985-0.137-2.203,0.85-2.72c0.66-0.346,1.381-0.353,1.986-0.062c0.498,0.134,0.946,0.457,1.223,0.939
							c0.557,0.964,0.225,2.196-0.739,2.752C626.688,448.509,626.295,448.609,625.914,448.609z"/>
					</g>
				</g>
			</g>
		</g>
		<g>
			<g>
				<g>
					<g>
						<path fill="#6A655E" d="M623.889,440.758c-0.322,0-0.65-0.077-0.953-0.241c-0.98-0.528-1.348-1.75-0.818-2.729
							c0.022-0.044,0.035-0.072,0.041-0.089c0.398-0.959,1.191-1.208,1.514-1.271c0.293-0.059,1.006-0.118,1.666,0.418
							c0.934,0.455,1.375,1.559,0.989,2.543c-0.308,0.786-1.055,1.271-1.851,1.281C624.287,440.729,624.09,440.758,623.889,440.758z
							"/>
					</g>
				</g>
			</g>
		</g>
		<g>
			<g>
				<g>
					<g>
						<path fill="#6A655E" d="M632.336,440.886c-0.141,0-0.285-0.013-0.434-0.037c-1.098-0.183-1.839-1.22-1.656-2.318
							c0.149-0.896,0.869-1.556,1.725-1.668c0.364-0.12,0.743-0.144,1.148-0.079c1.1,0.181,1.842,1.217,1.662,2.315
							c-0.146,0.897-0.865,1.559-1.724,1.672C632.824,440.848,632.586,440.886,632.336,440.886z"/>
					</g>
				</g>
			</g>
		</g>
	</g>
	<g>
		<g>
			<g>
				<g>
					<g>
						<path fill="#6A655E" d="M701.339,357.584h-30.462c-1.113,0-2.016-0.902-2.016-2.016c0-1.112,0.902-2.015,2.016-2.015h30.462
							c1.112,0,2.016,0.902,2.016,2.015C703.354,356.682,702.451,357.584,701.339,357.584z"/>
					</g>
				</g>
			</g>
		</g>
		<g>
			<g>
				<g>
					<g>
						<path fill="#6A655E" d="M675.757,369.433c-1.501,0-3.438-0.596-5.241-2.611c-2.607-2.913-1.771-7.603-1.668-8.128
							c0.217-1.091,1.275-1.802,2.367-1.586c1.09,0.216,1.801,1.272,1.588,2.362c-0.157,0.829-0.363,3.458,0.717,4.665
							c1.39,1.554,2.463,1.256,2.58,1.217c-0.049,0.017-0.075,0.031-0.075,0.031l1.616,3.691
							C677.18,369.276,676.525,369.433,675.757,369.433z"/>
					</g>
				</g>
			</g>
		</g>
		<g>
			<g>
				<g>
					<g>
						<path fill="#6A655E" d="M696.485,369.432c-0.756,0.001-1.401-0.153-1.856-0.353l1.614-3.692c0,0-0.026-0.015-0.077-0.031
							c0.113,0.036,1.137,0.316,2.476-1.178c1.075-1.203,0.815-3.892,0.688-4.546c-0.215-1.093,0.496-2.151,1.589-2.365
							c1.093-0.215,2.151,0.498,2.366,1.59c0.102,0.519,0.918,5.146-1.64,8.009C699.871,368.846,697.963,369.432,696.485,369.432z"
							/>
					</g>
				</g>
			</g>
		</g>
		<g>
			<g>
				<g>
					<g>
						<path fill="#6A655E" d="M663.188,397.891c-0.141,0-0.281-0.016-0.422-0.045c-1.089-0.232-1.783-1.303-1.551-2.391
							c0.936-4.399,3.219-8.7,5.426-12.859c2.441-4.599,4.746-8.941,4.83-12.658c0.025-1.112,0.948-1.999,2.061-1.97
							c1.111,0.025,1.993,0.947,1.969,2.06c-0.104,4.672-2.629,9.425-5.299,14.457c-2.078,3.915-4.227,7.963-5.045,11.81
							C664.953,397.241,664.117,397.891,663.188,397.891z"/>
					</g>
				</g>
			</g>
		</g>
		<g>
			<g>
				<g>
					<g>
						<path fill="#6A655E" d="M689.432,466.634c-1.075,0-1.969-0.849-2.013-1.932c-0.046-1.112,0.817-2.051,1.929-2.097
							c0.049-0.002,4.791-0.198,9.588-0.307c2.974-0.066,5.896-1.201,7.443-2.891c0.928-1.012,1.336-2.168,1.246-3.531
							c-0.098-1.481-0.015-21.098-0.004-23.328c0.004-1.11,0.906-2.007,2.014-2.007c0.004,0,0.006,0,0.011,0
							c1.111,0.005,2.011,0.911,2.005,2.023c-0.037,8.709-0.069,22.033-0.003,23.049c0.159,2.448-0.634,4.702-2.296,6.516
							c-2.736,2.986-7.128,4.126-10.327,4.198c-4.759,0.107-9.461,0.302-9.509,0.304
							C689.488,466.633,689.459,466.634,689.432,466.634z"/>
					</g>
				</g>
			</g>
		</g>
		<g>
			<g>
				<g>
					<g>
						<path fill="#6A655E" d="M709.801,428.663c-1.112,0-2.016-0.902-2.016-2.016v-11.423c0-1.113,0.903-2.016,2.016-2.016
							c1.113,0,2.016,0.902,2.016,2.016v11.423C711.816,427.761,710.914,428.663,709.801,428.663z"/>
					</g>
				</g>
			</g>
		</g>
		<g>
			<g>
				<g>
					<g>
						<path fill="#6A655E" d="M709.801,410.894c-1.112,0-2.016-0.902-2.016-2.016v-0.423c0-1.113,0.903-2.015,2.016-2.015
							c1.113,0,2.016,0.901,2.016,2.015v0.423C711.816,409.991,710.914,410.894,709.801,410.894z"/>
					</g>
				</g>
			</g>
		</g>
		<g>
			<g>
				<g>
					<g>
						<path fill="#6A655E" d="M709.801,405.816c-1.112,0-2.016-0.902-2.016-2.016v-4.392c0-4.763-2.733-9.944-5.377-14.954
							c-2.66-5.042-5.172-9.804-5.277-14.472c-0.024-1.112,0.857-2.034,1.969-2.06c1.133-0.023,2.035,0.857,2.061,1.969
							c0.084,3.719,2.38,8.072,4.812,12.682c2.873,5.444,5.844,11.074,5.844,16.835v4.392
							C711.816,404.914,710.914,405.816,709.801,405.816z"/>
					</g>
				</g>
			</g>
		</g>
		<g>
			<g>
				<g>
					<g>
						<path fill="#6A655E" d="M683.147,369.43h-5.925c-1.113,0-2.016-0.901-2.016-2.015c0-1.112,0.902-2.015,2.016-2.015h5.925
							c1.111,0,2.015,0.902,2.015,2.015C685.162,368.528,684.259,369.43,683.147,369.43z"/>
					</g>
				</g>
			</g>
		</g>
	</g>
</g>
</svg>
