<?xml version="1.0" encoding="utf-8"?>
<!-- Generator: Adobe Illustrator 15.0.0, SVG Export Plug-In . SVG Version: 6.00 Build 0)  -->
<!DOCTYPE svg PUBLIC "-//W3C//DTD SVG 1.1//EN" "http://www.w3.org/Graphics/SVG/1.1/DTD/svg11.dtd">
<svg version="1.1" id="Layer_1" xmlns="http://www.w3.org/2000/svg" xmlns:xlink="http://www.w3.org/1999/xlink" x="0px" y="0px"
	 width="1280px" height="768px" viewBox="0 0 1280 768" enable-background="new 0 0 1280 768" xml:space="preserve">
<g>
	<g>
		<g>
			<g>
				<g>
					<g>
						<g>
							<path fill="#6A655E" d="M639.471,462.52h-44.779c-3.146,0-5.707-2.561-5.707-5.706v-93.535c0-3.146,2.561-5.706,5.707-5.706
								h44.779c3.146,0,5.706,2.56,5.706,5.706v93.535C645.177,459.959,642.617,462.52,639.471,462.52z M594.691,361.603
								c-0.926,0-1.678,0.752-1.678,1.676v93.535c0,0.924,0.752,1.676,1.678,1.676h44.779c0.926,0,1.677-0.752,1.677-1.676v-93.535
								c0-0.924-0.751-1.676-1.677-1.676H594.691z"/>
						</g>
					</g>
				</g>
			</g>
			<g>
				<g>
					<g>
						<g>
							<rect x="589.325" y="377.347" fill="#6A655E" width="55.852" height="4.03"/>
						</g>
					</g>
				</g>
			</g>
			<g>
				<g>
					<g>
						<g>
							<rect x="606.031" y="367.119" fill="#6A655E" width="22.439" height="4.029"/>
						</g>
					</g>
				</g>
			</g>
			<g>
				<g>
					<g>
						<g>
							<path fill="#6A655E" d="M643.162,443.896H609.34c-1.113,0-2.016-0.902-2.016-2.016s0.902-2.015,2.016-2.015h33.822
								c1.113,0,2.015,0.901,2.015,2.015S644.275,443.896,643.162,443.896z"/>
						</g>
					</g>
				</g>
			</g>
			<g>
				<g>
					<g>
						<g>
							<path fill="#6A655E" d="M604.096,443.896h-0.135c-1.113,0-2.016-0.902-2.016-2.016s0.902-2.015,2.016-2.015h0.135
								c1.113,0,2.016,0.901,2.016,2.015S605.209,443.896,604.096,443.896z"/>
						</g>
					</g>
				</g>
			</g>
			<g>
				<g>
					<g>
						<g>
							<path fill="#6A655E" d="M598.596,443.896h-7.256c-1.113,0-2.015-0.902-2.015-2.016s0.901-2.015,2.015-2.015h7.256
								c1.112,0,2.015,0.901,2.015,2.015S599.708,443.896,598.596,443.896z"/>
						</g>
					</g>
				</g>
			</g>
		</g>
		<g>
			<g>
				<g>
					<g>
						<rect x="608.779" y="448.65" fill="#6A655E" width="14.105" height="4.029"/>
					</g>
				</g>
			</g>
		</g>
		<g>
			<g>
				<g>
					<g>
						<path fill="#6A655E" d="M608.688,433.854c-2.22,0-3.927-1.738-4.06-4.135c-0.002-0.034-0.003-0.069-0.003-0.104l-0.104-33.541
							c-0.021-1.146,0.409-2.241,1.21-3.057c0.76-0.775,1.77-1.205,2.843-1.208l17.388-0.054c2.383,0,4.293,1.834,4.375,4.176
							c0,0.021,0.002,0.043,0.002,0.064l0.104,33.541c0.004,1.027-0.396,2.075-1.098,2.873c-0.773,0.881-1.852,1.389-2.957,1.392
							l-17.688,0.053C608.699,433.854,608.689,433.854,608.688,433.854z M608.688,429.826v2.014V429.826L608.688,429.826z
							 M608.656,429.538c0.012,0.146,0.045,0.239,0.069,0.286l17.573-0.053c0.056-0.053,0.115-0.162,0.115-0.222l-0.105-33.495
							c-0.007-0.08-0.053-0.269-0.32-0.269l-17.395,0.054c0.008,0.006-0.045,0.06-0.043,0.195L608.656,429.538z"/>
					</g>
				</g>
			</g>
		</g>
		<g>
			<g>
				<g>
					<g>
						<path fill="#6A655E" d="M613.205,394.912c-1.109,0-2.012-0.898-2.016-2.01l-0.01-3.636c-0.004-1.393,1.105-2.529,2.471-2.533
							l7.637-0.023c0.003,0,0.006,0,0.008,0c0.688,0,1.35,0.294,1.816,0.806c0.426,0.468,0.661,1.076,0.662,1.714l0.012,3.635
							c0.004,1.113-0.896,2.018-2.009,2.021c-0.002,0-0.004,0-0.007,0c-1.109,0-2.012-0.898-2.014-2.009l-0.008-2.133l-4.535,0.015
							l0.008,2.132c0.002,1.112-0.897,2.018-2.01,2.021C613.209,394.912,613.207,394.912,613.205,394.912z"/>
					</g>
				</g>
			</g>
		</g>
		<g>
			<g>
				<g>
					<g>
						<rect x="610.793" y="423.261" fill="#6A655E" width="13.703" height="4.03"/>
					</g>
				</g>
			</g>
		</g>
		<g>
			<g>
				<g>
					<g>
						<path fill="#6A655E" d="M658.695,451.874h-17.273v-4.03h17.273c2.215,0,4.086-1.805,4.086-3.94v-54.897h4.03v54.897
							C666.812,448.299,663.17,451.874,658.695,451.874z"/>
					</g>
				</g>
			</g>
		</g>
		<g>
			<g>
				<g>
					<g>
						<path fill="#6A655E" d="M666.812,414.395h-4.03v-34.779c0-4.451,3.459-7.938,7.875-7.938h7.102
							c4.408,0,7.994,3.562,7.994,7.938v27.525h-4.029v-27.525c0-2.191-1.741-3.908-3.965-3.908h-7.102
							c-2.156,0-3.845,1.717-3.845,3.908V414.395z"/>
					</g>
				</g>
			</g>
		</g>
	</g>
	<g>
		<g>
			<g>
				<g>
					<path fill="#6A655E" d="M692.176,421.25c-0.807,0-1.742-0.377-1.986-2.02h-0.003v-0.033c-0.017-0.11-0.029-0.227-0.038-0.348
						c-0.02-0.251-0.04-0.53-0.053-0.672c-0.018-0.132-0.025-0.269-0.018-0.406c0.01-0.191,0.047-0.376,0.108-0.55v-4.842
						c0-2.361-2.944-4.433-6.3-4.433h-0.506c-3.303,0-6.092,2.029-6.092,4.433v5.239c0,0.131,0.008,0.263,0.024,0.391
						c0.138,1.104-0.646,2.111-1.749,2.249c-1.106,0.136-2.113-0.646-2.25-1.749c-0.037-0.293-0.056-0.593-0.056-0.891v-5.239
						c0-4.667,4.542-8.463,10.122-8.463h0.506c5.695,0,10.328,3.796,10.328,8.463v6.851c0,1.084-0.857,1.977-1.94,2.018
						C692.242,421.249,692.209,421.25,692.176,421.25z"/>
				</g>
			</g>
		</g>
	</g>
	<g>
		<g>
			<g>
				<g>
					<path fill="#6A655E" d="M692.199,421.648h-16.926c-1.111,0-2.015-0.901-2.015-2.015c0-1.112,0.903-2.015,2.015-2.015h16.926
						c1.114,0,2.016,0.902,2.016,2.015C694.215,420.747,693.313,421.648,692.199,421.648z"/>
				</g>
			</g>
		</g>
	</g>
	<g>
		<g>
			<g>
				<g>
					<g>
						<path fill="#6A655E" d="M679.707,427.291c-1.113,0-2.016-0.902-2.016-2.015v-4.837c0-1.112,0.902-2.015,2.016-2.015
							s2.016,0.902,2.016,2.015v4.837C681.723,426.389,680.82,427.291,679.707,427.291z"/>
					</g>
				</g>
			</g>
		</g>
		<g>
			<g>
				<g>
					<g>
						<path fill="#6A655E" d="M687.364,427.291c-1.112,0-2.015-0.902-2.015-2.015v-4.837c0-1.112,0.902-2.015,2.015-2.015
							s2.015,0.902,2.015,2.015v4.837C689.379,426.389,688.477,427.291,687.364,427.291z"/>
					</g>
				</g>
			</g>
		</g>
	</g>
</g>
</svg>
