<?xml version="1.0" encoding="utf-8"?>
<!-- Generator: Adobe Illustrator 15.0.0, SVG Export Plug-In . SVG Version: 6.00 Build 0)  -->
<!DOCTYPE svg PUBLIC "-//W3C//DTD SVG 1.1//EN" "http://www.w3.org/Graphics/SVG/1.1/DTD/svg11.dtd">
<svg version="1.1" id="Layer_1" xmlns="http://www.w3.org/2000/svg" xmlns:xlink="http://www.w3.org/1999/xlink" x="0px" y="0px"
	 width="1280px" height="768px" viewBox="0 0 1280 768" enable-background="new 0 0 1280 768" xml:space="preserve">
<g>
	<g>
		<g>
			<g>
				<g>
					<path fill="#6A655E" d="M679.117,444.787h-9.963c-1.113,0-2.015-0.902-2.015-2.016c0-1.112,0.901-2.015,2.015-2.015h9.963
						c2.201,0,4.132-1.991,4.132-4.261v-73.102c0-2.215-1.853-4.018-4.132-4.018h-80.948c-2.278,0-4.203,1.84-4.203,4.018v73.102
						c0,2.27,1.964,4.261,4.203,4.261h10.297c1.113,0,2.016,0.902,2.016,2.015c0,1.113-0.903,2.016-2.016,2.016h-10.297
						c-4.463,0-8.232-3.797-8.232-8.291v-73.102c0-4.438,3.693-8.048,8.232-8.048h80.948c4.5,0,8.162,3.61,8.162,8.048v73.102
						C687.279,440.99,683.541,444.787,679.117,444.787z"/>
				</g>
			</g>
		</g>
	</g>
	<g>
		<g>
			<g>
				<g>
					<path fill="#6A655E" d="M671.094,429.893h-4.979c-1.113,0-2.016-0.902-2.016-2.015c0-1.113,0.902-2.015,2.016-2.015h3.455
						v-12.08h-62.534v12.08h3.455c1.114,0,2.016,0.901,2.016,2.015c0,1.112-0.902,2.015-2.016,2.015h-4.063
						c-1.54,0-3.422-1.531-3.422-3.319v-14.026c0-1.619,1.439-2.793,3.422-2.793h64.666c0.762,0,1.38,0.236,1.84,0.702
						c0.686,0.694,0.674,1.546,0.668,1.956v0.135v14.168c0.007,0.623,0.02,1.665-0.772,2.465
						C672.374,429.64,671.759,429.893,671.094,429.893z"/>
				</g>
			</g>
		</g>
	</g>
	<g>
		<g>
			<g>
				<g>
					<path fill="#6A655E" d="M617.733,463.67c-1.486,0-2.949-0.173-4.105-1.299c-1.284-1.251-1.807-3.278-1.807-6.998v-42.788
						c0-0.483,0.16-0.86,0.274-1.079c0.284-0.807,1.058-1.371,1.965-1.344c1.112,0.035,1.985,0.966,1.95,2.078
						c-0.01,0.301-0.081,0.561-0.159,0.76v42.373c0,3.365,0.492,4.016,0.59,4.111c0.197,0.191,1.394,0.16,2.186,0.141
						c0.411-0.012,0.847-0.022,1.31-0.022h37.279c0.689,0,2.305,0,2.656-0.36c0.218-0.223,0.582-1.021,0.582-3.869v-42.788
						c0-0.946,0.473-1.481,0.851-1.759c0.305-0.258,0.69-0.428,1.119-0.466c1.103-0.097,2.086,0.72,2.186,1.829
						c0.036,0.406-0.021,0.743-0.126,1.021v42.163c0,6.33-1.697,8.26-7.268,8.26h-37.279c-0.425,0-0.827,0.01-1.205,0.02
						C618.399,463.662,618.066,463.67,617.733,463.67z"/>
				</g>
			</g>
		</g>
	</g>
	<g>
		<g>
			<g>
				<g>
					<path fill="#6A655E" d="M638.628,430.678c-9.157,0-16.606-7.125-16.606-15.883c0-0.602,0.035-1.204,0.104-1.789
						c0.129-1.105,1.132-1.898,2.236-1.768c1.105,0.13,1.896,1.131,1.767,2.236c-0.05,0.43-0.076,0.875-0.076,1.32
						c0,6.535,5.642,11.854,12.576,11.854c6.936,0,12.577-5.318,12.577-11.854c0-0.34-0.016-0.693-0.048-1.049
						c-0.1-1.107,0.72-2.087,1.827-2.186c1.105-0.101,2.088,0.719,2.188,1.827c0.042,0.474,0.063,0.946,0.063,1.407
						C655.235,423.553,647.785,430.678,638.628,430.678z"/>
				</g>
			</g>
		</g>
	</g>
	<g>
		<g>
			<g>
				<g>
					<path fill="#6A655E" d="M648.321,463.24c-0.164,0-0.331-0.02-0.497-0.062c-1.078-0.273-1.73-1.369-1.457-2.448
						c1.695-6.688,7.148-11.951,13.89-13.407c1.09-0.236,2.16,0.457,2.396,1.545c0.234,1.088-0.457,2.16-1.545,2.395
						c-5.258,1.135-9.512,5.241-10.835,10.459C650.041,462.633,649.221,463.24,648.321,463.24z"/>
				</g>
			</g>
		</g>
	</g>
	<g>
		<g>
			<g>
				<g>
					<path fill="#6A655E" d="M627.515,462.527c-0.9,0-1.72-0.607-1.952-1.52c-1.323-5.219-5.577-9.324-10.836-10.458
						c-1.088-0.234-1.779-1.307-1.545-2.395c0.235-1.088,1.308-1.778,2.395-1.545c6.743,1.454,12.197,6.717,13.893,13.406
						c0.273,1.079-0.379,2.175-1.458,2.448C627.845,462.508,627.679,462.527,627.515,462.527z"/>
				</g>
			</g>
		</g>
	</g>
	<g>
		<g>
			<g>
				<g>
					<path fill="#6A655E" d="M639.104,442.387c-3.012,0-5.462-2.104-5.462-4.689s2.45-4.689,5.462-4.689
						c3.011,0,5.462,2.104,5.462,4.689S642.115,442.387,639.104,442.387z M639.104,437.037c-0.924,0-1.432,0.496-1.432,0.66
						s0.508,0.66,1.432,0.66c0.924,0,1.432-0.496,1.432-0.66S640.028,437.037,639.104,437.037z"/>
				</g>
			</g>
		</g>
	</g>
	<g>
		<g>
			<g>
				<g>
					<path fill="#6A655E" d="M660.644,404.666h-44.376c-1.113,0-2.015-0.902-2.015-2.016v-30.395c0-1.113,0.902-2.016,2.015-2.016
						h44.376c1.112,0,2.015,0.902,2.015,2.016v30.395C662.658,403.764,661.756,404.666,660.644,404.666z M618.282,400.635h40.347
						v-26.364h-40.347V400.635z"/>
				</g>
			</g>
		</g>
	</g>
	<g>
		<g>
			<g>
				<g>
					<g>
						<path fill="#6A655E" d="M610.188,380.045h-6.383c-1.113,0-2.015-0.902-2.015-2.015v-6.383c0-1.112,0.902-2.015,2.015-2.015
							h6.383c1.112,0,2.015,0.902,2.015,2.015v6.383C612.204,379.143,611.301,380.045,610.188,380.045z M605.82,376.016h2.353
							v-2.354h-2.353V376.016z"/>
					</g>
				</g>
			</g>
		</g>
		<g>
			<g>
				<g>
					<g>
						<path fill="#6A655E" d="M610.188,392.508h-6.383c-1.113,0-2.015-0.902-2.015-2.016v-6.383c0-1.113,0.902-2.016,2.015-2.016
							h6.383c1.112,0,2.015,0.902,2.015,2.016v6.383C612.204,391.605,611.301,392.508,610.188,392.508z M605.82,388.478h2.353
							v-2.354h-2.353V388.478z"/>
					</g>
				</g>
			</g>
		</g>
		<g>
			<g>
				<g>
					<g>
						<path fill="#6A655E" d="M610.188,404.058h-6.383c-1.113,0-2.015-0.902-2.015-2.015v-6.08c0-1.112,0.902-2.015,2.015-2.015
							h6.383c1.112,0,2.015,0.902,2.015,2.015v6.08C612.204,403.155,611.301,404.058,610.188,404.058z M605.82,400.027h2.353v-2.049
							h-2.353V400.027z"/>
					</g>
				</g>
			</g>
		</g>
	</g>
	<g>
		<g>
			<g>
				<g>
					<g>
						<path fill="#6A655E" d="M672.498,380.652h-6.383c-1.113,0-2.016-0.902-2.016-2.014v-6.383c0-1.113,0.902-2.016,2.016-2.016
							h6.383c1.113,0,2.016,0.902,2.016,2.016v6.383C674.514,379.75,673.611,380.652,672.498,380.652z M668.131,376.623h2.353
							v-2.353h-2.353V376.623z"/>
					</g>
				</g>
			</g>
		</g>
		<g>
			<g>
				<g>
					<g>
						<path fill="#6A655E" d="M672.498,392.811h-6.383c-1.113,0-2.016-0.901-2.016-2.015v-6.687c0-1.113,0.902-2.016,2.016-2.016
							h6.383c1.113,0,2.016,0.902,2.016,2.016v6.687C674.514,391.909,673.611,392.811,672.498,392.811z M668.131,388.781h2.353
							v-2.657h-2.353V388.781z"/>
					</g>
				</g>
			</g>
		</g>
		<g>
			<g>
				<g>
					<g>
						<path fill="#6A655E" d="M672.498,404.666h-6.383c-1.113,0-2.016-0.902-2.016-2.016v-6.688c0-1.112,0.902-2.015,2.016-2.015
							h6.383c1.113,0,2.016,0.902,2.016,2.015v6.688C674.514,403.764,673.611,404.666,672.498,404.666z M668.131,400.635h2.353
							v-2.656h-2.353V400.635z"/>
					</g>
				</g>
			</g>
		</g>
	</g>
</g>
</svg>
