<?xml version="1.0" encoding="utf-8"?>
<!-- Generator: Adobe Illustrator 15.0.0, SVG Export Plug-In . SVG Version: 6.00 Build 0)  -->
<!DOCTYPE svg PUBLIC "-//W3C//DTD SVG 1.1//EN" "http://www.w3.org/Graphics/SVG/1.1/DTD/svg11.dtd">
<svg version="1.1" id="Layer_1" xmlns="http://www.w3.org/2000/svg" xmlns:xlink="http://www.w3.org/1999/xlink" x="0px" y="0px"
	 width="1280px" height="768px" viewBox="0 0 1280 768" enable-background="new 0 0 1280 768" xml:space="preserve">
<g>
	<g>
		<g>
			<g>
				<g>
					<g>
						<g>
							<g>
								<path fill="#6A655E" d="M680.08,357.941c-0.636,0-1.257-0.258-1.708-0.709c-0.451-0.447-0.71-1.072-0.71-1.709
									s0.259-1.258,0.71-1.709s1.072-0.709,1.708-0.709c0.637,0,1.262,0.258,1.713,0.709c0.447,0.447,0.705,1.072,0.705,1.709
									s-0.258,1.262-0.705,1.709C681.342,357.684,680.717,357.941,680.08,357.941z"/>
							</g>
						</g>
						<g>
							<g>
								<path fill="#6A655E" d="M674.124,363.225c-1.048-0.826-1.229-2.35-0.398-3.397l0,0c0.825-1.048,2.345-1.229,3.394-0.398l0,0
									c1.047,0.826,1.229,2.345,0.403,3.394l0,0l0,0l0,0c-0.476,0.604-1.186,0.922-1.903,0.922l0,0
									C675.096,363.744,674.568,363.575,674.124,363.225z"/>
							</g>
						</g>
						<g>
							<g>
								<path fill="#6A655E" d="M671.094,369.491c-0.637,0-1.262-0.258-1.713-0.709c-0.447-0.447-0.705-1.072-0.705-1.709
									s0.258-1.261,0.705-1.708c0.451-0.452,1.072-0.71,1.713-0.71c0.637,0,1.258,0.258,1.709,0.71
									c0.451,0.447,0.709,1.071,0.709,1.708s-0.258,1.258-0.709,1.709S671.73,369.491,671.094,369.491z"/>
							</g>
						</g>
					</g>
				</g>
			</g>
			<g>
				<g>
					<g>
						<g>
							<g>
								
									<rect x="653.444" y="344.355" transform="matrix(0.9805 0.1963 -0.1963 0.9805 80.8371 -122.0049)" fill="#6A655E" width="4.835" height="4.836"/>
							</g>
						</g>
						<g>
							<g>
								
									<rect x="650.559" y="355.913" transform="matrix(0.9806 0.1961 -0.1961 0.9806 82.936 -121.0781)" fill="#6A655E" width="4.836" height="4.836"/>
							</g>
						</g>
					</g>
				</g>
			</g>
			<g>
				<g>
					<g>
						<path fill="#6A655E" d="M592.858,374.573L592.858,374.573l-1.712-1.708l3.421-3.422l1.708,1.713l0,0l1.713,1.709l-3.421,3.421
							C592.858,374.573,594.568,376.286,592.858,374.573z M587.725,369.443l-1.709-1.713l3.418-3.418l3.422,3.418l-3.422,3.422
							C587.725,369.443,589.434,371.152,587.725,369.443z M582.59,364.305l-1.712-1.709l3.421-3.421l1.709,1.713l0,0l1.709,1.708
							l-3.418,3.418C582.59,364.305,584.299,366.014,582.59,364.305z"/>
					</g>
				</g>
				<g>
					<g>
						<g>
							<g>
								<g>
									
										<rect x="604.173" y="348.419" transform="matrix(0.5072 0.8619 -0.8619 0.5072 601.3242 -349.885)" fill="#6A655E" width="4.836" height="4.836"/>
								</g>
							</g>
							<g>
								<g>
									
										<rect x="609.693" y="357.434" transform="matrix(0.4656 0.885 -0.885 0.4656 645.5691 -349.4114)" fill="#6A655E" width="4.837" height="4.835"/>
								</g>
							</g>
						</g>
					</g>
				</g>
				<g>
					<g>
						<path fill="#6A655E" d="M629.383,358.57c-0.02-1.338,1.048-2.435,2.382-2.454l0,0c1.338-0.017,2.434,1.052,2.455,2.386l0,0
							c0.016,1.334-1.048,2.434-2.386,2.45l0,0c-0.012,0-0.02,0-0.033,0l0,0C630.479,360.952,629.399,359.893,629.383,358.57z
							 M629.226,351.336c-0.032-1.338,1.024-2.446,2.362-2.479l0,0c1.333-0.032,2.442,1.023,2.474,2.357l0,0
							c0.032,1.334-1.023,2.446-2.357,2.479l0,0c-0.02,0-0.041,0-0.061,0l0,0C630.334,353.693,629.262,352.65,629.226,351.336z
							 M631.487,346.432c-1.334-0.012-2.41-1.104-2.398-2.438l0,0c0.012-1.338,1.104-2.41,2.438-2.398l0,0
							c1.333,0.012,2.41,1.104,2.397,2.438l0,0c-0.012,1.329-1.093,2.397-2.418,2.397l0,0
							C631.499,346.432,631.495,346.432,631.487,346.432z"/>
					</g>
				</g>
			</g>
			<g>
				<g>
					<g>
						<path fill="#6A655E" d="M708.42,439.033l-2.397-0.307l0.612-4.799l4.8,0.616l-0.612,4.796
							C708.42,439.033,710.822,439.34,708.42,439.033z M701.223,438.11l-2.402-0.306l0.617-4.796l4.795,0.612l-0.612,4.796
							C701.223,438.11,703.62,438.417,701.223,438.11z M694.024,437.195c0,0,0,0-0.003,0l-2.398-0.306l0.608-4.8l2.401,0.307l0,0
							l2.398,0.302l-0.609,4.8C694.024,437.195,696.422,437.498,694.024,437.195z"/>
					</g>
				</g>
			</g>
			<g>
				<g>
					<path fill="#6A655E" d="M696.277,413.438l4.791-0.645l0.646,4.792l-2.397,0.322l0,0l-2.398,0.322
						C696.277,413.438,696.918,418.23,696.277,413.438z M703.572,412.512l4.811-0.455l0.46,4.815l-2.409,0.226l0,0l-2.406,0.23
						C703.572,412.512,704.027,417.328,703.572,412.512z M710.918,411.843l4.832-0.222l0.226,4.828l-2.418,0.113l0,0l-2.413,0.112
						C710.918,411.843,711.145,416.675,710.918,411.843z"/>
				</g>
			</g>
			<g>
				<g>
					<g>
						<g>
							<g>
								<path fill="#6A655E" d="M703.266,393.321c-0.637,0-1.262-0.259-1.709-0.71c-0.451-0.451-0.709-1.071-0.709-1.709
									c0-0.637,0.258-1.261,0.709-1.708c0.447-0.451,1.072-0.71,1.709-0.71s1.261,0.259,1.708,0.71
									c0.452,0.447,0.71,1.071,0.71,1.708c0,0.638-0.258,1.258-0.71,1.709C704.526,393.062,703.902,393.321,703.266,393.321z"/>
							</g>
						</g>
						<g>
							<g>
								<path fill="#6A655E" d="M710.226,389.505c-0.638,0-1.261-0.259-1.713-0.71c-0.448-0.451-0.71-1.072-0.71-1.708
									c0-0.637,0.262-1.262,0.71-1.713c0.452-0.448,1.075-0.705,1.713-0.705c0.632,0,1.257,0.257,1.708,0.705
									c0.451,0.451,0.71,1.076,0.71,1.713c0,0.632-0.259,1.257-0.71,1.708S710.857,389.505,710.226,389.505z"/>
							</g>
						</g>
						<g>
							<g>
								<path fill="#6A655E" d="M694.576,394.853c-0.555-1.217-0.016-2.651,1.201-3.204l0,0c1.213-0.552,2.647-0.012,3.2,1.201l0,0
									c0.552,1.217,0.016,2.651-1.201,3.204l0,0c-0.322,0.145-0.665,0.217-0.999,0.217l0,0
									C695.858,396.271,694.98,395.743,694.576,394.853z"/>
							</g>
						</g>
					</g>
				</g>
			</g>
			<g>
				<g>
					<path fill="#6A655E" d="M688.197,372.518l3.582-3.252l3.249,3.583l-3.579,3.248
						C688.197,372.518,691.449,376.097,688.197,372.518z M694.464,366.828l3.583-3.248l3.248,3.578l-3.578,3.252
						C694.464,366.828,697.717,370.41,694.464,366.828z"/>
				</g>
			</g>
			<g>
				<g>
					<path fill="#6A655E" d="M579.137,396.319L579.137,396.319c-1.301-0.302-2.112-1.6-1.81-2.901l0,0
						c0.302-1.302,1.604-2.112,2.905-1.81l0,0l0,0l0,0c1.298,0.302,2.108,1.604,1.806,2.905l0,0c-0.258,1.116-1.253,1.87-2.354,1.87
						l0,0C579.504,396.384,579.318,396.363,579.137,396.319z M572.459,394.768c-1.302-0.303-2.112-1.604-1.81-2.905l0,0
						c0.301-1.298,1.604-2.108,2.906-1.806l0,0c0,0,0,0-0.005,0l0,0c1.302,0.303,2.112,1.6,1.81,2.901l0,0
						c-0.262,1.116-1.253,1.87-2.354,1.87l0,0C572.825,394.828,572.641,394.809,572.459,394.768z M565.777,393.212L565.777,393.212
						c-1.302-0.302-2.112-1.6-1.81-2.901l0,0c0.302-1.302,1.6-2.111,2.902-1.81l0,0l0,0l0,0c1.302,0.306,2.112,1.604,1.81,2.905l0,0
						c-0.262,1.117-1.253,1.87-2.354,1.87l0,0C566.144,393.276,565.958,393.256,565.777,393.212z"/>
				</g>
			</g>
			<g>
				<g>
					<path fill="#6A655E" d="M560.26,421.124c-0.056-1.334,0.976-2.462,2.31-2.522l0,0c0,0,0,0,0,0.004l0,0
						c1.333-0.061,2.461,0.975,2.522,2.309l0,0c0.056,1.334-0.975,2.463-2.309,2.52l0,0c-0.037,0.004-0.073,0.004-0.109,0.004l0,0
						C561.389,423.438,560.316,422.422,560.26,421.124z M567.115,420.826c-0.056-1.334,0.975-2.463,2.313-2.523l0,0
						c1.334-0.057,2.462,0.976,2.519,2.313l0,0c0.061,1.334-0.975,2.462-2.309,2.519l0,0c-0.036,0.004-0.073,0.004-0.105,0.004l0,0
						C568.244,423.139,567.172,422.123,567.115,420.826z M573.966,420.527c-0.057-1.334,0.975-2.462,2.31-2.522l0,0
						c1.333-0.057,2.462,0.976,2.522,2.313l0,0c0.057,1.334-0.976,2.462-2.309,2.519l0,0c-0.037,0-0.073,0.004-0.109,0.004l0,0
						C575.095,422.841,574.022,421.825,573.966,420.527z"/>
				</g>
			</g>
			<g>
				<g>
					<path fill="#6A655E" d="M572.442,449.088c-0.507-1.232,0.081-2.647,1.318-3.155l0,0c1.233-0.508,2.648,0.081,3.155,1.313l0,0
						c0.508,1.238-0.08,2.648-1.313,3.16l0,0c-0.302,0.121-0.613,0.182-0.923,0.182l0,0
						C573.732,450.588,572.83,450.023,572.442,449.088z M578.786,446.477c-0.507-1.232,0.081-2.647,1.313-3.155l0,0
						c1.238-0.508,2.648,0.081,3.16,1.313l0,0c0.507,1.233-0.081,2.648-1.318,3.156h0.004c-0.302,0.125-0.617,0.186-0.923,0.186l0,0
						C580.072,447.977,579.173,447.412,578.786,446.477z M585.125,443.865c-0.512-1.233,0.081-2.647,1.314-3.155l0,0l0,0l0,0
						c1.233-0.508,2.647,0.081,3.155,1.313l0,0c0.512,1.237-0.081,2.648-1.314,3.156l0,0c-0.301,0.125-0.613,0.186-0.918,0.186l0,0
						C586.411,445.365,585.508,444.801,585.125,443.865z"/>
				</g>
			</g>
		</g>
	</g>
	<g>
		<g>
			<path fill="#6A655E" d="M678.956,419.003h-78.585c-1.335,0-2.418-1.082-2.418-2.418c0-1.335,1.083-2.418,2.418-2.418h78.585
				c1.336,0,2.418,1.083,2.418,2.418C681.374,417.921,680.292,419.003,678.956,419.003z"/>
		</g>
	</g>
	<g>
		<g>
			<path fill="#6A655E" d="M639.61,478.298c-23.745,0-43.063-22.582-43.063-50.34c0-4.069,0.417-8.12,1.238-12.037
				c0.274-1.308,1.555-2.145,2.863-1.871c1.307,0.274,2.144,1.556,1.87,2.863c-0.752,3.592-1.135,7.308-1.135,11.045
				c0,25.091,17.148,45.504,38.228,45.504s38.228-20.413,38.228-45.504c0-3.653-0.366-7.291-1.088-10.812
				c-0.268-1.308,0.575-2.586,1.884-2.854c1.312-0.268,2.587,0.575,2.854,1.883c0.786,3.839,1.185,7.803,1.185,11.782
				C682.673,455.716,663.355,478.298,639.61,478.298z"/>
		</g>
	</g>
	<g>
		<g>
			<g>
				<path fill="#6A655E" d="M651.526,464.687c-0.759,0-1.505-0.355-1.976-1.022c-0.771-1.09-0.512-2.6,0.578-3.37
					c8.371-5.917,14.02-15.849,15.496-27.249c0.172-1.324,1.385-2.258,2.709-2.087s2.259,1.384,2.088,2.708
					c-1.65,12.737-8.03,23.882-17.502,30.577C652.496,464.543,652.009,464.687,651.526,464.687z"/>
			</g>
		</g>
		<g>
			<g>
				<path fill="#6A655E" d="M668.422,429.548c-1.329,0-2.407-1.073-2.418-2.399c-0.01-0.088-0.016-0.18-0.018-0.275
					c-0.039-1.334,1.012-2.448,2.346-2.486c0.024-0.001,0.049-0.002,0.072-0.002c1.303,0,2.377,1.037,2.416,2.349v0.017
					c0.014,0.12,0.02,0.247,0.02,0.38C670.84,428.465,669.757,429.548,668.422,429.548z"/>
			</g>
		</g>
	</g>
	<g>
		<g>
			<path fill="#6A655E" d="M650.437,416.533c-0.282,0-0.569-0.05-0.849-0.155c-1.25-0.469-1.884-1.862-1.415-3.112l10.649-28.398
				c0.268-0.714,0.855-1.26,1.587-1.473l17.04-4.97c1.28-0.373,2.624,0.362,2.998,1.644c0.373,1.282-0.363,2.625-1.645,2.999
				l-15.878,4.631l-10.224,27.265C652.338,415.934,651.416,416.533,650.437,416.533z"/>
		</g>
	</g>
	<g>
		<g>
			<path fill="#6A655E" d="M628.431,417.716c-0.864,0-1.7-0.464-2.135-1.279l-21.798-40.826c-0.629-1.178-0.183-2.643,0.995-3.271
				c1.177-0.63,2.643-0.184,3.271,0.994l21.798,40.826c0.629,1.178,0.184,2.643-0.995,3.271
				C629.205,417.625,628.814,417.716,628.431,417.716z"/>
		</g>
	</g>
	<g>
		<g>
			<path fill="#6A655E" d="M597.637,406.37c-0.92,0-1.798-0.527-2.203-1.419c-1.381-3.04-2.081-6.287-2.081-9.651
				c0-12.881,10.479-23.361,23.361-23.361c9.297,0,17.706,5.507,21.423,14.03c0.534,1.225-0.026,2.649-1.25,3.184
				c-1.225,0.533-2.649-0.026-3.183-1.25c-2.948-6.76-9.617-11.127-16.991-11.127c-10.215,0-18.525,8.31-18.525,18.524
				c0,2.669,0.555,5.243,1.648,7.651c0.552,1.217,0.014,2.649-1.202,3.202C598.311,406.301,597.971,406.37,597.637,406.37z"/>
		</g>
	</g>
	<g>
		<g>
			<path fill="#6A655E" d="M598.493,406.238c-0.921,0-1.802-0.53-2.205-1.425c-0.549-1.217-0.008-2.649,1.209-3.198l37.509-16.92
				c1.218-0.55,2.649-0.008,3.199,1.209c0.549,1.218,0.007,2.649-1.21,3.199l-37.509,16.92
				C599.164,406.169,598.825,406.238,598.493,406.238z"/>
		</g>
	</g>
	<g>
		<g>
			<path fill="#6A655E" d="M606.049,402.486c-0.834,0-1.645-0.432-2.093-1.205c-1.982-3.419-3.031-7.475-3.031-11.727
				c0-5.598,1.884-10.963,5.167-14.722c0.879-1.006,2.406-1.108,3.412-0.229c1.005,0.878,1.109,2.406,0.23,3.411
				c-2.524,2.89-3.973,7.097-3.973,11.54c0,3.401,0.822,6.617,2.377,9.301c0.67,1.154,0.277,2.635-0.878,3.305
				C606.878,402.381,606.461,402.486,606.049,402.486z"/>
		</g>
	</g>
	<g>
		<g>
			<path fill="#6A655E" d="M626.737,393.016c-1.001,0-1.937-0.626-2.284-1.625c-1.017-2.928-2.917-5.649-5.496-7.87
				c-3.34-2.875-7.432-4.519-11.242-4.519c-0.037,0-0.075,0-0.112,0c-1.327,0-2.408-1.07-2.417-2.4
				c-0.01-1.336,1.065-2.426,2.4-2.436c0.042,0,0.085,0,0.128,0c4.953,0,10.193,2.069,14.399,5.69
				c3.224,2.775,5.613,6.216,6.909,9.947c0.438,1.262-0.229,2.64-1.491,3.077C627.268,392.973,627,393.016,626.737,393.016z"/>
		</g>
	</g>
</g>
</svg>
