<?xml version="1.0" encoding="utf-8"?>
<!-- Generator: Adobe Illustrator 15.0.0, SVG Export Plug-In . SVG Version: 6.00 Build 0)  -->
<!DOCTYPE svg PUBLIC "-//W3C//DTD SVG 1.1//EN" "http://www.w3.org/Graphics/SVG/1.1/DTD/svg11.dtd">
<svg version="1.1" id="Layer_1" xmlns="http://www.w3.org/2000/svg" xmlns:xlink="http://www.w3.org/1999/xlink" x="0px" y="0px"
	 width="1280px" height="768px" viewBox="0 0 1280 768" enable-background="new 0 0 1280 768" xml:space="preserve">
<g>
	<g>
		<g>
			<g>
				<path fill="#6A655E" d="M681.99,461.903c-1.113,0-2.015-0.902-2.015-2.016v-2.453c0-2.198-1.927-4.057-4.206-4.057h-47.296
					c-1.112,0-2.015-0.902-2.015-2.015c0-1.113,0.902-2.016,2.015-2.016h47.296c4.465,0,8.236,3.703,8.236,8.087v2.453
					C684.006,461.001,683.104,461.903,681.99,461.903z"/>
			</g>
		</g>
		<g>
			<g>
				<path fill="#6A655E" d="M623.451,453.378h-7.955c-1.113,0-2.015-0.902-2.015-2.015c0-1.113,0.901-2.016,2.015-2.016h7.955
					c1.113,0,2.016,0.902,2.016,2.016C625.467,452.476,624.564,453.378,623.451,453.378z"/>
			</g>
		</g>
		<g>
			<g>
				<path fill="#6A655E" d="M609.813,453.408c-0.528,0-1.048-0.214-1.423-0.589c-0.375-0.374-0.592-0.895-0.592-1.427
					c0-0.527,0.217-1.047,0.592-1.422s0.895-0.593,1.423-0.593c0.532,0,1.052,0.218,1.426,0.593
					c0.376,0.375,0.589,0.895,0.589,1.422c0,0.532-0.213,1.048-0.589,1.427C610.865,453.194,610.346,453.408,609.813,453.408z"/>
			</g>
		</g>
		<g>
			<g>
				<path fill="#6A655E" d="M592.193,461.903c-1.112,0-2.016-0.902-2.016-2.016v-2.453c0-4.459,3.614-8.087,8.057-8.087h7.031
					c1.113,0,2.016,0.902,2.016,2.016c0,1.112-0.902,2.015-2.016,2.015h-7.031c-2.22,0-4.025,1.819-4.025,4.057v2.453
					C594.209,461.001,593.307,461.903,592.193,461.903z"/>
			</g>
		</g>
		<g>
			<g>
				<path fill="#6A655E" d="M681.422,462.472h-88.66c-1.111,0-2.014-0.902-2.014-2.016c0-1.112,0.902-2.015,2.014-2.015h88.66
					c1.113,0,2.016,0.902,2.016,2.015C683.438,461.569,682.535,462.472,681.422,462.472z"/>
			</g>
		</g>
	</g>
	<g>
		<g>
			<g>
				<path fill="#6A655E" d="M600.15,451.673c-1.113,0-2.016-0.902-2.016-2.015v-52.287c0-1.112,0.902-2.015,2.016-2.015
					s2.016,0.902,2.016,2.015v52.287C602.166,450.771,601.264,451.673,600.15,451.673z"/>
			</g>
		</g>
		<g>
			<g>
				<path fill="#6A655E" d="M675.17,451.673c-1.113,0-2.014-0.902-2.014-2.015v-37.51c0-1.113,0.9-2.016,2.014-2.016
					s2.017,0.902,2.017,2.016v37.51C677.187,450.771,676.283,451.673,675.17,451.673z"/>
			</g>
		</g>
	</g>
	<g>
		<g>
			<path fill="#6A655E" d="M680.854,398.818H593.33c-1.113,0-2.016-0.902-2.016-2.016v-27.279c0-1.113,0.902-2.016,2.016-2.016
				h87.524c1.112,0,2.015,0.902,2.015,2.016v27.279C682.869,397.916,681.967,398.818,680.854,398.818z M595.346,394.788h83.492
				v-23.25h-83.492V394.788z"/>
		</g>
	</g>
	<g>
		<g>
			<path fill="#6A655E" d="M675.17,368.696c-1.113,0-2.014-0.902-2.014-2.015v-4.236h-70.99v4.236c0,1.112-0.902,2.015-2.016,2.015
				s-2.016-0.902-2.016-2.015v-6.252c0-1.112,0.902-2.015,2.016-2.015h75.02c1.113,0,2.017,0.902,2.017,2.015v6.252
				C677.187,367.794,676.283,368.696,675.17,368.696z"/>
		</g>
	</g>
	<g>
		<g>
			<g>
				<rect x="625.984" y="374.328" fill="#6A655E" width="5.166" height="4.03"/>
			</g>
		</g>
		<g>
			<g>
				<rect x="625.984" y="381.148" fill="#6A655E" width="5.166" height="4.029"/>
			</g>
		</g>
		<g>
			<g>
				<rect x="625.984" y="386.832" fill="#6A655E" width="5.166" height="4.029"/>
			</g>
		</g>
	</g>
	<g>
		<g>
			<g>
				<rect x="633.94" y="374.328" fill="#6A655E" width="5.167" height="4.03"/>
			</g>
		</g>
		<g>
			<g>
				<rect x="633.94" y="381.148" fill="#6A655E" width="5.167" height="4.029"/>
			</g>
		</g>
		<g>
			<g>
				<rect x="633.94" y="386.832" fill="#6A655E" width="5.167" height="4.029"/>
			</g>
		</g>
	</g>
	<g>
		<g>
			<g>
				<rect x="641.897" y="374.328" fill="#6A655E" width="5.166" height="4.03"/>
			</g>
		</g>
		<g>
			<g>
				<rect x="641.897" y="381.148" fill="#6A655E" width="5.166" height="4.029"/>
			</g>
		</g>
		<g>
			<g>
				<rect x="641.897" y="386.832" fill="#6A655E" width="5.166" height="4.029"/>
			</g>
		</g>
	</g>
	<g>
		<g>
			<path fill="#6A655E" d="M663.33,387.229c-2.673,0-4.848-2.175-4.848-4.848c0-2.672,2.175-4.847,4.848-4.847
				s4.848,2.175,4.848,4.847C668.178,385.054,666.003,387.229,663.33,387.229z M663.33,381.564c-0.451,0-0.816,0.366-0.816,0.816
				c0,0.451,0.365,0.817,0.816,0.817s0.818-0.366,0.818-0.817C664.148,381.931,663.781,381.564,663.33,381.564z"/>
		</g>
	</g>
	<g>
		<g>
			<path fill="#6A655E" d="M611.977,387.229c-2.673,0-4.846-2.175-4.846-4.848c0-2.672,2.173-4.847,4.846-4.847
				c2.672,0,4.847,2.175,4.847,4.847C616.823,385.054,614.648,387.229,611.977,387.229z M611.977,381.564
				c-0.451,0-0.816,0.366-0.816,0.816c0,0.451,0.365,0.817,0.816,0.817c0.45,0,0.816-0.366,0.816-0.817
				C612.793,381.931,612.427,381.564,611.977,381.564z"/>
		</g>
	</g>
	<g>
		<g>
			<polygon fill="#6A655E" points="646.56,411.321 625.56,411.321 622.024,396.772 625.939,395.821 628.729,407.291 
				643.555,407.291 647.312,394.691 651.172,395.842 			"/>
		</g>
	</g>
	<g>
		<g>
			<rect x="645.307" y="402.745" fill="#6A655E" width="15.396" height="4.03"/>
		</g>
	</g>
	<g>
		<g>
			<path fill="#6A655E" d="M686.279,410.185h-29.037v-10.85h29.037V410.185z M661.272,406.154h20.976v-2.789h-20.976V406.154z"/>
		</g>
	</g>
	<g>
		<g>
			<g>
				<path fill="#6A655E" d="M651.869,439.738h-28.418c-1.112,0-2.014-0.902-2.014-2.016c0-1.112,0.901-2.015,2.014-2.015h28.418
					c1.113,0,2.014,0.902,2.014,2.015C653.883,438.836,652.982,439.738,651.869,439.738z"/>
			</g>
		</g>
		<g>
			<g>
				<path fill="#6A655E" d="M651.869,430.645h-29.553c-1.113,0-2.016-0.902-2.016-2.015c0-1.113,0.902-2.016,2.016-2.016h29.553
					c1.113,0,2.014,0.902,2.014,2.016C653.883,429.742,652.982,430.645,651.869,430.645z"/>
			</g>
		</g>
		<g>
			<g>
				<path fill="#6A655E" d="M637.131,451.799c-9.881,0-17.918-8.336-17.918-18.582c0-1.676,0.215-3.34,0.643-4.946
					c0.284-1.075,1.386-1.717,2.463-1.431c1.077,0.285,1.717,1.389,1.432,2.465c-0.338,1.27-0.508,2.586-0.508,3.912
					c0,8.023,6.229,14.552,13.889,14.552c7.655,0,13.885-6.528,13.885-14.552c0-1.41-0.191-2.804-0.568-4.143
					c-0.302-1.071,0.32-2.184,1.392-2.486c1.073-0.301,2.185,0.322,2.486,1.393c0.478,1.695,0.72,3.457,0.72,5.236
					C655.045,443.463,647.008,451.799,637.131,451.799z"/>
			</g>
		</g>
		<g>
			<g>
				<path fill="#6A655E" d="M649.673,445.968c-0.86,0-1.657-0.556-1.925-1.422c-0.328-1.063,0.27-2.191,1.333-2.519
					c3.265-1.007,6.489-3.091,6.987-3.952c0.83-1.435,1.079-2.899,0.604-3.561c-0.471-0.654-1.373-1.048-1.936-0.84
					c-1.046,0.386-2.203-0.148-2.588-1.192c-0.387-1.044,0.146-2.202,1.191-2.588c2.277-0.842,5.056,0.112,6.605,2.27
					c1.457,2.028,1.311,4.992-0.389,7.929c-1.418,2.453-6.284,4.86-9.289,5.785C650.069,445.939,649.869,445.968,649.673,445.968z"
					/>
			</g>
		</g>
	</g>
</g>
</svg>
