<?xml version="1.0" encoding="utf-8"?>
<!-- Generator: Adobe Illustrator 15.0.0, SVG Export Plug-In . SVG Version: 6.00 Build 0)  -->
<!DOCTYPE svg PUBLIC "-//W3C//DTD SVG 1.1//EN" "http://www.w3.org/Graphics/SVG/1.1/DTD/svg11.dtd">
<svg version="1.1" id="Layer_1" xmlns="http://www.w3.org/2000/svg" xmlns:xlink="http://www.w3.org/1999/xlink" x="0px" y="0px"
	 width="1280px" height="768px" viewBox="0 0 1280 768" enable-background="new 0 0 1280 768" xml:space="preserve">
<g>
	<g>
		<g>
			<g>
				<g>
					<path fill="#6A655E" d="M669.17,396.878h-70.783c-1.113,0-2.016-0.902-2.016-2.015c0-1.113,0.902-2.016,2.016-2.016h70.783
						c1.113,0,2.017,0.902,2.017,2.016C671.187,395.976,670.283,396.878,669.17,396.878z"/>
				</g>
			</g>
		</g>
	</g>
	<g>
		<g>
			<g>
				<g>
					<g>
						<path fill="#6A655E" d="M653.231,443.393h-13.917c-1.113,0-2.016-0.902-2.016-2.015s0.902-2.015,2.016-2.015h13.342
							c1.155-0.766,4.678-3.393,8.03-8.85c3.78-6.158,8.111-17.276,7.267-35.275c-0.051-1.111,0.809-2.056,1.92-2.107
							c1.115-0.045,2.055,0.807,2.107,1.918c1.736,37.043-16.99,47.666-17.788,48.1
							C653.898,443.309,653.566,443.393,653.231,443.393z"/>
					</g>
				</g>
			</g>
		</g>
		<g>
			<g>
				<g>
					<g>
						<path fill="#6A655E" d="M615.094,443.395c-0.312,0-0.633-0.072-0.929-0.227c-0.636-0.329-15.599-8.5-17.94-47.211
							c-0.068-1.11,0.778-2.064,1.889-2.132c1.109-0.071,2.066,0.778,2.133,1.89c2.184,36.074,15.652,43.809,15.789,43.883
							c0.987,0.512,1.365,1.723,0.854,2.711C616.531,443,615.825,443.395,615.094,443.395z"/>
					</g>
				</g>
			</g>
		</g>
	</g>
	<g>
		<g>
			<g>
				<g>
					<g>
						<path fill="#6A655E" d="M621.602,388.899c-0.936,0-1.838-0.306-2.635-0.902c-1.394-1.046-2.321-2.952-2.258-4.639
							c0.074-1.923,1.355-3.784,2.387-5.281c0.177-0.257,0.347-0.503,0.497-0.733c1.321-2.014,1.987-4.418,1.483-5.361
							c-0.244-0.459-1.061-0.564-1.703-0.57c-1.113-0.011-2.006-0.922-1.996-2.035c0.011-1.105,0.912-1.994,2.016-1.994
							c0.006,0,0.013,0,0.02,0c3.139,0.031,4.572,1.486,5.221,2.703c1.503,2.817,0.04,6.861-1.67,9.469
							c-0.165,0.254-0.353,0.524-0.549,0.809c-0.615,0.896-1.648,2.395-1.678,3.148c-0.01,0.26,0.235,0.951,0.648,1.262
							c0.141,0.105,0.222,0.117,0.388,0.062c1.056-0.354,2.196,0.219,2.548,1.273c0.353,1.056-0.219,2.197-1.273,2.549
							C622.564,388.82,622.078,388.899,621.602,388.899z"/>
					</g>
				</g>
			</g>
		</g>
		<g>
			<g>
				<g>
					<g>
						<path fill="#6A655E" d="M634.613,388.899c-0.934,0-1.838-0.305-2.634-0.902c-1.394-1.046-2.322-2.952-2.259-4.639
							c0.074-1.923,1.356-3.784,2.387-5.28c0.178-0.258,0.347-0.504,0.499-0.734c1.319-2.014,1.985-4.418,1.483-5.361
							c-0.246-0.459-1.063-0.564-1.705-0.57c-1.112-0.011-2.006-0.922-1.995-2.035c0.011-1.105,0.911-1.994,2.015-1.994
							c0.006,0,0.014,0,0.02,0c3.14,0.031,4.572,1.486,5.222,2.703c1.503,2.817,0.04,6.861-1.671,9.469
							c-0.166,0.254-0.353,0.525-0.549,0.809c-0.614,0.896-1.648,2.395-1.676,3.148c-0.012,0.26,0.234,0.951,0.648,1.262
							c0.139,0.105,0.219,0.117,0.387,0.062c1.055-0.354,2.196,0.219,2.549,1.273c0.352,1.056-0.219,2.197-1.275,2.549
							C635.576,388.82,635.09,388.899,634.613,388.899z"/>
					</g>
				</g>
			</g>
		</g>
		<g>
			<g>
				<g>
					<g>
						<path fill="#6A655E" d="M647.625,388.899c-0.935,0-1.838-0.305-2.634-0.902c-1.394-1.046-2.321-2.952-2.259-4.638
							c0.074-1.924,1.355-3.785,2.387-5.281c0.178-0.258,0.348-0.504,0.498-0.734c1.321-2.014,1.987-4.419,1.484-5.361
							c-0.245-0.459-1.063-0.564-1.704-0.57c-1.114-0.011-2.007-0.922-1.995-2.035c0.01-1.105,0.911-1.994,2.014-1.994
							c0.007,0,0.015,0,0.021,0c3.137,0.031,4.569,1.486,5.219,2.702c1.503,2.817,0.041,6.862-1.67,9.47
							c-0.166,0.254-0.354,0.525-0.548,0.809c-0.617,0.896-1.649,2.395-1.679,3.149c-0.01,0.258,0.236,0.95,0.649,1.261
							c0.14,0.104,0.22,0.117,0.388,0.062c1.055-0.354,2.195,0.219,2.547,1.273c0.354,1.056-0.217,2.197-1.273,2.549
							C648.588,388.82,648.102,388.899,647.625,388.899z"/>
					</g>
				</g>
			</g>
		</g>
	</g>
	<g>
		<g>
			<g>
				<g>
					<path fill="#6A655E" d="M665.49,434.073c-1.107,0-2.218-0.086-3.297-0.255c-1.1-0.171-1.853-1.201-1.682-2.301
						c0.172-1.1,1.202-1.852,2.303-1.681c0.875,0.138,1.775,0.206,2.676,0.206c8.545,0,15.498-6.221,15.498-13.867
						c0-5.739-3.859-10.807-9.83-12.91c-1.049-0.369-1.601-1.52-1.23-2.569s1.521-1.602,2.57-1.231
						c7.488,2.639,12.52,9.354,12.52,16.711C685.018,426.045,676.258,434.073,665.49,434.073z"/>
				</g>
			</g>
		</g>
	</g>
	<g>
		<g>
			<g>
				<g>
					<path fill="#6A655E" d="M671.699,443.393h-33.412c-1.113,0-2.015-0.902-2.015-2.015s0.901-2.015,2.015-2.015h33.412
						c1.113,0,2.016,0.902,2.016,2.015S672.812,443.393,671.699,443.393z"/>
				</g>
			</g>
		</g>
	</g>
	<g>
		<g>
			<g>
				<g>
					<path fill="#6A655E" d="M632.557,443.393h-3.37c-1.113,0-2.016-0.902-2.016-2.015s0.902-2.015,2.016-2.015h3.37
						c1.113,0,2.016,0.902,2.016,2.015S633.67,443.393,632.557,443.393z"/>
				</g>
			</g>
		</g>
	</g>
	<g>
		<g>
			<g>
				<g>
					<path fill="#6A655E" d="M623.457,443.393h-0.17c-1.113,0-2.015-0.902-2.015-2.015s0.901-2.015,2.015-2.015h0.17
						c1.112,0,2.015,0.902,2.015,2.015S624.569,443.393,623.457,443.393z"/>
				</g>
			</g>
		</g>
	</g>
	<g>
		<g>
			<g>
				<g>
					<path fill="#6A655E" d="M618.905,443.393h-24.058c-1.113,0-2.016-0.902-2.016-2.015s0.902-2.015,2.016-2.015h24.058
						c1.114,0,2.015,0.902,2.015,2.015S620.02,443.393,618.905,443.393z"/>
				</g>
			</g>
		</g>
	</g>
	<g>
		<g>
			<g>
				<g>
					<path fill="#6A655E" d="M659.688,453.32h-51.313c-6.779,0-12.855-4.459-15.482-11.361c-0.396-1.04,0.127-2.205,1.166-2.6
						c1.041-0.396,2.205,0.125,2.6,1.166c2.028,5.324,6.625,8.765,11.717,8.765h51.313c5.048,0,9.626-3.37,11.665-8.588
						c0.404-1.036,1.571-1.548,2.609-1.144c1.037,0.405,1.549,1.574,1.144,2.61C672.46,448.943,666.408,453.32,659.688,453.32z"/>
				</g>
			</g>
		</g>
	</g>
</g>
</svg>
