<?xml version="1.0" encoding="utf-8"?>
<!-- Generator: Adobe Illustrator 15.0.0, SVG Export Plug-In . SVG Version: 6.00 Build 0)  -->
<!DOCTYPE svg PUBLIC "-//W3C//DTD SVG 1.1//EN" "http://www.w3.org/Graphics/SVG/1.1/DTD/svg11.dtd">
<svg version="1.1" id="Layer_1" xmlns="http://www.w3.org/2000/svg" xmlns:xlink="http://www.w3.org/1999/xlink" x="0px" y="0px"
	 width="1280px" height="768px" viewBox="0 0 1280 768" enable-background="new 0 0 1280 768" xml:space="preserve">
<g>
	<g>
		<g>
			<g>
				<g>
					<g>
						<path fill="#6A655E" d="M652.773,419.445c-1.111,0-2.015-0.902-2.015-2.016v-52.91c0-2.09-1.7-3.789-3.788-3.789h-37.954
							c-2.09,0-3.79,1.699-3.79,3.789v8.26c0,1.113-0.902,2.016-2.015,2.016s-2.015-0.902-2.015-2.016v-8.26
							c0-4.312,3.508-7.82,7.82-7.82h37.954c4.311,0,7.818,3.509,7.818,7.82v52.91C654.789,418.543,653.887,419.445,652.773,419.445
							z"/>
					</g>
				</g>
			</g>
		</g>
		<g>
			<g>
				<g>
					<g>
						<path fill="#6A655E" d="M631.119,436.189h-22.102c-4.312,0-7.82-3.508-7.82-7.819v-44.688c0-1.113,0.902-2.016,2.015-2.016
							s2.015,0.902,2.015,2.016v44.688c0,2.089,1.7,3.79,3.79,3.79h22.102c1.113,0,2.015,0.901,2.015,2.015
							C633.134,435.287,632.232,436.189,631.119,436.189z"/>
					</g>
				</g>
			</g>
		</g>
		<g>
			<g>
				<g>
					<g>
						<path fill="#6A655E" d="M642.094,452.722c-0.387,0-0.777-0.11-1.123-0.343c-0.147-0.1-3.644-2.482-6.355-7.031
							c-2.406-4.036-4.627-10.577-1.951-19.162c-5.064-5.537-9.393-9.881-12.033-12.528c-0.777-0.781-1.401-1.407-1.844-1.862
							c-2.72-2.802-5.258-9.141-0.489-14.226c4.356-4.646,10.722-4.325,14.36-1.329c2.563,2.109,27.844,26.527,28.92,27.566
							c0.799,0.773,0.821,2.049,0.049,2.85c-0.773,0.8-2.049,0.822-2.85,0.049c-9.066-8.758-26.728-25.746-28.68-27.354
							c-1.734-1.428-5.671-2.425-8.86,0.975c-3.195,3.408-0.689,7.498,0.441,8.661c0.434,0.446,1.045,1.06,1.808,1.825
							c2.801,2.811,7.488,7.513,12.956,13.535c0.499,0.551,0.655,1.33,0.406,2.031c-5.219,14.652,6.254,22.577,6.371,22.656
							c0.923,0.621,1.168,1.872,0.547,2.796C643.379,452.41,642.742,452.722,642.094,452.722z"/>
					</g>
				</g>
			</g>
		</g>
		<g>
			<g>
				<g>
					<g>
						<path fill="#6A655E" d="M674.206,463.649c-1.109,0-2.011-0.897-2.015-2.009c0,0-0.012-3.661-0.04-8.915
							c-0.005-1.112,0.892-2.02,2.005-2.025c0.003,0,0.007,0,0.011,0c1.107,0,2.009,0.896,2.015,2.004
							c0.027,5.259,0.039,8.925,0.039,8.925c0.004,1.112-0.896,2.018-2.008,2.021C674.21,463.649,674.209,463.649,674.206,463.649z"
							/>
					</g>
				</g>
			</g>
		</g>
		<g>
			<g>
				<g>
					<g>
						<path fill="#6A655E" d="M674.127,448.253c-1.105,0-2.008-0.894-2.014-2.001c-0.044-6.479-0.096-12.105-0.156-16.725
							c-0.068-5.32-0.49-10.342-1.027-12.211c-0.909-3.172-12.547-17.223-19.67-25.336c-0.734-0.836-0.651-2.109,0.186-2.844
							c0.836-0.734,2.109-0.651,2.844,0.186c3.176,3.617,19.09,21.912,20.515,26.883c0.782,2.727,1.126,8.854,1.183,13.27
							c0.061,4.629,0.113,10.264,0.156,16.75c0.008,1.113-0.889,2.021-2.002,2.028C674.137,448.253,674.132,448.253,674.127,448.253
							z"/>
					</g>
				</g>
			</g>
		</g>
		<g>
			<g>
				<g>
					<g>
						<path fill="#6A655E" d="M627.77,434.627c-1.113,0-2.015-0.902-2.015-2.016v-13.395c0-1.113,0.902-2.016,2.015-2.016
							c1.113,0,2.015,0.902,2.015,2.016v13.395C629.785,433.725,628.883,434.627,627.77,434.627z"/>
					</g>
				</g>
			</g>
		</g>
		<g>
			<g>
				<g>
					<g>
						<path fill="#6A655E" d="M627.77,396.227c-1.113,0-2.015-0.901-2.015-2.015v-34.381c0-1.112,0.902-2.015,2.015-2.015
							c1.113,0,2.015,0.902,2.015,2.015v34.381C629.785,395.325,628.883,396.227,627.77,396.227z"/>
					</g>
				</g>
			</g>
		</g>
		<g>
			<g>
				<g>
					<g>
						<path fill="#6A655E" d="M640.272,407.391c-1.113,0-2.016-0.903-2.016-2.016v-46.438c0-1.111,0.902-2.015,2.016-2.015
							c1.112,0,2.015,0.903,2.015,2.015v46.438C642.287,406.487,641.385,407.391,640.272,407.391z"/>
					</g>
				</g>
			</g>
		</g>
		<g>
			<g>
				<g>
					<g>
						<path fill="#6A655E" d="M632.047,463.203c-0.359,0-0.722-0.096-1.05-0.297c-10.646-6.52-10.999-20.934-11.009-21.544
							c-0.018-1.112,0.87-2.028,1.982-2.047c1.127-0.03,2.028,0.868,2.047,1.979l0,0c0.002,0.127,0.346,12.822,9.084,18.176
							c0.949,0.58,1.247,1.82,0.666,2.77C633.388,462.861,632.726,463.203,632.047,463.203z"/>
					</g>
				</g>
			</g>
		</g>
	</g>
	<g>
		<g>
			<circle fill="#6A655E" cx="603.289" cy="397.762" r="1.88"/>
		</g>
	</g>
</g>
</svg>
