<?xml version="1.0" encoding="utf-8"?>
<!-- Generator: Adobe Illustrator 15.0.0, SVG Export Plug-In . SVG Version: 6.00 Build 0)  -->
<!DOCTYPE svg PUBLIC "-//W3C//DTD SVG 1.1//EN" "http://www.w3.org/Graphics/SVG/1.1/DTD/svg11.dtd">
<svg version="1.1" id="Layer_1" xmlns="http://www.w3.org/2000/svg" xmlns:xlink="http://www.w3.org/1999/xlink" x="0px" y="0px"
	 width="1280px" height="768px" viewBox="0 0 1280 768" enable-background="new 0 0 1280 768" xml:space="preserve">
<g>
	<g>
		<g>
			<g>
				<g>
					<g>
						<path fill="#6A655E" d="M625.764,377.258c-7.127,0-12.924-5.798-12.924-12.924c0-7.125,5.797-12.922,12.924-12.922
							c7.125,0,12.923,5.797,12.923,12.922C638.687,371.46,632.889,377.258,625.764,377.258z M625.764,355.441
							c-4.904,0-8.895,3.99-8.895,8.893c0,4.904,3.99,8.894,8.895,8.894c4.902,0,8.893-3.989,8.893-8.894
							C634.656,359.432,630.666,355.441,625.764,355.441z"/>
					</g>
				</g>
			</g>
		</g>
		<g>
			<g>
				<g>
					<g>
						<path fill="#6A655E" d="M626.988,468.142c-19.262,0-34.932-15.671-34.932-34.933c0-11.391,5.578-22.095,14.92-28.635
							c0.912-0.639,2.169-0.417,2.807,0.495c0.639,0.911,0.416,2.168-0.494,2.806c-8.267,5.787-13.203,15.258-13.203,25.334
							c0,17.04,13.863,30.902,30.902,30.902c17.139,0,31.648-14.117,31.688-30.828c0.004-1.111,0.905-2.01,2.016-2.01
							c0.001,0,0.004,0,0.004,0c1.113,0.002,2.014,0.906,2.011,2.02c-0.021,9.279-3.812,18.039-10.673,24.668
							C645.236,464.525,636.342,468.142,626.988,468.142z"/>
					</g>
				</g>
			</g>
		</g>
		<g>
			<g>
				<g>
					<g>
						<path fill="#6A655E" d="M676.365,451.434c-2.641,0-5.367-1.411-7.093-3.955c-0.046-0.063-6.653-9.428-10.989-15.822
							c-0.625-0.922-0.385-2.174,0.537-2.799c0.921-0.625,2.174-0.384,2.799,0.537c4.314,6.364,10.9,15.696,10.967,15.79
							c1.391,2.05,3.797,2.821,5.379,1.751c1.578-1.072,1.746-3.595,0.371-5.622l-17.057-25.14
							c-0.182-0.268-0.361-0.552-0.545-0.841c-0.412-0.648-1.1-1.734-1.492-1.887c-0.209-0.082-0.404-0.198-0.576-0.345
							c-0.718-0.612-2.533-0.612-3.308-0.612h-24.032c-1.111,0-2.014-0.902-2.014-2.015v-5.301c0-1.113,0.902-2.016,2.014-2.016
							h17.758c1.152,0,2.162-0.828,2.162-1.771s-1.01-1.771-2.162-1.771h-17.758c-1.111,0-2.014-0.902-2.014-2.015v-9.734
							c0-3.064-2.145-5.289-5.098-5.289h-3.55c-3.03,0-5.497,2.373-5.497,5.289v16.17c0,1.113-0.9,2.016-2.015,2.016
							c-1.112,0-2.015-0.902-2.015-2.016v-16.17c0-5.139,4.273-9.318,9.526-9.318h3.55c5.117,0,9.127,4.093,9.127,9.318v7.719
							h15.742c3.414,0,6.191,2.603,6.191,5.801c0,3.199-2.777,5.802-6.191,5.802h-15.742v1.271h22.017
							c2.009,0,4.075,0.172,5.667,1.372c1.435,0.696,2.322,2.099,3.113,3.345c0.16,0.254,0.317,0.503,0.475,0.736l17.058,25.139
							c2.622,3.866,1.975,8.9-1.446,11.221C679.062,451.059,677.724,451.434,676.365,451.434z"/>
					</g>
				</g>
			</g>
		</g>
		<g>
			<g>
				<g>
					<g>
						<path fill="#6A655E" d="M651.772,426.119H620.18c-3.217,0-6.239-1.859-7.72-4.741c-0.864-1.484-1.321-3.138-1.321-4.788
							v-4.602c0-1.112,0.902-2.015,2.015-2.015c1.114,0,2.015,0.902,2.015,2.015v4.602c0,0.937,0.283,1.929,0.795,2.794
							c0.023,0.04,0.045,0.079,0.066,0.12c0.789,1.57,2.42,2.585,4.15,2.585h31.593c1.112,0,2.015,0.902,2.015,2.015
							C653.787,425.217,652.885,426.119,651.772,426.119z"/>
					</g>
				</g>
			</g>
		</g>
		<g>
			<g>
				<g>
					<g>
						<path fill="#6A655E" d="M603.264,443.049c-0.832,0-1.611-0.52-1.902-1.351c-1.039-2.97-1.564-6.083-1.564-9.251
							c0-4.763,1.119-16.443,11.493-22.053c0.979-0.529,2.202-0.164,2.732,0.814c0.528,0.979,0.164,2.201-0.815,2.73
							c-8.467,4.578-9.381,14.468-9.381,18.508c0,2.714,0.451,5.379,1.34,7.92c0.367,1.051-0.186,2.2-1.235,2.568
							C603.709,443.012,603.484,443.049,603.264,443.049z"/>
					</g>
				</g>
			</g>
		</g>
		<g>
			<g>
				<g>
					<g>
						<path fill="#6A655E" d="M627.792,460.442c-6.577,0-12.97-2.327-17.997-6.551c-0.853-0.716-0.963-1.987-0.246-2.839
							c0.715-0.853,1.986-0.963,2.838-0.247c4.303,3.616,9.775,5.606,15.405,5.606c13.215,0,23.966-10.75,23.966-23.965
							c0-1.235-0.096-2.479-0.283-3.695c-0.17-1.1,0.584-2.129,1.685-2.298c1.101-0.171,2.13,0.585,2.298,1.685
							c0.219,1.419,0.33,2.868,0.33,4.309C655.787,447.884,643.229,460.442,627.792,460.442z"/>
					</g>
				</g>
			</g>
		</g>
	</g>
	<g>
		<g>
			<g>
				<g>
					<path fill="#6A655E" d="M606.666,450.111c-0.604,0-1.201-0.272-1.596-0.793c-0.316-0.416-0.727-1.152-0.845-1.369
						c-0.534-0.976-0.177-2.2,0.799-2.734c0.976-0.536,2.2-0.178,2.735,0.798c0.263,0.479,0.47,0.8,0.523,0.873
						c0.659,0.891,0.482,2.155-0.404,2.819C607.515,449.979,607.088,450.111,606.666,450.111z"/>
				</g>
			</g>
		</g>
	</g>
</g>
</svg>
