<?xml version="1.0" encoding="utf-8"?>
<!-- Generator: Adobe Illustrator 15.0.0, SVG Export Plug-In . SVG Version: 6.00 Build 0)  -->
<!DOCTYPE svg PUBLIC "-//W3C//DTD SVG 1.1//EN" "http://www.w3.org/Graphics/SVG/1.1/DTD/svg11.dtd">
<svg version="1.1" id="Layer_1" xmlns="http://www.w3.org/2000/svg" xmlns:xlink="http://www.w3.org/1999/xlink" x="0px" y="0px"
	 width="1280px" height="768px" viewBox="0 0 1280 768" enable-background="new 0 0 1280 768" xml:space="preserve">
<g>
	<g>
		<g>
			<g>
				<g>
					<path fill="#6A655E" d="M691.485,374.127c-0.006-0.025-0.01-0.052-0.017-0.077c-0.096-0.41-0.318-0.792-0.678-1.073
						l-27.455-21.426c-0.044-0.033-0.09-0.055-0.133-0.084c-0.056-0.036-0.109-0.074-0.166-0.104
						c-0.056-0.029-0.114-0.05-0.172-0.072c-0.059-0.024-0.115-0.051-0.177-0.066c-0.058-0.02-0.12-0.026-0.182-0.038
						c-0.06-0.011-0.119-0.024-0.182-0.03c-0.06-0.006-0.12-0.004-0.183-0.002c-0.061-0.001-0.121-0.002-0.182,0.004
						c-0.061,0.007-0.121,0.021-0.18,0.033c-0.061,0.014-0.121,0.023-0.18,0.04c-0.059,0.019-0.113,0.043-0.171,0.067
						c-0.058,0.023-0.114,0.045-0.169,0.073c-0.057,0.03-0.108,0.067-0.162,0.103c-0.051,0.035-0.104,0.065-0.15,0.105
						c-0.051,0.041-0.095,0.091-0.141,0.138c-0.039,0.038-0.078,0.067-0.113,0.107l-3.787,4.495l-1.497-1.23l-0.005,0.006
						c-0.783-0.645-1.938-0.572-2.627,0.188l-4.879,5.668l-2.178-2.12l-0.018-0.085l-0.479,0.094l-0.07,0.055
						c-0.031-0.027-0.102-0.017-0.132-0.04c-0.071-0.053-0.16-0.093-0.237-0.134c-0.035-0.02-0.081-0.021-0.117-0.037
						c-0.078-0.037-0.161-0.072-0.244-0.096c-0.034-0.012-0.074-0.012-0.109-0.02c-0.085-0.02-0.169-0.04-0.254-0.049
						c-0.036-0.004-0.07,0-0.104,0.001c-0.088-0.006-0.177-0.009-0.265-0.001c-0.037,0.004-0.071,0.016-0.107,0.021
						c-0.086,0.012-0.17,0.023-0.254,0.049c-0.04,0.012-0.077,0.031-0.115,0.045c-0.076,0.028-0.153,0.055-0.227,0.091
						c-0.043,0.023-0.085,0.058-0.126,0.083c-0.063,0.04-0.128,0.075-0.188,0.122c-0.045,0.036-0.08,0.083-0.123,0.122
						c-0.051,0.047-0.104,0.093-0.15,0.148l-10.219,12.309c-0.326,0.393-0.481,0.899-0.434,1.406c0.051,0.51,0.301,0.977,0.699,1.3
						l14.449,11.736l-31.021,36.716l-14.293-11.184c-0.041-0.031-0.084-0.051-0.125-0.076c-0.054-0.038-0.105-0.076-0.164-0.104
						c-0.057-0.031-0.113-0.054-0.172-0.077s-0.114-0.049-0.174-0.065c-0.062-0.019-0.123-0.028-0.184-0.04s-0.119-0.025-0.18-0.031
						c-0.061-0.005-0.123-0.003-0.186-0.004c-0.06,0-0.121,0-0.18,0.005c-0.061,0.007-0.121,0.019-0.183,0.03
						c-0.059,0.012-0.118,0.023-0.177,0.041s-0.117,0.041-0.174,0.064s-0.113,0.044-0.168,0.072
						c-0.057,0.029-0.109,0.066-0.163,0.102c-0.05,0.033-0.101,0.064-0.149,0.104c-0.051,0.042-0.098,0.089-0.145,0.136
						c-0.033,0.034-0.071,0.062-0.104,0.099l-10.18,11.764c-0.01,0.01-0.014,0.022-0.022,0.033c-0.009,0.01-0.02,0.018-0.027,0.028
						c-0.032,0.04-0.055,0.087-0.082,0.129c-0.038,0.054-0.075,0.108-0.106,0.165c-0.031,0.055-0.051,0.112-0.076,0.17
						c-0.022,0.059-0.049,0.115-0.066,0.175c-0.02,0.06-0.029,0.121-0.041,0.184c-0.012,0.059-0.025,0.118-0.031,0.179
						s-0.006,0.121-0.005,0.184c-0.001,0.061-0.003,0.121,0.003,0.182c0.006,0.062,0.019,0.121,0.031,0.18
						c0.012,0.062,0.021,0.121,0.039,0.18c0.016,0.06,0.042,0.115,0.063,0.172c0.023,0.059,0.042,0.117,0.073,0.17
						c0.026,0.057,0.064,0.108,0.098,0.16c0.033,0.053,0.066,0.105,0.105,0.154c0.041,0.051,0.09,0.097,0.135,0.143
						c0.035,0.037,0.066,0.077,0.104,0.111c0.013,0.014,0.028,0.021,0.042,0.033c0.007,0.005,0.012,0.012,0.02,0.018l2.699,2.15
						l-4.742,6.184c-0.035,0.049-0.061,0.102-0.094,0.152c-0.033,0.056-0.074,0.107-0.102,0.164
						c-0.027,0.059-0.047,0.117-0.066,0.176c-0.023,0.058-0.049,0.115-0.065,0.177c-0.017,0.059-0.022,0.122-0.032,0.183
						c-0.012,0.062-0.026,0.121-0.028,0.182c-0.005,0.061,0.002,0.123,0.002,0.182c0.002,0.062,0,0.123,0.007,0.184
						c0.008,0.061,0.025,0.117,0.039,0.178c0.014,0.06,0.021,0.121,0.041,0.18c0.018,0.059,0.048,0.112,0.072,0.167
						c0.023,0.058,0.046,0.118,0.076,0.173c0.029,0.055,0.07,0.103,0.107,0.154c0.033,0.052,0.065,0.105,0.105,0.154
						c0.043,0.049,0.096,0.092,0.143,0.136c0.042,0.042,0.078,0.086,0.125,0.122l2.678,2.119l-4.239,4.872
						c-0.122,0.09-0.236,0.19-0.337,0.313c-0.104,0.128-0.185,0.268-0.251,0.412c-0.466,0.78-0.327,1.804,0.383,2.42
						c0.242,0.212,0.522,0.348,0.813,0.418l24.334,19.98c0.122,0.1,0.253,0.182,0.389,0.248c0.01,0.006,0.015,0.016,0.023,0.021
						c0.461,0.401,1.062,0.54,1.619,0.431c0.404-0.079,0.788-0.29,1.077-0.627l4.95-5.721l2.172,1.72
						c0.008,0.006,0.02,0.011,0.027,0.018c0.101,0.076,0.207,0.143,0.316,0.197c0.014,0.008,0.03,0.014,0.046,0.021
						c0.113,0.051,0.228,0.092,0.347,0.121c0.014,0.004,0.027,0.006,0.043,0.008c0.121,0.027,0.242,0.044,0.365,0.047
						c0.009-0.001,0.02,0,0.028-0.001c0.128,0.001,0.257-0.009,0.382-0.034l0,0l0,0l0,0c0.105-0.02,0.207-0.052,0.307-0.088
						c0.033-0.013,0.064-0.031,0.097-0.045c0.067-0.029,0.131-0.059,0.194-0.094c0.037-0.023,0.072-0.051,0.108-0.075
						c0.054-0.036,0.106-0.073,0.157-0.116c0.037-0.029,0.07-0.066,0.105-0.102c0.033-0.031,0.07-0.062,0.102-0.099l5.09-5.823
						l2.533,2.018c0.066,0.053,0.142,0.092,0.216,0.135c0.047,0.029,0.094,0.067,0.144,0.091c0.08,0.038,0.162,0.062,0.248,0.089
						c0.047,0.016,0.094,0.039,0.143,0.051c0.092,0.022,0.186,0.027,0.278,0.035c0.044,0.004,0.085,0.015,0.126,0.015
						c0.137,0.003,0.272-0.009,0.404-0.035c0.107-0.021,0.213-0.05,0.316-0.091c0.021-0.008,0.041-0.021,0.062-0.029
						c0.08-0.035,0.16-0.069,0.235-0.115c0.021-0.012,0.038-0.029,0.057-0.041c0.075-0.049,0.148-0.098,0.216-0.156
						c0.032-0.027,0.059-0.062,0.088-0.092c0.049-0.051,0.105-0.1,0.15-0.158l0.004-0.002V459.5l0,0l9.988-12.487
						c0.318-0.398,0.465-0.909,0.406-1.415c-0.059-0.508-0.319-0.972-0.722-1.286l-14.666-11.474l30.829-36.486l14.098,11.451
						c0.459,0.372,1.035,0.498,1.574,0.393c0.16-0.031,0.312-0.09,0.461-0.161c0.168,0.013,0.338,0.005,0.504-0.028
						c0.417-0.082,0.773-0.295,1.065-0.65l9.367-11.504l0.044,0.225l0.076-0.014c0.07-0.015,0.094-0.199,0.141-0.275
						c0.021-0.033,0.043-0.088,0.059-0.121c0.037-0.068,0.057-0.153,0.084-0.222c0.018-0.047,0.041-0.099,0.057-0.146
						c0.02-0.066,0.025-0.139,0.038-0.205c0.011-0.056,0.028-0.109,0.031-0.163c0.008-0.065,0.001-0.132,0.001-0.198
						c-0.001-0.057,0.004-0.113,0-0.169c-0.008-0.073-0.027-0.144-0.041-0.214c-0.01-0.049-0.014-0.099-0.029-0.146
						c-0.024-0.084-0.06-0.162-0.096-0.241c-0.016-0.034-0.025-0.069-0.041-0.102c-0.046-0.087-0.102-0.167-0.16-0.245
						c-0.018-0.024-0.029-0.049-0.045-0.07c-0.066-0.083-0.111,0.016-0.191-0.059c-0.018-0.014,0.295,0.064,0.281,0.068l0.164-0.741
						l0.066,0.339l-2.959-2.141l4.707-6.067c0.035-0.046-0.014-0.083,0.02-0.13c0.037-0.057,0.039-0.104,0.07-0.162
						c0.029-0.055,0.029-0.11,0.053-0.168c0.021-0.059,0.041-0.114,0.059-0.176c0.018-0.06,0.02-0.121,0.029-0.182
						c0.012-0.06,0.025-0.117,0.029-0.18c0.008-0.062,0.002-0.121,0-0.186c0-0.059,0.002-0.119-0.002-0.182
						c-0.008-0.059-0.024-0.118-0.037-0.178c-0.012-0.061-0.021-0.121-0.039-0.18c-0.019-0.059-0.045-0.112-0.068-0.169
						c-0.023-0.059-0.043-0.118-0.072-0.173s-0.066-0.104-0.104-0.155c-0.033-0.052-0.064-0.106-0.105-0.156
						c-0.039-0.048-0.09-0.091-0.134-0.136c-0.044-0.043-0.081-0.09-0.13-0.129l-1.674-1.375l4.251-5.109
						c0.375-0.447,0.5-1.014,0.407-1.545C691.508,374.224,691.496,374.176,691.485,374.127z M612.105,463.984l-22.432-18.419
						l3.326-3.824l22.759,18.017L612.105,463.984z M621.879,459.725l-30.705-24.309l3.552-4.635l30.928,24.624L621.879,459.725z
						 M632.072,455.625l-36.498-29.055c-0.006-0.006-0.01-0.012-0.017-0.018c-0.003-0.002-0.009-0.003-0.014-0.008l-2.569-2.047
						l7.686-8.88l39.005,30.516L632.072,455.625z M625.863,430.479l-6.974-5.452l30.978-36.663l6.867,5.576L625.863,430.479z
						 M681.227,376.305c-0.814-0.67-2.02-0.553-2.691,0.264c-0.67,0.814-0.553,2.02,0.264,2.689l5.85,4.807l-3.639,4.57
						l-4.625-3.824c-0.815-0.673-2.02-0.559-2.693,0.256c-0.674,0.813-0.559,2.018,0.257,2.692l6.136,5.071
						c0.006,0.004,0.012,0.011,0.018,0.016c0.003,0.004,0.009,0.005,0.014,0.008l2.592,2.144l-7.48,9.036l-38.866-31.568
						l7.765-9.354l24.027,19.859c0.461,0.38,1.045,0.509,1.589,0.402c0.417-0.082,0.812-0.305,1.104-0.658
						c0.672-0.814,0.559-2.021-0.258-2.692l-20.05-16.571l3.853-4.25l1.217,1c0.082,0.107,0.176,0.205,0.281,0.296
						c0.119,0.101,0.248,0.185,0.384,0.251l15.416,12.666c0.46,0.379,1.043,0.506,1.584,0.399c0.419-0.082,0.814-0.305,1.108-0.663
						c0.67-0.814,0.551-2.02-0.264-2.689l-14.253-11.713l2.569-3.05l24.521,19.134l-3.052,3.668L681.227,376.305z"/>
				</g>
			</g>
		</g>
	</g>
</g>
</svg>
