<?xml version="1.0" encoding="utf-8"?>
<!-- Generator: Adobe Illustrator 15.0.0, SVG Export Plug-In . SVG Version: 6.00 Build 0)  -->
<!DOCTYPE svg PUBLIC "-//W3C//DTD SVG 1.1//EN" "http://www.w3.org/Graphics/SVG/1.1/DTD/svg11.dtd">
<svg version="1.1" id="Layer_1" xmlns="http://www.w3.org/2000/svg" xmlns:xlink="http://www.w3.org/1999/xlink" x="0px" y="0px"
	 width="1280px" height="768px" viewBox="0 0 1280 768" enable-background="new 0 0 1280 768" xml:space="preserve">
<g>
	<g>
		<g>
			<g>
				<g>
					<path fill="#6A655E" d="M635.487,455.795c-7.99,0-15.856-2.092-22.747-6.049c-0.965-0.554-1.298-1.785-0.744-2.75
						c0.554-0.966,1.785-1.299,2.751-0.744c6.281,3.606,13.453,5.513,20.74,5.513c0.948,0,1.9-0.032,2.832-0.095
						c1.103-0.078,2.07,0.765,2.146,1.875s-0.764,2.071-1.875,2.146C637.569,455.76,636.525,455.795,635.487,455.795z"/>
				</g>
			</g>
		</g>
	</g>
	<g>
		<g>
			<g>
				<g>
					<path fill="#6A655E" d="M608.598,446.554c-0.434,0-0.871-0.14-1.239-0.427c-3.25-2.539-6.144-5.502-8.602-8.809
						c-0.664-0.893-0.478-2.155,0.415-2.819c0.893-0.663,2.155-0.479,2.82,0.415c2.242,3.017,4.883,5.72,7.849,8.037
						c0.876,0.684,1.033,1.951,0.347,2.827C609.79,446.287,609.197,446.554,608.598,446.554z"/>
				</g>
			</g>
		</g>
	</g>
	<g>
		<g>
			<g>
				<g>
					<path fill="#6A655E" d="M596.705,432.648c-0.665,0-1.311-0.329-1.692-0.916c-0.14-0.174-0.274-0.385-0.396-0.639
						c-0.484-1.002-0.062-2.206,0.939-2.689c0.961-0.464,2.109-0.096,2.627,0.819c0.099,0.128,0.195,0.274,0.286,0.44
						c0.535,0.977,0.178,2.201-0.798,2.736C597.364,432.568,597.031,432.648,596.705,432.648z"/>
				</g>
			</g>
		</g>
	</g>
	<g>
		<g>
			<g>
				<g>
					<path fill="#6A655E" d="M594.058,426.092c-0.84,0-1.624-0.53-1.908-1.37c-1.595-4.713-2.403-9.647-2.403-14.668
						c0-25.222,20.519-45.74,45.741-45.74s45.741,20.519,45.741,45.74l-0.002,0.39c-0.008,0.798-0.486,1.516-1.219,1.831
						c-0.734,0.315-1.584,0.169-2.168-0.375l-6.791-6.313c-0.814-0.758-0.861-2.032-0.104-2.848
						c0.758-0.814,2.033-0.861,2.848-0.104l3.166,2.943c-2.24-20.902-19.984-37.234-41.472-37.234c-23,0-41.711,18.711-41.711,41.71
						c0,4.58,0.737,9.08,2.19,13.376c0.356,1.055-0.208,2.198-1.262,2.555C594.49,426.057,594.272,426.092,594.058,426.092z"/>
				</g>
			</g>
		</g>
	</g>
	<g>
		<g>
			<g>
				<g>
					<path fill="#6A655E" d="M679.213,412.069c-0.492,0-0.986-0.18-1.375-0.542c-0.813-0.76-0.856-2.035-0.099-2.849l5.944-6.368
						c0.759-0.812,2.035-0.857,2.848-0.098c0.814,0.76,0.857,2.034,0.098,2.848l-5.943,6.368
						C680.289,411.854,679.752,412.069,679.213,412.069z"/>
				</g>
			</g>
		</g>
	</g>
	<g>
		<g>
			<g>
				<g>
					<path fill="#6A655E" d="M635.856,414.348c-0.52,0-1.021-0.201-1.397-0.563c-0.395-0.38-0.619-0.904-0.619-1.452v-22.078
						c0-1.113,0.902-2.016,2.016-2.016s2.015,0.902,2.015,2.016v19.984l19.982-0.771c1.126-0.046,2.049,0.824,2.092,1.937
						c0.042,1.111-0.824,2.048-1.937,2.091l-22.075,0.851C635.908,414.347,635.882,414.348,635.856,414.348z"/>
				</g>
			</g>
		</g>
	</g>
	<g>
		<g>
			<g>
				<g>
					<g>
						<g>
							<g>
								<path fill="#6A655E" d="M644.354,444.507c-0.532,0-1.053-0.218-1.427-0.593s-0.589-0.895-0.589-1.422
									c0-0.533,0.215-1.053,0.589-1.428s0.895-0.588,1.427-0.588c0.527,0,1.047,0.213,1.422,0.588s0.594,0.895,0.594,1.428
									c0,0.527-0.219,1.047-0.594,1.422S644.881,444.507,644.354,444.507z"/>
							</g>
						</g>
					</g>
				</g>
				<g>
					<g>
						<g>
							<g>
								<path fill="#6A655E" d="M634.024,443.6c-0.004-1.111,0.895-2.019,2.011-2.023l0,0c1.113-0.004,2.015,0.895,2.02,2.008l0,0
									c0.004,1.112-0.896,2.019-2.007,2.022l0,0l0,0l0,0h-0.004l0,0C634.931,445.606,634.032,444.708,634.024,443.6z
									 M627.222,444.511L627.222,444.511L627.222,444.511c-1.081-0.278-1.725-1.378-1.448-2.454l0,0
									c0.279-1.08,1.374-1.729,2.455-1.451l0,0c1.076,0.278,1.725,1.379,1.447,2.455l0,0c-0.234,0.91-1.052,1.515-1.951,1.515l0,0
									C627.561,444.575,627.391,444.551,627.222,444.511z M618.96,441.189c-0.967-0.543-1.314-1.773-0.77-2.744l0,0
									c0.544-0.971,1.773-1.314,2.741-0.77l0,0c0.971,0.544,1.317,1.77,0.773,2.74l0,0c-0.371,0.661-1.056,1.032-1.761,1.032l0,0
									C619.613,441.448,619.274,441.363,618.96,441.189z M611.823,435.883c-0.802-0.774-0.827-2.048-0.053-2.85l0,0
									c0.77-0.803,2.047-0.822,2.849-0.053l0,0c0.798,0.774,0.822,2.047,0.053,2.85l0,0c-0.395,0.411-0.923,0.616-1.451,0.616l0,0
									C612.718,436.446,612.214,436.261,611.823,435.883z M606.257,428.942c-0.58-0.951-0.277-2.188,0.674-2.769l0,0
									c0.951-0.58,2.188-0.277,2.769,0.669l0,0c0.581,0.951,0.278,2.192-0.673,2.772l0,0c-0.327,0.197-0.689,0.295-1.044,0.295
									l0,0C607.301,429.91,606.637,429.563,606.257,428.942z M602.643,420.81L602.643,420.81L602.643,420.81
									c-0.314-1.067,0.294-2.192,1.358-2.507l0,0c1.068-0.318,2.191,0.291,2.506,1.358l0,0c0.318,1.068-0.29,2.188-1.357,2.507
									l0,0c-0.189,0.057-0.384,0.081-0.572,0.081l0,0C603.706,422.249,602.904,421.685,602.643,420.81z M601.229,412.029
									c-0.04-1.113,0.833-2.044,1.946-2.08l0,0c1.113-0.036,2.043,0.834,2.08,1.946l0,0c0.036,1.112-0.834,2.043-1.946,2.08l0,0
									c-0.024,0-0.044,0-0.069,0l0,0C602.159,413.976,601.265,413.117,601.229,412.029z M666.462,408.168
									c-0.097-1.108,0.722-2.088,1.829-2.184l0,0c1.109-0.102,2.088,0.717,2.185,1.824l0,0c0.101,1.109-0.717,2.088-1.825,2.188
									l0,0c-0.061,0.004-0.121,0.009-0.182,0.009l0,0C667.438,410.006,666.555,409.216,666.462,408.168z M603.59,405.585
									c-1.088-0.25-1.765-1.33-1.52-2.414l0,0l0,0l0,0c0.25-1.084,1.33-1.766,2.414-1.516l0,0
									c1.084,0.246,1.765,1.325,1.516,2.414l0,0c-0.214,0.931-1.04,1.563-1.963,1.563l0,0
									C603.892,405.633,603.739,405.617,603.59,405.585z M664.773,400.486c-0.379-1.043,0.166-2.2,1.213-2.575l0,0
									c1.044-0.379,2.201,0.165,2.575,1.209l0,0l0,0l0,0c0.379,1.048-0.165,2.205-1.213,2.579l0,0
									c-0.222,0.086-0.456,0.121-0.681,0.121l0,0C665.841,401.82,665.067,401.309,664.773,400.486z M606.004,397.541
									c-0.988-0.516-1.366-1.732-0.851-2.721l0,0c0.516-0.987,1.736-1.365,2.72-0.85l0,0c0.987,0.515,1.366,1.736,0.85,2.72l0,0
									c-0.362,0.688-1.063,1.08-1.789,1.08l0,0C606.621,397.771,606.302,397.697,606.004,397.541z M661.175,393.498
									c-0.633-0.914-0.402-2.172,0.512-2.801l0,0c0.915-0.632,2.172-0.402,2.805,0.513l0,0c0.633,0.914,0.403,2.167-0.517,2.804
									l0,0c-0.346,0.238-0.744,0.355-1.14,0.355l0,0C662.193,394.369,661.566,394.066,661.175,393.498z M610.388,390.379
									c-0.822-0.749-0.882-2.022-0.133-2.845l0,0c0.75-0.826,2.023-0.883,2.849-0.133l0,0c0.822,0.749,0.882,2.023,0.133,2.845
									l0,0c-0.399,0.436-0.943,0.657-1.491,0.657l0,0C611.263,390.903,610.775,390.73,610.388,390.379z M655.916,387.651
									c-0.847-0.729-0.94-1.999-0.214-2.842l0,0c0.726-0.846,1.999-0.938,2.841-0.213l0,0c0.842,0.726,0.939,1.994,0.214,2.841
									l0,0c-0.399,0.463-0.964,0.701-1.532,0.701l0,0C656.762,388.139,656.295,387.978,655.916,387.651z M616.446,384.564
									c-0.609-0.936-0.343-2.185,0.592-2.789l0,0c0.932-0.604,2.181-0.343,2.785,0.592l0,0c0.608,0.932,0.342,2.181-0.592,2.789
									l0,0c-0.339,0.218-0.717,0.322-1.092,0.322l0,0C617.477,385.479,616.829,385.156,616.446,384.564z M649.346,383.322
									c-1.003-0.491-1.414-1.696-0.926-2.695l0,0c0.487-1,1.692-1.415,2.695-0.928l0,0c0,0,0,0-0.004,0l0,0
									c1.004,0.488,1.419,1.693,0.931,2.696l0,0c-0.351,0.714-1.067,1.129-1.812,1.129l0,0
									C649.932,383.524,649.629,383.46,649.346,383.322z M623.776,380.474c-0.346-1.06,0.23-2.196,1.286-2.543l0,0
									c1.06-0.347,2.197,0.226,2.543,1.286l0,0c0.351,1.055-0.226,2.195-1.281,2.543h-0.004c-0.209,0.068-0.419,0.1-0.629,0.1l0,0
									C624.844,381.859,624.054,381.319,623.776,380.474z M641.895,380.812c-1.092-0.218-1.801-1.278-1.587-2.37l0,0
									c0.217-1.092,1.277-1.802,2.37-1.584l0,0c1.093,0.214,1.802,1.274,1.583,2.366l0,0c-0.188,0.963-1.03,1.623-1.97,1.623l0,0
									C642.156,380.848,642.027,380.836,641.895,380.812z M631.913,378.398c-0.068-1.113,0.778-2.067,1.89-2.136l0,0
									c1.108-0.064,2.063,0.777,2.132,1.89l0,0c0.069,1.112-0.778,2.067-1.89,2.136l0,0c-0.041,0-0.081,0-0.121,0l0,0
									C632.864,380.288,631.977,379.466,631.913,378.398z"/>
							</g>
						</g>
					</g>
				</g>
				<g>
					<g>
						<g>
							<g>
								<path fill="#6A655E" d="M668.139,418.433c-0.527,0-1.048-0.218-1.422-0.593c-0.376-0.375-0.594-0.895-0.594-1.427
									c0-0.528,0.218-1.048,0.594-1.423c0.37-0.374,0.89-0.588,1.422-0.588c0.531,0,1.052,0.214,1.426,0.588
									c0.375,0.375,0.589,0.895,0.589,1.423c0,0.532-0.214,1.052-0.589,1.427C669.19,418.215,668.67,418.433,668.139,418.433z"/>
							</g>
						</g>
					</g>
				</g>
			</g>
		</g>
	</g>
	<g>
		<g>
			<g>
				<g>
					<path fill="#6A655E" d="M663.664,452.315h-14.542c-0.771,0-1.474-0.439-1.812-1.132s-0.251-1.518,0.225-2.124
						c0.038-0.05,3.923-5.033,7.57-10.972l0.656-1.064c1.53-2.479,3.267-5.289,4.239-7.531c1.139-2.629,1.312-4.508,0.511-5.582
						c-0.98-1.317-2.103-2.04-3.426-2.21c-2.873-0.368-5.834,1.93-5.863,1.952c-0.868,0.697-2.137,0.558-2.833-0.311
						s-0.557-2.137,0.312-2.832c0.173-0.14,4.291-3.396,8.896-2.807c2.433,0.312,4.5,1.59,6.146,3.8
						c1.749,2.349,1.734,5.485-0.045,9.592c-1.089,2.51-2.905,5.451-4.509,8.047l-0.65,1.055c-1.945,3.168-3.923,6.031-5.405,8.089
						h10.53c1.112,0,2.015,0.902,2.015,2.016S664.776,452.315,663.664,452.315z"/>
				</g>
			</g>
		</g>
	</g>
	<g>
		<g>
			<g>
				<g>
					<path fill="#6A655E" d="M679.381,452.315c-1.113,0-2.016-0.901-2.016-2.015v-6.448H665.41c-0.73,0-1.404-0.396-1.76-1.034
						c-0.356-0.639-0.338-1.42,0.047-2.041l13.971-22.568c0.474-0.766,1.397-1.124,2.264-0.877c0.867,0.246,1.465,1.037,1.465,1.938
						v20.553h4.029c1.113,0,2.015,0.902,2.015,2.016s-0.901,2.015-2.015,2.015h-4.029v6.448
						C681.396,451.414,680.493,452.315,679.381,452.315z M669.027,439.822h8.338v-13.47L669.027,439.822z"/>
				</g>
			</g>
		</g>
	</g>
</g>
</svg>
