<?xml version="1.0" encoding="utf-8"?>
<!-- Generator: Adobe Illustrator 15.0.0, SVG Export Plug-In . SVG Version: 6.00 Build 0)  -->
<!DOCTYPE svg PUBLIC "-//W3C//DTD SVG 1.1//EN" "http://www.w3.org/Graphics/SVG/1.1/DTD/svg11.dtd">
<svg version="1.1" id="Layer_1" xmlns="http://www.w3.org/2000/svg" xmlns:xlink="http://www.w3.org/1999/xlink" x="0px" y="0px"
	 width="1280px" height="768px" viewBox="0 0 1280 768" enable-background="new 0 0 1280 768" xml:space="preserve">
<g>
	<g>
		<g>
			<g>
				<g>
					<g>
						<g>
							<path fill="#6A655E" d="M659.469,396.707c-2.874,0-5.56-2.808-8.033-5.846l-0.086-0.104c-0.275-0.337-0.551-0.68-0.829-1.024
								c-2.144-2.656-4.358-5.402-7.031-7.088c-2.041-1.287-4.417-1.943-6.932-2.639c-1.304-0.359-2.652-0.732-3.954-1.201
								c-0.448-0.162-1.002-0.337-1.645-0.54c-4.778-1.509-13.671-4.317-18.635-14.089c-0.941-1.854-2.212-7.607-2.543-10.381
								c-0.132-1.104,0.657-2.107,1.762-2.239c1.107-0.13,2.107,0.657,2.24,1.763c0.323,2.713,1.541,7.862,2.134,9.032
								c4.198,8.263,11.746,10.647,16.255,12.071c0.684,0.216,1.274,0.402,1.798,0.592c1.156,0.416,2.372,0.752,3.66,1.107
								c2.686,0.742,5.464,1.51,8.009,3.115c3.237,2.042,5.776,5.189,8.018,7.965c0.273,0.34,0.546,0.678,0.816,1.01l0.086,0.105
								c3.487,4.28,4.702,4.387,4.921,4.36c0-0.005,0.043-0.038,0.111-0.128c1.396-1.82-0.404-5.206-1.597-7.446
								c-1.866-3.513-4.682-6.413-8.618-8.889c-2.023-1.271-4.789-3.31-5.443-6.307c-0.37-1.696-0.01-3.395,1.073-5.046
								c0.61-0.931,1.858-1.19,2.79-0.58c0.931,0.609,1.19,1.858,0.58,2.789c-0.631,0.963-0.592,1.59-0.507,1.978
								c0.245,1.122,1.474,2.386,3.652,3.755c4.548,2.861,7.825,6.258,10.019,10.385c1.587,2.981,4.223,7.936,1.249,11.814
								c-1.062,1.385-2.356,1.691-3.257,1.704C659.512,396.707,659.49,396.707,659.469,396.707z"/>
						</g>
					</g>
				</g>
			</g>
			<g>
				<g>
					<g>
						<g>
							<path fill="#6A655E" d="M650.636,342.753c-0.052,0-0.104-0.002-0.156-0.006c-2.149-0.164-4.253-0.405-6.286-0.638
								c-1.187-0.136-2.34-0.268-3.441-0.377c-5.936-0.585-11.143-1.355-15.476-2.289c-2.22-0.479-6.352-1.37-9.461-3.145
								c-0.966-0.553-1.302-1.783-0.75-2.75c0.551-0.965,1.782-1.303,2.749-0.75c2.568,1.467,6.305,2.271,8.312,2.705
								c4.184,0.901,9.238,1.647,15.022,2.219c1.121,0.111,2.295,0.245,3.504,0.383c1.996,0.229,4.061,0.465,6.135,0.623
								c1.109,0.086,1.94,1.054,1.855,2.164C652.562,341.949,651.679,342.753,650.636,342.753z"/>
						</g>
					</g>
				</g>
			</g>
			<g>
				<g>
					<g>
						<g>
							<path fill="#6A655E" d="M613.471,334.266c-0.516,0-1.031-0.196-1.424-0.588c-0.287-0.287-0.55-0.589-0.78-0.896
								c-0.667-0.892-0.486-2.154,0.405-2.821c0.892-0.668,2.154-0.485,2.821,0.405c0.116,0.154,0.25,0.309,0.402,0.459
								c0.787,0.787,0.789,2.062,0.003,2.851C614.504,334.068,613.987,334.266,613.471,334.266z"/>
						</g>
					</g>
				</g>
			</g>
			<g>
				<g>
					<g>
						<g>
							<path fill="#6A655E" d="M688.473,378.838c-3.406,0-7.34-2.876-10.604-5.261c-0.621-0.454-1.207-0.884-1.721-1.238
								c-0.833-0.577-1.728-1.148-2.592-1.7c-1.237-0.791-2.517-1.607-3.725-2.505c-0.894-0.663-1.081-1.926-0.418-2.819
								c0.664-0.894,1.927-1.08,2.82-0.417c1.095,0.813,2.259,1.557,3.491,2.345c0.896,0.572,1.821,1.163,2.717,1.783
								c0.556,0.385,1.164,0.828,1.806,1.298c2.251,1.646,6.934,5.067,8.652,4.419c0.699-0.264,1.557-0.711,1.68-1.341
								c0.189-0.979-0.904-2.82-2.599-4.38c-0.744-0.685-2.487-2.035-4.507-3.601c-3.354-2.599-7.527-5.834-9.816-8.114
								c-0.789-0.785-0.791-2.061-0.006-2.85c0.785-0.788,2.061-0.791,2.85-0.005c2.111,2.103,6.176,5.253,9.441,7.784
								c2.178,1.688,3.897,3.02,4.768,3.82c1.376,1.266,4.506,4.593,3.825,8.11c-0.263,1.355-1.206,3.209-4.212,4.345
								C689.731,378.736,689.111,378.838,688.473,378.838z"/>
						</g>
					</g>
				</g>
			</g>
			<g>
				<g>
					<g>
						<g>
							<path fill="#6A655E" d="M669.357,396.523c-1.713,0-3.382-0.82-4.764-2.359c-1.211-1.348-0.857-3.219-0.449-5.385
								c0.536-2.84,1.27-6.731-0.731-10.953c-3.073-6.486-6.587-9.504-12.129-10.419c-1.099-0.181-1.841-1.218-1.66-2.316
								c0.182-1.098,1.217-1.839,2.316-1.66c8.761,1.446,12.68,7.53,15.114,12.67c2.562,5.406,1.652,10.232,1.051,13.426
								c-0.139,0.729-0.32,1.696-0.322,2.147c0.606,0.608,1.193,0.883,1.746,0.809c0.688-0.088,1.431-0.719,1.891-1.607
								c1.459-2.819,2.881-5.797,2.85-8.484c-0.104-9.119-4.411-16.563-12.801-22.127c-0.929-0.614-1.182-1.865-0.566-2.792
								s1.865-1.182,2.793-0.566c9.436,6.256,14.486,15.054,14.604,25.44c0.041,3.613-1.682,7.253-3.3,10.381
								c-1.083,2.092-2.936,3.496-4.958,3.754C669.812,396.51,669.584,396.523,669.357,396.523z"/>
						</g>
					</g>
				</g>
			</g>
			<g>
				<g>
					<g>
						<g>
							<path fill="#6A655E" d="M693.637,358.553c-1.924,0-3.9-0.515-5.816-1.014c-1.408-0.366-2.738-0.713-3.949-0.836l-1.387-0.143
								c-3.15-0.328-6.408-0.666-9.488-0.677c-1.111-0.004-2.012-0.909-2.008-2.022c0.004-1.109,0.906-2.008,2.016-2.008
								c0.002,0,0.005,0,0.008,0c3.279,0.012,6.641,0.36,9.889,0.698l1.379,0.142c1.518,0.156,3.062,0.558,4.556,0.946
								c1.835,0.478,3.569,0.928,5.016,0.88c0.654-0.022,0.789-0.26,0.879-0.522c0.261-0.763-0.074-2.136-0.913-2.832
								c-2.102-1.743-17.631-4.712-29.338-5.17c-2.367-0.093-6.17-1.043-9.848-1.962c-2.709-0.677-5.512-1.377-7.127-1.559
								c-1.105-0.124-1.901-1.121-1.777-2.228c0.125-1.105,1.121-1.901,2.229-1.777c1.881,0.212,4.685,0.913,7.653,1.654
								c3.316,0.828,7.076,1.768,9.026,1.844c9.03,0.354,27.945,2.937,31.754,6.095c2.057,1.705,2.982,4.816,2.154,7.238
								c-0.67,1.959-2.373,3.172-4.557,3.246C693.87,358.551,693.754,358.553,693.637,358.553z"/>
						</g>
					</g>
				</g>
			</g>
			<g>
				<g>
					<g>
						<g>
							<path fill="#6A655E" d="M676.541,359.574c-0.576,0-1.147-0.245-1.547-0.721c-0.503-0.602-1.338-1.126-2.305-1.732
								c-1.254-0.787-2.815-1.768-4.246-3.326c-0.752-0.819-0.697-2.094,0.123-2.847c0.819-0.752,2.095-0.697,2.846,0.122
								c1.063,1.159,2.262,1.91,3.42,2.637c1.15,0.723,2.34,1.469,3.253,2.559c0.714,0.854,0.603,2.124-0.251,2.839
								C677.456,359.42,676.998,359.574,676.541,359.574z"/>
						</g>
					</g>
				</g>
			</g>
		</g>
	</g>
	<g>
		<g>
			<g>
				<g>
					<g>
						<g>
							<path fill="#6A655E" d="M665.718,453.398c-0.483,0-0.968-0.173-1.351-0.52l-5.947-5.373
								c-0.762-0.689-0.884-1.841-0.283-2.674l1.487-2.064l-1.731-1.798c-0.744-0.773-0.752-1.993-0.018-2.776l1.822-1.943
								l-1.308-1.201c-0.785-0.723-0.872-1.932-0.196-2.759l1.346-1.647l-2.449-2.285c-0.41-0.382-0.642-0.917-0.641-1.477
								l0.006-3.452c-3.869-2.761-6.227-7.212-6.219-11.873c0.014-7.901,6.495-14.329,14.447-14.329
								c7.951,0.013,14.391,6.461,14.379,14.374c-0.008,5.09-3.003,9.232-6.08,11.66l-0.038,23.36
								c-0.001,0.564-0.238,1.103-0.655,1.483l-5.212,4.767C666.692,453.223,666.205,453.398,665.718,453.398z M662.461,445.725
								l3.248,2.936l3.207-2.932l0.037-23.49c0.002-0.664,0.33-1.285,0.879-1.66c2.395-1.637,5.194-4.972,5.201-8.983
								c0.008-5.691-4.627-10.329-10.334-10.339c-5.75,0-10.424,4.624-10.434,10.307c-0.005,3.579,2.054,7.134,5.246,9.056
								c0.605,0.365,0.977,1.021,0.975,1.729l-0.006,3.662l3.188,2.974c0.777,0.724,0.858,1.927,0.187,2.749l-1.337,1.637
								l1.404,1.291c0.396,0.365,0.631,0.872,0.65,1.409c0.02,0.538-0.176,1.061-0.544,1.453l-1.904,2.031l1.569,1.63
								c0.676,0.702,0.752,1.786,0.183,2.576L662.461,445.725z"/>
						</g>
					</g>
				</g>
			</g>
		</g>
	</g>
	<g>
		<g>
			<g>
				<g>
					<path fill="#6A655E" d="M665.154,412.109c-1.113,0-2.016-0.902-2.016-2.016v-15.43c0-1.113,0.902-2.016,2.016-2.016
						s2.015,0.902,2.015,2.016v15.43C667.169,411.207,666.268,412.109,665.154,412.109z"/>
				</g>
			</g>
		</g>
	</g>
	<g>
		<g>
			<g>
				<g>
					<path fill="#6A655E" d="M596.948,360.6c-0.228,0-0.458-0.038-0.683-0.119l-10.957-3.947c-0.524-0.189-0.946-0.587-1.167-1.099
						c-0.22-0.512-0.219-1.092,0.004-1.603l14.544-33.365c0.216-0.496,0.624-0.885,1.13-1.078c0.506-0.192,1.07-0.174,1.562,0.055
						l10.768,4.98c0.999,0.462,1.442,1.641,0.996,2.646l-14.355,32.332C598.458,360.149,597.723,360.6,596.948,360.6z
						 M588.698,353.471l7.169,2.583l12.789-28.806l-7.097-3.282L588.698,353.471z"/>
				</g>
			</g>
		</g>
	</g>
	<g>
		<g>
			<g>
				<g>
					<path fill="#6A655E" d="M610.195,360.6c-0.242,0-0.489-0.043-0.728-0.136l-9.264-3.589c-1.038-0.402-1.553-1.569-1.151-2.606
						c0.402-1.038,1.569-1.554,2.606-1.151l9.265,3.589c1.038,0.401,1.553,1.569,1.15,2.606
						C611.765,360.111,611.002,360.6,610.195,360.6z"/>
				</g>
			</g>
		</g>
	</g>
</g>
</svg>
