<?xml version="1.0" encoding="utf-8"?>
<!-- Generator: Adobe Illustrator 15.0.0, SVG Export Plug-In . SVG Version: 6.00 Build 0)  -->
<!DOCTYPE svg PUBLIC "-//W3C//DTD SVG 1.1//EN" "http://www.w3.org/Graphics/SVG/1.1/DTD/svg11.dtd">
<svg version="1.1" id="Layer_1" xmlns="http://www.w3.org/2000/svg" xmlns:xlink="http://www.w3.org/1999/xlink" x="0px" y="0px"
	 width="1280px" height="768px" viewBox="0 0 1280 768" enable-background="new 0 0 1280 768" xml:space="preserve">
<g>
	<g>
		<g>
			<g>
				<g>
					<path fill="#6A655E" d="M710.091,430.814h-0.403c-1.112,0-2.015-0.902-2.015-2.016c0-1.112,0.902-2.015,2.015-2.015h0.403
						c1.112,0,2.016,0.902,2.016,2.015C712.106,429.912,711.203,430.814,710.091,430.814z"/>
				</g>
			</g>
		</g>
	</g>
	<g>
		<g>
			<g>
				<g>
					<g>
						<path fill="#6A655E" d="M594.774,423.755c-0.21,0-0.425-0.011-0.644-0.032l-2.005-0.198l0.397-4.011l2.005,0.198
							c0.423,0.042,0.96,0.015,1.126-0.351c0.183-0.407,0.027-1.166-0.623-1.771c-1.394-1.294-3.033-4.244-2.315-6.751
							c0.259-0.904,1.053-2.491,3.455-2.955l1.978-0.382l0.764,3.957l-1.979,0.382c-0.229,0.044-0.338,0.104-0.361,0.124
							c-0.156,0.367,0.381,1.911,1.202,2.673c1.868,1.736,2.491,4.3,1.553,6.381C598.549,422.742,596.838,423.755,594.774,423.755z"
							/>
					</g>
				</g>
			</g>
			<g>
				<g>
					<g>
						<path fill="#6A655E" d="M609.514,423.74c-0.136,0-0.274-0.005-0.413-0.014l-2.011-0.125l0.251-4.022l2.011,0.126
							c0.549,0.033,0.887-0.088,1.006-0.362c0.173-0.405,0.014-1.158-0.625-1.753c-1.394-1.294-3.033-4.244-2.315-6.751
							c0.259-0.904,1.053-2.491,3.454-2.955l1.978-0.382l0.764,3.957l-1.978,0.382c-0.229,0.044-0.339,0.104-0.361,0.124
							c-0.156,0.367,0.381,1.911,1.201,2.673c1.834,1.705,2.471,4.234,1.585,6.295C613.297,422.711,611.615,423.74,609.514,423.74z"
							/>
					</g>
				</g>
			</g>
			<g>
				<g>
					<g>
						<path fill="#6A655E" d="M624.222,423.73c-0.047,0-0.095,0-0.143-0.002l-2.015-0.044l0.089-4.029l2.015,0.045
							c0.738,0.015,0.856-0.277,0.895-0.374c0.168-0.415,0.006-1.145-0.63-1.736c-1.394-1.294-3.032-4.245-2.314-6.751
							c0.259-0.905,1.053-2.491,3.454-2.955l1.979-0.382l0.763,3.957l-1.978,0.382c-0.229,0.044-0.338,0.104-0.361,0.124
							c-0.156,0.366,0.381,1.911,1.202,2.673c1.797,1.671,2.448,4.165,1.621,6.204C628.06,422.658,626.356,423.73,624.222,423.73z"
							/>
					</g>
				</g>
			</g>
			<g>
				<g>
					<g>
						<path fill="#6A655E" d="M637.051,423.772l-0.089-4.029l2.014-0.045c0.653-0.015,0.756-0.285,0.794-0.387
							c0.158-0.415-0.009-1.14-0.635-1.722c-1.393-1.294-3.032-4.244-2.314-6.751c0.259-0.904,1.052-2.491,3.454-2.955l1.979-0.382
							l0.764,3.957l-1.979,0.382c-0.229,0.044-0.339,0.104-0.361,0.124c-0.155,0.367,0.382,1.911,1.202,2.673
							c1.759,1.636,2.425,4.09,1.658,6.106c-0.693,1.821-2.364,2.937-4.472,2.983L637.051,423.772z"/>
					</g>
				</g>
			</g>
			<g>
				<g>
					<g>
						<path fill="#6A655E" d="M652.053,423.866l-0.289-4.02l2.01-0.146c0.578-0.041,0.667-0.294,0.705-0.402
							c0.146-0.416-0.026-1.137-0.643-1.709c-1.393-1.294-3.031-4.245-2.313-6.751c0.259-0.905,1.052-2.491,3.453-2.955l1.979-0.382
							l0.764,3.957l-1.979,0.382c-0.229,0.044-0.338,0.104-0.36,0.124c-0.155,0.366,0.381,1.911,1.201,2.673
							c1.745,1.623,2.412,3.978,1.699,6.001c-0.629,1.785-2.205,2.938-4.217,3.083L652.053,423.866z"/>
					</g>
				</g>
			</g>
			<g>
				<g>
					<g>
						<path fill="#6A655E" d="M667.072,423.965l-0.512-3.998l2-0.256c0.513-0.065,0.59-0.306,0.628-0.422
							c0.13-0.406-0.018-1.111-0.65-1.699c-1.394-1.295-3.032-4.245-2.314-6.751c0.259-0.905,1.053-2.491,3.454-2.955l1.979-0.382
							l0.764,3.957l-1.979,0.382c-0.229,0.044-0.338,0.104-0.361,0.124c-0.155,0.366,0.381,1.911,1.202,2.674
							c1.7,1.58,2.384,3.89,1.742,5.884c-0.562,1.751-2.04,2.942-3.953,3.187L667.072,423.965z"/>
					</g>
				</g>
			</g>
		</g>
		<g>
			<g>
				<g>
					<g>
						<path fill="#6A655E" d="M677.447,405.425h-87.048c-1.112,0-2.015-0.902-2.015-2.015v-7.254c0-1.113,0.902-2.016,2.015-2.016
							h87.048c1.113,0,2.016,0.902,2.016,2.016v7.254C679.463,404.522,678.561,405.425,677.447,405.425z M592.415,401.395h83.019
							v-3.224h-83.019V401.395z"/>
					</g>
				</g>
			</g>
		</g>
		<g>
			<g>
				<g>
					<g>
						<path fill="#6A655E" d="M672.816,396.434c-0.098,0-0.195-0.007-0.294-0.021c-1.101-0.16-1.864-1.184-1.702-2.285
							c0.921-6.309,5.68-8.9,8.24-9.852v-27.514c-3.204-0.902-12.16-2.83-24.457-0.589c-14.325,2.611-36.256,11.575-59.387,39.457
							c-0.711,0.856-1.981,0.976-2.837,0.265s-0.975-1.98-0.265-2.838c10.578-12.749,21.836-22.775,33.464-29.8
							c9.359-5.654,18.979-9.39,28.592-11.101c16.498-2.938,27.184,1.079,27.631,1.251c0.776,0.3,1.289,1.047,1.289,1.88v30.48
							c0,0.961-0.68,1.789-1.623,1.977c-0.228,0.047-5.83,1.285-6.659,6.966C674.661,395.712,673.801,396.434,672.816,396.434z"/>
					</g>
				</g>
			</g>
		</g>
		<g>
			<g>
				<g>
					<g>
						<path fill="#6A655E" d="M648.105,386.076C648.104,386.076,648.104,386.076,648.105,386.076c-3.131,0-6.255-0.095-9.037-0.272
							c-0.311-0.02-0.626-0.028-0.944-0.036c-1.707-0.048-3.83-0.106-5.553-1.735c-2.122-2.006-1.732-5.512,1.041-9.377
							c2.102-2.93,4.505-5.115,6.789-7.04c3.321-2.799,6.955-4.324,10.394-5.646c2.327-0.895,6.186-1.799,9.555-1.799
							c1.743,0,3.207,0.249,4.35,0.738c3.257,1.396,5.328,2.996,6.273,7.044c0.648,2.771,1.373,8.03-1.046,12.104
							c-1.948,3.282-5.555,5.166-10.72,5.598C655.917,385.93,652.077,386.076,648.105,386.076z M660.35,364.2
							c-2.711,0-6.131,0.771-8.108,1.53c-3.247,1.249-6.397,2.568-9.243,4.966c-2.083,1.757-4.267,3.737-6.111,6.308
							c-1.475,2.056-1.839,3.822-1.546,4.1c0.575,0.544,1.475,0.596,2.896,0.635c0.366,0.011,0.73,0.021,1.089,0.044
							c2.698,0.172,5.733,0.264,8.778,0.264h0.002c3.861,0,7.584-0.142,10.766-0.407c3.791-0.317,6.346-1.541,7.59-3.639
							c1.762-2.969,0.998-7.375,0.588-9.132c-0.57-2.441-1.483-3.204-3.938-4.255C662.673,364.425,661.838,364.2,660.35,364.2z"/>
					</g>
				</g>
			</g>
		</g>
		<g>
			<g>
				<g>
					<g>
						<path fill="#6A655E" d="M654.88,379.633h-11.284c-1.112,0-2.016-0.902-2.016-2.015c0-1.113,0.903-2.016,2.016-2.016h11.284
							c1.112,0,2.015,0.902,2.015,2.016C656.895,378.73,655.992,379.633,654.88,379.633z"/>
					</g>
				</g>
			</g>
		</g>
		<g>
			<g>
				<g>
					<g>
						<path fill="#6A655E" d="M678.043,354.253c-1.012,0-1.883-0.76-2-1.788l-0.172-1.517c-0.133-1.144-1.061-1.943-1.81-1.943
							h-11.279c-0.521,0-1.235,0.72-1.378,1.647l-0.202,1.374c-0.161,1.102-1.183,1.862-2.286,1.701
							c-1.101-0.161-1.863-1.186-1.701-2.286l0.204-1.388c0.438-2.854,2.794-5.079,5.363-5.079h11.279
							c2.901,0,5.456,2.422,5.813,5.515l0.174,1.521c0.124,1.105-0.67,2.104-1.775,2.229
							C678.196,354.248,678.119,354.253,678.043,354.253z"/>
					</g>
				</g>
			</g>
		</g>
		<g>
			<g>
				<g>
					<g>
						<path fill="#6A655E" d="M633.257,370.125c-0.692,0-1.366-0.355-1.741-0.996c-0.562-0.96-0.24-2.194,0.72-2.758
							c0.322-0.188,0.626-0.302,0.952-0.351c0.91-0.351,1.966,0.005,2.467,0.878c0.555,0.965,0.222,2.196-0.742,2.751
							c-0.318,0.183-0.618,0.293-0.936,0.342C633.742,370.082,633.498,370.125,633.257,370.125z"/>
					</g>
				</g>
			</g>
		</g>
		<g>
			<g>
				<g>
					<g>
						<path fill="#6A655E" d="M608.138,389.977c-0.471,0-0.943-0.164-1.326-0.498c-0.837-0.732-0.922-2.006-0.189-2.843
							c3.727-4.262,9.381-10.026,20.111-16.839c0.939-0.597,2.185-0.318,2.781,0.62c0.596,0.939,0.318,2.185-0.621,2.782
							c-10.295,6.536-15.689,12.032-19.239,16.09C609.257,389.744,608.699,389.977,608.138,389.977z"/>
					</g>
				</g>
			</g>
		</g>
		<g>
			<g>
				<g>
					<g>
						<path fill="#6A655E" d="M682.078,372.809c-0.882,0-1.691-0.584-1.939-1.477c-0.299-1.071,0.328-2.183,1.4-2.48
							c6.725-1.871,10.863-6.319,12.301-13.223c1.109-5.335,0.16-10.115,0.15-10.163c-0.223-1.09,0.482-2.154,1.572-2.377
							c1.088-0.224,2.154,0.481,2.377,1.572c0.047,0.228,1.123,5.65-0.154,11.789c-1.745,8.378-6.988,14.009-15.166,16.284
							C682.439,372.784,682.257,372.809,682.078,372.809z"/>
					</g>
				</g>
			</g>
		</g>
		<g>
			<g>
				<g>
					<g>
						<path fill="#6A655E" d="M702.434,430.814h-0.806c-1.112,0-2.015-0.902-2.015-2.016c0-1.112,0.902-2.015,2.015-2.015h0.806
							c1.113,0,2.016,0.902,2.016,2.015C704.449,429.912,703.547,430.814,702.434,430.814z"/>
					</g>
				</g>
			</g>
		</g>
		<g>
			<g>
				<g>
					<g>
						<path fill="#6A655E" d="M694.374,430.814H573.07c-1.112,0-2.015-0.902-2.015-2.016c0-1.112,0.902-2.015,2.015-2.015h121.304
							c1.112,0,2.015,0.902,2.015,2.015C696.389,429.912,695.486,430.814,694.374,430.814z"/>
					</g>
				</g>
			</g>
		</g>
	</g>
</g>
</svg>
