<?xml version="1.0" encoding="utf-8"?>
<!-- Generator: Adobe Illustrator 15.0.0, SVG Export Plug-In . SVG Version: 6.00 Build 0)  -->
<!DOCTYPE svg PUBLIC "-//W3C//DTD SVG 1.1//EN" "http://www.w3.org/Graphics/SVG/1.1/DTD/svg11.dtd">
<svg version="1.1" id="Layer_1" xmlns="http://www.w3.org/2000/svg" xmlns:xlink="http://www.w3.org/1999/xlink" x="0px" y="0px"
	 width="1280px" height="768px" viewBox="0 0 1280 768" enable-background="new 0 0 1280 768" xml:space="preserve">
<g>
	<g>
		<g>
			<g>
				<g>
					<path fill="#6A655E" d="M697.031,446.467c-1.113,0-2.016-0.902-2.016-2.016v-20.267c0-2.249-1.793-4.079-3.996-4.079H585.336
						c-2.239,0-4.202,1.906-4.202,4.079v19.555c0,1.112-0.903,2.015-2.015,2.015c-1.113,0-2.015-0.902-2.015-2.015v-19.555
						c0-4.396,3.77-8.109,8.232-8.109H691.02c4.426,0,8.026,3.638,8.026,8.109v20.267
						C699.046,445.564,698.144,446.467,697.031,446.467z"/>
				</g>
			</g>
		</g>
	</g>
	<g>
		<g>
			<g>
				<g>
					<path fill="#6A655E" d="M585.228,443.67c-1.111,0-2.012-0.899-2.015-2.012c-0.002-1.112,0.898-2.016,2.011-2.018l103.958-0.205
						c0.001,0,0.003,0,0.005,0c1.11,0,2.012,0.898,2.014,2.01c0.003,1.113-0.898,2.018-2.011,2.02l-103.958,0.205
						C585.231,443.67,585.229,443.67,585.228,443.67z"/>
				</g>
			</g>
		</g>
	</g>
	<g>
		<g>
			<g>
				<g>
					<path fill="#6A655E" d="M697.031,453.685c-1.113,0-2.016-0.901-2.016-2.015v-0.357c0-1.112,0.902-2.014,2.016-2.014
						c1.112,0,2.015,0.901,2.015,2.014v0.357C699.046,452.783,698.144,453.685,697.031,453.685z"/>
				</g>
			</g>
		</g>
	</g>
	<g>
		<g>
			<g>
				<g>
					<path fill="#6A655E" d="M579.119,452.615c-1.113,0-2.015-0.901-2.015-2.014v-0.713c0-1.113,0.902-2.016,2.015-2.016
						c1.112,0,2.015,0.902,2.015,2.016v0.713C581.134,451.714,580.231,452.615,579.119,452.615z"/>
				</g>
			</g>
		</g>
	</g>
	<g>
		<g>
			<g>
				<g>
					<g>
						<path fill="#6A655E" d="M603.486,419.047c-0.798,0-1.554-0.478-1.871-1.264c-1.901-4.729-0.561-12.764,1.295-14.207
							c0.78-0.606,1.831-0.63,2.613-0.057c4.496,3.291,19.317,2.467,21.398,0.247c0.435-0.462,1.062-0.696,1.691-0.624
							c0.63,0.069,1.191,0.432,1.513,0.978c1.511,2.557,3.097,6.657,2.076,11.67c-0.222,1.091-1.287,1.794-2.377,1.572
							c-1.091-0.222-1.794-1.286-1.572-2.377c0.557-2.733,0.068-5.124-0.683-6.975c-5.392,2.333-16.506,2.328-22.366-0.116
							c-0.489,2.082-0.889,5.799,0.152,8.385c0.415,1.033-0.086,2.206-1.119,2.621C603.99,419,603.736,419.047,603.486,419.047z"/>
					</g>
				</g>
			</g>
		</g>
	</g>
	<g>
		<g>
			<g>
				<g>
					<g>
						<path fill="#6A655E" d="M645.756,419.047c-0.956,0-1.805-0.684-1.98-1.658c-0.827-4.59-0.677-12.261,1.441-13.834
							c0.68-0.505,1.562-0.584,2.305-0.205c5.057,2.572,19.65,2.218,21.674,0.061c0.434-0.463,1.06-0.695,1.691-0.624
							c0.63,0.069,1.191,0.432,1.514,0.978c1.744,2.954,2.396,7.535,1.741,12.256c-0.153,1.102-1.17,1.873-2.272,1.72
							c-1.102-0.153-1.872-1.171-1.719-2.272c0.447-3.229,0.146-5.897-0.427-7.777c-5.431,2.208-16.308,1.837-22.069,0.027
							c-0.322,1.859-0.57,5.31,0.087,8.957c0.198,1.096-0.53,2.143-1.626,2.341C645.995,419.036,645.875,419.047,645.756,419.047z"
							/>
					</g>
				</g>
			</g>
		</g>
	</g>
	<g>
		<g>
			<g>
				<g>
					<path fill="#6A655E" d="M589.806,419.394c-1.113,0-2.016-0.902-2.016-2.015v-33.13c0-1.113,0.902-2.015,2.016-2.015
						c1.113,0,2.015,0.901,2.015,2.015v33.13C591.821,418.491,590.918,419.394,589.806,419.394z"/>
				</g>
			</g>
		</g>
	</g>
	<g>
		<g>
			<g>
				<g>
					<path fill="#6A655E" d="M685.275,419.394c-1.113,0-2.016-0.902-2.016-2.015v-33.486c0-1.113,0.902-2.016,2.016-2.016
						s2.015,0.902,2.015,2.016v33.486C687.29,418.491,686.389,419.394,685.275,419.394z"/>
				</g>
			</g>
		</g>
	</g>
	<g>
		<g>
			<g>
				<g>
					<g>
						<path fill="#6A655E" d="M647.424,390.473c-2.817,0-5.528-1.103-7.489-3.059c-2.113-2.107-3.129-4.955-2.864-8.021
							c0.286-3.288,2.044-6.364,4.707-8.227c2.62-1.837,6.018-2.653,9.822-2.363c1.109,0.086,1.94,1.054,1.855,2.164
							c-0.084,1.109-1.051,1.938-2.163,1.854c-2.905-0.222-5.329,0.331-7.203,1.645c-1.697,1.188-2.819,3.161-3.003,5.276
							c-0.161,1.856,0.439,3.567,1.693,4.817c1.264,1.261,3.043,1.94,4.887,1.88c1.814-0.065,3.439-0.822,4.575-2.131
							c0.766-0.883,1.487-2.385,0.999-3.713c-1.096-2.983-4.201-2.966-4.55-2.959c-1.118,0.045-2.042-0.837-2.078-1.949
							c-0.036-1.111,0.837-2.043,1.949-2.078c2.921-0.106,6.89,1.314,8.462,5.596c0.915,2.488,0.248,5.456-1.738,7.746
							c-1.85,2.13-4.574,3.411-7.475,3.516C647.682,390.471,647.553,390.473,647.424,390.473z"/>
					</g>
				</g>
			</g>
		</g>
		<g>
			<g>
				<g>
					<g>
						<path fill="#6A655E" d="M628.587,390.326c-2.517,0-5.017-0.797-6.84-2.414c-2.153-1.91-3.134-4.748-2.625-7.591
							c0.507-2.829,2.426-5.21,5.009-6.216c1.063-0.415,3.132-0.526,3.506-0.488c1.107,0.108,1.917,1.094,1.81,2.201
							c-0.103,1.061-1.017,1.859-2.06,1.818c-0.412,0.009-1.49,0.117-1.801,0.226c-1.277,0.498-2.237,1.713-2.498,3.169
							c-0.264,1.472,0.222,2.881,1.333,3.865c2.277,2.021,6.668,1.854,8.865-0.337c1.254-1.25,1.856-2.962,1.695-4.817
							c-0.184-2.115-1.305-4.088-3.002-5.275c-3.527-2.471-8.262-1.697-10.771-1.016c-1.074,0.293-2.181-0.342-2.473-1.416
							c-0.291-1.074,0.343-2.182,1.417-2.473c5.508-1.496,10.529-0.927,14.139,1.604c2.661,1.862,4.42,4.938,4.706,8.228
							c0.266,3.065-0.752,5.913-2.865,8.021C634.196,389.346,631.381,390.326,628.587,390.326z"/>
					</g>
				</g>
			</g>
		</g>
	</g>
	<g>
		<g>
			<g>
				<g>
					<path fill="#6A655E" d="M684.376,412.98h-11.568c-1.112,0-2.016-0.901-2.016-2.014c0-1.113,0.903-2.016,2.016-2.016h11.568
						c1.113,0,2.016,0.902,2.016,2.016C686.392,412.079,685.489,412.98,684.376,412.98z"/>
				</g>
			</g>
		</g>
	</g>
	<g>
		<g>
			<g>
				<g>
					<path fill="#6A655E" d="M644.666,412.98h-13.538c-1.113,0-2.015-0.901-2.015-2.014c0-1.113,0.902-2.016,2.015-2.016h13.538
						c1.112,0,2.016,0.902,2.016,2.016C646.682,412.079,645.778,412.98,644.666,412.98z"/>
				</g>
			</g>
		</g>
	</g>
	<g>
		<g>
			<g>
				<g>
					<path fill="#6A655E" d="M602.273,412.98H591.23c-1.113,0-2.016-0.901-2.016-2.014c0-1.113,0.902-2.016,2.016-2.016h11.043
						c1.113,0,2.015,0.902,2.015,2.016C604.289,412.079,603.387,412.98,602.273,412.98z"/>
				</g>
			</g>
		</g>
	</g>
	<g>
		<g>
			<g>
				<g>
					<path fill="#6A655E" d="M589.978,398.296c-0.149,0-0.301-0.017-0.454-0.052c-1.084-0.249-1.761-1.33-1.512-2.414
						c1.838-8.002,7.843-15.295,16.909-20.539c8.966-5.186,20.416-8.041,32.239-8.041c11.417,0,22.703,2.754,31.779,7.756
						c9.137,5.034,15.461,12.004,17.809,19.626c0.327,1.063-0.27,2.191-1.334,2.519c-1.064,0.329-2.191-0.27-2.518-1.332
						c-4.309-13.989-23.971-24.538-45.736-24.538c-22.446,0-41.886,10.942-45.22,25.451
						C591.726,397.664,590.896,398.296,589.978,398.296z"/>
				</g>
			</g>
		</g>
	</g>
	<g>
		<g>
			<g>
				<g>
					<path fill="#6A655E" d="M630.667,379.84c-0.049,0-0.098-0.002-0.147-0.006c-1.11-0.08-1.945-1.044-1.865-2.154
						c0.077-1.071,0.848-1.894,1.874-2c0.057-0.006,0.114-0.01,0.17-0.011c0.658-0.036,1.322,0.253,1.739,0.826l0.016,0.022
						c-0.069-0.091-0.151-0.178-0.242-0.257c0.294,0.273,0.508,0.614,0.607,0.962c0.269,0.939-0.175,1.937-1.053,2.365
						c-0.052,0.025-0.241,0.111-0.508,0.163C631.07,379.809,630.872,379.84,630.667,379.84z M629.216,378.914
						c0.098,0.144,0.211,0.266,0.335,0.367C629.437,379.179,629.324,379.058,629.216,378.914z"/>
				</g>
			</g>
		</g>
	</g>
	<g>
		<g>
			<g>
				<g>
					<path fill="#6A655E" d="M644.902,379.84c-0.047,0-0.095-0.002-0.143-0.005c-1.109-0.078-1.946-1.041-1.869-2.151
						c0.075-1.071,0.844-1.895,1.87-2.004c0.058-0.006,0.115-0.01,0.172-0.011c0.653-0.038,1.321,0.252,1.739,0.824l0.016,0.021
						c-0.07-0.091-0.151-0.178-0.242-0.257c0.294,0.273,0.508,0.614,0.608,0.962c0.27,0.939-0.173,1.938-1.05,2.367
						c-0.139,0.067-0.314,0.128-0.513,0.165C645.305,379.809,645.106,379.84,644.902,379.84z M643.453,378.919
						c0.11,0.16,0.239,0.294,0.382,0.402C643.703,379.211,643.574,379.078,643.453,378.919z"/>
				</g>
			</g>
		</g>
	</g>
</g>
</svg>
