<?xml version="1.0" encoding="utf-8"?>
<!-- Generator: Adobe Illustrator 15.0.0, SVG Export Plug-In . SVG Version: 6.00 Build 0)  -->
<!DOCTYPE svg PUBLIC "-//W3C//DTD SVG 1.1//EN" "http://www.w3.org/Graphics/SVG/1.1/DTD/svg11.dtd">
<svg version="1.1" id="Layer_1" xmlns="http://www.w3.org/2000/svg" xmlns:xlink="http://www.w3.org/1999/xlink" x="0px" y="0px"
	 width="1280px" height="768px" viewBox="0 0 1280 768" enable-background="new 0 0 1280 768" xml:space="preserve">
<g>
	<g>
		<g>
			<g>
				<g>
					<path fill="#6A655E" d="M634.893,461.27c-10.086,0-18.292-8.205-18.292-18.292c0-10.086,8.206-18.292,18.292-18.292
						c10.086,0,18.293,8.206,18.293,18.292C653.186,453.064,644.979,461.27,634.893,461.27z M634.893,428.716
						c-7.864,0-14.262,6.397-14.262,14.262s6.398,14.262,14.262,14.262c7.864,0,14.262-6.397,14.262-14.262
						S642.757,428.716,634.893,428.716z"/>
				</g>
			</g>
		</g>
	</g>
	<g>
		<g>
			<g>
				<g>
					<path fill="#6A655E" d="M650.766,441.986l-1.373-3.789l1.895-0.686c9.081-3.288,47.188-17.691,47.572-17.836l1.885-0.713
						l1.426,3.77l-1.885,0.713c-0.385,0.145-38.52,14.558-47.626,17.855L650.766,441.986z"/>
				</g>
			</g>
		</g>
	</g>
	<g>
		<g>
			<g>
				<g>
					<polygon fill="#6A655E" points="621.268,433.686 596.613,362.849 574.897,362.407 574.979,358.378 599.498,358.876 
						625.074,432.361 					"/>
				</g>
			</g>
		</g>
	</g>
	<g>
		<g>
			<g>
				<g>
					
						<rect x="634.53" y="386.938" transform="matrix(0.3455 0.9384 -0.9384 0.3455 798.0852 -331.2971)" fill="#6A655E" width="4.029" height="39.101"/>
				</g>
			</g>
		</g>
	</g>
	<g>
		<g>
			<g>
				<g>
					<polygon fill="#6A655E" points="697.229,422.686 685.111,390.631 653.057,402.748 651.633,398.979 687.456,385.438 
						700.998,421.261 					"/>
				</g>
			</g>
		</g>
	</g>
	<g>
		<g>
			<g>
				<g>
					<polygon fill="#6A655E" points="650.578,400.293 638.462,368.239 606.407,380.356 604.982,376.586 640.807,363.045 
						654.349,398.868 					"/>
				</g>
			</g>
		</g>
	</g>
</g>
</svg>
