<?xml version="1.0" encoding="utf-8"?>
<!-- Generator: Adobe Illustrator 15.0.0, SVG Export Plug-In . SVG Version: 6.00 Build 0)  -->
<!DOCTYPE svg PUBLIC "-//W3C//DTD SVG 1.1//EN" "http://www.w3.org/Graphics/SVG/1.1/DTD/svg11.dtd">
<svg version="1.1" id="Layer_1" xmlns="http://www.w3.org/2000/svg" xmlns:xlink="http://www.w3.org/1999/xlink" x="0px" y="0px"
	 width="1280px" height="768px" viewBox="0 0 1280 768" enable-background="new 0 0 1280 768" xml:space="preserve">
<g>
	<g>
		<g>
			<g>
				<g>
					<path fill="#6A655E" d="M640.396,420.908h-37.552c-1.111,0-2.014-0.902-2.014-2.016v-11.346c0-1.113,0.902-2.016,2.014-2.016
						h25.934c1.113,0,2.016,0.902,2.016,2.016s-0.902,2.016-2.016,2.016h-23.919v7.315h35.537c1.111,0,2.014,0.902,2.014,2.015
						C642.409,420.006,641.507,420.908,640.396,420.908z"/>
				</g>
			</g>
		</g>
	</g>
	<g>
		<g>
			<g>
				<g>
					<path fill="#6A655E" d="M671.19,420.908h-22.692c-1.113,0-2.016-0.902-2.016-2.016c0-1.112,0.902-2.015,2.016-2.015h20.678
						v-7.315h-32.023c-1.113,0-2.014-0.902-2.014-2.016s0.9-2.016,2.014-2.016h34.038c1.112,0,2.015,0.902,2.015,2.016v11.346
						C673.205,420.006,672.303,420.908,671.19,420.908z"/>
				</g>
			</g>
		</g>
	</g>
	<g>
		<g>
			<g>
				<g>
					<path fill="#6A655E" d="M665.029,438.904c-0.522,0-1.044-0.203-1.439-0.605l-50.535-51.551c-0.78-0.795-0.768-2.07,0.027-2.85
						s2.07-0.766,2.85,0.028l50.537,51.552c0.779,0.794,0.766,2.07-0.029,2.85C666.049,438.712,665.538,438.904,665.029,438.904z"/>
				</g>
			</g>
		</g>
	</g>
	<g>
		<g>
			<g>
				<g>
					<path fill="#6A655E" d="M656.604,419.557c-1.113,0-2.016-0.902-2.016-2.015v-9.995c0-1.113,0.902-2.016,2.016-2.016
						s2.014,0.902,2.014,2.016v9.995C658.617,418.654,657.717,419.557,656.604,419.557z"/>
				</g>
			</g>
		</g>
	</g>
	<g>
		<g>
			<g>
				<g>
					<path fill="#6A655E" d="M663.356,420.367c-1.113,0-2.015-0.902-2.015-2.014v-10.537c0-1.112,0.901-2.015,2.015-2.015
						c1.112,0,2.015,0.902,2.015,2.015v10.537C665.371,419.465,664.469,420.367,663.356,420.367z"/>
				</g>
			</g>
		</g>
	</g>
	<g>
		<g>
			<g>
				<g>
					<path fill="#6A655E" d="M660.766,403.791c-1.064,0-1.953-0.833-2.011-1.908c-0.233-4.442-4.865-5.607-11.382-6.769
						c-0.736-0.132-1.45-0.259-2.123-0.392c-3.957-0.785-7.044-3.908-8.057-8.154c-0.947-3.975,0.24-7.835,3.102-10.074
						c0.382-0.299,0.707-0.515,1.236-0.732c1.028-0.424,2.206,0.066,2.63,1.096c0.425,1.029-0.065,2.207-1.095,2.631
						c-0.113,0.046-0.121,0.049-0.287,0.18c-1.919,1.502-2.119,4.066-1.664,5.966c0.502,2.11,2.059,4.568,4.92,5.136
						c0.646,0.129,1.335,0.25,2.046,0.377c5.685,1.014,14.277,2.544,14.698,10.523c0.059,1.111-0.795,2.061-1.906,2.119
						C660.838,403.791,660.801,403.791,660.766,403.791z"/>
				</g>
			</g>
		</g>
	</g>
	<g>
		<g>
			<g>
				<g>
					<path fill="#6A655E" d="M638.391,461.33c-28.221,0-51.182-22.96-51.182-51.182c0-28.221,22.961-51.182,51.182-51.182
						c14.185,0,27.375,5.67,37.141,15.965c0.767,0.809,0.732,2.083-0.076,2.85c-0.807,0.766-2.082,0.732-2.849-0.075
						c-8.997-9.485-21.148-14.709-34.216-14.709c-25.999,0-47.151,21.152-47.151,47.151c0,26,21.152,47.152,47.151,47.152
						c26,0,47.152-21.152,47.152-47.152c0-7.612-1.855-15.174-5.367-21.868c-0.517-0.985-0.137-2.204,0.849-2.72
						c0.985-0.518,2.204-0.138,2.722,0.848c3.811,7.27,5.826,15.479,5.826,23.74C689.572,438.37,666.613,461.33,638.391,461.33z"/>
				</g>
			</g>
		</g>
	</g>
	<g>
		<g>
			<g>
				<g>
					<path fill="#6A655E" d="M678.358,383.517c-0.688,0-1.299-0.347-1.663-0.878c-0.016-0.021-0.037-0.052-0.054-0.073
						c-0.276-0.345-0.44-0.781-0.44-1.258c0-1.112,0.903-2.015,2.016-2.015c1.316,0,2.144,1.269,2.157,2.178c0,0.01,0,0.021,0,0.031
						c0.001,1.098-0.881,1.998-1.983,2.015C678.381,383.517,678.369,383.517,678.358,383.517z"/>
				</g>
			</g>
		</g>
	</g>
</g>
</svg>
