<?xml version="1.0" encoding="utf-8"?>
<!-- Generator: Adobe Illustrator 15.0.0, SVG Export Plug-In . SVG Version: 6.00 Build 0)  -->
<!DOCTYPE svg PUBLIC "-//W3C//DTD SVG 1.1//EN" "http://www.w3.org/Graphics/SVG/1.1/DTD/svg11.dtd">
<svg version="1.1" id="Layer_1" xmlns="http://www.w3.org/2000/svg" xmlns:xlink="http://www.w3.org/1999/xlink" x="0px" y="0px"
	 width="1280px" height="768px" viewBox="0 0 1280 768" enable-background="new 0 0 1280 768" xml:space="preserve">
<g>
	<g>
		<g>
			<g>
				<g>
					<g>
						<g>
							<path fill="#6A655E" d="M664.126,415.475h-48.597c-6.512,0-11.81-5.299-11.81-11.811v-48.595
								c0-6.513,5.298-11.811,11.81-11.811h48.597c6.511,0,11.81,5.298,11.81,11.811v48.595
								C675.936,410.176,670.637,415.475,664.126,415.475z M615.529,347.289c-4.289,0-7.779,3.49-7.779,7.78v48.595
								c0,4.29,3.49,7.78,7.779,7.78h48.597c4.29,0,7.778-3.49,7.778-7.78v-48.595c0-4.29-3.488-7.78-7.778-7.78H615.529z"/>
						</g>
					</g>
				</g>
			</g>
			<g>
				<g>
					<g>
						<g>
							<path fill="#6A655E" d="M639.828,431.438c-1.113,0-2.015-0.902-2.015-2.015v-10.012c0-1.113,0.901-2.016,2.015-2.016
								c1.112,0,2.015,0.902,2.015,2.016v10.012C641.843,430.536,640.94,431.438,639.828,431.438z"/>
						</g>
					</g>
				</g>
			</g>
		</g>
		<g>
			<g>
				<g>
					<g>
						<g>
							<path fill="#6A655E" d="M630.898,404.381c-1.113,0-2.014-0.902-2.014-2.016v-42.209c0-1.113,0.9-2.016,2.014-2.016
								s2.016,0.902,2.016,2.016v42.209C632.914,403.479,632.012,404.381,630.898,404.381z"/>
						</g>
					</g>
				</g>
			</g>
			<g>
				<g>
					<g>
						<g>
							<path fill="#6A655E" d="M643.154,385.711H634.9c-1.088,0-2.261-0.04-3.452-0.329c-1.081-0.263-1.746-1.352-1.483-2.433
								c0.262-1.082,1.352-1.746,2.434-1.483c0.779,0.188,1.664,0.215,2.502,0.215h8.254c5.592,0,9.971-4.284,9.971-9.755
								c0-5.47-4.379-9.755-9.971-9.755H634.9c-0.244,0-0.486-0.011-0.729-0.021c-0.317-0.015-0.619-0.028-0.837-0.002
								c-1.104,0.131-2.108-0.653-2.243-1.758c-0.133-1.105,0.654-2.109,1.76-2.243c0.549-0.066,1.056-0.043,1.504-0.023
								c0.18,0.009,0.363,0.018,0.545,0.018h8.254c7.852,0,14.002,6.056,14.002,13.785
								C657.156,379.656,651.006,385.711,643.154,385.711z"/>
						</g>
					</g>
				</g>
			</g>
		</g>
	</g>
	<g>
		<g>
			<g>
				<g>
					<g>
						<path fill="#6A655E" d="M658.602,477.645c-5.893,0-10.688-4.794-10.688-10.686c0-5.893,4.795-10.687,10.688-10.687
							c5.892,0,10.686,4.794,10.686,10.687C669.287,472.851,664.493,477.645,658.602,477.645z M658.602,460.303
							c-3.67,0-6.657,2.985-6.657,6.656c0,3.67,2.987,6.656,6.657,6.656c3.671,0,6.656-2.986,6.656-6.656
							C665.258,463.288,662.272,460.303,658.602,460.303z"/>
					</g>
				</g>
			</g>
		</g>
		<g>
			<g>
				<g>
					<g>
						<path fill="#6A655E" d="M618.961,477.645c-5.893,0-10.687-4.794-10.687-10.686c0-5.893,4.794-10.687,10.687-10.687
							c5.894,0,10.688,4.794,10.688,10.687C629.648,472.851,624.854,477.645,618.961,477.645z M618.961,460.303
							c-3.67,0-6.656,2.985-6.656,6.656c0,3.67,2.986,6.656,6.656,6.656s6.656-2.986,6.656-6.656
							C625.617,463.288,622.631,460.303,618.961,460.303z"/>
					</g>
				</g>
			</g>
		</g>
		<g>
			<g>
				<g>
					<g>
						<path fill="#6A655E" d="M610.007,470.969c-0.016,0-0.03,0-0.046-0.001c-0.302-0.007-2.998-0.079-4.588-0.585
							c-0.199-0.062-0.387-0.156-0.557-0.275c-0.168-0.12-0.348-0.219-0.555-0.334c-1.897-1.055-2.895-2.318-3.419-6.645
							c-0.854-6.717,2.759-12.307,10.449-16.154c4.199-2.101,8.483-3.112,10.344-3.483c8.938-15.089,20.353-17.954,28.374-17.694
							c20.435,0.664,24.794,15.229,25.722,21.461c0.019,0.132,1.929,13.223-0.099,18.92c-1.109,3.109-5.695,4.194-6.604,4.38
							c-0.133,0.027-0.269,0.041-0.405,0.041h-0.792c-1.113,0-2.016-0.902-2.016-2.015c0-1.113,0.902-2.016,2.016-2.016h0.574
							c1.57-0.364,3.236-1.203,3.429-1.743c1.183-3.321,0.659-11.926-0.091-16.976c-0.965-6.498-5.091-17.48-21.865-18.025
							c-10.123-0.329-18.479,5.011-24.861,15.867c-0.188,0.319-0.334,0.563-0.434,0.718c-0.312,0.479-0.814,0.804-1.379,0.892
							c-0.199,0.03-19.896,3.259-18.363,15.332c0.371,3.059,0.771,3.281,1.377,3.617c0.179,0.1,0.387,0.215,0.613,0.357
							c0.9,0.215,2.514,0.316,3.219,0.332c1.113,0.023,1.994,0.945,1.971,2.059C611.996,470.096,611.1,470.969,610.007,470.969z"/>
					</g>
				</g>
			</g>
		</g>
		<g>
			<g>
				<g>
					<g>
						<path fill="#6A655E" d="M646.096,470.599H632.72c-1.112,0-2.015-0.902-2.015-2.015c0-1.113,0.902-2.016,2.015-2.016h13.376
							c1.113,0,2.016,0.902,2.016,2.016C648.111,469.696,647.209,470.599,646.096,470.599z"/>
					</g>
				</g>
			</g>
		</g>
		<g>
			<g>
				<g>
					<g>
						<path fill="#6A655E" d="M635.449,449.369c-0.697,0-1.316-0.012-1.887-0.037c-2.18-0.097-3.215-1.041-3.699-1.816
							c-2.498-3.99,4.566-10.449,4.639-10.514c4.004-3.503,9.338-5.355,15.429-5.355c2.873,0,5.349,0.377,7.565,1.15
							c3.544,1.237,6.385,3.641,7.998,6.767c0.737,1.427,1.181,2.696,1.359,3.883c0.219,1.466-0.162,2.871-1.072,3.956
							c-0.963,1.146-2.443,1.828-4.064,1.87c-0.859,0.022-1.783,0.033-2.907,0.033c-0.712,0-1.425-0.004-2.139-0.009
							c-0.704-0.004-1.409-0.008-2.113-0.008l-15.093,0.031c-0.633,0.002-1.268,0.014-1.903,0.024
							C636.856,449.357,636.152,449.369,635.449,449.369z M633.39,445.273c0.092,0.014,0.206,0.025,0.35,0.032
							c0.513,0.022,1.072,0.033,1.71,0.033c0.68,0,1.36-0.012,2.04-0.023c0.658-0.012,1.313-0.023,1.966-0.024l15.103-0.032
							c0.712,0,1.425,0.005,2.138,0.009c0.705,0.004,1.41,0.008,2.114,0.008c1.088,0,1.978-0.01,2.802-0.031
							c0.469-0.013,0.861-0.17,1.082-0.432c0.164-0.197,0.223-0.448,0.174-0.77c-0.11-0.732-0.43-1.617-0.953-2.631
							c-1.14-2.206-3.18-3.914-5.746-4.81c-1.783-0.623-3.824-0.926-6.237-0.926c-3.557,0-8.658,0.757-12.774,4.358
							C635.73,441.283,633.684,444.063,633.39,445.273z"/>
					</g>
				</g>
			</g>
		</g>
		<g>
			<g>
				<g>
					<g>
						<path fill="#6A655E" d="M649.799,449.221c-1.112,0-2.016-0.901-2.016-2.015v-13.138c0-1.112,0.903-2.015,2.016-2.015
							s2.015,0.902,2.015,2.015v13.138C651.813,448.319,650.911,449.221,649.799,449.221z"/>
					</g>
				</g>
			</g>
		</g>
	</g>
	<g>
		<g>
			<circle fill="#6A655E" cx="659.217" cy="466.739" r="2.352"/>
		</g>
	</g>
	<g>
		<g>
			<circle fill="#6A655E" cx="618.917" cy="466.739" r="2.351"/>
		</g>
	</g>
</g>
</svg>
