<?xml version="1.0" encoding="utf-8"?>
<!-- Generator: Adobe Illustrator 15.0.0, SVG Export Plug-In . SVG Version: 6.00 Build 0)  -->
<!DOCTYPE svg PUBLIC "-//W3C//DTD SVG 1.1//EN" "http://www.w3.org/Graphics/SVG/1.1/DTD/svg11.dtd">
<svg version="1.1" id="Layer_1" xmlns="http://www.w3.org/2000/svg" xmlns:xlink="http://www.w3.org/1999/xlink" x="0px" y="0px"
	 width="1280px" height="768px" viewBox="0 0 1280 768" enable-background="new 0 0 1280 768" xml:space="preserve">
<g>
	<g>
		<g>
			<g>
				<g>
					<path fill="#6A655E" d="M665.184,368.199c-0.195,0-0.394-0.028-0.59-0.088c-1.064-0.324-1.663-1.451-1.34-2.516l0.838-2.75
						c0.324-1.064,1.451-1.664,2.516-1.34s1.665,1.451,1.341,2.516l-0.839,2.75C666.846,367.64,666.047,368.199,665.184,368.199z"/>
				</g>
			</g>
		</g>
	</g>
	<g>
		<g>
			<g>
				<g>
					<path fill="#6A655E" d="M646.232,427.912c-0.209,0-0.42-0.032-0.629-0.101c-1.057-0.347-1.633-1.486-1.285-2.544l10.488-31.939
						c0.086-0.27,0.225-0.509,0.401-0.709c0.001,0,0.001-0.002,0.001-0.002c0.17-0.191,0.373-0.348,0.598-0.462
						c0.001-0.001,0.001-0.001,0.001-0.001c0.31-0.158,0.661-0.234,1.018-0.217l0,0c0.001,0,0.002,0,0.002,0h0.001
						c0.164,0.009,0.33,0.037,0.493,0.088c0,0,0.001,0.001,0.002,0.002c0.368,0.114,0.679,0.324,0.915,0.596l0,0l0.002,0.002l0,0
						c0,0,0.002,0.002,0.002,0.003h0.001l0.001,0.002h0.002c0,0.002,0,0.002,0,0.002s0.002,0.003,0.004,0.003l0.002,0.002v0.002
						c0,0,0,0.001,0.002,0.002l0.001,0.002h0.001c0.001,0.001,0.001,0.002,0.002,0.002l0,0l0.002,0.002v0.001
						c0,0,0.001,0.001,0.002,0.002v0.001l0.002,0.002l0,0c0.074,0.088,0.139,0.181,0.197,0.278l0,0c0,0,0,0.001,0.002,0.003l0,0
						v0.002v0.002c0.002,0,0.002,0,0.002,0l0.002,0.004l0,0l0.002,0.002v0.002l0,0l0.002,0.003v0.001l0.001,0.002h0.001
						c0.26,0.456,0.342,1.012,0.186,1.555l0,0l-0.002,0.006v0.001c0,0.001,0,0.002,0,0.003l0,0c0,0.002-0.002,0.004-0.002,0.006l0,0
						l-0.001,0.004h-0.001v0.002v0.002v0.001l-0.002,0.002c0,0.001,0,0.003,0,0.005l-0.094,0.305
						c-0.02,0.068-0.045,0.135-0.072,0.199l-10.337,31.484C647.867,427.373,647.08,427.912,646.232,427.912z"/>
				</g>
			</g>
		</g>
	</g>
	<g>
		<g>
			<g>
				<g>
					<path fill="#6A655E" d="M690.574,406.376c-1.027,0-1.906-0.782-2.004-1.826c-2.315-24.493-15.352-32.099-25.881-34.167
						c-15.687-3.081-33.766,4.85-38.275,13.467c-0.516,0.986-1.732,1.368-2.719,0.852c-0.986-0.516-1.367-1.733-0.852-2.719
						c5.249-10.033,25.01-19.014,42.623-15.554c9.723,1.909,26.432,9.351,29.115,37.741c0.105,1.109-0.709,2.092-1.816,2.196
						C690.701,406.373,690.637,406.376,690.574,406.376z"/>
				</g>
			</g>
		</g>
	</g>
	<g>
		<g>
			<g>
				<g>
					<path fill="#6A655E" d="M601.082,412.949c-6.451,0-11.699-5.248-11.699-11.699s5.248-11.699,11.699-11.699
						s11.699,5.248,11.699,11.699S607.533,412.949,601.082,412.949z M601.082,393.581c-4.228,0-7.67,3.44-7.67,7.669
						c0,4.229,3.442,7.67,7.67,7.67c4.23,0,7.67-3.44,7.67-7.67C608.752,397.021,605.312,393.581,601.082,393.581z"/>
				</g>
			</g>
		</g>
	</g>
	<g>
		<g>
			<g>
				<g>
					<path fill="#6A655E" d="M635.038,446.747c-0.003,0-0.007,0-0.011,0l-3.578-0.001c-0.535,0-1.049-0.213-1.427-0.594
						c-5.991-6.018-20-20.114-20.688-21.018c-2.879-3.783-3.137-7.136-2.848-9.282c0.373-2.757,3.609-5.594,6.254-6.288
						c0.834-0.22,1.607-0.326,2.361-0.326c2.783,0,5.033,1.459,7.766,3.814c2.27,1.959,12.273,13.963,15.035,17.291
						c2.954,0.08,12.592,0.352,22.323,0.723c23.952,0.91,25.104,1.506,25.792,1.861c1.804,0.934,4.539,3.74,4.199,7.306
						c-0.31,3.253-2.729,5.766-6.021,6.253C682.738,446.702,656.662,446.747,635.038,446.747z M632.289,442.716l2.738,0.001
						c0.002,0,0.006,0,0.006,0c28.614,0,47.238-0.085,48.613-0.223c1.059-0.157,2.397-0.949,2.559-2.643
						c0.133-1.4-1.133-2.818-1.947-3.294c-2.99-0.788-30.549-1.771-47.375-2.21c-0.584-0.014-1.131-0.281-1.502-0.73
						c-5.162-6.24-13.455-16.055-15.146-17.512c-2.428-2.095-3.771-2.837-5.133-2.837c-0.404,0-0.842,0.063-1.338,0.194
						c-1.484,0.389-3.18,2.16-3.282,2.93c-0.273,2.018,0.414,4.129,2.041,6.276C613.383,423.67,624.572,434.963,632.289,442.716z"/>
				</g>
			</g>
		</g>
	</g>
	<g>
		<g>
			<g>
				<g>
					<path fill="#6A655E" d="M695.346,459.143c-0.596,0-1.185-0.262-1.582-0.765l-9.209-11.644h-54.297
						c-0.539,0-1.057-0.217-1.435-0.601l-49.19-49.896c-0.781-0.792-0.773-2.068,0.02-2.85c0.792-0.781,2.067-0.771,2.85,0.021
						l48.6,49.295h54.428c0.616,0,1.197,0.282,1.58,0.765l9.814,12.409c0.691,0.873,0.543,2.141-0.33,2.831
						C696.225,459.002,695.783,459.143,695.346,459.143z"/>
				</g>
			</g>
		</g>
	</g>
	<g>
		<g>
			<g>
				<g>
					<path fill="#6A655E" d="M620.801,459.143c-0.428,0-0.86-0.135-1.226-0.416c-0.883-0.677-1.05-1.941-0.372-2.824l8.901-11.603
						c0.677-0.884,1.942-1.05,2.825-0.372c0.883,0.677,1.05,1.941,0.371,2.824l-8.9,11.603
						C622.004,458.871,621.405,459.143,620.801,459.143z"/>
				</g>
			</g>
		</g>
	</g>
	<g>
		<g>
			<g>
				<g>
					<path fill="#6A655E" d="M643.85,394.894c-0.788,0-1.536-0.466-1.861-1.238c-4.911-11.745-19.04-8.802-19.639-8.671
						c-1.084,0.238-2.161-0.449-2.4-1.534c-0.24-1.085,0.441-2.159,1.527-2.401c6.203-1.381,19.253-0.85,24.23,11.052
						c0.429,1.026-0.055,2.207-1.082,2.636C644.371,394.844,644.107,394.894,643.85,394.894z"/>
				</g>
			</g>
		</g>
	</g>
	<g>
		<g>
			<g>
				<g>
					<path fill="#6A655E" d="M689.543,407.182c-0.713,0-1.404-0.38-1.771-1.051c-5.528-10.127-18.961-5.675-19.531-5.48
						c-1.052,0.36-2.198-0.199-2.56-1.251s0.195-2.196,1.246-2.56c5.927-2.047,18.648-3.145,24.382,7.36
						c0.533,0.978,0.173,2.2-0.804,2.734C690.201,407.102,689.869,407.182,689.543,407.182z"/>
				</g>
			</g>
		</g>
	</g>
	<g>
		<g>
			<g>
				<g>
					<path fill="#6A655E" d="M666.758,402.072c-0.691,0-1.365-0.355-1.74-0.996c-5.863-9.994-19.549-4.93-19.688-4.877
						c-1.04,0.396-2.204-0.127-2.599-1.168c-0.396-1.039,0.126-2.203,1.167-2.6c5.859-2.229,18.541-3.717,24.596,6.605
						c0.562,0.96,0.242,2.195-0.719,2.758C667.455,401.982,667.104,402.072,666.758,402.072z"/>
				</g>
			</g>
		</g>
	</g>
	<g>
		<g>
			<g>
				<g>
					<g>
						<path fill="#6A655E" d="M654.777,381.402c-0.562,0-1.121-0.234-1.521-0.691c-0.73-0.84-0.642-2.112,0.197-2.844
							c0.304-0.264,0.618-0.531,0.938-0.801c0.853-0.713,2.124-0.602,2.84,0.252c0.713,0.854,0.601,2.125-0.252,2.839
							c-0.302,0.251-0.595,0.502-0.88,0.75C655.719,381.239,655.248,381.402,654.777,381.402z"/>
					</g>
				</g>
			</g>
		</g>
		<g>
			<g>
				<g>
					<g>
						<path fill="#6A655E" d="M644.613,393.581c-0.281,0-0.564-0.059-0.837-0.183c-1.013-0.462-1.458-1.658-0.995-2.67
							c0.079-0.174,2.014-4.334,7.373-9.766c0.782-0.793,2.059-0.801,2.85-0.019c0.793,0.782,0.801,2.058,0.019,2.85
							c-4.864,4.929-6.56,8.573-6.575,8.608C646.108,393.145,645.377,393.581,644.613,393.581z"/>
					</g>
				</g>
			</g>
		</g>
	</g>
	<g>
		<g>
			<g>
				<g>
					<g>
						<path fill="#6A655E" d="M667.925,385.031c-1.032,0-1.91-0.788-2.005-1.835c-0.033-0.376-0.072-0.761-0.113-1.149
							c-0.12-1.105,0.678-2.101,1.783-2.222c1.107-0.122,2.102,0.679,2.224,1.784c0.044,0.416,0.085,0.826,0.12,1.227
							c0.1,1.109-0.719,2.088-1.827,2.188C668.047,385.028,667.984,385.031,667.925,385.031z"/>
					</g>
				</g>
			</g>
		</g>
		<g>
			<g>
				<g>
					<g>
						<path fill="#6A655E" d="M666.82,400.855c-0.221,0-0.445-0.037-0.666-0.113c-1.048-0.368-1.602-1.514-1.238-2.563
							c0.024-0.072,1.316-3.954,1.224-10.769c-0.015-1.113,0.876-2.027,1.987-2.043c1.117-0.021,2.027,0.875,2.043,1.988
							c0.104,7.63-1.385,11.969-1.447,12.15C668.432,400.336,667.652,400.855,666.82,400.855z"/>
					</g>
				</g>
			</g>
		</g>
	</g>
</g>
</svg>
