<?xml version="1.0" encoding="utf-8"?>
<!-- Generator: Adobe Illustrator 15.0.0, SVG Export Plug-In . SVG Version: 6.00 Build 0)  -->
<!DOCTYPE svg PUBLIC "-//W3C//DTD SVG 1.1//EN" "http://www.w3.org/Graphics/SVG/1.1/DTD/svg11.dtd">
<svg version="1.1" id="Layer_1" xmlns="http://www.w3.org/2000/svg" xmlns:xlink="http://www.w3.org/1999/xlink" x="0px" y="0px"
	 width="1280px" height="768px" viewBox="0 0 1280 768" enable-background="new 0 0 1280 768" xml:space="preserve">
<g>
	<g>
		<g>
			<g>
				<g>
					<g>
						<path fill="#6A655E" d="M630.709,448.556c-1.706,0-3.382-0.445-4.756-1.468c-2.115-1.572-3.597-4.054-4.679-5.866
							c-0.323-0.542-0.765-1.28-0.946-1.484c-1.5-1.316-3.482-2.108-5.582-2.948c-0.785-0.313-1.598-0.638-2.396-0.996l-0.234-0.105
							c-1.016-0.453-1.474-1.645-1.021-2.661c0.453-1.016,1.645-1.472,2.662-1.021l0.219,0.1c0.748,0.334,1.485,0.629,2.267,0.941
							c2.337,0.934,4.752,1.899,6.778,3.691c0.574,0.508,1.053,1.309,1.715,2.418c0.908,1.521,2.152,3.604,3.623,4.697
							c1.775,1.32,5.189,0.521,6.832-1.021c1.561-1.466,3.045-4.439,3.765-6.582c0.239-0.711,0.853-1.23,1.593-1.349
							c1.135-0.182,2.201-0.295,3.232-0.404c1.75-0.187,3.406-0.362,5.123-0.851c10.434-2.967,18.208-7.061,23.104-12.167
							c0.635-0.662,1.303-1.3,1.949-1.916c1.068-1.021,2.08-1.983,2.934-3.035c1.889-2.322,4.793-4.782,7.023-5.042
							c3.084-0.363,8.25-2.889,8.639-4.223c0.969-3.344-0.385-5.063-3.541-8.634c-0.987-1.118-2.107-2.386-3.221-3.856
							c-2.228-2.947-4.783-7.43-6.648-10.702c-1.018-1.788-1.98-3.477-2.409-4.058c-7.245-9.809-12.386-12.955-18.815-15.076
							c-0.756-0.248-1.294-0.918-1.375-1.709c-0.162-1.594-1.499-3.812-3.406-5.65c-0.869-0.839-1.516-0.908-1.932-0.894
							c-1.924,0.087-4.228,2.749-4.984,3.624c-2.52,2.912-4.719,3.396-7.048,3.907c-0.857,0.188-1.747,0.384-2.784,0.716
							c-18.163,5.803-27.805,12.732-36.695,21.353c-0.227,0.22-0.455,0.449-0.686,0.681c-0.904,0.908-1.928,1.938-3.141,2.7
							c-1.336,0.843-2.746,1.318-4.108,1.778c-0.968,0.326-1.883,0.635-2.687,1.051c-0.905,0.469-1.381,1.005-1.412,1.597
							c-0.041,0.806,0.697,2.134,2.443,3.285c3.766,2.483,4.291,6.657,4.755,10.339c0.225,1.776,0.436,3.453,0.966,4.863
							c0.393,1.042-0.135,2.203-1.177,2.596c-1.044,0.392-2.204-0.136-2.597-1.178c-0.695-1.854-0.947-3.848-1.19-5.776
							c-0.407-3.229-0.759-6.018-2.976-7.479c-2.791-1.84-4.379-4.405-4.248-6.862c0.062-1.194,0.613-3.427,3.584-4.963
							c1.076-0.557,2.182-0.93,3.25-1.29c1.191-0.402,2.316-0.782,3.25-1.37c0.824-0.52,1.641-1.339,2.43-2.133
							c0.249-0.248,0.492-0.494,0.736-0.73c11.004-10.668,22.092-17.128,38.274-22.299c1.216-0.389,2.241-0.614,3.147-0.812
							c2.145-0.472,3.221-0.708,4.865-2.609c1.953-2.257,4.609-4.866,7.85-5.013c1.785-0.08,3.438,0.6,4.91,2.019
							c0.871,0.839,3.499,3.579,4.371,6.82c6.539,2.334,12.246,6.07,19.67,16.122c0.571,0.772,1.452,2.318,2.67,4.457
							c1.811,3.177,4.289,7.528,6.36,10.266c1.021,1.349,2.04,2.503,3.028,3.619c3.094,3.503,6.02,6.811,4.389,12.426
							c-1.201,4.136-9.1,6.756-12.039,7.102c-0.488,0.078-2.444,1.222-4.365,3.583c-1.016,1.248-2.166,2.347-3.278,3.407
							c-0.642,0.613-1.249,1.192-1.821,1.79c-5.475,5.71-13.623,10.045-24.912,13.255c-2.049,0.582-3.955,0.785-5.799,0.981
							c-0.609,0.064-1.233,0.131-1.865,0.212c-0.939,2.365-2.501,5.276-4.391,7.053
							C636.152,447.456,633.393,448.556,630.709,448.556z"/>
					</g>
				</g>
			</g>
		</g>
		<g>
			<g>
				<g>
					<g>
						<path fill="#6A655E" d="M608.918,433.941c-0.359,0-0.723-0.097-1.051-0.298c-3.943-2.417-8.268-6.123-10.761-9.224
							c-0.699-0.867-0.562-2.136,0.306-2.833s2.135-0.562,2.834,0.307c1.797,2.234,5.608,5.789,9.727,8.313
							c0.949,0.582,1.246,1.822,0.664,2.771C610.257,433.599,609.596,433.941,608.918,433.941z"/>
					</g>
				</g>
			</g>
		</g>
		<g>
			<g>
				<g>
					<g>
						<path fill="#6A655E" d="M596.091,420.849c-0.614,0-1.214-0.281-1.604-0.794c-0.121-0.145-0.236-0.316-0.345-0.52
							c-0.524-0.982-0.153-2.202,0.829-2.727c0.93-0.496,2.076-0.189,2.639,0.682c0.072,0.094,0.143,0.197,0.211,0.312
							c0.569,0.956,0.256,2.192-0.701,2.762C596.798,420.757,596.441,420.849,596.091,420.849z"/>
					</g>
				</g>
			</g>
		</g>
		<g>
			<g>
				<g>
					<g>
						<path fill="#6A655E" d="M639.678,441.396c-0.395,0-0.793-0.115-1.143-0.356c-0.916-0.632-1.146-1.888-0.513-2.804
							c0.597-0.866,0.697-2.101,0.296-3.666c-0.275-1.079,0.375-2.177,1.454-2.452c1.075-0.276,2.176,0.374,2.45,1.452
							c0.693,2.707,0.387,5.112-0.885,6.955C640.948,441.093,640.318,441.396,639.678,441.396z"/>
					</g>
				</g>
			</g>
		</g>
		<g>
			<g>
				<g>
					<g>
						<path fill="#6A655E" d="M593.17,402.916c-0.213,0-0.427-0.033-0.639-0.104c-0.119-0.041-0.363-0.037-0.623-0.035
							c-0.924,0.012-2.641,0.033-4.078-1.945c-0.656-0.9-0.456-2.16,0.443-2.814c0.9-0.654,2.16-0.455,2.814,0.444
							c0.16,0.218,0.248,0.27,0.25,0.27c0.067,0.022,0.342,0.02,0.521,0.017c0.498-0.006,1.18-0.015,1.945,0.24
							c1.057,0.352,1.627,1.492,1.276,2.549C594.799,402.382,594.014,402.916,593.17,402.916z"/>
					</g>
				</g>
			</g>
		</g>
		<g>
			<g>
				<g>
					<g>
						<path fill="#6A655E" d="M625.418,445.494c-0.615,0-1.225-0.281-1.619-0.814c-0.732-0.986-3.105-4.485-2.912-8.104
							c0.059-1.11,1.009-1.963,2.119-1.904c1.111,0.059,1.965,1.008,1.906,2.119c-0.092,1.691,1,3.976,2.123,5.487
							c0.662,0.894,0.476,2.155-0.418,2.819C626.256,445.365,625.835,445.494,625.418,445.494z"/>
					</g>
				</g>
			</g>
		</g>
		<g>
			<g>
				<g>
					<g>
						<path fill="#6A655E" d="M690.131,398.912c-0.373,0-0.75-0.104-1.088-0.32c-0.51-0.327-1.848-1.053-3.234-0.739
							c-1.083,0.245-2.163-0.433-2.41-1.518c-0.248-1.085,0.432-2.165,1.518-2.412c2.773-0.63,5.14,0.53,6.305,1.278
							c0.936,0.601,1.209,1.848,0.607,2.784C691.443,398.584,690.793,398.912,690.131,398.912z"/>
					</g>
				</g>
			</g>
		</g>
	</g>
	<g>
		<g>
			<g>
				<g>
					<path fill="#6A655E" d="M688.939,378.446c-0.842,0-1.626-0.532-1.908-1.374c-1.024-3.046-6.533-10.258-9.494-12.846
						c-1.618-1.414-3.252-2.625-4.995-3.702c-0.946-0.585-1.239-1.826-0.654-2.773c0.585-0.946,1.827-1.24,2.774-0.654
						c1.932,1.194,3.74,2.534,5.527,4.095c3.145,2.75,9.3,10.546,10.66,14.598c0.355,1.055-0.213,2.197-1.268,2.552
						C689.369,378.412,689.152,378.446,688.939,378.446z"/>
				</g>
			</g>
		</g>
	</g>
	<g>
		<g>
			<g>
				<g>
					<path fill="#6A655E" d="M682.691,410.029c-0.928,0-1.818-0.137-2.57-0.385c-1.057-0.349-1.631-1.488-1.281-2.545
						s1.487-1.631,2.545-1.281c1.068,0.352,2.9,0.211,3.66-0.502c0.812-0.762,2.088-0.719,2.848,0.093
						c0.762,0.812,0.721,2.087-0.092,2.849C686.469,409.504,684.509,410.029,682.691,410.029z"/>
				</g>
			</g>
		</g>
	</g>
	<g>
		<g>
			<g>
				<g>
					<g>
						<g>
							<g>
								<path fill="#6A655E" d="M588.665,433.075c-0.784,0-1.53-0.46-1.856-1.228c-0.777-1.832-1.289-3.927-1.782-5.953
									c-1.017-4.172-1.976-8.113-4.978-9.915c-2.873-1.724-4.441-4.009-4.416-6.438c0.014-1.347,0.582-3.919,4.237-6.011
									c1.278-0.731,2.548-1.137,3.667-1.495l0.187-0.06c1.062-0.34,2.194,0.244,2.534,1.303c0.34,1.061-0.243,2.195-1.304,2.534
									l-0.19,0.062c-1.02,0.326-1.982,0.634-2.893,1.154c-1.396,0.799-2.201,1.729-2.209,2.555c-0.01,0.911,0.91,2.01,2.46,2.939
									c4.446,2.669,5.708,7.848,6.819,12.417c0.477,1.955,0.928,3.802,1.576,5.331c0.436,1.023-0.041,2.207-1.064,2.643
									C589.195,433.023,588.928,433.075,588.665,433.075z"/>
							</g>
						</g>
					</g>
				</g>
				<g>
					<g>
						<g>
							<g>
								<path fill="#6A655E" d="M633.292,468.98c-2.179,0-4.353-0.559-6.053-1.714c-1.722-1.171-3.13-3.001-4.37-4.616
									c-0.818-1.063-1.59-2.068-2.222-2.581c-1.841-1.493-4.204-2.322-6.705-3.2c-0.92-0.323-1.87-0.657-2.806-1.03
									c-0.045-0.017-1.191-0.48-2.037-0.823l-0.87-0.352c-1.034-0.414-1.537-1.586-1.123-2.619
									c0.413-1.033,1.585-1.537,2.616-1.124c0.034,0.014,0.414,0.167,0.889,0.359c0.809,0.327,1.903,0.771,2.006,0.812
									c0.868,0.346,1.739,0.651,2.66,0.975c2.716,0.953,5.523,1.939,7.908,3.873c1,0.811,1.912,1.998,2.879,3.255
									c1.107,1.44,2.254,2.932,3.439,3.739c2.344,1.592,6.605,1.298,8.445-0.583c1.766-1.805,3.364-5.367,4.1-7.913
									c0.209-0.72,0.801-1.265,1.535-1.414c1.291-0.264,2.512-0.445,3.689-0.622c2.027-0.303,3.941-0.589,5.926-1.246
									c11.949-3.952,20.766-9.089,26.205-15.267c0.693-0.789,1.431-1.555,2.145-2.294c1.19-1.238,2.316-2.407,3.265-3.679
									c2.026-2.723,5.181-5.646,7.653-6.043c3.271-0.526,8.85-3.043,10.145-5.791c1.73-3.669,0.021-5.516-4.012-9.343
									c-1.441-1.367-3.074-2.917-4.592-4.755c-0.307-0.371-0.629-0.775-0.955-1.201c-0.676-0.883-0.508-2.147,0.375-2.824
									c0.884-0.676,2.148-0.509,2.826,0.375c0.295,0.385,0.584,0.75,0.861,1.084c1.361,1.65,2.834,3.047,4.258,4.397
									c3.899,3.7,7.931,7.526,4.884,13.986c-2.268,4.806-9.979,7.54-13.15,8.05c-0.579,0.093-2.856,1.511-5.062,4.472
									c-1.099,1.476-2.367,2.792-3.593,4.065c-0.713,0.741-1.387,1.441-2.021,2.163c-6.002,6.817-15.148,12.19-27.965,16.43
									c-2.312,0.765-4.489,1.091-6.595,1.405c-0.761,0.114-1.538,0.23-2.329,0.368c-0.947,2.772-2.607,6.265-4.711,8.414
									C639.025,468.014,636.156,468.98,633.292,468.98z"/>
							</g>
						</g>
					</g>
				</g>
				<g>
					<g>
						<g>
							<g>
								<path fill="#6A655E" d="M604.954,452.401c-0.373,0-0.753-0.104-1.091-0.323c-3.461-2.236-6.622-4.977-9.396-8.141
									c-0.734-0.838-0.65-2.11,0.186-2.844c0.837-0.734,2.109-0.65,2.845,0.186c2.528,2.886,5.407,5.38,8.554,7.415
									c0.934,0.604,1.201,1.852,0.598,2.786C606.264,452.076,605.615,452.401,604.954,452.401z"/>
							</g>
						</g>
					</g>
				</g>
				<g>
					<g>
						<g>
							<g>
								<path fill="#6A655E" d="M591.424,439.369c-0.582,0-1.154-0.252-1.547-0.721c-0.137-0.148-0.271-0.328-0.397-0.544
									c-0.567-0.958-0.25-2.194,0.708-2.761c0.91-0.538,2.068-0.278,2.669,0.568c0.084,0.1,0.167,0.212,0.25,0.336
									c0.61,0.93,0.351,2.18-0.579,2.791C592.188,439.263,591.803,439.369,591.424,439.369z"/>
							</g>
						</g>
					</g>
				</g>
				<g>
					<g>
						<g>
							<g>
								<path fill="#6A655E" d="M642.438,462.137c-0.368,0-0.739-0.101-1.073-0.311c-0.941-0.593-1.225-1.837-0.631-2.778
									c0.814-1.294,0.365-3.596,0.15-4.702c-0.213-1.093,0.5-2.15,1.592-2.363c1.092-0.211,2.15,0.5,2.363,1.593
									c0.314,1.614,0.969,4.975-0.694,7.619C643.762,461.803,643.106,462.137,642.438,462.137z"/>
							</g>
						</g>
					</g>
				</g>
				<g>
					<g>
						<g>
							<g>
								<path fill="#6A655E" d="M587.171,418.816c-0.183,0-0.37-0.025-0.556-0.078c-0.192-0.057-0.471-0.04-0.824-0.021
									c-1.076,0.058-2.885,0.158-4.541-1.929c-0.693-0.871-0.548-2.139,0.324-2.831c0.871-0.691,2.14-0.547,2.83,0.325
									c0.361,0.454,0.377,0.453,1.166,0.41c0.553-0.03,1.309-0.071,2.153,0.17c1.07,0.307,1.69,1.422,1.384,2.491
									C588.854,418.239,588.047,418.816,587.171,418.816z"/>
							</g>
						</g>
					</g>
				</g>
				<g>
					<g>
						<g>
							<g>
								<path fill="#6A655E" d="M626.307,466.282c-0.588,0-1.168-0.255-1.567-0.747c-0.875-1.082-3.731-4.929-3.688-9.008
									c0.013-1.105,0.913-1.994,2.015-1.994c0.008,0,0.016,0,0.021,0c1.113,0.013,2.006,0.924,1.994,2.037
									c-0.019,1.789,1.075,4.312,2.789,6.43c0.701,0.864,0.568,2.133-0.298,2.834
									C627.201,466.136,626.752,466.282,626.307,466.282z"/>
							</g>
						</g>
					</g>
				</g>
				<g>
					<g>
						<g>
							<g>
								<path fill="#6A655E" d="M699.898,405.681l-0.169-0.099c-1.396-0.817-3.095-1.809-5.354-1.508
									c0.013,0.071,0.029,0.142,0.035,0.215c0.116,1.364-0.106,2.759-0.688,3.9c0.266,0.039,0.543,0.026,0.818-0.049
									c1.035-0.283,1.715,0.077,3.151,0.919l0.175,0.102c0.319,0.187,0.668,0.274,1.014,0.274c0.692,0,1.367-0.357,1.741-0.999
									C701.184,407.476,700.859,406.241,699.898,405.681z"/>
							</g>
						</g>
					</g>
				</g>
			</g>
		</g>
		<g>
			<g>
				<g>
					<g>
						<path fill="#6A655E" d="M694.375,422.225c-0.769,0-1.505-0.443-1.84-1.191c-0.454-1.016,0-2.207,1.016-2.662
							c1.377-0.617,2.492-1.521,2.713-2.2c0.345-1.058,1.482-1.637,2.539-1.293c1.059,0.344,1.638,1.48,1.295,2.539
							c-0.838,2.575-3.706,4.097-4.9,4.632C694.931,422.168,694.65,422.225,694.375,422.225z"/>
					</g>
				</g>
			</g>
		</g>
	</g>
</g>
</svg>
