<?xml version="1.0" encoding="utf-8"?>
<!-- Generator: Adobe Illustrator 15.0.0, SVG Export Plug-In . SVG Version: 6.00 Build 0)  -->
<!DOCTYPE svg PUBLIC "-//W3C//DTD SVG 1.1//EN" "http://www.w3.org/Graphics/SVG/1.1/DTD/svg11.dtd">
<svg version="1.1" id="Layer_1" xmlns="http://www.w3.org/2000/svg" xmlns:xlink="http://www.w3.org/1999/xlink" x="0px" y="0px"
	 width="1280px" height="768px" viewBox="0 0 1280 768" enable-background="new 0 0 1280 768" xml:space="preserve">
<g>
	<g>
		<g>
			<g>
				<g>
					<g>
						<path fill="#6A655E" d="M598.031,472.291L598.031,472.291c-1.113,0-2.015-0.902-2.015-2.016c0-3.324,0.246-32.553,8.72-40.416
							c3.281-4.159,12.539-7.066,15.565-7.764c1.084-0.25,2.167,0.426,2.417,1.511s-0.427,2.166-1.511,2.416
							c-4.242,0.979-11.442,3.823-13.366,6.409c-0.083,0.11-0.176,0.213-0.279,0.305c-6.162,5.471-7.515,28.953-7.517,37.539
							C600.046,471.389,599.144,472.291,598.031,472.291z"/>
					</g>
				</g>
			</g>
		</g>
		<g>
			<g>
				<g>
					<g>
						<path fill="#6A655E" d="M677.031,472.29c-0.048,0-0.097-0.001-0.146-0.005c-1.11-0.079-1.945-1.044-1.866-2.153
							c0.009-0.125,0.857-12.631-1.982-24.151c-0.266-1.081,0.395-2.173,1.475-2.439c1.079-0.269,2.172,0.395,2.438,1.475
							c2.997,12.155,2.128,24.869,2.089,25.404C678.963,471.48,678.079,472.29,677.031,472.29z"/>
					</g>
				</g>
			</g>
		</g>
		<g>
			<g>
				<g>
					<g>
						<path fill="#6A655E" d="M637.542,438.705c-0.08,0-0.161-0.001-0.242-0.002c-8.614-0.093-14.931-6.963-17.37-13.73
							c-0.377-1.047,0.165-2.201,1.211-2.578c1.048-0.377,2.202,0.165,2.58,1.212c1.967,5.457,6.942,10.995,13.623,11.067
							c7.901,0.07,11.889-4.887,12.244-9.543c0.081-1.061,0.957-1.879,2.037-1.861c5.753,0.078,13.056,0.896,18.508,6.562
							c0.983,1.023,1.898,2.271,2.721,3.711c0.553,0.966,0.217,2.196-0.75,2.748c-0.965,0.553-2.197,0.217-2.749-0.749
							c-0.657-1.151-1.373-2.133-2.127-2.917c-3.913-4.067-9.095-5.059-13.911-5.276
							C651.968,433.279,646.473,438.705,637.542,438.705z"/>
					</g>
				</g>
			</g>
		</g>
		<g>
			<g>
				<g>
					<g>
						<path fill="#6A655E" d="M664.137,450.408h-9.322c-1.112,0-2.016-0.902-2.016-2.015c0-1.113,0.903-2.016,2.016-2.016h9.322
							c1.113,0,2.016,0.902,2.016,2.016C666.152,449.506,665.25,450.408,664.137,450.408z"/>
					</g>
				</g>
			</g>
		</g>
	</g>
	<g>
		<g>
			<g>
				<g>
					<path fill="#6A655E" d="M624.129,426.451c-0.048,0-0.095,0-0.143-0.001c-1.113-0.017-2.001-0.933-1.985-2.045
						c0.017-1.103,0.916-1.985,2.014-1.985c0.038,0,0.078,0.001,0.117,0.001c1.223,0,2.244-0.392,2.955-1.137
						c0.759-0.794,1.132-1.966,1.051-3.298c-0.067-1.11,0.777-2.066,1.889-2.134c1.111-0.061,2.065,0.778,2.133,1.89
						c0.149,2.464-0.617,4.711-2.16,6.325C628.53,425.607,626.449,426.451,624.129,426.451z"/>
				</g>
			</g>
		</g>
	</g>
	<g>
		<g>
			<g>
				<g>
					<path fill="#6A655E" d="M650.766,427.354c-1.809,0-3.507-0.948-4.839-2.722c-2.194-2.919-3.025-7.494-1.854-10.197
						c0.442-1.021,1.63-1.489,2.65-1.048c1.021,0.443,1.489,1.629,1.048,2.65c-0.538,1.239-0.008,4.331,1.377,6.174
						c0.416,0.554,1.059,1.195,1.775,1.103c1.104-0.142,2.113,0.64,2.255,1.743c0.141,1.104-0.64,2.113-1.743,2.255
						C651.211,427.34,650.988,427.354,650.766,427.354z"/>
				</g>
			</g>
		</g>
	</g>
	<g>
		<g>
			<g>
				<g>
					<path fill="#6A655E" d="M672.883,441.794c-0.258,0-0.52-0.05-0.773-0.155c-1.027-0.427-1.531-1.613-1.104-2.641
						c0.428-1.028,1.589-1.521,2.617-1.095l0.034,0.015c1.028,0.427,1.516,1.605,1.088,2.634
						C674.422,441.326,673.672,441.794,672.883,441.794z"/>
				</g>
			</g>
		</g>
	</g>
	<g>
		<g>
			<g>
				<g>
					<g>
						<path fill="#6A655E" d="M637.106,418.25h-0.267c-5.538,0-8.872-2.248-11.649-4.678c-4.691-4.104-7.274-8.891-7.274-13.478
							v-18.281c0-1.112,0.903-2.015,2.015-2.015c1.113,0,2.015,0.902,2.015,2.015v18.281c0,4.599,3.695,8.518,5.897,10.444
							c2.599,2.272,5.01,3.682,8.997,3.682h0.267c4.133,0,6.647-1.482,9.366-3.873c2.676-2.352,5.865-6.039,5.865-10.253v-11.468
							c0-1.113,0.901-2.016,2.016-2.016c1.112,0,2.015,0.902,2.015,2.016v11.468c0,5.721-3.935,10.38-7.234,13.28
							C646.254,415.907,642.804,418.25,637.106,418.25z"/>
					</g>
				</g>
			</g>
		</g>
		<g>
			<g>
				<g>
					<g>
						<path fill="#6A655E" d="M618.044,399.543c-3.037,0-5.507-2.438-5.507-5.435v-5.907c0-2.234,1.444-4.279,3.591-5.088
							c1.042-0.393,2.203,0.133,2.596,1.174c0.392,1.042-0.134,2.204-1.175,2.597c-0.473,0.179-0.982,0.667-0.982,1.317v5.907
							c0,0.762,0.676,1.405,1.477,1.405c0.163,0,0.354-0.024,0.439-0.048c1.075-0.289,2.18,0.349,2.469,1.423
							c0.289,1.074-0.348,2.18-1.422,2.469C619.092,399.476,618.55,399.543,618.044,399.543z"/>
					</g>
				</g>
			</g>
		</g>
		<g>
			<g>
				<g>
					<g>
						<path fill="#6A655E" d="M656.906,399.56c-0.334,0-0.979-0.022-1.531-0.171c-1.074-0.287-1.713-1.393-1.424-2.468
							c0.287-1.072,1.388-1.71,2.461-1.426c0.066,0.014,0.266,0.034,0.494,0.034c0.799,0,1.527-0.677,1.527-1.421v-2.255
							c0-1.113,0.902-2.015,2.014-2.015c1.113,0,2.016,0.901,2.016,2.015v2.255C662.463,397.063,659.918,399.56,656.906,399.56z"/>
					</g>
				</g>
			</g>
		</g>
		<g>
			<g>
				<g>
					<g>
						<path fill="#6A655E" d="M662.797,391.733c-3.817,0-9.297-0.918-14.708-3.604c-9.001-4.469-15.674-12.417-19.834-23.623
							c-0.387-1.044,0.144-2.203,1.188-2.591c1.042-0.388,2.203,0.145,2.59,1.188c3.791,10.214,9.797,17.419,17.849,21.417
							c7.554,3.75,13.894,3.179,14.592,3.1c1.107-0.121,2.103,0.675,2.226,1.78c0.122,1.106-0.674,2.103-1.78,2.226
							C664.291,391.695,663.578,391.733,662.797,391.733z"/>
					</g>
				</g>
			</g>
		</g>
		<g>
			<g>
				<g>
					<g>
						<path fill="#6A655E" d="M624.592,413.23h-14.539c-0.081,0-1.984-0.025-2.035-2.24c-0.004-0.163-0.005-0.369-0.005-0.551
							c-0.021-0.718-0.281-10.258,0.158-15.729c0.136-1.69,0.224-3.281,0.316-4.964c0.206-3.77,0.463-8.46,1.418-17.07
							c1.384-12.482,6.546-18.989,17.819-22.458c1.064-0.327,2.191,0.271,2.518,1.333c0.328,1.064-0.269,2.191-1.333,2.52
							c-9.726,2.992-13.792,8.155-14.999,19.049c-0.942,8.499-1.196,13.128-1.399,16.848c-0.094,1.709-0.182,3.324-0.322,5.066
							c-0.342,4.262-0.234,11.395-0.174,14.168h12.578c1.113,0,2.015,0.902,2.015,2.015
							C626.607,412.329,625.705,413.23,624.592,413.23z"/>
					</g>
				</g>
			</g>
		</g>
		<g>
			<g>
				<g>
					<g>
						<path fill="#6A655E" d="M614.577,387.271c-0.547,0-1.093-0.222-1.491-0.658c-0.749-0.822-0.69-2.098,0.133-2.847
							c3.957-3.604,14.349-14.418,14.917-21.083c0.094-1.109,1.068-1.928,2.179-1.837c1.108,0.095,1.931,1.07,1.836,2.179
							c-0.816,9.6-15.589,23.149-16.219,23.721C615.547,387.098,615.061,387.271,614.577,387.271z"/>
					</g>
				</g>
			</g>
		</g>
		<g>
			<g>
				<g>
					<g>
						<path fill="#6A655E" d="M665.561,414.664h-16.944c-1.112,0-2.015-0.901-2.015-2.015c0-1.112,0.902-2.015,2.015-2.015h14.929
							c-0.074-13.686-1.574-38.892-1.59-39.158c-0.002-0.04-0.004-0.08-0.004-0.12c0-10.312-10.409-18.702-23.204-18.702
							c-3.206,0-6.351,0.544-9.347,1.615c-1.048,0.375-2.201-0.17-2.576-1.219c-0.375-1.047,0.17-2.201,1.218-2.576
							c3.433-1.228,7.034-1.85,10.704-1.85c14.991,0,27.193,10.164,27.234,22.67c0.086,1.454,1.675,28.479,1.594,41.367
							C667.568,413.77,666.668,414.664,665.561,414.664z"/>
					</g>
				</g>
			</g>
		</g>
	</g>
</g>
</svg>
