<?xml version="1.0" encoding="utf-8"?>
<!-- Generator: Adobe Illustrator 15.0.0, SVG Export Plug-In . SVG Version: 6.00 Build 0)  -->
<!DOCTYPE svg PUBLIC "-//W3C//DTD SVG 1.1//EN" "http://www.w3.org/Graphics/SVG/1.1/DTD/svg11.dtd">
<svg version="1.1" id="Layer_1" xmlns="http://www.w3.org/2000/svg" xmlns:xlink="http://www.w3.org/1999/xlink" x="0px" y="0px"
	 width="1280px" height="768px" viewBox="0 0 1280 768" enable-background="new 0 0 1280 768" xml:space="preserve">
<g>
	<g>
		<g>
			<g>
				<g>
					<path fill="#6A655E" d="M571.529,436.957c-1.113,0-2.015-0.902-2.015-2.015V410.75c0-3.326,2.692-6.033,6.003-6.033H680.2
						c3.353,0,6.185,2.763,6.185,6.033v21.774c0,1.112-0.902,2.015-2.016,2.015s-2.016-0.902-2.016-2.015V410.75
						c0-1.049-1.026-2.003-2.153-2.003H575.517c-1.088,0-1.973,0.898-1.973,2.003v24.192
						C573.543,436.055,572.642,436.957,571.529,436.957z"/>
				</g>
			</g>
		</g>
	</g>
	<g>
		<g>
			<g>
				<g>
					<path fill="#6A655E" d="M619.1,408.709c-0.087,0-0.175-0.006-0.265-0.019c-1.103-0.146-1.88-1.157-1.735-2.261
						c2.047-15.557,15.441-27.289,31.156-27.289c7.516,0,14.789,2.695,20.479,7.59c5.63,4.842,9.376,11.523,10.547,18.816
						c0.177,1.1-0.571,2.133-1.67,2.31c-1.1,0.175-2.132-0.571-2.309-1.67c-2.143-13.336-13.518-23.015-27.048-23.015
						c-13.7,0-25.376,10.225-27.161,23.784C620.962,407.971,620.096,408.709,619.1,408.709z"/>
				</g>
			</g>
		</g>
	</g>
	<g>
		<g>
			<g>
				<g>
					<path fill="#6A655E" d="M663.264,402.016l-0.635-1.912c-1.359-4.098-6.715-8.113-11.939-8.949l-1.99-0.318l0.637-3.98
						l1.99,0.318c6.78,1.086,13.283,6.1,15.129,11.661l0.633,1.913L663.264,402.016z"/>
				</g>
			</g>
		</g>
	</g>
	<g>
		<g>
			<g>
				<g>
					
						<rect x="648.232" y="372.337" transform="matrix(0.7071 0.7071 -0.7071 0.7071 455.166 -350.1649)" fill="#6A655E" width="4.074" height="4.03"/>
				</g>
			</g>
		</g>
	</g>
	<g>
		<g>
			<g>
				<g>
					<g>
						<path fill="#6A655E" d="M609.135,367.742c-1.112,0-2.015-0.902-2.015-2.016v-13.904h-2.745v13.904
							c0,1.113-0.902,2.016-2.015,2.016c-1.113,0-2.015-0.902-2.015-2.016v-15.918c0-1.113,0.902-2.016,2.015-2.016h6.775
							c1.113,0,2.015,0.902,2.015,2.016v15.918C611.15,366.84,610.248,367.742,609.135,367.742z"/>
					</g>
				</g>
			</g>
		</g>
		<g>
			<g>
				<g>
					<g>
						<path fill="#6A655E" d="M603.06,361.436c-1.107,0-2.009-0.895-2.015-2.004c-0.006-1.113,0.891-2.02,2.004-2.026l5.428-0.028
							c0.004,0,0.007,0,0.011,0c1.107,0,2.009,0.895,2.015,2.004c0.005,1.112-0.892,2.02-2.004,2.025l-5.428,0.029
							C603.067,361.436,603.064,361.436,603.06,361.436z"/>
					</g>
				</g>
			</g>
		</g>
		<g>
			<g>
				<g>
					<g>
						<path fill="#6A655E" d="M613.297,408.291h-15.272c-1.11,0-2.012-0.898-2.015-2.01c-0.004-1.299-0.086-31.861,0.011-33.817
							c0.217-4.398,3.943-7.081,5.08-7.8c0.94-0.594,2.186-0.312,2.779,0.629c0.594,0.941,0.313,2.186-0.628,2.779
							c-0.514,0.324-3.082,2.069-3.206,4.59c-0.071,1.434-0.036,21.693-0.011,31.6h11.268c0.128-12.694,0.26-30.322,0.14-31.676
							c-0.201-2.223-2.485-4.287-3.348-4.895c-0.908-0.639-1.131-1.895-0.494-2.805c0.636-0.908,1.886-1.136,2.797-0.502
							c0.19,0.131,4.646,3.273,5.059,7.837c0.185,2.038-0.11,30.803-0.145,34.075C615.301,407.402,614.402,408.291,613.297,408.291z
							"/>
					</g>
				</g>
			</g>
		</g>
	</g>
	<g>
		<g>
			<g>
				<g>
					<g>
						<g>
							<g>
								<g>
									<g>
										<g>
											<path fill="#6A655E" d="M571.729,436.295c-0.654,0-1.295-0.318-1.683-0.904c-0.614-0.929-0.358-2.179,0.57-2.792
												c0.627-0.414,1.267-0.94,1.945-1.497c2.153-1.77,4.834-3.973,8.191-2.873c1.058,0.347,1.634,1.485,1.287,2.543
												c-0.347,1.057-1.484,1.635-2.542,1.287c-1.167-0.383-2.433,0.559-4.377,2.156c-0.728,0.598-1.48,1.217-2.282,1.746
												C572.496,436.188,572.11,436.295,571.729,436.295z"/>
										</g>
									</g>
								</g>
							</g>
							<g>
								<g>
									<g>
										<g>
											<path fill="#6A655E" d="M590.597,437.386c-2.595,0-4.813-1.823-6.452-3.171c-1.943-1.598-3.207-2.54-4.375-2.156
												c-1.058,0.346-2.196-0.229-2.542-1.287c-0.347-1.058,0.229-2.195,1.286-2.543c3.355-1.102,6.037,1.102,8.19,2.873
												c2.75,2.26,3.767,2.764,5.207,1.729c0.904-0.648,2.162-0.442,2.812,0.461c0.649,0.904,0.442,2.163-0.461,2.812
												C592.978,437.025,591.75,437.386,590.597,437.386z"/>
										</g>
									</g>
								</g>
							</g>
						</g>
					</g>
					<g>
						<g>
							<g>
								<g>
									<g>
										<g>
											<path fill="#6A655E" d="M590.272,437.386c-1.153,0-2.381-0.36-3.665-1.282c-0.904-0.649-1.11-1.908-0.461-2.812
												c0.65-0.904,1.908-1.109,2.812-0.461c1.439,1.035,2.457,0.533,5.207-1.729c2.153-1.77,4.834-3.973,8.192-2.873
												c1.057,0.348,1.633,1.485,1.287,2.543c-0.346,1.058-1.485,1.635-2.543,1.287c-1.169-0.383-2.433,0.559-4.376,2.156
												C595.086,435.562,592.867,437.386,590.272,437.386z"/>
										</g>
									</g>
								</g>
							</g>
							<g>
								<g>
									<g>
										<g>
											<path fill="#6A655E" d="M612.202,437.386c-2.595,0-4.813-1.824-6.452-3.171c-1.942-1.598-3.207-2.539-4.374-2.156
												c-1.057,0.348-2.196-0.229-2.543-1.287c-0.347-1.058,0.229-2.195,1.287-2.543c3.357-1.1,6.036,1.103,8.189,2.873
												c2.75,2.262,3.768,2.762,5.207,1.729c0.903-0.649,2.163-0.442,2.812,0.461c0.649,0.904,0.442,2.163-0.461,2.812
												C614.582,437.025,613.354,437.386,612.202,437.386z"/>
										</g>
									</g>
								</g>
							</g>
						</g>
						<g>
							<g>
								<g>
									<g>
										<g>
											<path fill="#6A655E" d="M611.879,437.386c-1.154,0-2.381-0.36-3.666-1.282c-0.904-0.648-1.111-1.908-0.462-2.812
												c0.649-0.903,1.908-1.11,2.812-0.461c1.44,1.033,2.458,0.532,5.209-1.729c2.154-1.771,4.834-3.973,8.19-2.873
												c1.058,0.348,1.633,1.485,1.287,2.543s-1.484,1.635-2.543,1.287c-1.168-0.384-2.432,0.559-4.374,2.156
												C616.693,435.562,614.474,437.386,611.879,437.386z"/>
										</g>
									</g>
								</g>
							</g>
							<g>
								<g>
									<g>
										<g>
											<path fill="#6A655E" d="M633.762,437.403c-2.57,0-4.803-1.767-6.583-3.175c-2.036-1.609-3.36-2.557-4.543-2.17
												c-1.058,0.346-2.197-0.229-2.543-1.287c-0.347-1.058,0.229-2.195,1.287-2.543c3.331-1.094,6.085,1.088,8.3,2.84
												c2.912,2.303,3.979,2.813,5.445,1.762c0.904-0.649,2.163-0.442,2.812,0.461c0.648,0.904,0.442,2.164-0.462,2.812
												C636.174,437.037,634.933,437.403,633.762,437.403z"/>
										</g>
									</g>
								</g>
							</g>
						</g>
					</g>
					<g>
						<g>
							<g>
								<g>
									<g>
										<g>
											<path fill="#6A655E" d="M635.024,437.254c-0.877,0-1.685-0.578-1.937-1.463c-0.305-1.07,0.316-2.186,1.386-2.49
												c0.917-0.262,1.963-1.124,3.07-2.037c2.108-1.74,4.73-3.904,8.248-3.082c1.084,0.253,1.758,1.336,1.504,2.42
												c-0.253,1.084-1.334,1.756-2.421,1.504c-1.468-0.344-2.779,0.627-4.766,2.267c-1.377,1.138-2.803,2.312-4.531,2.805
												C635.393,437.229,635.206,437.254,635.024,437.254z"/>
										</g>
									</g>
								</g>
							</g>
							<g>
								<g>
									<g>
										<g>
											<path fill="#6A655E" d="M655.805,437.407c-2.451,0-4.472-1.702-5.969-2.964c-2.013-1.695-3.355-2.699-5.059-2.33
												c-1.086,0.236-2.16-0.455-2.396-1.543c-0.235-1.088,0.455-2.16,1.543-2.396c3.761-0.814,6.393,1.404,8.509,3.188
												c2.471,2.082,3.256,2.5,4.689,1.469c0.903-0.649,2.163-0.442,2.812,0.461c0.65,0.904,0.442,2.163-0.461,2.812
												C658.164,437.043,656.938,437.407,655.805,437.407z"/>
										</g>
									</g>
								</g>
							</g>
						</g>
					</g>
				</g>
				<g>
					<g>
						<g>
							<g>
								<g>
									<g>
										<g>
											<path fill="#6A655E" d="M677.592,438.08c-2.515,0-4.666-1.734-6.258-3.017c-0.572-0.46-1.111-0.896-1.619-1.233
												c-3.466-2.305-4.564-1.584-9.191,1.441c-0.474,0.311-0.974,0.637-1.504,0.979c-0.938,0.603-2.184,0.329-2.785-0.606
												c-0.602-0.937-0.33-2.183,0.605-2.784c0.521-0.335,1.012-0.656,1.479-0.961c4.787-3.131,7.949-5.199,13.629-1.424
												c0.66,0.439,1.299,0.954,1.916,1.451c2.645,2.131,3.621,2.602,4.993,1.616c0.902-0.651,2.163-0.444,2.812,0.46
												c0.65,0.903,0.443,2.162-0.46,2.812C679.94,437.725,678.729,438.08,677.592,438.08z"/>
										</g>
									</g>
								</g>
							</g>
						</g>
						<g>
							<g>
								<g>
									<g>
										<g>
											<path fill="#6A655E" d="M677.623,438.267c-1.256,0-2.614-0.403-4.072-1.453c-0.902-0.649-1.109-1.909-0.459-2.812
												c0.649-0.903,1.91-1.108,2.812-0.459c1.758,1.263,2.686,0.835,5.592-1.401c0.261-0.2,0.523-0.402,0.79-0.604
												c0.889-0.668,2.153-0.489,2.821,0.4c0.668,0.891,0.489,2.153-0.4,2.822c-0.254,0.19-0.504,0.383-0.752,0.574
												C682.259,436.64,680.145,438.267,677.623,438.267z"/>
										</g>
									</g>
								</g>
							</g>
						</g>
					</g>
				</g>
			</g>
		</g>
	</g>
	<g>
		<g>
			<g>
				<g>
					<g>
						<rect x="577.977" y="432.121" fill="#6A655E" width="4.03" height="23.777"/>
					</g>
				</g>
			</g>
		</g>
		<g>
			<g>
				<g>
					<g>
						<path fill="#6A655E" d="M583.285,471.736c-4.501,0-8.163-3.662-8.163-8.162c0-4.502,3.662-8.164,8.163-8.164
							c4.502,0,8.164,3.662,8.164,8.164C591.449,468.074,587.787,471.736,583.285,471.736z M583.285,459.439
							c-2.279,0-4.133,1.855-4.133,4.135c0,2.278,1.854,4.133,4.133,4.133c2.28,0,4.134-1.854,4.134-4.133
							C587.419,461.295,585.564,459.439,583.285,459.439z"/>
					</g>
				</g>
			</g>
		</g>
	</g>
	<g>
		<g>
			<g>
				<g>
					<g>
						<rect x="671.876" y="434.137" fill="#6A655E" width="4.03" height="23.374"/>
					</g>
				</g>
			</g>
		</g>
		<g>
			<g>
				<g>
					<g>
						<path fill="#6A655E" d="M677.002,471.736c-4.502,0-8.164-3.662-8.164-8.162c0-4.502,3.662-8.164,8.164-8.164
							s8.164,3.662,8.164,8.164C685.166,468.074,681.504,471.736,677.002,471.736z M677.002,459.439
							c-2.279,0-4.133,1.855-4.133,4.135c0,2.278,1.854,4.133,4.133,4.133s4.134-1.854,4.134-4.133
							C681.136,461.295,679.281,459.439,677.002,459.439z"/>
					</g>
				</g>
			</g>
		</g>
	</g>
	<g>
		<g>
			<g>
				<g>
					<rect x="582.812" y="445.823" fill="#6A655E" width="88.258" height="4.03"/>
				</g>
			</g>
		</g>
	</g>
	<g>
		<g>
			<g>
				<g>
					<polygon fill="#6A655E" points="684.307,407.934 680.54,406.501 688.573,385.373 707.743,385.373 707.743,389.403 
						691.353,389.403 					"/>
				</g>
			</g>
		</g>
	</g>
</g>
</svg>
