<?xml version="1.0" encoding="utf-8"?>
<!-- Generator: Adobe Illustrator 15.0.0, SVG Export Plug-In . SVG Version: 6.00 Build 0)  -->
<!DOCTYPE svg PUBLIC "-//W3C//DTD SVG 1.1//EN" "http://www.w3.org/Graphics/SVG/1.1/DTD/svg11.dtd">
<svg version="1.1" id="Layer_1" xmlns="http://www.w3.org/2000/svg" xmlns:xlink="http://www.w3.org/1999/xlink" x="0px" y="0px"
	 width="1280px" height="768px" viewBox="0 0 1280 768" enable-background="new 0 0 1280 768" xml:space="preserve">
<g>
	<g>
		<g>
			<g>
				<g>
					<g>
						<path fill="#6A655E" d="M654.604,423.452c-0.452,0-0.907-0.151-1.284-0.462c-0.857-0.71-0.977-1.979-0.268-2.838
							l34.018-41.129c2.863-3.464,4.162-7.78,3.65-12.154c-0.514-4.404-2.813-8.497-6.473-11.523
							c-0.013-0.01-0.024-0.021-0.035-0.03c-5.383-4.424-12.623-5.539-18.49-2.86c-2.888,1.319-5.271,3.294-6.711,5.561
							c-0.48,0.758-0.979,2.106-0.372,2.708c0.358,0.356,1.312,1.302,3.101-0.397c2.012-1.91,4.766-4.525,8.59-5.024
							c4.242-0.554,8.705,1.197,11.652,4.567c2.934,3.354,3.951,7.747,2.792,12.052c-1.595,5.927-6.146,12.971-18.812,12.778
							c-2.804-0.039-5.66-0.476-8.684-0.937c-7.494-1.145-15.246-2.326-21.791,3.058c-2.211,1.819-2.506,2.186-5.34,5.688
							l-0.076,0.096c-0.699,0.865-1.968,1-2.834,0.3c-0.865-0.699-1-1.969-0.3-2.834l0.077-0.096
							c2.936-3.629,3.385-4.188,5.911-6.267c7.937-6.527,16.981-5.147,24.962-3.929c2.881,0.439,5.604,0.855,8.131,0.891
							c8.082,0.107,13.082-3.184,14.863-9.797c0.806-2.983,0.1-6.026-1.934-8.352c-2.073-2.369-5.176-3.604-8.098-3.224
							c-2.336,0.306-4.176,1.898-6.336,3.95c-2.812,2.669-6.232,2.8-8.715,0.336c-1.9-1.884-1.976-4.918-0.191-7.729
							c1.854-2.917,4.85-5.426,8.439-7.065c7.279-3.322,16.208-1.973,22.75,3.437c0.009,0.007,0.02,0.017,0.031,0.026
							c4.455,3.69,7.26,8.715,7.894,14.15c0.64,5.476-0.976,10.87-4.55,15.189l-34.016,41.129
							C655.76,423.203,655.184,423.452,654.604,423.452z"/>
					</g>
				</g>
			</g>
		</g>
	</g>
	<g>
		<g>
			<g>
				<g>
					<g>
						<path fill="#6A655E" d="M603.925,473.876c-5.052,0-10.175-1.799-14.335-5.239c-0.006-0.004-0.01-0.009-0.016-0.013l0,0
							c-4.463-3.692-7.272-8.722-7.906-14.162c-0.641-5.476,0.975-10.87,4.549-15.19l39.064-47.234
							c0.532-0.642,1.104-1.256,1.7-1.826c0.804-0.77,2.079-0.742,2.849,0.062s0.742,2.079-0.062,2.849
							c-0.484,0.465-0.949,0.965-1.381,1.486l-39.064,47.232c-2.867,3.465-4.163,7.781-3.652,12.154
							c0.514,4.404,2.812,8.497,6.473,11.524c0.003,0.001,0.005,0.003,0.006,0.005c0.004,0.003,0.008,0.006,0.01,0.008
							c5.361,4.435,12.627,5.564,18.51,2.877c2.887-1.318,5.271-3.293,6.711-5.56c0.48-0.759,0.979-2.107,0.373-2.709
							c-0.359-0.356-1.312-1.302-3.102,0.397c-2.012,1.91-4.766,4.526-8.591,5.025c-4.315,0.561-8.427-0.93-11.278-4.097
							c-3-3.328-4.218-8.104-3.18-12.466c2.768-11.631,11.74-13.082,20.146-12.96c2.469,0.034,5.17,0.339,8.031,0.662
							c7.432,0.838,15.855,1.788,20.825-2.298c2.39-1.966,5.665-6.013,9.134-10.297c1.07-1.324,2.178-2.693,3.291-4.036l0.869-1.051
							h-0.001l0.122-0.147c0.005-0.006,0.01-0.012,0.016-0.018l0.049-0.06c0.009-0.013,0.021-0.024,0.029-0.037l0.876-1.06
							c0.71-0.857,1.979-0.978,2.839-0.268c0.855,0.709,0.977,1.979,0.268,2.836l-0.972,1.175c-0.005,0.007-0.013,0.015-0.018,0.022
							l-0.066,0.079c-0.009,0.012-0.019,0.024-0.03,0.036l-0.877,1.06c-1.096,1.327-2.197,2.688-3.262,4.003
							c-3.602,4.447-7.002,8.648-9.707,10.874c-6.285,5.169-15.609,4.118-23.836,3.189c-2.76-0.311-5.365-0.604-7.637-0.637
							c-10.041-0.121-14.424,2.532-16.169,9.864c-0.737,3.091,0.126,6.477,2.252,8.835c1.981,2.198,4.739,3.193,7.765,2.798
							c2.336-0.305,4.176-1.899,6.336-3.951c2.813-2.669,6.232-2.799,8.715-0.336c1.9,1.886,1.975,4.92,0.191,7.73
							c-1.854,2.916-4.85,5.426-8.439,7.064C609.69,473.285,606.82,473.876,603.925,473.876z"/>
					</g>
				</g>
			</g>
		</g>
	</g>
	<g>
		<g>
			<g>
				<g>
					
						<rect x="625.09" y="409.492" transform="matrix(0.793 0.6092 -0.6092 0.793 382.661 -303.1304)" fill="#6A655E" width="24.572" height="4.029"/>
				</g>
			</g>
		</g>
	</g>
</g>
</svg>
