<?xml version="1.0" encoding="utf-8"?>
<!-- Generator: Adobe Illustrator 15.0.0, SVG Export Plug-In . SVG Version: 6.00 Build 0)  -->
<!DOCTYPE svg PUBLIC "-//W3C//DTD SVG 1.1//EN" "http://www.w3.org/Graphics/SVG/1.1/DTD/svg11.dtd">
<svg version="1.1" id="Layer_1" xmlns="http://www.w3.org/2000/svg" xmlns:xlink="http://www.w3.org/1999/xlink" x="0px" y="0px"
	 width="1280px" height="768px" viewBox="0 0 1280 768" enable-background="new 0 0 1280 768" xml:space="preserve">
<g>
	<g>
		<g>
			<g>
				<g>
					<path fill="#6A655E" d="M674.879,379.449c-1.113,0-2.015-0.902-2.015-2.015v-13.491c0-1.411-1.147-2.559-2.559-2.559h-46.291
						c-1.113,0-2.015-0.902-2.015-2.016c0-1.112,0.902-2.015,2.015-2.015h46.291c3.633,0,6.589,2.956,6.589,6.589v13.491
						C676.895,378.547,675.992,379.449,674.879,379.449z"/>
				</g>
			</g>
		</g>
	</g>
	<g>
		<g>
			<g>
				<g>
					<path fill="#6A655E" d="M617.701,361.385h-0.263c-1.113,0-2.016-0.902-2.016-2.016c0-1.112,0.902-2.015,2.016-2.015h0.263
						c1.113,0,2.015,0.902,2.015,2.015C619.716,360.482,618.814,361.385,617.701,361.385z"/>
				</g>
			</g>
		</g>
	</g>
	<g>
		<g>
			<g>
				<g>
					<path fill="#6A655E" d="M670.306,463.371H602.62c-3.633,0-6.588-2.955-6.588-6.588v-92.84c0-3.633,2.956-6.589,6.588-6.589
						h9.267c1.113,0,2.015,0.902,2.015,2.015c0,1.113-0.902,2.016-2.015,2.016h-9.267c-1.411,0-2.558,1.147-2.558,2.559v92.84
						c0,1.41,1.147,2.559,2.558,2.559h67.686c1.411,0,2.559-1.148,2.559-2.559v-12.577c0-1.112,0.901-2.015,2.015-2.015
						s2.016,0.902,2.016,2.015v12.577C676.895,460.416,673.938,463.371,670.306,463.371z"/>
				</g>
			</g>
		</g>
	</g>
	<g>
		<g>
			<g>
				<g>
					<path fill="#6A655E" d="M674.879,422.896c-1.113,0-2.015-0.902-2.015-2.015v-21.495c0-1.112,0.901-2.015,2.015-2.015
						s2.016,0.902,2.016,2.015v21.495C676.895,421.994,675.992,422.896,674.879,422.896z"/>
				</g>
			</g>
		</g>
	</g>
	<g>
		<g>
			<g>
				<g>
					<g>
						<path fill="#6A655E" d="M636.035,412.609c-7.568,0-13.725-6.157-13.725-13.726s6.157-13.726,13.725-13.726
							c7.569,0,13.725,6.157,13.725,13.726S643.604,412.609,636.035,412.609z M636.035,389.188c-5.346,0-9.695,4.35-9.695,9.695
							c0,5.347,4.349,9.695,9.695,9.695s9.696-4.349,9.696-9.695C645.73,393.538,641.381,389.188,636.035,389.188z"/>
					</g>
				</g>
			</g>
		</g>
		<g>
			<g>
				<g>
					<g>
						<path fill="#6A655E" d="M636.069,424.566c-14.162,0-25.682-11.521-25.682-25.683s11.521-25.683,25.682-25.683
							s25.683,11.521,25.683,25.683S650.23,424.566,636.069,424.566z M636.069,377.231c-11.939,0-21.653,9.713-21.653,21.652
							s9.714,21.652,21.653,21.652s21.652-9.713,21.652-21.652S648.008,377.231,636.069,377.231z"/>
					</g>
				</g>
			</g>
		</g>
		<g>
			<g>
				<g>
					<g>
						<g>
							<path fill="#6A655E" d="M636.463,384.938c-1.113,0-2.015-0.902-2.015-2.016v-3.255c0-1.113,0.902-2.015,2.015-2.015
								c1.112,0,2.015,0.901,2.015,2.015v3.255C638.478,384.035,637.575,384.938,636.463,384.938z"/>
						</g>
					</g>
				</g>
			</g>
		</g>
		<g>
			<g>
				<g>
					<g>
						<path fill="#6A655E" d="M636.463,420.152c-1.113,0-2.015-0.902-2.015-2.015v-3.201c0-1.112,0.902-2.016,2.015-2.016
							c1.112,0,2.015,0.903,2.015,2.016v3.201C638.478,419.25,637.575,420.152,636.463,420.152z"/>
					</g>
				</g>
			</g>
		</g>
		<g>
			<g>
				<g>
					<g>
						<g>
							<g>
								<path fill="#6A655E" d="M620.227,401.173h-3.658c-1.113,0-2.015-0.901-2.015-2.015s0.902-2.016,2.015-2.016h3.658
									c1.113,0,2.015,0.902,2.015,2.016S621.34,401.173,620.227,401.173z"/>
							</g>
						</g>
					</g>
				</g>
			</g>
			<g>
				<g>
					<g>
						<g>
							<path fill="#6A655E" d="M655.442,401.173h-3.202c-1.112,0-2.015-0.901-2.015-2.015s0.902-2.016,2.015-2.016h3.202
								c1.113,0,2.015,0.902,2.015,2.016S656.556,401.173,655.442,401.173z"/>
						</g>
					</g>
				</g>
			</g>
		</g>
		<g>
			<g>
				<g>
					<g>
						<g>
							<g>
								<path fill="#6A655E" d="M619.406,410.56c-0.719,0-1.415-0.386-1.778-1.063c-0.525-0.98-0.157-2.202,0.824-2.729l3.078-1.649
									c0.98-0.524,2.203-0.156,2.728,0.824c0.526,0.981,0.157,2.202-0.824,2.728l-3.079,1.65
									C620.054,410.482,619.728,410.56,619.406,410.56z"/>
							</g>
						</g>
					</g>
				</g>
			</g>
			<g>
				<g>
					<g>
						<g>
							<path fill="#6A655E" d="M649.785,392.656c-0.643,0-1.274-0.307-1.664-0.877c-0.63-0.918-0.395-2.172,0.523-2.801l3.079-2.107
								c0.918-0.628,2.173-0.394,2.801,0.525c0.628,0.918,0.394,2.172-0.524,2.801l-3.078,2.106
								C650.573,392.542,650.178,392.656,649.785,392.656z"/>
						</g>
					</g>
				</g>
			</g>
		</g>
		<g>
			<g>
				<g>
					<g>
						<g>
							<g>
								<path fill="#6A655E" d="M626.472,417.682c-0.364,0-0.731-0.099-1.062-0.305c-0.945-0.588-1.234-1.831-0.646-2.775
									l1.676-2.693c0.588-0.944,1.831-1.232,2.775-0.646c0.945,0.588,1.234,1.831,0.646,2.775l-1.676,2.692
									C627.803,417.344,627.145,417.682,626.472,417.682z"/>
							</g>
						</g>
					</g>
				</g>
			</g>
			<g>
				<g>
					<g>
						<g>
							<path fill="#6A655E" d="M644.451,387.291c-0.36,0-0.725-0.096-1.054-0.299c-0.948-0.583-1.245-1.824-0.661-2.771l1.621-2.639
								c0.583-0.947,1.824-1.244,2.771-0.661c0.949,0.583,1.245,1.823,0.662,2.772l-1.621,2.638
								C645.789,386.95,645.127,387.291,644.451,387.291z"/>
						</g>
					</g>
				</g>
			</g>
		</g>
		<g>
			<g>
				<g>
					<g>
						<g>
							<g>
								<path fill="#6A655E" d="M653.116,410.156c-0.285,0-0.575-0.061-0.851-0.188l-2.675-1.247
									c-1.009-0.47-1.445-1.668-0.976-2.678c0.471-1.009,1.67-1.443,2.678-0.975l2.676,1.246c1.009,0.471,1.445,1.669,0.975,2.678
									C654.602,409.727,653.875,410.156,653.116,410.156z"/>
							</g>
						</g>
					</g>
				</g>
			</g>
			<g>
				<g>
					<g>
						<g>
							<path fill="#6A655E" d="M622.938,392.522c-0.351,0-0.706-0.092-1.03-0.284l-3.536-2.107c-0.956-0.57-1.269-1.807-0.699-2.763
								s1.806-1.27,2.762-0.699l3.536,2.107c0.956,0.569,1.27,1.806,0.7,2.763C624.294,392.171,623.625,392.522,622.938,392.522z"/>
						</g>
					</g>
				</g>
			</g>
		</g>
		<g>
			<g>
				<g>
					<g>
						<g>
							<g>
								<path fill="#6A655E" d="M646.549,417.136c-0.676,0-1.336-0.34-1.717-0.956l-1.652-2.676
									c-0.584-0.946-0.291-2.188,0.656-2.772s2.188-0.292,2.772,0.655l1.653,2.675c0.584,0.946,0.291,2.188-0.655,2.772
									C647.275,417.038,646.909,417.136,646.549,417.136z"/>
							</g>
						</g>
					</g>
				</g>
			</g>
			<g>
				<g>
					<g>
						<g>
							<path fill="#6A655E" d="M628.489,386.971c-0.642,0-1.273-0.306-1.664-0.875l-2.109-3.078
								c-0.629-0.918-0.396-2.172,0.522-2.801c0.918-0.629,2.172-0.396,2.801,0.522l2.109,3.077
								c0.629,0.919,0.395,2.173-0.522,2.802C629.279,386.856,628.882,386.971,628.489,386.971z"/>
						</g>
					</g>
				</g>
			</g>
		</g>
		<g>
			<g>
				<g>
					<g>
						<path fill="#6A655E" d="M636.069,455.379c-8.087,0-14.668-6.58-14.668-14.668s6.581-14.667,14.668-14.667
							s14.668,6.579,14.668,14.667S644.156,455.379,636.069,455.379z M636.069,430.074c-5.865,0-10.638,4.771-10.638,10.637
							c0,5.866,4.772,10.639,10.638,10.639c5.867,0,10.638-4.772,10.638-10.639C646.707,434.846,641.936,430.074,636.069,430.074z"
							/>
					</g>
				</g>
			</g>
		</g>
		<g>
			<g>
				<g>
					<g>
						<path fill="#6A655E" d="M636.387,444.518c-3.507,0-6.361-2.854-6.361-6.359c0-3.507,2.854-6.36,6.361-6.36
							c3.506,0,6.359,2.854,6.359,6.36C642.746,441.664,639.894,444.518,636.387,444.518z M636.387,435.828
							c-1.285,0-2.33,1.045-2.33,2.33c0,1.284,1.045,2.329,2.33,2.329c1.284,0,2.329-1.045,2.329-2.329
							C638.716,436.873,637.671,435.828,636.387,435.828z"/>
					</g>
				</g>
			</g>
		</g>
		<g>
			<g>
				<g>
					<g>
						<path fill="#6A655E" d="M636.463,449.88c-1.113,0-2.015-0.902-2.015-2.015v-5.488c0-1.113,0.902-2.016,2.015-2.016
							c1.112,0,2.015,0.902,2.015,2.016v5.488C638.478,448.978,637.575,449.88,636.463,449.88z"/>
					</g>
				</g>
			</g>
		</g>
		<g>
			<g>
				<g>
					<g>
						<path fill="#6A655E" d="M636.463,372.132c-1.113,0-2.015-0.902-2.015-2.015v-4.116c0-1.112,0.902-2.015,2.015-2.015
							c1.112,0,2.015,0.902,2.015,2.015v4.116C638.478,371.229,637.575,372.132,636.463,372.132z"/>
					</g>
				</g>
			</g>
		</g>
	</g>
	<g>
		<g>
			<g>
				<g>
					<path fill="#6A655E" d="M679.453,443.705h-9.147c-1.113,0-2.016-0.901-2.016-2.015v-20.58c0-1.112,0.902-2.015,2.016-2.015
						h9.147c1.113,0,2.015,0.902,2.015,2.015v20.58C681.468,442.804,680.566,443.705,679.453,443.705z M672.32,439.676h5.117
						v-16.551h-5.117V439.676z"/>
				</g>
			</g>
		</g>
	</g>
	<g>
		<g>
			<g>
				<g>
					<path fill="#6A655E" d="M679.453,400.259h-9.147c-1.113,0-2.016-0.902-2.016-2.015v-20.581c0-1.112,0.902-2.015,2.016-2.015
						h9.147c1.113,0,2.015,0.902,2.015,2.015v20.581C681.468,399.356,680.566,400.259,679.453,400.259z M672.32,396.229h5.117
						v-16.551h-5.117V396.229z"/>
				</g>
			</g>
		</g>
	</g>
</g>
</svg>
