<?xml version="1.0" encoding="utf-8"?>
<!-- Generator: Adobe Illustrator 15.0.0, SVG Export Plug-In . SVG Version: 6.00 Build 0)  -->
<!DOCTYPE svg PUBLIC "-//W3C//DTD SVG 1.1//EN" "http://www.w3.org/Graphics/SVG/1.1/DTD/svg11.dtd">
<svg version="1.1" id="Layer_1" xmlns="http://www.w3.org/2000/svg" xmlns:xlink="http://www.w3.org/1999/xlink" x="0px" y="0px"
	 width="1280px" height="768px" viewBox="0 0 1280 768" enable-background="new 0 0 1280 768" xml:space="preserve">
<g>
	<g>
		<g>
			<g>
				<g>
					<path fill="#6A655E" d="M612.143,437.604c-1.671,0-3.223-0.81-4.15-2.166l-15.272-22.323c-1.569-2.295-0.937-5.469,1.413-7.076
						l68.566-46.91c0.878-0.603,1.902-0.921,2.957-0.921c1.67,0,3.221,0.811,4.15,2.167l15.271,22.322
						c0.769,1.123,1.038,2.485,0.758,3.834c-0.272,1.32-1.045,2.472-2.17,3.242L615.1,436.685
						C614.22,437.286,613.197,437.604,612.143,437.604z M665.656,362.238c-0.168,0-0.422,0.038-0.683,0.217l-68.565,46.91
						c-0.514,0.353-0.677,1.014-0.363,1.475l15.273,22.322c0.254,0.372,0.662,0.412,0.824,0.412c0.167,0,0.422-0.038,0.683-0.216
						l68.563-46.911c0.262-0.179,0.439-0.439,0.501-0.734c0.032-0.154,0.058-0.455-0.138-0.74l-15.272-22.322
						C666.225,362.278,665.818,362.238,665.656,362.238z"/>
				</g>
			</g>
		</g>
	</g>
	<g>
		<g>
			<g>
				<g>
					<path fill="#6A655E" d="M638.654,407.291c-0.004,0-0.031,0-0.031,0c-2.483-0.009-4.811-0.982-6.559-2.742
						c-1.748-1.761-2.707-4.096-2.697-6.576c0.016-5.104,4.182-9.254,9.285-9.254c2.514,0.008,4.842,0.982,6.589,2.742
						c1.748,1.76,2.707,4.095,2.698,6.576C647.922,403.14,643.756,407.291,638.654,407.291z M638.67,392.748
						c-2.906,0-5.265,2.35-5.272,5.238c-0.006,1.404,0.536,2.727,1.525,3.723s2.309,1.547,3.712,1.552l0.02,2.015v-2.015
						c2.888,0,5.246-2.351,5.256-5.238c0.004-1.404-0.537-2.726-1.527-3.722C641.393,393.304,640.074,392.753,638.67,392.748z"/>
				</g>
			</g>
		</g>
	</g>
	<g>
		<g>
			<g>
				<g>
					<path fill="#6A655E" d="M650.367,390.739c-0.631,0-1.252-0.295-1.646-0.849c-0.644-0.907-0.43-2.165,0.477-2.81
						c8.746-6.21,15.814-10.905,15.885-10.952c0.928-0.615,2.178-0.362,2.793,0.564c0.616,0.928,0.362,2.178-0.563,2.794
						c-0.071,0.046-7.089,4.708-15.78,10.88C651.177,390.618,650.77,390.739,650.367,390.739z"/>
				</g>
			</g>
		</g>
	</g>
	<g>
		<g>
			<g>
				<g>
					<path fill="#6A655E" d="M611.412,418.373c-0.631,0-1.252-0.295-1.645-0.848c-0.646-0.908-0.432-2.166,0.476-2.811
						l14.515-10.307c0.908-0.646,2.166-0.432,2.811,0.476s0.432,2.165-0.477,2.81l-14.516,10.308
						C612.223,418.253,611.814,418.373,611.412,418.373z"/>
				</g>
			</g>
		</g>
	</g>
	<g>
		<g>
			<g>
				<g>
					<path fill="#6A655E" d="M640.213,430.723c-0.123,0-0.248-0.012-0.372-0.035c-0.527-0.099-0.995-0.404-1.296-0.849l-4.926-7.261
						c-0.625-0.921-0.385-2.174,0.537-2.799c0.92-0.623,2.174-0.384,2.799,0.537l3.784,5.578l21.692-14.984l-3.859-5.607
						c-0.633-0.917-0.401-2.172,0.516-2.803c0.918-0.631,2.171-0.398,2.803,0.518l5,7.265c0.632,0.916,0.4,2.169-0.515,2.8
						l-25.019,17.283C641.02,430.599,640.619,430.723,640.213,430.723z"/>
				</g>
			</g>
		</g>
	</g>
	<g>
		<g>
			<g>
				<g>
					<path fill="#6A655E" d="M663.836,438.049c-0.652,0-1.294-0.317-1.682-0.902l-9.848-14.865
						c-0.615-0.928-0.361-2.178,0.566-2.793c0.928-0.614,2.178-0.36,2.793,0.567l9.849,14.864c0.614,0.928,0.36,2.179-0.566,2.793
						C664.605,437.939,664.219,438.049,663.836,438.049z"/>
				</g>
			</g>
		</g>
	</g>
	<g>
		<g>
			<g>
				<g>
					<path fill="#6A655E" d="M668.307,444.103c-1.113,0-2.015-0.902-2.015-2.015v-0.268c0-1.112,0.901-2.015,2.015-2.015
						s2.016,0.902,2.016,2.015v0.268C670.322,443.2,669.42,444.103,668.307,444.103z"/>
				</g>
			</g>
		</g>
	</g>
	<g>
		<g>
			<g>
				<g>
					<path fill="#6A655E" d="M691.391,446.184c0,0-0.004,0-0.006,0l-17.086-0.059c-1.112-0.004-2.012-0.909-2.008-2.022
						c0.004-1.11,0.904-2.008,2.016-2.008h0.007l17.085,0.06c1.112,0.004,2.011,0.908,2.007,2.021
						C693.402,445.287,692.5,446.184,691.391,446.184z"/>
				</g>
			</g>
		</g>
	</g>
	<g>
		<g>
			<g>
				<g>
					<path fill="#6A655E" d="M692.539,461.537c0,0-0.004,0-0.006,0c-1.113-0.004-2.014-0.909-2.01-2.021l0.113-32.834
						c0.004-1.111,0.905-2.008,2.016-2.008c0.002,0,0.004,0,0.006,0c1.114,0.004,2.012,0.909,2.008,2.021l-0.111,32.834
						C694.551,460.64,693.648,461.537,692.539,461.537z"/>
				</g>
			</g>
		</g>
	</g>
	<g>
		<g>
			<g>
				<g>
					<path fill="#6A655E" d="M600.977,439.791c-1.135,0-2.185-0.563-2.811-1.508l-11.181-16.844
						c-1.026-1.548-0.603-3.643,0.944-4.67l5.305-3.521c0.555-0.367,1.199-0.562,1.863-0.562c1.132,0,2.18,0.562,2.807,1.506
						l11.182,16.846c0.498,0.75,0.675,1.648,0.496,2.531c-0.178,0.882-0.689,1.642-1.439,2.139l-5.304,3.521
						C602.283,439.598,601.639,439.791,600.977,439.791z M590.709,419.762l10.451,15.744l4.204-2.791l-10.452-15.743
						L590.709,419.762z"/>
				</g>
			</g>
		</g>
	</g>
	<g>
		<g>
			<g>
				<g>
					<path fill="#6A655E" d="M592.324,440.383c-0.951,0-1.831-0.451-2.353-1.207l-7.396-10.737c-0.475-0.688-0.609-1.56-0.37-2.388
						c0.201-0.696,0.651-1.314,1.27-1.738l4.118-2.838c0.547-0.377,1.179-0.576,1.822-0.576c0.951,0,1.832,0.451,2.352,1.206
						l7.397,10.74c0.903,1.308,0.503,3.159-0.896,4.124l-4.122,2.84C593.598,440.185,592.969,440.383,592.324,440.383z
						 M586.543,427.094l6.102,8.856l2.555-1.76l-6.102-8.858L586.543,427.094z"/>
				</g>
			</g>
		</g>
	</g>
</g>
</svg>
