<?xml version="1.0" encoding="utf-8"?>
<!-- Generator: Adobe Illustrator 15.0.0, SVG Export Plug-In . SVG Version: 6.00 Build 0)  -->
<!DOCTYPE svg PUBLIC "-//W3C//DTD SVG 1.1//EN" "http://www.w3.org/Graphics/SVG/1.1/DTD/svg11.dtd">
<svg version="1.1" id="Layer_1" xmlns="http://www.w3.org/2000/svg" xmlns:xlink="http://www.w3.org/1999/xlink" x="0px" y="0px"
	 width="1280px" height="768px" viewBox="0 0 1280 768" enable-background="new 0 0 1280 768" xml:space="preserve">
<g>
	<g>
		<g>
			<g>
				<g>
					<path fill="#6A655E" d="M600.891,380.434c-1.004,0-1.874-0.75-1.998-1.772c-0.099-0.812-2.309-19.968,7.306-26.058
						c0.94-0.596,2.185-0.316,2.78,0.624c0.596,0.94,0.316,2.185-0.624,2.78c-6.214,3.936-6.049,17.336-5.462,22.167
						c0.135,1.104-0.652,2.109-1.757,2.243C601.054,380.428,600.972,380.434,600.891,380.434z"/>
				</g>
			</g>
		</g>
	</g>
	<g>
		<g>
			<g>
				<g>
					<path fill="#6A655E" d="M595.723,431.689c-0.731,0-1.418-0.399-1.774-1.061c-0.416-0.773-0.283-1.727,0.328-2.356
						c0.229-0.236,5.085-5.24,8.274-7.831c-1.545-8.626-2.611-18.365-2.741-25.143c-0.021-1.113,0.864-2.032,1.976-2.054
						c1.12-0.021,2.031,0.863,2.053,1.977c0.13,6.79,1.294,17.116,2.896,25.698c0.144,0.771-0.173,1.557-0.813,2.012
						c-1.058,0.752-2.599,2.133-4.094,3.547l5.214-0.979c1.095-0.204,2.146,0.516,2.352,1.609c0.205,1.094-0.515,2.146-1.609,2.352
						l-11.689,2.193C595.97,431.678,595.846,431.689,595.723,431.689z"/>
				</g>
			</g>
		</g>
	</g>
	<g>
		<g>
			<g>
				<g>
					<path fill="#6A655E" d="M569.661,408.818c-0.404,0-0.803-0.121-1.144-0.355c-0.54-0.372-0.865-0.983-0.872-1.639l-0.046-4.43
						c-0.007-0.64,0.291-1.244,0.801-1.629l30.031-22.658c0.889-0.67,2.152-0.492,2.823,0.396c0.67,0.889,0.494,2.151-0.395,2.822
						l-29.22,22.045l0.007,0.551l28.876-10.674c1.043-0.385,2.203,0.147,2.589,1.191s-0.147,2.202-1.191,2.588l-31.562,11.667
						C570.132,408.777,569.896,408.818,569.661,408.818z"/>
				</g>
			</g>
		</g>
	</g>
	<g>
		<g>
			<g>
				<g>
					<g>
						<path fill="#6A655E" d="M614.559,380.292c-0.067,0-0.136-0.003-0.204-0.01c-1.107-0.111-1.914-1.099-1.804-2.206l0,0
							c0.482-4.846,0.359-18.253-5.919-22.051c-0.952-0.576-1.258-1.814-0.682-2.766c0.576-0.953,1.815-1.258,2.767-0.682
							c9.739,5.89,7.926,25.086,7.844,25.9C616.456,379.518,615.581,380.292,614.559,380.292z"/>
					</g>
				</g>
			</g>
		</g>
		<g>
			<g>
				<g>
					<g>
						<path fill="#6A655E" d="M620.787,431.43c-0.11,0-0.221-0.009-0.332-0.027l-11.733-1.951c-1.098-0.183-1.84-1.221-1.657-2.318
							s1.22-1.84,2.318-1.656l5.233,0.869c-1.524-1.383-3.094-2.731-4.167-3.462c-0.649-0.441-0.982-1.22-0.854-1.994
							c1.695-10.251,2.702-19.978,2.692-26.019c-0.001-1.112,0.899-2.016,2.012-2.018c0.001,0,0.002,0,0.003,0
							c1.111,0,2.013,0.9,2.015,2.012c0.014,8.462-1.749,20.463-2.548,25.461c3.242,2.524,8.201,7.426,8.434,7.656
							c0.624,0.618,0.776,1.568,0.376,2.35C622.232,431.014,621.533,431.43,620.787,431.43z"/>
					</g>
				</g>
			</g>
		</g>
		<g>
			<g>
				<g>
					<g>
						<path fill="#6A655E" d="M646.439,408.023c-0.222,0-0.444-0.036-0.659-0.111l-31.814-11.01
							c-1.051-0.363-1.609-1.512-1.245-2.562c0.363-1.053,1.512-1.609,2.562-1.246l29.111,10.074l-0.006-0.551l-29.703-21.435
							c-0.903-0.651-1.106-1.911-0.455-2.813c0.651-0.902,1.91-1.106,2.812-0.455l30.528,22.031c0.52,0.375,0.83,0.973,0.836,1.613
							l0.046,4.429c0.007,0.655-0.306,1.273-0.837,1.656C647.27,407.894,646.856,408.023,646.439,408.023z"/>
					</g>
				</g>
			</g>
		</g>
	</g>
	<g>
		<g>
			<g>
				<g>
					<g>
						<g>
							<path fill="#6A655E" d="M690.791,468.06c-5.74,0-10.41-4.67-10.41-10.41c0-5.741,4.67-10.411,10.41-10.411
								s10.41,4.67,10.41,10.411C701.201,463.39,696.531,468.06,690.791,468.06z M690.791,451.269c-3.519,0-6.381,2.862-6.381,6.381
								s2.862,6.38,6.381,6.38s6.381-2.861,6.381-6.38S694.31,451.269,690.791,451.269z"/>
						</g>
					</g>
				</g>
			</g>
			<g>
				<g>
					<g>
						<g>
							<path fill="#6A655E" d="M691.035,459.691c-0.671,0-1.266-0.328-1.631-0.832c-0.268-0.341-0.426-0.771-0.426-1.238
								c0-1.112,0.902-2.015,2.015-2.015c1.14,0,2.071,0.915,2.081,2.042l0,0c0,0.001,0,0.001,0,0.002c0,0-0.001,0,0,0.001
								c0,0.001,0,0.001,0,0.002c-0.001,0.001-0.001,0.001-0.001,0.001c0.001,0.001,0.001,0.002,0.001,0.002c0,0.004,0,0.007,0,0.01
								c0,0.343-0.086,0.666-0.236,0.949c-0.094,0.174-0.211,0.336-0.354,0.478C692.107,459.473,691.571,459.691,691.035,459.691z"
								/>
						</g>
					</g>
				</g>
			</g>
		</g>
		<g>
			<g>
				<g>
					<g>
						<g>
							<path fill="#6A655E" d="M645.256,467.823c-5.741,0-10.411-4.67-10.411-10.41s4.67-10.41,10.411-10.41
								c5.74,0,10.41,4.67,10.41,10.41S650.996,467.823,645.256,467.823z M645.256,451.033c-3.519,0-6.381,2.861-6.381,6.38
								s2.862,6.38,6.381,6.38c3.518,0,6.379-2.861,6.379-6.38S648.773,451.033,645.256,451.033z"/>
						</g>
					</g>
				</g>
			</g>
			<g>
				<g>
					<g>
						<g>
							<path fill="#6A655E" d="M645.499,459.455c-0.671,0-1.265-0.327-1.632-0.831c-0.266-0.342-0.425-0.771-0.425-1.238
								c0-1.113,0.901-2.015,2.015-2.015c1.096,0,2,0.848,2.076,1.915l0,0c0,0.001,0,0.001,0,0.002l0,0c0,0.001,0,0.001,0,0.001
								s0,0.001,0,0.002c0,0,0,0.001,0,0.002c0,0,0,0,0,0.001s0,0.001,0,0.002c0,0,0,0,0,0.001c0,0,0,0.001,0,0.002l0,0
								c0.002,0.029,0.004,0.061,0.004,0.09l0,0c0,0.001,0,0.002,0,0.003l0,0c0,0.001,0,0.002,0,0.002l0,0c0,0.001,0,0.001,0,0.001
								v0.001c0,0.001,0,0.001,0,0.001c0,0.001,0,0.001,0,0.002v0.002c0,0,0,0.001,0,0.002c0,0,0,0,0,0.001l0,0
								c0,0.001,0,0.001,0.001,0.002c0,0.001,0,0.001,0,0.001s0,0.001,0,0.002c-0.001,0-0.001,0.001,0,0.002c0,0-0.001,0,0,0.001
								v0.001c0,0.001,0,0.002,0,0.003c0,0.006,0,0.011,0,0.017c0,0.34-0.085,0.662-0.235,0.943
								c-0.092,0.176-0.211,0.338-0.352,0.48C646.572,459.236,646.036,459.455,645.499,459.455z"/>
						</g>
					</g>
				</g>
			</g>
		</g>
		<g>
			<g>
				<g>
					<g>
						<g>
							<path fill="#6A655E" d="M674.977,441.808h-11.951c-2.947,0-5.533-2.566-5.533-5.491v-11.951c0-2.91,2.482-5.278,5.533-5.278
								h11.951c2.938,0,5.236,2.318,5.236,5.278v2.388c0,1.112-0.902,2.015-2.015,2.015s-2.015-0.902-2.015-2.015v-2.388
								c0-0.747-0.485-1.248-1.207-1.248h-11.951c-0.801,0-1.503,0.583-1.503,1.248v11.951c0,0.724,0.759,1.461,1.503,1.461h11.951
								c0.746,0,1.207-0.758,1.207-1.461v-0.87c0-1.113,0.902-2.015,2.015-2.015s2.015,0.901,2.015,2.015v0.87
								C680.213,439.344,677.864,441.808,674.977,441.808z"/>
						</g>
					</g>
				</g>
			</g>
			<g>
				<g>
					<g>
						<g>
							<path fill="#6A655E" d="M678.319,432.592c-0.528,0-1.047-0.217-1.422-0.592s-0.593-0.895-0.593-1.423
								c0-0.532,0.218-1.052,0.593-1.427s0.894-0.588,1.422-0.588c0.532,0,1.052,0.213,1.427,0.588s0.588,0.895,0.588,1.427
								c0,0.528-0.213,1.048-0.588,1.423S678.852,432.592,678.319,432.592z"/>
						</g>
					</g>
				</g>
			</g>
		</g>
		<g>
			<g>
				<g>
					<g>
						<g>
							<path fill="#6A655E" d="M650.203,441.373h-11.951c-2.949,0-5.535-2.584-5.535-5.529v-11.951c0-2.889,2.483-5.24,5.535-5.24
								h11.951c2.936,0,5.234,2.302,5.234,5.24v2.426c0,1.113-0.902,2.015-2.016,2.015c-1.112,0-2.015-0.901-2.015-2.015v-2.426
								c0-0.734-0.473-1.21-1.204-1.21h-11.951c-0.712,0-1.505,0.497-1.505,1.21v11.951c0,0.729,0.773,1.5,1.505,1.5h11.951
								c0.72,0,1.204-0.775,1.204-1.5v-0.454c0-1.112,0.902-2.015,2.015-2.015c1.113,0,2.016,0.902,2.016,2.015v0.454
								C655.438,438.893,653.09,441.373,650.203,441.373z"/>
						</g>
					</g>
				</g>
			</g>
			<g>
				<g>
					<g>
						<g>
							<path fill="#6A655E" d="M653.547,432.5c-0.531,0-1.052-0.218-1.423-0.593c-0.378-0.375-0.593-0.895-0.593-1.423
								c0-0.532,0.215-1.052,0.593-1.426c0.371-0.375,0.892-0.589,1.423-0.589s1.052,0.214,1.427,0.589
								c0.374,0.374,0.589,0.894,0.589,1.426c0,0.528-0.215,1.048-0.589,1.423C654.599,432.282,654.078,432.5,653.547,432.5z"/>
						</g>
					</g>
				</g>
			</g>
		</g>
		<g>
			<g>
				<g>
					<g>
						<path fill="#6A655E" d="M693.629,441.808h-5.83c-2.945,0-5.529-2.566-5.529-5.491v-12.188c0-2.9,2.48-5.26,5.529-5.26h9.308
							c1.114,0,2.016,0.902,2.016,2.016s-0.901,2.015-2.016,2.015h-9.308c-0.709,0-1.5,0.505-1.5,1.229v12.188
							c0,0.724,0.758,1.461,1.5,1.461h5.83c1.113,0,2.016,0.902,2.016,2.016C695.645,440.905,694.742,441.808,693.629,441.808z"/>
					</g>
				</g>
			</g>
		</g>
		<g>
			<g>
				<g>
					<g>
						<path fill="#6A655E" d="M698.41,441.808h-0.217c-1.112,0-2.015-0.902-2.015-2.015c0-1.113,0.902-2.016,2.015-2.016h0.217
							c1.113,0,2.015,0.902,2.015,2.016C700.425,440.905,699.523,441.808,698.41,441.808z"/>
					</g>
				</g>
			</g>
		</g>
		<g>
			<g>
				<g>
					<g>
						<path fill="#6A655E" d="M706.453,441.808h-4.348c-1.113,0-2.016-0.902-2.016-2.015c0-1.113,0.902-2.016,2.016-2.016h4.348
							c1.112,0,2.014,0.902,2.014,2.016C708.467,440.905,707.565,441.808,706.453,441.808z"/>
					</g>
				</g>
			</g>
		</g>
		<g>
			<g>
				<g>
					<g>
						<path fill="#6A655E" d="M677.44,460.716h-18.536c-1.113,0-2.015-0.902-2.015-2.015c0-1.113,0.901-2.016,2.015-2.016h18.536
							c1.114,0,2.016,0.902,2.016,2.016C679.456,459.813,678.555,460.716,677.44,460.716z"/>
					</g>
				</g>
			</g>
		</g>
		<g>
			<g>
				<g>
					<g>
						<path fill="#6A655E" d="M633.645,460.198c-0.202,0-0.406-0.03-0.609-0.095c-3.961-1.255-6.622-4.842-6.622-8.925v-28.936
							c0-5.096,4.309-9.241,9.605-9.241h36.309c1.793,0,6.172,0.017,10.051,0.031c3.078,0.012,5.842,0.023,6.741,0.023
							c3.046,0,7.362,1.592,9.645,5.089c1.37,2.099,6.166,11.237,7.405,13.78c0.152,0.314,0.323,0.648,0.5,0.996
							c0.888,1.74,1.992,3.907,2.186,5.96c0.26,2.802,0.18,5.657,0.102,8.419c-0.035,1.283-0.072,2.609-0.072,3.882
							c0,3.501-1.973,6.688-5.148,8.317c-0.99,0.508-2.205,0.117-2.714-0.873c-0.507-0.99-0.116-2.204,0.874-2.713
							c1.824-0.936,2.958-2.749,2.958-4.731c0-1.329,0.037-2.684,0.075-3.994c0.074-2.643,0.15-5.374-0.088-7.933
							c-0.119-1.283-1.03-3.068-1.762-4.504c-0.188-0.37-0.371-0.727-0.533-1.061c-1.326-2.722-5.951-11.495-7.157-13.344
							c-1.397-2.141-4.212-3.262-6.27-3.262c-0.901,0-3.671-0.011-6.757-0.022c-3.873-0.015-8.244-0.032-10.035-0.032h-36.309
							c-3.074,0-5.575,2.338-5.575,5.212v28.936c0,2.318,1.531,4.361,3.809,5.083c1.061,0.336,1.648,1.469,1.312,2.529
							C635.293,459.649,634.5,460.198,633.645,460.198z"/>
					</g>
				</g>
			</g>
		</g>
	</g>
	<g>
		<g>
			<g>
				<g>
					<g>
						<g>
							<path fill="#6A655E" d="M686.585,393.143c-0.532,0-1.052-0.214-1.427-0.588c-0.375-0.375-0.588-0.896-0.588-1.428
								c0-0.531,0.213-1.047,0.588-1.422s0.895-0.593,1.427-0.593c0.528,0,1.048,0.218,1.422,0.593
								c0.376,0.375,0.593,0.891,0.593,1.422c0,0.532-0.217,1.053-0.593,1.428C687.633,392.929,687.113,393.143,686.585,393.143z"/>
						</g>
					</g>
				</g>
			</g>
			<g>
				<g>
					<g>
						<g>
							<path fill="#6A655E" d="M684.461,397.982c0-1.112,0.898-2.016,2.015-2.016l0,0c1.112,0,2.016,0.903,2.016,2.016l0,0
								c0,1.112-0.903,2.015-2.016,2.015l0,0C685.359,399.997,684.461,399.095,684.461,397.982z"/>
						</g>
					</g>
				</g>
			</g>
			<g>
				<g>
					<g>
						<g>
							<path fill="#6A655E" d="M686.585,407.15c-0.532,0-1.052-0.213-1.427-0.592c-0.375-0.375-0.588-0.891-0.588-1.423
								s0.213-1.048,0.588-1.427c0.375-0.375,0.895-0.589,1.427-0.589c0.528,0,1.048,0.214,1.422,0.589
								c0.376,0.379,0.593,0.895,0.593,1.427s-0.217,1.048-0.593,1.423C687.633,406.938,687.113,407.15,686.585,407.15z"/>
						</g>
					</g>
				</g>
			</g>
		</g>
	</g>
	<g>
		<g>
			<g>
				<g>
					<path fill="#6A655E" d="M686.475,385.488c-1.113,0-2.016-0.902-2.016-2.015v-17.71c0-0.721-0.566-0.828-0.903-0.828h-58.301
						c-0.84,0-1.593-0.522-1.888-1.31c-0.294-0.788-0.068-1.675,0.566-2.227l7.864-6.835c0.84-0.73,2.113-0.642,2.842,0.198
						c0.73,0.841,0.641,2.113-0.199,2.843l-3.795,3.3h52.911c2.813,0,4.934,2.089,4.934,4.858v17.71
						C688.489,384.586,687.588,385.488,686.475,385.488z"/>
				</g>
			</g>
		</g>
	</g>
	<g>
		<g>
			<g>
				<g>
					<g>
						<g>
							<g>
								<path fill="#6A655E" d="M580.422,423.259c-0.533,0-1.052-0.214-1.427-0.589c-0.375-0.375-0.588-0.895-0.588-1.426
									c0-0.528,0.214-1.048,0.588-1.423c0.375-0.375,0.894-0.593,1.427-0.593c0.532,0,1.051,0.218,1.423,0.593
									c0.378,0.375,0.592,0.895,0.592,1.423c0,0.531-0.213,1.051-0.592,1.426C581.474,423.045,580.954,423.259,580.422,423.259z"
									/>
							</g>
						</g>
					</g>
				</g>
				<g>
					<g>
						<g>
							<g>
								<path fill="#6A655E" d="M578.298,415.416c-0.02-1.112,0.862-2.031,1.974-2.051l0,0c1.112-0.021,2.032,0.862,2.056,1.975l0,0
									c0.02,1.111-0.867,2.031-1.979,2.055l0,0c-0.012,0-0.024,0-0.036,0l0,0C579.217,417.395,578.319,416.517,578.298,415.416z"
									/>
							</g>
						</g>
					</g>
				</g>
				<g>
					<g>
						<g>
							<g>
								<path fill="#6A655E" d="M580.205,411.527c-0.532,0-1.052-0.218-1.427-0.593c-0.375-0.374-0.588-0.891-0.588-1.422
									c0-0.532,0.214-1.053,0.588-1.427c0.375-0.375,0.895-0.588,1.427-0.588c0.528,0,1.048,0.213,1.423,0.588
									c0.375,0.374,0.592,0.895,0.592,1.427c0,0.531-0.218,1.048-0.592,1.422C581.252,411.31,580.732,411.527,580.205,411.527z"/>
							</g>
						</g>
					</g>
				</g>
			</g>
		</g>
	</g>
	<g>
		<g>
			<g>
				<g>
					<path fill="#6A655E" d="M612.419,449.198c-0.638,0-1.266-0.303-1.657-0.866c-0.635-0.914-0.408-2.169,0.505-2.805l2.772-1.924
						l-30.117,0.428c-1.336,0.021-2.618-0.484-3.586-1.422c-0.967-0.938-1.512-2.195-1.533-3.542l-0.278-11.718
						c-0.026-1.112,0.854-2.036,1.966-2.062c1.125-0.027,2.036,0.854,2.062,1.967l0.278,11.733c0.006,0.382,0.196,0.62,0.308,0.729
						c0.113,0.109,0.336,0.292,0.722,0.286l36.717-0.521c0.894-0.021,1.676,0.555,1.947,1.398c0.271,0.844-0.042,1.766-0.77,2.271
						l-8.192,5.688C613.216,449.082,612.816,449.198,612.419,449.198z"/>
				</g>
			</g>
		</g>
	</g>
	<g>
		<g>
			<g>
				<g>
					<path fill="#6A655E" d="M632.669,371.805c-0.499,0-0.999-0.185-1.389-0.556l-7.414-7.054c-0.807-0.768-0.838-2.043-0.071-2.849
						c0.767-0.807,2.042-0.838,2.849-0.071l7.414,7.054c0.807,0.767,0.839,2.043,0.072,2.849
						C633.732,371.594,633.201,371.805,632.669,371.805z"/>
				</g>
			</g>
		</g>
	</g>
	<g>
		<g>
			<g>
				<g>
					<path fill="#6A655E" d="M621.437,442.851c-0.292,0-0.589-0.063-0.871-0.199l-9.464-4.543c-1.003-0.481-1.426-1.686-0.945-2.688
						c0.482-1.003,1.685-1.427,2.688-0.945l9.464,4.544c1.004,0.481,1.427,1.685,0.945,2.688
						C622.908,442.429,622.188,442.851,621.437,442.851z"/>
				</g>
			</g>
		</g>
	</g>
</g>
</svg>
