<?xml version="1.0" encoding="utf-8"?>
<!-- Generator: Adobe Illustrator 15.0.0, SVG Export Plug-In . SVG Version: 6.00 Build 0)  -->
<!DOCTYPE svg PUBLIC "-//W3C//DTD SVG 1.1//EN" "http://www.w3.org/Graphics/SVG/1.1/DTD/svg11.dtd">
<svg version="1.1" id="Layer_1" xmlns="http://www.w3.org/2000/svg" xmlns:xlink="http://www.w3.org/1999/xlink" x="0px" y="0px"
	 width="1280px" height="768px" viewBox="0 0 1280 768" enable-background="new 0 0 1280 768" xml:space="preserve">
<g>
	<g>
		<g>
			<g>
				<g>
					<g>
						<g>
							<path fill="#6A655E" d="M659.931,460.752c-2.642,0-5.515-0.668-8.548-2.023c-3.225-1.44-5.576-5.26-6.29-10.217
								c-0.7-4.855-0.261-9.004,0.248-13.807c0.249-2.35,0.507-4.779,0.664-7.564c0.051-0.893,0.062-1.256,0.052-2.292
								c-0.01-1.112,0.884-2.023,1.998-2.034c0.005,0,0.012,0,0.018,0c1.105,0,2.004,0.891,2.015,1.997
								c0.011,1.136-0.004,1.589-0.059,2.558c-0.163,2.883-0.438,5.474-0.68,7.76c-0.499,4.721-0.896,8.451-0.267,12.808
								c0.5,3.474,2.049,6.267,3.945,7.114c7.413,3.312,12.846,1.789,16.145-4.528l0.059-0.11c1.414-2.691,2.758-6.635,3.645-9.365
								c1.445-4.447,2.006-9.619,2.377-13.042c0.119-1.106,1.114-1.907,2.221-1.786c1.105,0.119,1.906,1.113,1.785,2.221
								c-0.389,3.588-0.976,9.008-2.55,13.853c-0.933,2.872-2.353,7.031-3.911,9.995l-0.053,0.102
								C669.863,457.903,665.389,460.752,659.931,460.752z"/>
						</g>
					</g>
				</g>
			</g>
			<g>
				<g>
					<g>
						<g>
							<path fill="#6A655E" d="M681.65,413.197c-0.141,0-0.282-0.014-0.425-0.045c-1.087-0.232-1.78-1.304-1.548-2.393
								c0.044-0.205,0.1-0.607,0.149-0.965c0.06-0.422,0.114-0.82,0.178-1.131c0.511-2.486,0.841-5.227,0.843-6.982
								c0.014-16.369-8.604-20.21-13.74-21.042c-5.803-0.939-13.799-0.009-17.236,5.705c-2.502,4.159-3.102,10.491-1.781,18.817
								c0.174,1.1-0.576,2.131-1.676,2.306c-1.097,0.175-2.131-0.575-2.306-1.675c-1.472-9.288-0.695-16.531,2.31-21.525
								c4.475-7.439,14.29-8.747,21.334-7.605c5.154,0.834,17.141,4.943,17.125,25.022c-0.002,2.034-0.355,5.02-0.924,7.79
								c-0.037,0.184-0.089,0.551-0.134,0.875c-0.062,0.445-0.126,0.906-0.2,1.255C683.416,412.551,682.58,413.197,681.65,413.197z"
								/>
						</g>
					</g>
				</g>
			</g>
			<g>
				<g>
					<g>
						<g>
							<path fill="#6A655E" d="M666.113,424.449c-0.104,0-0.206-0.008-0.309-0.023c-0.637-0.098-1.062-0.357-1.347-0.649
								c-0.538-0.438-0.839-1.14-0.726-1.874c0.17-1.098,1.189-1.85,2.287-1.686c0.639,0.098,1.066,0.357,1.35,0.65
								c0.54,0.438,0.84,1.144,0.725,1.879C667.938,423.738,667.086,424.449,666.113,424.449z"/>
						</g>
					</g>
				</g>
			</g>
			<g>
				<g>
					<g>
						<g>
							<path fill="#6A655E" d="M675.081,425.543c-0.041,0-0.082-0.002-0.124-0.004c-0.579-0.035-1.158-0.08-1.733-0.131
								c-0.19-0.017-0.414-0.034-0.649-0.053c-0.594-0.047-1.268-0.102-1.778-0.162c-1.105-0.133-1.894-1.135-1.763-2.24
								c0.133-1.105,1.137-1.893,2.24-1.762c0.433,0.051,1.064,0.102,1.621,0.146c0.246,0.02,0.479,0.039,0.68,0.056
								c0.541,0.048,1.082,0.091,1.625,0.123c1.111,0.067,1.958,1.022,1.891,2.132C677.025,424.719,676.139,425.543,675.081,425.543
								z"/>
						</g>
					</g>
				</g>
			</g>
			<g>
				<g>
					<g>
						<g>
							<path fill="#6A655E" d="M679.92,425.444c-1.001,0-1.869-0.745-1.998-1.764c-0.139-1.104,0.645-2.112,1.748-2.251
								c0.376-0.047,0.853-0.122,1.205-0.287c0.395-0.184,0.777-0.656,1.076-1.332c0.817-1.849,0.764-4.638-0.123-6.218
								c-0.535-0.956-1.127-1.035-1.322-1.062l0.001-0.013c-3.112-0.386-32.284-4.314-32.581-4.356
								c-2.299-0.31-3.32,2.678-3.539,4.3c-0.229,1.673-0.015,4.927,2.415,5.261l14.346,1.957c1.103,0.15,1.874,1.167,1.724,2.27
								c-0.15,1.104-1.166,1.876-2.27,1.725l-14.346-1.959c-4.636-0.636-6.458-5.408-5.864-9.795
								c0.682-5.027,4.081-8.289,8.083-7.75c0.203,0.027,32.436,4.35,32.565,4.367c1.797,0.241,3.325,1.336,4.306,3.086
								c1.5,2.68,1.622,6.809,0.291,9.818c-0.703,1.589-1.761,2.75-3.061,3.355c-0.861,0.4-1.736,0.547-2.403,0.631
								C680.088,425.439,680.004,425.444,679.92,425.444z"/>
						</g>
					</g>
				</g>
			</g>
		</g>
		<g>
			<g>
				<g>
					<g>
						<g>
							<path fill="#6A655E" d="M615.849,448.27c-5.458,0-9.933-2.848-12.814-8.363l-0.053-0.103
								c-1.557-2.962-2.977-7.122-3.911-9.994c-1.573-4.84-2.161-10.263-2.55-13.853c-0.12-1.105,0.679-2.1,1.786-2.221
								c1.106-0.119,2.1,0.68,2.22,1.787c0.371,3.424,0.933,8.598,2.377,13.041c0.887,2.731,2.23,6.674,3.645,9.365l0.059,0.11
								c3.3,6.317,8.732,7.839,16.145,4.527c1.896-0.848,3.445-3.64,3.946-7.114c0.627-4.355,0.233-8.086-0.267-12.807
								c-0.242-2.287-0.516-4.877-0.68-7.76c-0.031-0.551-0.05-1.143-0.058-1.812c-0.013-1.113,0.878-2.026,1.99-2.039
								c1.128-0.013,2.026,0.878,2.04,1.991c0.007,0.607,0.024,1.142,0.051,1.631c0.159,2.785,0.415,5.214,0.664,7.564
								c0.509,4.803,0.948,8.951,0.249,13.806c-0.714,4.958-3.065,8.777-6.291,10.218
								C621.363,447.602,618.491,448.27,615.849,448.27z"/>
						</g>
					</g>
				</g>
			</g>
			<g>
				<g>
					<g>
						<g>
							<path fill="#6A655E" d="M594.129,400.715c-0.93,0-1.765-0.646-1.968-1.594c-0.075-0.348-0.139-0.809-0.201-1.255
								c-0.045-0.323-0.096-0.69-0.134-0.874c-0.568-2.77-0.923-5.755-0.924-7.791c-0.016-20.078,11.971-24.188,17.125-25.021
								c7.044-1.142,16.859,0.166,21.334,7.605c3.004,4.994,3.781,12.236,2.309,21.525c-0.174,1.1-1.207,1.851-2.306,1.675
								c-1.099-0.175-1.849-1.206-1.675-2.306c1.321-8.327,0.721-14.658-1.781-18.818c-3.438-5.713-11.434-6.644-17.237-5.704
								c-5.137,0.832-13.752,4.672-13.739,21.042c0.001,1.756,0.332,4.498,0.842,6.982c0.064,0.311,0.119,0.709,0.177,1.13
								c0.05,0.356,0.106,0.761,0.15,0.966c0.233,1.088-0.46,2.159-1.548,2.393C594.412,400.7,594.27,400.715,594.129,400.715z"/>
						</g>
					</g>
				</g>
			</g>
			<g>
				<g>
					<g>
						<g>
							<path fill="#6A655E" d="M598.639,413.128L598.639,413.128c-0.833,0-1.598-0.034-2.338-0.106
								c-1.052-0.104-2.081-0.234-3.096-0.707c-1.299-0.604-2.358-1.766-3.061-3.355c-1.332-3.01-1.209-7.139,0.291-9.818
								c0.98-1.749,2.509-2.846,4.305-3.086c0.15-0.021,32.365-4.34,32.563-4.366c0.297-0.04,0.593-0.06,0.883-0.06
								c4.396,0,6.994,4.342,7.286,8.629c0.33,4.835-2.059,8.441-5.945,8.975l-16.064,2.193c-1.213,0.166-2.453,0.357-3.65,0.543
								c-2.359,0.365-4.799,0.744-7.257,0.957C601.407,413.026,600.045,413.128,598.639,413.128z M595.272,400.037l0.001,0.012
								c-0.195,0.026-0.789,0.105-1.323,1.061c-0.885,1.581-0.94,4.371-0.123,6.219c0.299,0.676,0.681,1.148,1.077,1.332
								c0.439,0.205,1.068,0.28,1.786,0.35c0.609,0.06,1.246,0.088,1.947,0.088h0c1.252,0,2.506-0.094,3.566-0.187
								c2.324-0.202,4.695-0.569,6.989-0.925c1.215-0.188,2.472-0.383,3.722-0.554l16.064-2.192c2.688-0.369,2.5-4.264,2.47-4.707
								c-0.164-2.396-1.43-4.875-3.266-4.875c-0.111,0-0.227,0.008-0.344,0.023C627.557,395.723,598.384,399.65,595.272,400.037z"/>
						</g>
					</g>
				</g>
			</g>
		</g>
	</g>
	<g>
		<g>
			<g>
				<g>
					<path fill="#6A655E" d="M677.031,373.555c-0.096,0-0.191-0.007-0.288-0.021c-1.532-0.221-1.92-1.413-1.907-2.082
						c0.007-0.377,0.15-1.518,1.554-1.921c0.229-0.093,0.481-0.146,0.747-0.146c1.666-0.001,2.168,1.245,2.204,1.909
						c0.036,0.654-0.302,1.621-1.314,1.992C677.732,373.457,677.39,373.555,677.031,373.555z"/>
				</g>
			</g>
		</g>
	</g>
	<g>
		<g>
			<g>
				<g>
					<path fill="#6A655E" d="M691.701,400.394c-0.012,0-0.023,0-0.035,0c-1.113-0.02-2-0.937-1.98-2.05
						c0.154-9.026-1.529-12.752-3.312-16.695c-0.255-0.564-0.509-1.125-0.755-1.697c-0.64-1.488-1.709-2.85-3.089-3.939
						c-0.874-0.689-1.023-1.957-0.334-2.83c0.689-0.874,1.956-1.023,2.83-0.334c1.905,1.504,3.391,3.409,4.295,5.51
						c0.236,0.55,0.479,1.089,0.726,1.631c1.799,3.981,3.838,8.494,3.668,18.426C693.695,399.514,692.797,400.394,691.701,400.394z"
						/>
				</g>
			</g>
		</g>
	</g>
	<g>
		<g>
			<g>
				<g>
					<path fill="#6A655E" d="M593.353,364.086c-0.606,0-1.204-0.271-1.601-0.789c-0.666-0.869-0.515-2.106,0.33-2.791
						c0.091-0.091,0.19-0.174,0.301-0.248c0.087-0.059,0.177-0.109,0.27-0.153c0.013-0.007,0.027-0.016,0.043-0.024
						c0.958-0.566,2.193-0.248,2.759,0.709c0.566,0.959,0.248,2.193-0.71,2.76c-0.019,0.012-0.039,0.023-0.058,0.033
						c-0.036,0.029-0.072,0.059-0.11,0.088C594.211,363.951,593.78,364.086,593.353,364.086z"/>
				</g>
			</g>
		</g>
	</g>
	<g>
		<g>
			<g>
				<g>
					<path fill="#6A655E" d="M585.2,385.484c-0.004,0-0.01,0-0.015,0c-1.113-0.008-2.008-0.917-2-2.029
						c0.027-3.811,0.582-11.107,3.989-17.151c0.547-0.97,1.775-1.312,2.745-0.766c0.969,0.546,1.312,1.774,0.766,2.745
						c-2.962,5.254-3.446,11.779-3.47,15.2C587.207,384.592,586.307,385.484,585.2,385.484z"/>
				</g>
			</g>
		</g>
	</g>
</g>
</svg>
