<?xml version="1.0" encoding="utf-8"?>
<!-- Generator: Adobe Illustrator 15.0.0, SVG Export Plug-In . SVG Version: 6.00 Build 0)  -->
<!DOCTYPE svg PUBLIC "-//W3C//DTD SVG 1.1//EN" "http://www.w3.org/Graphics/SVG/1.1/DTD/svg11.dtd">
<svg version="1.1" id="Layer_1" xmlns="http://www.w3.org/2000/svg" xmlns:xlink="http://www.w3.org/1999/xlink" x="0px" y="0px"
	 width="1280px" height="768px" viewBox="0 0 1280 768" enable-background="new 0 0 1280 768" xml:space="preserve">
<g>
	<g>
		<g>
			<g>
				<g>
					<g>
						<path fill="#6A655E" d="M680.875,396.463h-83.407c-1.113,0-2.015-0.902-2.015-2.015c0-1.113,0.902-2.015,2.015-2.015h83.407
							c1.113,0,2.015,0.901,2.015,2.015C682.89,395.561,681.988,396.463,680.875,396.463z"/>
					</g>
				</g>
			</g>
		</g>
		<g>
			<g>
				<g>
					<g>
						<path fill="#6A655E" d="M675.271,407.246h-71.798c-3.732,0-8.496-4.793-8.496-8.547v-3.459c0-1.112,0.902-2.015,2.015-2.015
							c1.113,0,2.015,0.902,2.015,2.015v3.459c0,1.562,2.922,4.518,4.466,4.518h71.798c1.252,0,3.114-2.703,3.114-4.518v-3.459
							c0-1.112,0.902-2.015,2.015-2.015c1.113,0,2.015,0.902,2.015,2.015v3.459C682.414,402.061,679.348,407.246,675.271,407.246z"
							/>
					</g>
				</g>
			</g>
		</g>
		<g>
			<g>
				<g>
					<g>
						<path fill="#6A655E" d="M603.646,395.205c-0.961,0-1.812-0.689-1.983-1.669l-1.202-6.882c-0.192-1.096,0.542-2.14,1.638-2.331
							s2.141,0.542,2.332,1.638l1.202,6.882c0.192,1.097-0.542,2.14-1.638,2.331C603.878,395.195,603.761,395.205,603.646,395.205z"
							/>
					</g>
				</g>
			</g>
		</g>
		<g>
			<g>
				<g>
					<g>
						<path fill="#6A655E" d="M677.251,395.205c-0.115,0-0.231-0.01-0.349-0.031c-1.097-0.191-1.83-1.234-1.639-2.331l1.201-6.882
							c0.191-1.096,1.236-1.83,2.332-1.638c1.097,0.191,1.829,1.235,1.639,2.331l-1.202,6.882
							C679.062,394.516,678.212,395.205,677.251,395.205z"/>
					</g>
				</g>
			</g>
		</g>
		<g>
			<g>
				<g>
					<g>
						<g>
							<path fill="#6A655E" d="M613.083,394.105c-0.974,0-1.831-0.709-1.988-1.701l-0.901-5.707c-0.174-1.1,0.577-2.132,1.676-2.305
								c1.099-0.176,2.13,0.576,2.304,1.676l0.901,5.707c0.174,1.1-0.577,2.131-1.676,2.305
								C613.294,394.098,613.188,394.105,613.083,394.105z"/>
						</g>
					</g>
				</g>
			</g>
			<g>
				<g>
					<g>
						<g>
							<path fill="#6A655E" d="M623.778,394.105c-1.018,0-1.892-0.77-2.001-1.805l-0.601-5.707c-0.117-1.107,0.686-2.1,1.793-2.216
								c1.107-0.114,2.098,0.687,2.215,1.794l0.601,5.707c0.116,1.106-0.687,2.099-1.793,2.215
								C623.919,394.102,623.849,394.105,623.778,394.105z"/>
						</g>
					</g>
				</g>
			</g>
			<g>
				<g>
					<g>
						<g>
							<path fill="#6A655E" d="M634.474,394.105c-1.064,0-1.954-0.834-2.011-1.91l-0.301-5.707c-0.058-1.111,0.795-2.06,1.906-2.119
								c1.11-0.057,2.06,0.796,2.118,1.907l0.301,5.708c0.059,1.111-0.795,2.059-1.906,2.117
								C634.545,394.104,634.509,394.105,634.474,394.105z"/>
						</g>
					</g>
				</g>
			</g>
			<g>
				<g>
					<g>
						<g>
							<path fill="#6A655E" d="M644.881,394.084c-1.113,0-2.016-0.902-2.016-2.015v-5.708c0-1.113,0.902-2.016,2.016-2.016
								c1.112,0,2.014,0.902,2.014,2.016v5.708C646.895,393.182,645.993,394.084,644.881,394.084z"/>
						</g>
					</g>
				</g>
			</g>
			<g>
				<g>
					<g>
						<g>
							<path fill="#6A655E" d="M655.866,394.105c-0.036,0-0.071-0.002-0.108-0.004c-1.11-0.059-1.965-1.006-1.906-2.117l0.301-5.708
								c0.059-1.111,1.014-1.964,2.118-1.907c1.111,0.06,1.965,1.008,1.907,2.119l-0.302,5.707
								C657.82,393.271,656.93,394.105,655.866,394.105z"/>
						</g>
					</g>
				</g>
			</g>
			<g>
				<g>
					<g>
						<g>
							<path fill="#6A655E" d="M666.561,394.105c-0.07,0-0.141-0.004-0.213-0.012c-1.107-0.116-1.909-1.108-1.793-2.215l0.602-5.707
								c0.116-1.107,1.105-1.908,2.215-1.794c1.106,0.116,1.908,1.108,1.793,2.216l-0.601,5.707
								C668.453,393.336,667.579,394.105,666.561,394.105z"/>
						</g>
					</g>
				</g>
			</g>
		</g>
		<g>
			<g>
				<g>
					<g>
						<path fill="#6A655E" d="M679.606,374.898h-0.317c-1.111,0-2.015-0.902-2.015-2.016s0.903-2.016,2.015-2.016h0.317
							c1.113,0,2.016,0.902,2.016,2.016S680.72,374.898,679.606,374.898z"/>
					</g>
				</g>
			</g>
		</g>
		<g>
			<g>
				<g>
					<g>
						<path fill="#6A655E" d="M672.63,374.898h-80.236c-1.113,0-2.015-0.902-2.015-2.016s0.902-2.016,2.015-2.016h80.236
							c1.112,0,2.015,0.902,2.015,2.016S673.742,374.898,672.63,374.898z"/>
					</g>
				</g>
			</g>
		</g>
		<g>
			<g>
				<g>
					<g>
						<path fill="#6A655E" d="M686.686,387.267H594.46c-2.3,0-4.557-2.224-4.557-4.489v-18.025c0-2.533,2.118-2.562,2.207-2.562
							c0.551,0,0.961,0.2,1.231,0.333c0.077,0.037,0.191,0.093,0.231,0.101h93.708c0.387-0.287,0.845-0.434,1.291-0.434
							c1.172,0,2.131,0.92,2.184,2.092c0.021,0.477-0.117,0.97-0.414,1.382l0.001,17.114
							C690.343,385.378,688.805,387.267,686.686,387.267z M594.501,383.236h91.762c0.026-0.119,0.05-0.276,0.05-0.459v-16.125
							h-92.38v16.061C594.009,382.895,594.318,383.182,594.501,383.236z"/>
					</g>
				</g>
			</g>
		</g>
	</g>
	<g>
		<g>
			<g>
				<g>
					<path fill="#6A655E" d="M641.52,456.911c0,0,0,0,0,0.005l0,0c-1.004-0.484-1.423-1.689-0.939-2.693l0,0
						c0.483-1.003,1.688-1.422,2.692-0.938l0,0c1,0.483,1.423,1.688,0.935,2.692l0,0c-0.346,0.717-1.064,1.137-1.812,1.137l0,0
						C642.1,457.113,641.801,457.049,641.52,456.911z M635.474,447.855c-0.007-1.111,0.883-2.027,1.995-2.035l0,0
						c1.113-0.012,2.028,0.883,2.036,1.995l0,0c0.011,1.112-0.883,2.022-1.996,2.035l0,0c-0.004,0-0.012,0-0.02,0l0,0
						C636.385,449.851,635.486,448.96,635.474,447.855z M639.843,441.053c-0.77-0.802-0.746-2.079,0.057-2.85l0,0
						c0.802-0.77,2.075-0.744,2.849,0.057l0,0c0.77,0.803,0.746,2.08-0.057,2.85l0,0c-0.391,0.375-0.895,0.564-1.398,0.564l0,0
						C640.766,441.674,640.238,441.465,639.843,441.053z M646.564,434.649c-0.898-0.657-1.096-1.914-0.439-2.813l0,0l0,0l0,0
						c0.657-0.898,1.918-1.096,2.817-0.439l0,0c0.898,0.657,1.093,1.919,0.436,2.818l0,0c-0.392,0.539-1.004,0.825-1.628,0.825l0,0
						C647.338,435.04,646.924,434.911,646.564,434.649z M648.192,424.688c-0.181-1.101,0.561-2.137,1.661-2.318l0,0
						c1.096-0.181,2.132,0.564,2.312,1.661l0,0c0.182,1.101-0.56,2.136-1.66,2.317l0,0c-0.108,0.016-0.217,0.023-0.326,0.023l0,0
						C649.208,426.371,648.354,425.674,648.192,424.688z M644.184,418.364c-0.903-0.653-1.109-1.911-0.46-2.813l0,0
						c0.652-0.902,1.91-1.107,2.813-0.459v0.004c0.902,0.648,1.107,1.91,0.459,2.809l0,0c-0.395,0.549-1.012,0.838-1.637,0.838l0,0
						C644.949,418.742,644.538,418.617,644.184,418.364z"/>
				</g>
			</g>
		</g>
	</g>
	<g>
		<g>
			<g>
				<g>
					<path fill="#6A655E" d="M657.691,456.911c0,0,0,0,0,0.005l0,0c-0.999-0.484-1.422-1.689-0.939-2.693l0,0
						c0.488-1.003,1.693-1.422,2.693-0.938l0,0c1.003,0.483,1.422,1.688,0.938,2.692l0,0c-0.347,0.717-1.067,1.137-1.817,1.137l0,0
						C658.272,457.113,657.974,457.049,657.691,456.911z M651.65,447.855L651.65,447.855L651.65,447.855
						c-0.012-1.111,0.883-2.023,1.995-2.035l0,0c1.112-0.012,2.022,0.883,2.035,1.995l0,0c0.012,1.112-0.883,2.022-1.995,2.035l0,0
						c-0.008,0-0.012,0-0.02,0l0,0C652.562,449.851,651.658,448.96,651.65,447.855z M656.016,441.053
						c-0.77-0.802-0.746-2.079,0.06-2.85l0,0c0.802-0.77,2.075-0.744,2.846,0.057l0,0c0.773,0.803,0.745,2.08-0.057,2.85l0,0
						c-0.391,0.375-0.891,0.564-1.394,0.564l0,0C656.941,441.674,656.414,441.465,656.016,441.053z M662.737,434.649
						c-0.899-0.657-1.093-1.918-0.435-2.813l0,0c0.652-0.902,1.914-1.096,2.812-0.439l0,0c0.898,0.657,1.096,1.919,0.439,2.818l0,0
						c-0.396,0.539-1.008,0.825-1.629,0.825l0,0C663.512,435.04,663.096,434.911,662.737,434.649z M664.365,424.688
						c-0.182-1.101,0.564-2.137,1.66-2.318l0,0c1.1-0.181,2.137,0.564,2.317,1.661l0,0c0.182,1.101-0.563,2.136-1.66,2.317l0,0
						c-0.112,0.016-0.222,0.027-0.331,0.027l0,0C665.385,426.375,664.531,425.674,664.365,424.688z M660.359,418.364
						c-0.902-0.653-1.107-1.911-0.459-2.813l0,0c0.652-0.902,1.909-1.107,2.812-0.459l0,0c0.902,0.652,1.108,1.914,0.46,2.812l0,0
						c-0.396,0.549-1.012,0.838-1.641,0.838l0,0C661.125,418.742,660.715,418.622,660.359,418.364z"/>
				</g>
			</g>
		</g>
	</g>
	<g>
		<g>
			<g>
				<g>
					<path fill="#6A655E" d="M625.624,456.911c0,0,0,0,0,0.005l0,0c-0.999-0.484-1.418-1.689-0.934-2.693l0,0
						c0.483-1.003,1.688-1.422,2.692-0.938l0,0c0.999,0.483,1.418,1.688,0.935,2.692l0,0c-0.346,0.717-1.067,1.137-1.813,1.137l0,0
						C626.209,457.113,625.911,457.049,625.624,456.911z M619.584,447.855L619.584,447.855L619.584,447.855
						c-0.013-1.111,0.882-2.027,1.995-2.035l0,0c1.112-0.012,2.023,0.883,2.036,1.995l0,0c0.012,1.112-0.883,2.022-1.996,2.035l0,0
						c-0.008,0-0.012,0-0.02,0l0,0C620.495,449.851,619.596,448.96,619.584,447.855z M623.953,441.053
						c-0.774-0.802-0.747-2.079,0.056-2.85l0,0c0.802-0.77,2.075-0.744,2.849,0.057l0,0c0.77,0.803,0.746,2.08-0.056,2.85l0,0
						c-0.391,0.375-0.895,0.564-1.398,0.564l0,0C624.875,441.674,624.347,441.465,623.953,441.053z M630.674,434.649
						c-0.899-0.657-1.096-1.918-0.439-2.813l0,0c0.656-0.902,1.918-1.096,2.813-0.439l0,0c0.902,0.657,1.096,1.919,0.439,2.818l0,0
						c-0.396,0.539-1.008,0.825-1.629,0.825l0,0C631.448,435.04,631.033,434.911,630.674,434.649z M632.298,424.684
						c-0.177-1.097,0.564-2.133,1.665-2.314l0,0c1.096-0.181,2.132,0.564,2.313,1.661l0,0c0.181,1.101-0.564,2.136-1.661,2.317l0,0
						c-0.112,0.016-0.221,0.023-0.33,0.023l0,0C633.318,426.371,632.463,425.67,632.298,424.684z M628.292,418.364
						c-0.902-0.653-1.107-1.911-0.459-2.813l0,0c0.653-0.902,1.91-1.107,2.813-0.459l0,0c0.902,0.652,1.108,1.91,0.46,2.812l0,0
						c-0.396,0.549-1.012,0.838-1.642,0.838l0,0C629.059,418.742,628.647,418.617,628.292,418.364z"/>
				</g>
			</g>
		</g>
	</g>
	<g>
		<g>
			<g>
				<g>
					<path fill="#6A655E" d="M608.033,456.911c0,0,0,0,0,0.005l0,0c-1.003-0.484-1.422-1.689-0.938-2.693l0,0
						c0.483-1.003,1.688-1.422,2.692-0.938l0,0c1.003,0.483,1.422,1.688,0.939,2.692l0,0c-0.35,0.717-1.068,1.137-1.817,1.137l0,0
						C608.614,457.113,608.316,457.049,608.033,456.911z M601.989,447.855L601.989,447.855L601.989,447.855
						c-0.008-1.111,0.882-2.023,1.995-2.035l0,0c1.116-0.012,2.027,0.883,2.036,1.995l0,0c0.012,1.112-0.883,2.022-1.995,2.035l0,0
						c-0.004,0-0.012,0-0.02,0l0,0C602.899,449.851,602,448.96,601.989,447.855z M606.357,441.053
						c-0.77-0.802-0.746-2.079,0.056-2.85l0,0c0.802-0.77,2.08-0.744,2.85,0.057l0,0c0.769,0.803,0.745,2.08-0.057,2.85l0,0
						c-0.391,0.375-0.894,0.564-1.394,0.564l0,0C607.28,441.674,606.752,441.465,606.357,441.053z M613.08,434.649
						c-0.899-0.657-1.096-1.918-0.44-2.813l0,0l0,0l0,0c0.657-0.902,1.918-1.096,2.817-0.439l0,0
						c0.899,0.657,1.096,1.919,0.439,2.818h-0.004c-0.391,0.539-1.003,0.825-1.628,0.825l0,0
						C613.853,435.04,613.438,434.911,613.08,434.649z M614.708,424.688c-0.182-1.101,0.56-2.137,1.66-2.318l0,0
						c1.097-0.181,2.137,0.564,2.318,1.661l0,0c0.177,1.101-0.564,2.136-1.664,2.317l0,0c-0.11,0.016-0.218,0.023-0.327,0.023l0,0
						C615.723,426.371,614.869,425.674,614.708,424.688z M610.698,418.364L610.698,418.364L610.698,418.364
						c-0.903-0.653-1.108-1.911-0.456-2.813l0,0c0.649-0.902,1.91-1.107,2.813-0.459l0,0c0.902,0.652,1.104,1.914,0.456,2.812l0,0
						c-0.396,0.549-1.011,0.838-1.637,0.838l0,0C611.467,418.742,611.053,418.622,610.698,418.364z"/>
				</g>
			</g>
		</g>
	</g>
	<g>
		<g>
			<g>
				<g>
					<rect x="566.911" y="362.623" fill="#6A655E" width="141.986" height="4.029"/>
				</g>
			</g>
		</g>
	</g>
</g>
</svg>
