<?xml version="1.0" encoding="utf-8"?>
<!-- Generator: Adobe Illustrator 15.0.0, SVG Export Plug-In . SVG Version: 6.00 Build 0)  -->
<!DOCTYPE svg PUBLIC "-//W3C//DTD SVG 1.1//EN" "http://www.w3.org/Graphics/SVG/1.1/DTD/svg11.dtd">
<svg version="1.1" id="Layer_1" xmlns="http://www.w3.org/2000/svg" xmlns:xlink="http://www.w3.org/1999/xlink" x="0px" y="0px"
	 width="1280px" height="768px" viewBox="0 0 1280 768" enable-background="new 0 0 1280 768" xml:space="preserve">
<g>
	<g>
		<g>
			<g>
				<path fill="#6A655E" d="M597.139,383.236c-0.582,0-1.165-0.209-1.628-0.631c-0.987-0.9-1.057-2.43-0.157-3.416
					c8.368-9.178,15.041-16.725,15.107-16.799c0.884-1.001,2.412-1.096,3.413-0.211c1,0.885,1.095,2.412,0.21,3.413
					c-0.067,0.075-6.763,7.647-15.158,16.854C598.449,382.971,597.795,383.236,597.139,383.236z"/>
			</g>
		</g>
		<g>
			<g>
				<path fill="#6A655E" d="M588.431,392.871c-0.576,0-1.154-0.205-1.617-0.62c-0.993-0.893-1.074-2.421-0.182-3.415l1.544-1.717
					c0.893-0.993,2.421-1.075,3.415-0.182c0.993,0.893,1.074,2.422,0.182,3.414l-1.543,1.718
					C589.752,392.601,589.093,392.871,588.431,392.871z"/>
			</g>
		</g>
		<g>
			<g>
				<path fill="#6A655E" d="M611.253,389c-0.121,0-0.245-0.01-0.368-0.028c-1.32-0.202-2.227-1.436-2.025-2.755l3.277-21.465
					l-21.914,4.975c-1.303,0.293-2.598-0.521-2.893-1.822c-0.295-1.303,0.521-2.598,1.823-2.895l25.374-5.76
					c0.78-0.177,1.596,0.043,2.183,0.588c0.585,0.545,0.863,1.345,0.743,2.135l-3.812,24.973
					C613.458,388.143,612.428,389,611.253,389z"/>
			</g>
		</g>
	</g>
	<g>
		<g>
			<path fill="#6A655E" d="M587.279,461c-1.336,0-2.418-1.084-2.418-2.418v-31.436c0-1.334,1.082-2.418,2.418-2.418h32.643v-32.643
				c0-1.336,1.083-2.418,2.418-2.418h31.434v-27.807c0-1.336,1.083-2.418,2.418-2.418h32.644c1.335,0,2.418,1.082,2.418,2.418
				c0,1.335-1.083,2.418-2.418,2.418h-30.226v27.807c0,1.336-1.082,2.418-2.418,2.418h-31.434v32.643
				c0,1.336-1.083,2.419-2.418,2.419h-32.643v29.017C589.697,459.916,588.614,461,587.279,461z"/>
		</g>
	</g>
</g>
</svg>
