<?xml version="1.0" encoding="utf-8"?>
<!-- Generator: Adobe Illustrator 15.0.0, SVG Export Plug-In . SVG Version: 6.00 Build 0)  -->
<!DOCTYPE svg PUBLIC "-//W3C//DTD SVG 1.1//EN" "http://www.w3.org/Graphics/SVG/1.1/DTD/svg11.dtd">
<svg version="1.1" id="Layer_1" xmlns="http://www.w3.org/2000/svg" xmlns:xlink="http://www.w3.org/1999/xlink" x="0px" y="0px"
	 width="1280px" height="768px" viewBox="0 0 1280 768" enable-background="new 0 0 1280 768" xml:space="preserve">
<g>
	<g>
		<g>
			<g>
				<g>
					<g>
						<path fill="#6A655E" d="M699.316,378.58c-1.421-6.869-7.061-22.844-28.693-22.844c-0.268,0-0.541,0.002-0.81,0.008
							c-16.799,0.305-24.317,16.024-24.317,31.467c0,10.604,0.044,14.783,0.082,18.471l0.002,0.086
							c0.018,1.588,0.033,3.254,0.045,5.152c0.007,1.234,1.017,2.316,2.164,2.316h0.009c0.527,0,1.04-0.224,1.442-0.629
							c0.449-0.453,0.715-1.094,0.711-1.713c-0.012-1.906-0.027-3.498-0.045-5.092l-0.002-0.145
							c-0.039-3.694-0.082-7.881-0.082-18.407c0-13.337,6.205-26.908,20.068-27.159l0.289-0.008c0.147-0.005,0.294-0.01,0.441-0.01
							c17.793,0,22.961,12.146,24.456,19.386c0.208,0.998,1.099,1.722,2.118,1.722l0,0c0.147,0,0.295-0.015,0.441-0.045
							C698.803,380.895,699.557,379.747,699.316,378.58z"/>
					</g>
				</g>
			</g>
		</g>
		<g>
			<g>
				<g>
					<g>
						<path fill="#6A655E" d="M605.852,411.078c0.007,1.19,0.978,2.158,2.163,2.158h0.011c0.569,0,1.107-0.226,1.514-0.635
							c0.416-0.419,0.644-0.974,0.64-1.562c-0.013-1.907-0.028-3.56-0.045-5.152l-0.001-0.125H640.9
							c1.254,0,2.164-0.838,2.164-1.993c0-1.154-0.91-1.993-2.164-1.993h-30.807c-0.021-3.015-0.041-6.412-0.043-12.954h28.675
							c1.429,0,2.356-0.281,2.921-0.887c0.447-0.479,0.635-1.137,0.574-2.008c-0.09-1.29-1.701-2.088-3.141-2.088h-28.873
							c0.48-4.752,2.076-11.158,4.672-15.258c3.474-5.49,8.441-8.159,15.198-8.159c6.063,0,11.016,1.131,14.724,3.362
							c0.333,0.199,0.714,0.305,1.101,0.305c0.759,0,1.474-0.405,1.867-1.059c0.606-1.008,0.303-2.149-0.738-2.776
							c-4.271-2.569-9.816-3.818-16.967-3.818c-8.022,0-14.538,3.596-18.842,10.397c-3.495,5.521-5.5,13.091-5.5,20.768
							c0,10.703,0.046,14.836,0.086,18.482C605.825,407.67,605.841,409.18,605.852,411.078z"/>
					</g>
				</g>
			</g>
		</g>
	</g>
	<g>
		<g>
			<g>
				<g>
					<g>
						<g>
							<g>
								<g>
									<g>
										<g>
											<path fill="#6A655E" d="M582.562,425.004c-0.809,0-1.602-0.393-2.081-1.118c-0.759-1.147-0.443-2.692,0.705-3.451
												c0.653-0.432,1.328-0.987,2.044-1.575c2.362-1.942,5.302-4.357,9.061-3.127c1.307,0.43,2.02,1.836,1.591,3.144
												s-1.836,2.021-3.144,1.592c-1.079-0.356-2.361,0.61-4.345,2.24c-0.783,0.643-1.592,1.308-2.461,1.882
												C583.511,424.87,583.034,425.004,582.562,425.004z"/>
										</g>
									</g>
								</g>
							</g>
							<g>
								<g>
									<g>
										<g>
											<path fill="#6A655E" d="M602.675,426.181c-2.864,0-5.293-1.997-7.089-3.474c-1.981-1.63-3.263-2.593-4.342-2.239
												c-1.306,0.43-2.715-0.283-3.143-1.591s0.284-2.715,1.591-3.144c3.759-1.233,6.698,1.184,9.059,3.125
												c3.013,2.477,3.829,2.769,5.136,1.829c1.118-0.803,2.674-0.547,3.477,0.57s0.547,2.674-0.571,3.477
												C605.344,425.775,603.965,426.181,602.675,426.181z"/>
										</g>
									</g>
								</g>
							</g>
						</g>
					</g>
					<g>
						<g>
							<g>
								<g>
									<g>
										<g>
											<path fill="#6A655E" d="M602.348,426.181c-1.29,0-2.668-0.405-4.116-1.446c-1.118-0.803-1.373-2.359-0.57-3.477
												c0.803-1.117,2.359-1.373,3.476-0.57c1.306,0.938,2.122,0.647,5.135-1.829c2.362-1.941,5.301-4.356,9.061-3.126
												c1.307,0.43,2.02,1.837,1.591,3.145c-0.429,1.307-1.836,2.02-3.144,1.591c-1.079-0.356-2.362,0.609-4.344,2.239
												C607.641,424.184,605.212,426.181,602.348,426.181z"/>
										</g>
									</g>
								</g>
							</g>
							<g>
								<g>
									<g>
										<g>
											<path fill="#6A655E" d="M625.716,426.181c-2.864,0-5.293-1.997-7.089-3.474c-1.981-1.629-3.261-2.592-4.341-2.239
												c-1.306,0.43-2.714-0.284-3.144-1.591c-0.429-1.308,0.283-2.715,1.591-3.144c3.758-1.232,6.697,1.183,9.058,3.124
												c3.013,2.479,3.83,2.77,5.135,1.83c1.118-0.803,2.674-0.547,3.477,0.57c0.802,1.117,0.547,2.674-0.57,3.477
												C628.385,425.775,627.006,426.181,625.716,426.181z"/>
										</g>
									</g>
								</g>
							</g>
						</g>
						<g>
							<g>
								<g>
									<g>
										<g>
											<path fill="#6A655E" d="M625.39,426.181c-1.29,0-2.668-0.405-4.117-1.446c-1.118-0.803-1.373-2.358-0.571-3.477
												c0.802-1.117,2.358-1.372,3.477-0.57c1.308,0.939,2.125,0.647,5.138-1.83c2.362-1.941,5.3-4.356,9.058-3.124
												c1.308,0.429,2.02,1.836,1.591,3.144c-0.428,1.307-1.834,2.021-3.143,1.591c-1.079-0.354-2.36,0.61-4.341,2.239
												C630.685,424.184,628.254,426.181,625.39,426.181z"/>
										</g>
									</g>
								</g>
							</g>
							<g>
								<g>
									<g>
										<g>
											<path fill="#6A655E" d="M648.74,426.174c-2.896,0-5.402-1.982-7.255-3.447c-2.021-1.599-3.43-2.621-4.528-2.259
												c-1.308,0.428-2.715-0.284-3.143-1.591c-0.429-1.308,0.283-2.715,1.591-3.145c3.726-1.221,6.745,1.168,9.171,3.086
												c3.165,2.504,4.072,2.818,5.395,1.869c1.117-0.803,2.674-0.547,3.477,0.57s0.547,2.674-0.571,3.477
												C651.435,425.771,650.048,426.174,648.74,426.174z"/>
										</g>
									</g>
								</g>
							</g>
						</g>
					</g>
					<g>
						<g>
							<g>
								<g>
									<g>
										<g>
											<path fill="#6A655E" d="M650.064,426.026c-1.086,0-2.083-0.715-2.395-1.81c-0.377-1.324,0.391-2.702,1.713-3.078
												c0.91-0.26,2.049-1.199,3.15-2.107c2.307-1.904,5.176-4.273,9.093-3.356c1.339,0.313,2.172,1.653,1.858,2.993
												c-0.312,1.339-1.652,2.172-2.993,1.858c-1.409-0.329-2.75,0.667-4.786,2.348c-1.498,1.235-3.046,2.512-4.957,3.056
												C650.52,425.995,650.29,426.026,650.064,426.026z"/>
										</g>
									</g>
								</g>
							</g>
							<g>
								<g>
									<g>
										<g>
											<path fill="#6A655E" d="M672.217,426.204c-2.712,0-4.931-1.87-6.578-3.257c-2.059-1.734-3.405-2.779-5.101-2.412
												c-1.345,0.292-2.671-0.562-2.962-1.907s0.562-2.671,1.907-2.962c4.175-0.904,7.175,1.625,9.366,3.472
												c2.696,2.271,3.295,2.474,4.582,1.55c1.117-0.803,2.675-0.547,3.477,0.57c0.803,1.117,0.548,2.674-0.57,3.477
												C674.862,425.795,673.485,426.204,672.217,426.204z"/>
										</g>
									</g>
								</g>
							</g>
						</g>
					</g>
				</g>
				<g>
					<g>
						<g>
							<g>
								<g>
									<g>
										<g>
											<path fill="#6A655E" d="M695.484,426.895c-2.841,0-5.261-1.949-6.912-3.28c-0.604-0.486-1.173-0.945-1.701-1.297
												c-3.507-2.332-4.525-1.666-9.423,1.538c-0.507,0.331-1.042,0.681-1.608,1.045c-1.157,0.744-2.699,0.408-3.442-0.749
												c-0.744-1.157-0.409-2.699,0.75-3.442c0.554-0.357,1.076-0.699,1.573-1.023c5.03-3.291,8.665-5.669,14.912-1.516
												c0.717,0.478,1.402,1.03,2.065,1.564c2.86,2.305,3.687,2.593,4.912,1.713c1.118-0.804,2.675-0.549,3.478,0.568
												c0.802,1.117,0.547,2.674-0.57,3.477C698.111,426.504,696.755,426.895,695.484,426.895z"/>
										</g>
									</g>
								</g>
							</g>
						</g>
						<g>
							<g>
								<g>
									<g>
										<g>
											<path fill="#6A655E" d="M695.12,427.002c-1.261,0-2.649-0.417-4.167-1.51c-1.118-0.804-1.371-2.36-0.568-3.477
												c0.804-1.117,2.36-1.372,3.477-0.568c1.263,0.908,1.61,0.896,4.141-1.256c0.543-0.462,1.104-0.938,1.729-1.408
												c1.1-0.827,2.661-0.604,3.488,0.495c0.826,1.1,0.604,2.661-0.496,3.487c-0.504,0.38-1.006,0.807-1.492,1.22
												C699.717,425.273,697.684,427.002,695.12,427.002z"/>
										</g>
									</g>
								</g>
							</g>
						</g>
					</g>
				</g>
			</g>
		</g>
	</g>
	<g>
		<g>
			<g>
				<g>
					<g>
						<g>
							<g>
								<g>
									<g>
										<g>
											<path fill="#6A655E" d="M582.562,444.27c-0.809,0-1.602-0.393-2.081-1.118c-0.759-1.147-0.443-2.693,0.705-3.452
												c0.653-0.432,1.328-0.986,2.044-1.575c2.362-1.941,5.302-4.356,9.061-3.126c1.307,0.429,2.02,1.836,1.591,3.144
												s-1.836,2.02-3.144,1.592c-1.079-0.354-2.361,0.609-4.345,2.239c-0.783,0.644-1.592,1.309-2.461,1.883
												C583.511,444.135,583.034,444.27,582.562,444.27z"/>
										</g>
									</g>
								</g>
							</g>
							<g>
								<g>
									<g>
										<g>
											<path fill="#6A655E" d="M602.675,445.445c-2.864,0-5.293-1.996-7.089-3.474c-1.981-1.629-3.263-2.592-4.342-2.239
												c-1.306,0.43-2.715-0.283-3.143-1.591c-0.428-1.307,0.284-2.714,1.591-3.144c3.759-1.232,6.698,1.184,9.059,3.125
												c3.013,2.478,3.829,2.769,5.136,1.83c1.118-0.803,2.674-0.547,3.477,0.57s0.547,2.674-0.571,3.477
												C605.344,445.04,603.965,445.445,602.675,445.445z"/>
										</g>
									</g>
								</g>
							</g>
						</g>
					</g>
					<g>
						<g>
							<g>
								<g>
									<g>
										<g>
											<path fill="#6A655E" d="M602.348,445.445c-1.29,0-2.668-0.405-4.116-1.445c-1.118-0.803-1.373-2.359-0.57-3.477
												c0.803-1.118,2.359-1.373,3.476-0.57c1.306,0.938,2.122,0.647,5.135-1.829c2.362-1.942,5.301-4.356,9.061-3.126
												c1.307,0.429,2.02,1.836,1.591,3.144c-0.429,1.308-1.836,2.02-3.144,1.592c-1.079-0.355-2.362,0.609-4.344,2.239
												C607.641,443.449,605.212,445.445,602.348,445.445z"/>
										</g>
									</g>
								</g>
							</g>
							<g>
								<g>
									<g>
										<g>
											<path fill="#6A655E" d="M625.716,445.445c-2.864,0-5.293-1.997-7.089-3.474c-1.981-1.628-3.261-2.592-4.341-2.239
												c-1.306,0.43-2.714-0.283-3.144-1.59c-0.429-1.308,0.283-2.715,1.591-3.145c3.758-1.231,6.697,1.184,9.058,3.125
												c3.013,2.478,3.83,2.769,5.135,1.83c1.118-0.803,2.674-0.547,3.477,0.57c0.802,1.117,0.547,2.674-0.57,3.477
												C628.385,445.04,627.006,445.445,625.716,445.445z"/>
										</g>
									</g>
								</g>
							</g>
						</g>
						<g>
							<g>
								<g>
									<g>
										<g>
											<path fill="#6A655E" d="M625.39,445.445c-1.29,0-2.668-0.405-4.117-1.445c-1.118-0.803-1.373-2.359-0.571-3.477
												c0.802-1.117,2.358-1.373,3.477-0.57c1.308,0.938,2.125,0.647,5.138-1.83c2.362-1.941,5.3-4.356,9.058-3.125
												c1.308,0.43,2.02,1.837,1.591,3.145c-0.428,1.307-1.834,2.02-3.143,1.59c-1.079-0.353-2.36,0.61-4.341,2.239
												C630.685,443.448,628.254,445.445,625.39,445.445z"/>
										</g>
									</g>
								</g>
							</g>
							<g>
								<g>
									<g>
										<g>
											<path fill="#6A655E" d="M648.74,445.439c-2.896,0-5.402-1.982-7.255-3.447c-2.021-1.6-3.43-2.62-4.528-2.259
												c-1.308,0.427-2.715-0.284-3.143-1.592c-0.429-1.308,0.283-2.715,1.591-3.144c3.726-1.221,6.745,1.167,9.171,3.086
												c3.165,2.504,4.072,2.817,5.395,1.869c1.117-0.804,2.674-0.548,3.477,0.57c0.803,1.117,0.547,2.674-0.571,3.477
												C651.435,445.035,650.048,445.439,648.74,445.439z"/>
										</g>
									</g>
								</g>
							</g>
						</g>
					</g>
					<g>
						<g>
							<g>
								<g>
									<g>
										<g>
											<path fill="#6A655E" d="M650.064,445.291c-1.086,0-2.083-0.715-2.395-1.81c-0.377-1.323,0.391-2.701,1.713-3.078
												c0.91-0.259,2.049-1.198,3.15-2.107c2.307-1.903,5.176-4.272,9.093-3.356c1.339,0.313,2.172,1.653,1.858,2.993
												c-0.312,1.34-1.652,2.173-2.993,1.858c-1.409-0.329-2.75,0.668-4.786,2.348c-1.498,1.235-3.046,2.513-4.957,3.057
												C650.52,445.26,650.29,445.291,650.064,445.291z"/>
										</g>
									</g>
								</g>
							</g>
							<g>
								<g>
									<g>
										<g>
											<path fill="#6A655E" d="M672.217,445.47c-2.712,0-4.931-1.87-6.578-3.257c-2.059-1.735-3.405-2.78-5.101-2.412
												c-1.345,0.291-2.671-0.562-2.962-1.908c-0.291-1.344,0.562-2.67,1.907-2.962c4.175-0.901,7.175,1.626,9.366,3.472
												c2.696,2.271,3.295,2.475,4.582,1.551c1.117-0.804,2.675-0.548,3.477,0.57c0.803,1.117,0.548,2.674-0.57,3.477
												C674.862,445.061,673.485,445.47,672.217,445.47z"/>
										</g>
									</g>
								</g>
							</g>
						</g>
					</g>
				</g>
				<g>
					<g>
						<g>
							<g>
								<g>
									<g>
										<g>
											<path fill="#6A655E" d="M695.484,446.16c-2.841,0-5.261-1.95-6.912-3.28c-0.604-0.486-1.173-0.946-1.701-1.297
												c-3.507-2.332-4.525-1.666-9.423,1.537c-0.507,0.331-1.042,0.681-1.608,1.046c-1.157,0.743-2.699,0.408-3.442-0.75
												c-0.744-1.157-0.409-2.698,0.75-3.442c0.554-0.356,1.076-0.698,1.573-1.022c5.03-3.291,8.665-5.67,14.912-1.517
												c0.717,0.478,1.402,1.03,2.065,1.565c2.86,2.305,3.687,2.592,4.912,1.712c1.118-0.803,2.675-0.548,3.478,0.569
												c0.802,1.117,0.547,2.674-0.57,3.477C698.111,445.77,696.755,446.16,695.484,446.16z"/>
										</g>
									</g>
								</g>
							</g>
						</g>
						<g>
							<g>
								<g>
									<g>
										<g>
											<path fill="#6A655E" d="M695.12,446.268c-1.261,0-2.649-0.418-4.167-1.51c-1.118-0.804-1.371-2.36-0.568-3.478
												c0.804-1.117,2.36-1.371,3.477-0.567c1.263,0.908,1.61,0.896,4.141-1.257c0.543-0.461,1.104-0.938,1.729-1.407
												c1.1-0.827,2.661-0.605,3.488,0.494c0.826,1.101,0.604,2.662-0.496,3.488c-0.504,0.38-1.006,0.807-1.492,1.22
												C699.717,444.539,697.684,446.268,695.12,446.268z"/>
										</g>
									</g>
								</g>
							</g>
						</g>
					</g>
				</g>
			</g>
		</g>
	</g>
	<g>
		<g>
			<g>
				<g>
					<g>
						<g>
							<g>
								<g>
									<g>
										<g>
											<path fill="#6A655E" d="M582.562,463.368c-0.809,0-1.602-0.393-2.081-1.117c-0.759-1.147-0.443-2.693,0.705-3.452
												c0.653-0.432,1.328-0.987,2.044-1.575c2.362-1.942,5.302-4.358,9.061-3.126c1.307,0.429,2.02,1.836,1.591,3.143
												c-0.428,1.308-1.836,2.021-3.144,1.592c-1.079-0.354-2.361,0.61-4.345,2.24c-0.783,0.644-1.592,1.309-2.461,1.883
												C583.511,463.234,583.034,463.368,582.562,463.368z"/>
										</g>
									</g>
								</g>
							</g>
							<g>
								<g>
									<g>
										<g>
											<path fill="#6A655E" d="M602.675,464.545c-2.864,0-5.293-1.997-7.089-3.474c-1.981-1.629-3.263-2.593-4.342-2.239
												c-1.306,0.43-2.715-0.283-3.143-1.591s0.284-2.715,1.591-3.144c3.759-1.232,6.698,1.184,9.059,3.125
												c3.013,2.477,3.829,2.769,5.136,1.83c1.118-0.804,2.674-0.547,3.477,0.569c0.803,1.118,0.547,2.675-0.571,3.478
												C605.344,464.14,603.965,464.545,602.675,464.545z"/>
										</g>
									</g>
								</g>
							</g>
						</g>
					</g>
					<g>
						<g>
							<g>
								<g>
									<g>
										<g>
											<path fill="#6A655E" d="M602.348,464.545c-1.29,0-2.668-0.405-4.116-1.446c-1.118-0.803-1.373-2.358-0.57-3.477
												c0.803-1.117,2.359-1.372,3.476-0.569c1.306,0.938,2.122,0.646,5.135-1.83c2.362-1.941,5.301-4.357,9.061-3.125
												c1.307,0.429,2.02,1.836,1.591,3.144c-0.429,1.308-1.836,2.021-3.144,1.591c-1.079-0.354-2.362,0.61-4.344,2.24
												C607.641,462.549,605.212,464.545,602.348,464.545z"/>
										</g>
									</g>
								</g>
							</g>
							<g>
								<g>
									<g>
										<g>
											<path fill="#6A655E" d="M625.716,464.545c-2.864,0-5.293-1.997-7.089-3.474c-1.981-1.629-3.261-2.591-4.341-2.239
												c-1.306,0.43-2.714-0.283-3.144-1.591c-0.429-1.308,0.283-2.715,1.591-3.144c3.758-1.232,6.697,1.184,9.058,3.125
												c3.013,2.478,3.83,2.769,5.135,1.83c1.118-0.804,2.674-0.547,3.477,0.569c0.802,1.118,0.547,2.675-0.57,3.478
												C628.385,464.14,627.006,464.545,625.716,464.545z"/>
										</g>
									</g>
								</g>
							</g>
						</g>
						<g>
							<g>
								<g>
									<g>
										<g>
											<path fill="#6A655E" d="M625.39,464.545c-1.29,0-2.668-0.405-4.117-1.445c-1.118-0.803-1.373-2.359-0.571-3.477
												c0.802-1.117,2.358-1.373,3.477-0.57c1.308,0.938,2.125,0.646,5.138-1.83c2.362-1.941,5.3-4.357,9.058-3.125
												c1.308,0.429,2.02,1.836,1.591,3.144c-0.428,1.308-1.834,2.021-3.143,1.591c-1.079-0.354-2.36,0.61-4.341,2.239
												C630.685,462.548,628.254,464.545,625.39,464.545z"/>
										</g>
									</g>
								</g>
							</g>
							<g>
								<g>
									<g>
										<g>
											<path fill="#6A655E" d="M648.74,464.538c-2.896,0-5.402-1.981-7.255-3.447c-2.021-1.599-3.43-2.62-4.528-2.259
												c-1.308,0.43-2.715-0.283-3.143-1.591c-0.429-1.308,0.283-2.715,1.591-3.144c3.726-1.222,6.745,1.167,9.171,3.086
												c3.165,2.504,4.072,2.817,5.395,1.869c1.117-0.804,2.674-0.548,3.477,0.57c0.803,1.117,0.547,2.674-0.571,3.477
												C651.435,464.135,650.048,464.538,648.74,464.538z"/>
										</g>
									</g>
								</g>
							</g>
						</g>
					</g>
					<g>
						<g>
							<g>
								<g>
									<g>
										<g>
											<path fill="#6A655E" d="M650.064,464.391c-1.086,0-2.083-0.715-2.395-1.81c-0.377-1.323,0.391-2.701,1.713-3.078
												c0.91-0.259,2.049-1.199,3.15-2.107c2.307-1.903,5.176-4.271,9.093-3.356c1.339,0.313,2.172,1.653,1.858,2.993
												c-0.312,1.339-1.652,2.172-2.993,1.858c-1.409-0.329-2.75,0.668-4.786,2.348c-1.498,1.235-3.046,2.512-4.957,3.057
												C650.52,464.359,650.29,464.391,650.064,464.391z"/>
										</g>
									</g>
								</g>
							</g>
							<g>
								<g>
									<g>
										<g>
											<path fill="#6A655E" d="M672.217,464.569c-2.712,0-4.931-1.87-6.578-3.257c-2.059-1.735-3.405-2.78-5.101-2.412
												c-1.345,0.291-2.671-0.562-2.962-1.908c-0.291-1.344,0.562-2.671,1.907-2.962c4.175-0.902,7.175,1.626,9.366,3.472
												c2.696,2.271,3.295,2.474,4.582,1.551c1.117-0.804,2.675-0.548,3.477,0.57c0.803,1.117,0.548,2.674-0.57,3.477
												C674.862,464.159,673.485,464.569,672.217,464.569z"/>
										</g>
									</g>
								</g>
							</g>
						</g>
					</g>
				</g>
				<g>
					<g>
						<g>
							<g>
								<g>
									<g>
										<g>
											<path fill="#6A655E" d="M695.484,465.26c-2.841,0-5.261-1.95-6.912-3.281c-0.604-0.486-1.173-0.945-1.701-1.297
												c-3.507-2.331-4.525-1.666-9.423,1.538c-0.507,0.331-1.042,0.681-1.608,1.045c-1.157,0.744-2.699,0.409-3.442-0.749
												c-0.744-1.157-0.409-2.698,0.75-3.442c0.554-0.356,1.076-0.698,1.573-1.023c5.03-3.29,8.665-5.669,14.912-1.516
												c0.717,0.478,1.402,1.03,2.065,1.564c2.86,2.306,3.687,2.593,4.912,1.713c1.118-0.804,2.675-0.548,3.478,0.569
												c0.802,1.117,0.547,2.674-0.57,3.477C698.111,464.869,696.755,465.26,695.484,465.26z"/>
										</g>
									</g>
								</g>
							</g>
						</g>
						<g>
							<g>
								<g>
									<g>
										<g>
											<path fill="#6A655E" d="M695.12,465.367c-1.261,0-2.649-0.418-4.167-1.511c-1.118-0.803-1.371-2.36-0.568-3.477
												c0.804-1.117,2.36-1.372,3.477-0.567c1.263,0.907,1.61,0.896,4.141-1.258c0.543-0.461,1.104-0.938,1.729-1.407
												c1.1-0.827,2.661-0.604,3.488,0.495c0.826,1.1,0.604,2.662-0.496,3.488c-0.504,0.379-1.006,0.807-1.492,1.22
												C699.717,463.639,697.684,465.367,695.12,465.367z"/>
										</g>
									</g>
								</g>
							</g>
						</g>
					</g>
				</g>
			</g>
		</g>
	</g>
</g>
</svg>
