<?xml version="1.0" encoding="utf-8"?>
<!-- Generator: Adobe Illustrator 15.0.0, SVG Export Plug-In . SVG Version: 6.00 Build 0)  -->
<!DOCTYPE svg PUBLIC "-//W3C//DTD SVG 1.1//EN" "http://www.w3.org/Graphics/SVG/1.1/DTD/svg11.dtd">
<svg version="1.1" id="Layer_1" xmlns="http://www.w3.org/2000/svg" xmlns:xlink="http://www.w3.org/1999/xlink" x="0px" y="0px"
	 width="1280px" height="768px" viewBox="0 0 1280 768" enable-background="new 0 0 1280 768" xml:space="preserve">
<g>
	<g>
		<g>
			<g>
				<g>
					<path fill="#6A655E" d="M670.454,458.738h-69.332c-5.801,0-10.521-4.721-10.521-10.521v-36.154
						c0-1.113,0.902-2.016,2.015-2.016s2.015,0.902,2.015,2.016v36.154c0,3.578,2.913,6.491,6.492,6.491h69.332
						c3.579,0,6.492-2.913,6.492-6.491v-11.06c0-1.112,0.901-2.015,2.015-2.015s2.015,0.902,2.015,2.015v11.06
						C680.976,454.018,676.256,458.738,670.454,458.738z"/>
				</g>
			</g>
		</g>
	</g>
	<g>
		<g>
			<g>
				<g>
					<path fill="#6A655E" d="M678.961,417.48c-1.113,0-2.015-0.902-2.015-2.016v-14.887c0-3.58-2.913-6.492-6.492-6.492h-59.481
						c-1.021,0-2.257-0.021-3.565-0.042c-2.557-0.042-5.454-0.091-7.328,0.009c-2.566,0.139-4.793-0.619-6.43-2.188
						c-2.194-2.103-3.279-5.588-3.226-10.356c0.013-1.104,0.912-1.993,2.014-1.993c0.008,0,0.016,0,0.023,0
						c1.112,0.014,2.005,0.926,1.992,2.038c-0.04,3.56,0.646,6.12,1.984,7.403c0.835,0.8,1.957,1.154,3.426,1.072
						c2.015-0.107,4.987-0.059,7.609-0.016c1.292,0.021,2.512,0.043,3.499,0.043h59.481c5.802,0,10.521,4.719,10.521,10.521v14.887
						C680.976,416.578,680.074,417.48,678.961,417.48z"/>
				</g>
			</g>
		</g>
	</g>
	<g>
		<g>
			<g>
				<g>
					<path fill="#6A655E" d="M670.879,392.81c-1.113,0-2.016-0.901-2.016-2.015v-10.208c0-3.579-2.912-6.491-6.49-6.491h-11.059
						c-1.113,0-2.016-0.902-2.016-2.016s0.902-2.016,2.016-2.016h11.059c5.801,0,10.521,4.721,10.521,10.522v10.208
						C672.895,391.908,671.992,392.81,670.879,392.81z"/>
				</g>
			</g>
		</g>
	</g>
	<g>
		<g>
			<g>
				<g>
					<path fill="#6A655E" d="M592.704,406.541c-0.646,0-1.225-0.306-1.594-0.783c-0.438-0.508-0.508-1.052-0.508-1.352v-23.819
						c0-5.802,4.72-10.522,10.521-10.522h27.223c1.112,0,2.015,0.902,2.015,2.016s-0.902,2.016-2.015,2.016h-27.223
						c-3.579,0-6.492,2.912-6.492,6.491v23.347c0.065,0.215,0.085,0.405,0.089,0.543c0.027,1.111-0.853,2.036-1.965,2.063
						C592.738,406.541,592.721,406.541,592.704,406.541z"/>
				</g>
			</g>
		</g>
	</g>
	<g>
		<g>
			<g>
				<g>
					<path fill="#6A655E" d="M683.64,434.493h-19.566c-6.957,0-10.947-3.676-10.947-10.085c0-6.982,5.71-10.107,11.37-10.107h6.446
						h12.697c0.534,0,1.047,0.212,1.425,0.59s0.59,0.891,0.59,1.425v16.163C685.654,433.592,684.752,434.493,683.64,434.493z
						 M664.498,418.33c-1.229,0-7.342,0.293-7.342,6.078c0,2.818,0.786,6.055,6.917,6.055h17.551V418.33h-10.682H664.498z"/>
				</g>
			</g>
		</g>
	</g>
	<g>
		<g>
			<g>
				<g>
					<path fill="#6A655E" d="M599.885,392.184c-0.661,0-1.31-0.325-1.695-0.922c-0.604-0.936-0.335-2.183,0.599-2.787l37.835-24.443
						c1.922-1.301,6.376-2.75,9.648,0.99c0.023,0.027,0.046,0.055,0.068,0.082l7.018,8.933l-3.169,2.489l-6.981-8.886
						c-1.776-1.978-4.228-0.337-4.332-0.267c-0.014,0.011-0.029,0.021-0.044,0.03l-37.855,24.457
						C600.638,392.078,600.259,392.184,599.885,392.184z"/>
				</g>
			</g>
		</g>
	</g>
	<g>
		<g>
			<g>
				<g>
					<path fill="#6A655E" d="M609.232,394.072c-0.819,0-1.589-0.504-1.89-1.317c-0.385-1.044,0.148-2.203,1.193-2.589l45.426-16.768
						c2.157-0.807,6.859-1.166,9.147,3.27c0.017,0.031,0.032,0.062,0.047,0.095c1.126,2.495,6.52,13.006,6.575,13.112
						c0.508,0.989,0.117,2.204-0.873,2.713c-0.989,0.507-2.205,0.117-2.713-0.873c-0.223-0.433-5.424-10.566-6.638-13.24
						c-1.179-2.216-3.668-1.467-4.157-1.293l-45.419,16.766C609.701,394.032,609.464,394.072,609.232,394.072z"/>
				</g>
			</g>
		</g>
	</g>
	<g>
		<g>
			<g>
				<g>
					<g>
						<g>
							<path fill="#6A655E" d="M671.73,441.725c-1.113,0-2.016-0.902-2.016-2.016v-3.828c0-1.113,0.902-2.015,2.016-2.015
								c1.112,0,2.015,0.901,2.015,2.015v3.828C673.745,440.822,672.843,441.725,671.73,441.725z"/>
						</g>
					</g>
				</g>
			</g>
			<g>
				<g>
					<g>
						<g>
							<path fill="#6A655E" d="M668.113,450.782c-1.081,0-1.975-0.856-2.013-1.944c-0.038-1.113,0.832-2.046,1.944-2.084l1.67-0.059
								v-1.457c0-1.112,0.902-2.014,2.016-2.014c1.112,0,2.015,0.901,2.015,2.014v3.403c0,1.086-0.86,1.976-1.945,2.014
								l-3.615,0.126C668.16,450.781,668.137,450.782,668.113,450.782z"/>
						</g>
					</g>
				</g>
			</g>
			<g>
				<g>
					<g>
						<g>
							<path fill="#6A655E" d="M609.946,451.002c-1.108,0-2.009-0.895-2.015-2.004c-0.006-1.113,0.891-2.02,2.004-2.026l6.289-0.035
								c0.004,0,0.008,0,0.012,0c1.108,0,2.009,0.895,2.015,2.003c0.006,1.113-0.891,2.021-2.004,2.027l-6.29,0.035
								C609.954,451.002,609.949,451.002,609.946,451.002z M624.375,450.922c-1.108,0-2.009-0.896-2.015-2.004
								c-0.006-1.113,0.891-2.021,2.003-2.027l6.29-0.035c0.003,0,0.008,0,0.012,0c1.107,0,2.009,0.895,2.015,2.004
								c0.006,1.113-0.891,2.02-2.004,2.026l-6.289,0.036C624.383,450.922,624.379,450.922,624.375,450.922z M638.805,450.84
								c-1.108,0-2.009-0.895-2.015-2.003c-0.007-1.112,0.891-2.021,2.003-2.026l6.29-0.035c0.004,0,0.008,0,0.012,0
								c1.107,0,2.009,0.895,2.015,2.004c0.007,1.112-0.891,2.02-2.003,2.025l-6.29,0.035
								C638.812,450.84,638.809,450.84,638.805,450.84z M653.233,450.76c-1.107,0-2.008-0.895-2.015-2.004
								c-0.006-1.113,0.892-2.02,2.004-2.026l6.289-0.035c1.117,0.011,2.021,0.891,2.027,2.003c0.006,1.113-0.891,2.021-2.004,2.027
								l-6.289,0.035C653.241,450.76,653.237,450.76,653.233,450.76z"/>
						</g>
					</g>
				</g>
			</g>
			<g>
				<g>
					<g>
						<g>
							<path fill="#6A655E" d="M594.991,451.086c-1.107,0-2.009-0.896-2.016-2.005c-0.005-1.112,0.892-2.02,2.004-2.026l3.615-0.02
								c0.004,0,0.008,0,0.011,0c1.108,0,2.009,0.895,2.015,2.004c0.006,1.113-0.89,2.02-2.003,2.026l-3.616,0.021
								C594.999,451.086,594.995,451.086,594.991,451.086z"/>
						</g>
					</g>
				</g>
			</g>
		</g>
	</g>
	<g>
		<g>
			<g>
				<g>
					<g>
						<g>
							<path fill="#6A655E" d="M598.997,402.593h-3.828c-1.113,0-2.015-0.901-2.015-2.015s0.902-2.016,2.015-2.016h3.828
								c1.112,0,2.015,0.902,2.015,2.016S600.108,402.593,598.997,402.593z"/>
						</g>
					</g>
				</g>
			</g>
			<g>
				<g>
					<g>
						<g>
							<path fill="#6A655E" d="M657.475,402.593h-6.447c-1.113,0-2.016-0.901-2.016-2.015s0.902-2.016,2.016-2.016h6.447
								c1.113,0,2.016,0.902,2.016,2.016S658.588,402.593,657.475,402.593z M642.967,402.593h-6.448
								c-1.113,0-2.015-0.901-2.015-2.015s0.902-2.016,2.015-2.016h6.448c1.113,0,2.016,0.902,2.016,2.016
								S644.08,402.593,642.967,402.593z M628.459,402.593h-6.448c-1.113,0-2.015-0.901-2.015-2.015s0.902-2.016,2.015-2.016h6.448
								c1.113,0,2.015,0.902,2.015,2.016S629.572,402.593,628.459,402.593z M613.951,402.593h-6.448
								c-1.113,0-2.015-0.901-2.015-2.015s0.901-2.016,2.015-2.016h6.448c1.113,0,2.015,0.902,2.015,2.016
								S615.064,402.593,613.951,402.593z"/>
						</g>
					</g>
				</g>
			</g>
			<g>
				<g>
					<g>
						<g>
							<path fill="#6A655E" d="M671.73,405.996c-1.113,0-2.016-0.902-2.016-2.016v-1.388h-1.388c-1.112,0-2.015-0.901-2.015-2.015
								s0.902-2.016,2.015-2.016h3.403c1.112,0,2.015,0.902,2.015,2.016v3.402C673.745,405.094,672.843,405.996,671.73,405.996z"/>
						</g>
					</g>
				</g>
			</g>
			<g>
				<g>
					<g>
						<g>
							<path fill="#6A655E" d="M671.73,417.055c-1.113,0-2.016-0.902-2.016-2.016v-3.402c0-1.113,0.902-2.016,2.016-2.016
								c1.112,0,2.015,0.902,2.015,2.016v3.402C673.745,416.152,672.843,417.055,671.73,417.055z"/>
						</g>
					</g>
				</g>
			</g>
		</g>
	</g>
</g>
</svg>
