<?xml version="1.0" encoding="utf-8"?>
<!-- Generator: Adobe Illustrator 15.0.0, SVG Export Plug-In . SVG Version: 6.00 Build 0)  -->
<!DOCTYPE svg PUBLIC "-//W3C//DTD SVG 1.1//EN" "http://www.w3.org/Graphics/SVG/1.1/DTD/svg11.dtd">
<svg version="1.1" id="Layer_1" xmlns="http://www.w3.org/2000/svg" xmlns:xlink="http://www.w3.org/1999/xlink" x="0px" y="0px"
	 width="1280px" height="768px" viewBox="0 0 1280 768" enable-background="new 0 0 1280 768" xml:space="preserve">
<g>
	<g>
		<g>
			<g>
				<g>
					<path fill="#6A655E" d="M672.928,462.266h-70.005c-3.962,0-7.186-3.225-7.186-7.187v-89.494c0-3.962,3.224-7.187,7.186-7.187
						h70.005c3.962,0,7.186,3.225,7.186,7.187v89.494C680.113,459.041,676.89,462.266,672.928,462.266z M602.923,362.429
						c-1.74,0-3.156,1.415-3.156,3.156v89.494c0,1.74,1.416,3.155,3.156,3.155h70.005c1.74,0,3.156-1.415,3.156-3.155v-89.494
						c0-1.741-1.416-3.156-3.156-3.156H602.923z"/>
				</g>
			</g>
		</g>
	</g>
	<g>
		<g>
			<g>
				<g>
					<path fill="#6A655E" d="M677.816,387.886h-78.672c-1.113,0-2.015-0.902-2.015-2.015c0-1.113,0.902-2.016,2.015-2.016h78.672
						c1.112,0,2.015,0.902,2.015,2.016C679.831,386.983,678.929,387.886,677.816,387.886z"/>
				</g>
			</g>
		</g>
	</g>
	<g>
		<g>
			<g>
				<g>
					<path fill="#6A655E" d="M648.442,379.72c-3.857,0-6.997-3.139-6.997-6.996c0-3.858,3.14-6.997,6.997-6.997
						c3.858,0,6.997,3.139,6.997,6.997C655.439,376.581,652.301,379.72,648.442,379.72z M648.442,369.756
						c-1.636,0-2.967,1.331-2.967,2.968c0,1.636,1.331,2.966,2.967,2.966s2.966-1.33,2.966-2.966
						C651.408,371.087,650.078,369.756,648.442,369.756z"/>
				</g>
			</g>
		</g>
	</g>
	<g>
		<g>
			<g>
				<g>
					<path fill="#6A655E" d="M665.327,379.277c-3.663,0-6.644-2.98-6.644-6.643c0-3.664,2.98-6.645,6.644-6.645
						s6.644,2.98,6.644,6.645C671.971,376.297,668.99,379.277,665.327,379.277z M665.327,370.02c-1.44,0-2.613,1.174-2.613,2.615
						c0,1.44,1.173,2.613,2.613,2.613c1.441,0,2.614-1.173,2.614-2.613C667.941,371.193,666.769,370.02,665.327,370.02z"/>
				</g>
			</g>
		</g>
	</g>
	<g>
		<g>
			<g>
				<g>
					<path fill="#6A655E" d="M616.357,407.863c-0.435,0-0.872-0.139-1.241-0.428c-0.876-0.686-1.031-1.952-0.344-2.828
						c0.111-0.144,0.341-0.438,0.725-0.646c-0.291,0.156-0.475,0.346-0.547,0.43l0.04-0.048c0.714-0.854,1.984-0.968,2.838-0.255
						c0.854,0.713,0.969,1.983,0.255,2.838c-0.028,0.034-0.063,0.076-0.107,0.125l-0.032,0.039
						C617.548,407.599,616.956,407.863,616.357,407.863z"/>
				</g>
			</g>
		</g>
	</g>
	<g>
		<g>
			<g>
				<g>
					<path fill="#6A655E" d="M638.356,453.82c-16.683,0-30.255-13.572-30.255-30.256c0-4.798,1.152-9.575,3.332-13.816
						c0.508-0.988,1.723-1.38,2.713-0.871c0.99,0.51,1.379,1.725,0.871,2.715c-1.915,3.725-2.886,7.754-2.886,11.973
						c0,14.461,11.765,26.226,26.226,26.226s26.226-11.765,26.226-26.226s-11.765-26.225-26.226-26.225
						c-6.034,0-11.705,1.991-16.401,5.759c-0.868,0.696-2.136,0.559-2.833-0.311c-0.697-0.868-0.558-2.136,0.311-2.833
						c5.341-4.285,12.062-6.646,18.923-6.646c16.683,0,30.255,13.573,30.255,30.256C668.611,440.248,655.039,453.82,638.356,453.82z
						"/>
				</g>
			</g>
		</g>
	</g>
	<g>
		<g>
			<g>
				<g>
					<path fill="#6A655E" d="M638.356,443.744c-10.907,0-19.781-8.873-19.781-19.781s8.874-19.782,19.781-19.782
						c7.608,0,14.63,4.444,17.888,11.324c0.476,1.005,0.046,2.207-0.959,2.683c-1.006,0.477-2.208,0.048-2.684-0.959
						c-2.596-5.479-8.186-9.018-14.245-9.018c-8.685,0-15.751,7.066-15.751,15.752s7.066,15.752,15.751,15.752
						c5.829,0,11.158-3.199,13.907-8.347c0.523-0.981,1.743-1.354,2.726-0.829c0.981,0.524,1.353,1.745,0.829,2.727
						C652.367,439.729,645.677,443.744,638.356,443.744z"/>
				</g>
			</g>
		</g>
	</g>
	<g>
		<g>
			<g>
				<g>
					<path fill="#6A655E" d="M654.423,432.963c-0.179,0-0.36-0.023-0.542-0.074c-4.121-1.146-6.999-4.939-6.999-9.222
						c0-3.786,2.237-7.223,5.7-8.757c1.02-0.449,2.208,0.01,2.658,1.027c0.451,1.018-0.009,2.208-1.025,2.658
						c-2.007,0.889-3.303,2.879-3.303,5.071c0,2.479,1.666,4.675,4.051,5.34c1.072,0.298,1.699,1.409,1.4,2.481
						C656.115,432.379,655.305,432.963,654.423,432.963z"/>
				</g>
			</g>
		</g>
	</g>
	<g>
		<g>
			<g>
				<g>
					<path fill="#6A655E" d="M633.002,417.519c-0.674,0-1.333-0.337-1.714-0.95c-0.586-0.944-0.3-2.184,0.643-2.771
						c0.216-0.135,2.275-1.348,2.549-1.491c0.983-0.521,2.202-0.146,2.724,0.837c0.521,0.983,0.146,2.203-0.838,2.724
						c-0.212,0.116-2.098,1.224-2.303,1.351C633.732,417.421,633.365,417.519,633.002,417.519z"/>
				</g>
			</g>
		</g>
	</g>
	<g>
		<g>
			<g>
				<g>
					<path fill="#6A655E" d="M634.239,436.007c-0.271,0-0.547-0.056-0.811-0.171c-4.458-1.965-7.338-6.381-7.338-11.252
						c0-2.779,0.955-5.504,2.688-7.671c0.695-0.87,1.962-1.01,2.832-0.315c0.869,0.695,1.01,1.964,0.314,2.832
						c-1.18,1.478-1.805,3.26-1.805,5.154c0,3.274,1.937,6.243,4.933,7.564c1.019,0.447,1.48,1.637,1.032,2.655
						C635.752,435.559,635.014,436.007,634.239,436.007z"/>
				</g>
			</g>
		</g>
	</g>
	<g>
		<g>
			<g>
				<g>
					<path fill="#6A655E" d="M626.482,379.931h-19.276c-1.938,0-3.514-1.474-3.514-3.286v-7.004c0-1.812,1.576-3.287,3.514-3.287
						h19.276c1.938,0,3.514,1.475,3.514,3.287v7.004C629.996,378.457,628.42,379.931,626.482,379.931z M607.723,375.9h18.244v-5.516
						h-18.244V375.9z"/>
				</g>
			</g>
		</g>
	</g>
	<g>
		<g>
			<g>
				<g>
					<path fill="#6A655E" d="M637.926,371.778c-0.532,0-1.052-0.218-1.427-0.593c-0.375-0.374-0.588-0.895-0.588-1.426
						c0-0.527,0.213-1.048,0.588-1.423c0.375-0.374,0.895-0.589,1.427-0.589c0.532,0,1.052,0.215,1.426,0.589
						c0.375,0.375,0.588,0.896,0.588,1.423c0,0.531-0.213,1.052-0.588,1.426C638.978,371.561,638.458,371.778,637.926,371.778z"/>
				</g>
			</g>
		</g>
	</g>
	<g>
		<g>
			<g>
				<g>
					<path fill="#6A655E" d="M637.926,377.742c-0.532,0-1.048-0.217-1.427-0.592c-0.375-0.375-0.588-0.895-0.588-1.422
						c0-0.532,0.213-1.053,0.588-1.428c0.379-0.374,0.898-0.588,1.427-0.588c0.528,0,1.047,0.214,1.426,0.588
						c0.375,0.375,0.588,0.896,0.588,1.428c0,0.527-0.213,1.047-0.588,1.422C638.973,377.525,638.458,377.742,637.926,377.742z"/>
				</g>
			</g>
		</g>
	</g>
</g>
</svg>
