<?xml version="1.0" encoding="utf-8"?>
<!-- Generator: Adobe Illustrator 15.0.0, SVG Export Plug-In . SVG Version: 6.00 Build 0)  -->
<!DOCTYPE svg PUBLIC "-//W3C//DTD SVG 1.1//EN" "http://www.w3.org/Graphics/SVG/1.1/DTD/svg11.dtd">
<svg version="1.1" id="Layer_1" xmlns="http://www.w3.org/2000/svg" xmlns:xlink="http://www.w3.org/1999/xlink" x="0px" y="0px"
	 width="1280px" height="768px" viewBox="0 0 1280 768" enable-background="new 0 0 1280 768" xml:space="preserve">
<g>
	<g>
		<g>
			<g>
				<g>
					<path fill="#6A655E" d="M637.6,449.678c-2.75,0-5.327-1.08-7.256-3.042c-3.932-4.001-3.875-10.454,0.125-14.386
						c1.914-1.882,4.447-2.918,7.131-2.918c2.75,0,5.327,1.08,7.255,3.041c1.904,1.938,2.94,4.502,2.918,7.219
						c-0.024,2.718-1.104,5.263-3.041,7.168C642.816,448.642,640.283,449.678,637.6,449.678z M637.599,433.361
						c-1.621,0-3.15,0.626-4.306,1.762c-2.416,2.375-2.45,6.272-0.076,8.688c1.165,1.185,2.721,1.838,4.382,1.838
						c1.621,0,3.15-0.627,4.307-1.764c1.169-1.149,1.822-2.687,1.836-4.327s-0.611-3.189-1.762-4.359
						C640.816,434.014,639.26,433.361,637.599,433.361z"/>
				</g>
			</g>
		</g>
	</g>
	<g>
		<g>
			<g>
				<g>
					<path fill="#6A655E" d="M657.69,429.603l-1.298-1.541c-0.406-0.483-0.834-0.953-1.271-1.398
						c-9.264-9.424-24.466-9.555-33.89-0.292c-0.205,0.201-0.407,0.406-0.604,0.615l-1.387,1.462l-2.925-2.771l1.386-1.463
						c0.229-0.241,0.463-0.48,0.703-0.716c11.009-10.821,28.768-10.669,39.588,0.34c0.51,0.519,1.009,1.066,1.481,1.628l1.298,1.542
						L657.69,429.603z"/>
				</g>
			</g>
		</g>
	</g>
	<g>
		<g>
			<g>
				<g>
					<path fill="#6A655E" d="M667.437,419.672l-1.356-1.49c-0.332-0.365-0.676-0.729-1.023-1.082
						c-7.068-7.192-16.516-11.201-26.6-11.287c-10.083-0.075-19.599,3.758-26.791,10.827c-0.214,0.211-0.424,0.422-0.631,0.636
						l-1.404,1.445l-2.891-2.808l1.404-1.445c0.23-0.237,0.462-0.472,0.699-0.704c7.958-7.821,18.475-12.092,29.648-11.981
						c11.161,0.096,21.616,4.532,29.44,12.492c0.382,0.389,0.762,0.791,1.129,1.194l1.357,1.49L667.437,419.672z"/>
				</g>
			</g>
		</g>
	</g>
	<g>
		<g>
			<g>
				<g>
					<path fill="#6A655E" d="M676.599,410.678l-1.365-1.482c-0.357-0.387-0.738-0.788-1.134-1.19
						c-19.549-19.889-51.635-20.165-71.525-0.614c-0.208,0.204-0.414,0.409-0.617,0.616l-1.411,1.438l-2.877-2.822l1.411-1.438
						c0.219-0.225,0.443-0.447,0.668-0.669c21.474-21.107,56.117-20.809,77.226,0.666c0.425,0.434,0.837,0.864,1.222,1.283
						l1.365,1.482L676.599,410.678z"/>
				</g>
			</g>
		</g>
	</g>
	<g>
		<g>
			<g>
				<g>
					<path fill="#6A655E" d="M685.141,400.979l-1.396-1.452c-0.164-0.17-0.33-0.34-0.496-0.509
						c-24.509-24.934-64.731-25.28-89.663-0.773c-0.33,0.324-0.655,0.65-0.976,0.979l-1.406,1.443l-2.887-2.812l1.406-1.443
						c0.341-0.351,0.688-0.698,1.038-1.042c26.516-26.064,69.294-25.696,95.36,0.821c0.176,0.179,0.352,0.358,0.525,0.54
						l1.398,1.451L685.141,400.979z"/>
				</g>
			</g>
		</g>
	</g>
</g>
</svg>
