<?xml version="1.0" encoding="utf-8"?>
<!-- Generator: Adobe Illustrator 15.0.0, SVG Export Plug-In . SVG Version: 6.00 Build 0)  -->
<!DOCTYPE svg PUBLIC "-//W3C//DTD SVG 1.1//EN" "http://www.w3.org/Graphics/SVG/1.1/DTD/svg11.dtd">
<svg version="1.1" id="Layer_1" xmlns="http://www.w3.org/2000/svg" xmlns:xlink="http://www.w3.org/1999/xlink" x="0px" y="0px"
	 width="1280px" height="768px" viewBox="0 0 1280 768" enable-background="new 0 0 1280 768" xml:space="preserve">
<g>
	<g>
		<g>
			<g>
				<g>
					<path fill="#6A655E" d="M623.383,392.5c-0.331,0-0.668-0.082-0.978-0.255l-18.603-10.367c-0.535-0.298-0.905-0.823-1.006-1.427
						c-0.102-0.604,0.077-1.221,0.486-1.677l7.15-7.99c0.473-0.528,1.19-0.768,1.887-0.634l35.913,6.992
						c1.091,0.214,1.805,1.271,1.592,2.364c-0.212,1.093-1.271,1.805-2.363,1.593l-34.789-6.774l-4.707,5.259l16.402,9.141
						c0.972,0.542,1.321,1.77,0.779,2.741C624.777,392.127,624.091,392.5,623.383,392.5z"/>
				</g>
			</g>
		</g>
	</g>
	<g>
		<g>
			<g>
				<g>
					<path fill="#6A655E" d="M628.781,448.301c-0.487,0-0.964-0.178-1.335-0.506c-0.468-0.415-0.717-1.023-0.675-1.646l2.041-29.885
						c-6.819,2.179-24.139,7.481-34.553,8.605c-1.391,0.15-2.536,0.223-3.502,0.223h0c-1.251,0-5.012,0-6.198-2.959
						c-1.528-2.852-0.575-5.379,0.761-7.059l-10.455-10.589c-0.459-0.465-0.665-1.124-0.55-1.767
						c0.114-0.644,0.533-1.191,1.124-1.471l8.074-3.814c0.524-0.246,1.128-0.257,1.659-0.027l16.424,7.087
						c8.119-3.933,67.267-32.564,72.183-34.411c2.221-0.834,6.523-1.808,11.338-1.808c8.251,0,13.863,2.839,15.804,7.993
						c0.042,0.113,0.074,0.229,0.097,0.348c1.154,6.323-6.844,10.416-7.185,10.587c-0.021,0.011-0.042,0.021-0.062,0.03
						l-35.411,16.274l-18.084,41.726c-0.266,0.611-0.815,1.052-1.468,1.178l-9.645,1.854
						C629.035,448.289,628.907,448.301,628.781,448.301z M631.024,411.41c0.44,0,0.875,0.145,1.233,0.422
						c0.532,0.411,0.823,1.061,0.778,1.73l-2.065,30.25l6.031-1.159l17.968-41.456c0.198-0.456,0.556-0.822,1.007-1.029
						l36.068-16.578c0.359-0.19,5.412-2.947,5.033-6.082c-1.86-4.522-8.272-5.203-11.961-5.203c-4.002,0-7.865,0.778-9.921,1.551
						c-3.997,1.5-49.285,23.332-72.673,34.666c-0.527,0.257-1.139,0.271-1.678,0.037l-16.435-7.092l-4.68,2.211l9.889,10.017
						c0.42,0.426,0.629,1.017,0.572,1.612c-0.06,0.596-0.379,1.135-0.874,1.471c-0.366,0.258-2.205,1.681-1.169,3.521
						c0.057,0.102,0.105,0.207,0.144,0.317c0.001,0.005,0.33,0.446,2.464,0.446h0c0.82,0,1.825-0.065,3.07-0.2
						c12.472-1.346,36.322-9.269,36.561-9.349C630.595,411.445,630.81,411.41,631.024,411.41z"/>
				</g>
			</g>
		</g>
	</g>
	<g>
		<g>
			<g>
				<g>
					<path fill="#6A655E" d="M683.259,382.504c-0.725,0-1.427-0.117-2.073-0.403c-1.163-0.518-2.869-1.995-2.812-3.951
						c0.063-2.194,1.842-3.212,2.799-3.76c0.15-0.086,0.298-0.169,0.434-0.256c1.954-1.245,3.977-2.531,5.025-4.097
						c0.619-0.925,1.871-1.172,2.794-0.552c0.925,0.619,1.173,1.871,0.553,2.796c-1.52,2.267-4.01,3.853-6.207,5.252
						c-0.187,0.118-0.39,0.235-0.598,0.354c-0.171,0.098-0.414,0.236-0.597,0.36c0.085,0.073,0.176,0.139,0.244,0.169
						c0.811,0.36,3.636-0.744,4.564-1.106c0.191-0.074,0.372-0.145,0.539-0.209c2.377-0.906,3.809-1.926,4.505-3.209
						c0.53-0.978,1.753-1.341,2.731-0.81c0.979,0.53,1.342,1.754,0.811,2.731c-1.553,2.862-4.516,4.255-6.61,5.053
						c-0.159,0.061-0.329,0.127-0.51,0.197C687.225,381.699,685.164,382.504,683.259,382.504z"/>
				</g>
			</g>
		</g>
	</g>
	<g>
		<g>
			<g>
				<g>
					<path fill="#6A655E" d="M630.582,423.287c-0.058,0-0.117-0.002-0.176-0.008c-1.108-0.096-1.93-1.072-1.833-2.182l1.117-12.854
						c0.097-1.109,1.076-1.928,2.182-1.834c1.108,0.097,1.929,1.073,1.833,2.182l-1.117,12.854
						C632.497,422.496,631.617,423.287,630.582,423.287z"/>
				</g>
			</g>
		</g>
	</g>
	<g>
		<g>
			<g>
				<g>
					<path fill="#6A655E" d="M589.754,418.816c-0.502,0-1.006-0.188-1.396-0.562l-2.692-2.59c-0.801-0.771-0.826-2.047-0.054-2.85
						c0.771-0.801,2.047-0.826,2.849-0.055l2.691,2.589c0.802,0.772,0.827,2.048,0.055,2.85
						C590.812,418.609,590.283,418.816,589.754,418.816z"/>
				</g>
			</g>
		</g>
	</g>
	<g>
		<g>
			<g>
				<g>
					<g>
						<path fill="#6A655E" d="M602.716,451.139c-0.838,0-1.621-0.527-1.907-1.363c-0.36-1.054,0.202-2.199,1.255-2.559l15.205-5.192
							c1.056-0.36,2.199,0.203,2.558,1.255c0.36,1.054-0.203,2.199-1.255,2.559l-15.205,5.192
							C603.152,451.104,602.932,451.139,602.716,451.139z"/>
					</g>
				</g>
			</g>
		</g>
		<g>
			<g>
				<g>
					<g>
						<path fill="#6A655E" d="M587.911,440.562c-0.851,0-1.641-0.543-1.917-1.396c-0.343-1.059,0.238-2.194,1.297-2.537
							l29.207-9.448c1.061-0.344,2.195,0.237,2.538,1.297c0.343,1.059-0.238,2.194-1.297,2.537l-29.208,9.448
							C588.325,440.531,588.117,440.562,587.911,440.562z"/>
					</g>
				</g>
			</g>
		</g>
	</g>
</g>
</svg>
