<?xml version="1.0" encoding="utf-8"?>
<!-- Generator: Adobe Illustrator 15.0.0, SVG Export Plug-In . SVG Version: 6.00 Build 0)  -->
<!DOCTYPE svg PUBLIC "-//W3C//DTD SVG 1.1//EN" "http://www.w3.org/Graphics/SVG/1.1/DTD/svg11.dtd">
<svg version="1.1" id="Layer_1" xmlns="http://www.w3.org/2000/svg" xmlns:xlink="http://www.w3.org/1999/xlink" x="0px" y="0px"
	 width="1280px" height="768px" viewBox="0 0 1280 768" enable-background="new 0 0 1280 768" xml:space="preserve">
<g>
	<g>
		<g>
			<g>
				<g>
					<path fill="#6A655E" d="M637.951,468.552h-0.42c-1.113,0-2.015-0.901-2.015-2.015s0.902-2.016,2.015-2.016h0.42
						c1.113,0,2.015,0.902,2.015,2.016S639.064,468.552,637.951,468.552z"/>
				</g>
			</g>
		</g>
	</g>
	<g>
		<g>
			<g>
				<g>
					<path fill="#6A655E" d="M648.738,468.552h-5.464c-1.112,0-2.015-0.901-2.015-2.015s0.902-2.016,2.015-2.016h5.464
						c1.113,0,2.015,0.902,2.015,2.016S649.852,468.552,648.738,468.552z"/>
				</g>
			</g>
		</g>
	</g>
	<g>
		<g>
			<g>
				<g>
					<path fill="#6A655E" d="M664.989,468.552h-10.929c-1.112,0-2.014-0.901-2.014-2.015s0.901-2.016,2.014-2.016h10.929
						c1.112,0,2.015,0.902,2.015,2.016S666.102,468.552,664.989,468.552z"/>
				</g>
			</g>
		</g>
	</g>
	<g>
		<g>
			<g>
				<g>
					<path fill="#6A655E" d="M689.611,468.552h-19.859c-1.113,0-2.015-0.901-2.015-2.015s0.901-2.016,2.015-2.016h19.859
						c3.165,0,5.74-2.575,5.74-5.74v-41.968c0-3.166-2.575-5.741-5.74-5.741h-71.579c-3.166,0-5.741,2.575-5.741,5.741v41.968
						c0,3.165,2.575,5.74,5.741,5.74h14.735c1.113,0,2.015,0.902,2.015,2.016s-0.902,2.015-2.015,2.015h-14.735
						c-5.388,0-9.771-4.383-9.771-9.771v-41.968c0-5.388,4.383-9.771,9.771-9.771h71.579c5.387,0,9.77,4.383,9.77,9.771v41.968
						C699.381,464.169,694.998,468.552,689.611,468.552z"/>
				</g>
			</g>
		</g>
	</g>
	<g>
		<g>
			<g>
				<g>
					<path fill="#6A655E" d="M636.839,410.637c-1.113,0-2.016-0.902-2.016-2.015v-3.354c0-5.41,4.564-9.982,9.965-9.982h18.227
						c5.314,0,9.804,4.572,9.804,9.982v2.919c0,1.112-0.901,2.015-2.015,2.015s-2.015-0.902-2.015-2.015v-2.919
						c0-3.227-2.645-5.952-5.774-5.952h-18.227c-3.161,0-5.934,2.782-5.934,5.952v3.354
						C638.854,409.734,637.952,410.637,636.839,410.637z"/>
				</g>
			</g>
		</g>
	</g>
	<g>
		<g>
			<g>
				<g>
					<path fill="#6A655E" d="M619.046,467.602c-1.113,0-2.015-0.902-2.015-2.015v-48.751c0-1.113,0.902-2.016,2.015-2.016
						c1.113,0,2.015,0.902,2.015,2.016v48.751C621.062,466.699,620.16,467.602,619.046,467.602z"/>
				</g>
			</g>
		</g>
	</g>
	<g>
		<g>
			<g>
				<g>
					<path fill="#6A655E" d="M627.755,466.621c-1.113,0-2.016-0.901-2.016-2.014v-47.771c0-1.113,0.902-2.016,2.016-2.016
						c1.112,0,2.015,0.902,2.015,2.016v47.771C629.77,465.72,628.867,466.621,627.755,466.621z"/>
				</g>
			</g>
		</g>
	</g>
	<g>
		<g>
			<g>
				<g>
					<g>
						<path fill="#6A655E" d="M679.979,434.82c-1.113,0-2.016-0.902-2.016-2.015v-15.97c0-1.113,0.902-2.016,2.016-2.016
							c1.112,0,2.016,0.902,2.016,2.016v15.97C681.994,433.918,681.091,434.82,679.979,434.82z"/>
					</g>
				</g>
			</g>
		</g>
		<g>
			<g>
				<g>
					<g>
						<path fill="#6A655E" d="M679.979,440.984c-0.852,0-1.581-0.529-1.875-1.276c-0.357-0.634-0.354-1.432,0.039-2.067
							c0.397-0.642,1.107-1.003,1.852-0.967c0.733,0.007,1.438,0.414,1.787,1.116c0.165,0.329,0.23,0.684,0.208,1.026
							c0.003,0.051,0.005,0.102,0.005,0.153C681.994,440.082,681.091,440.984,679.979,440.984z"/>
					</g>
				</g>
			</g>
		</g>
		<g>
			<g>
				<g>
					<g>
						<path fill="#6A655E" d="M679.979,452.054c-1.113,0-2.016-0.901-2.016-2.015v-5.325c0-1.112,0.902-2.015,2.016-2.015
							c1.112,0,2.016,0.902,2.016,2.015v5.325C681.994,451.152,681.091,452.054,679.979,452.054z"/>
					</g>
				</g>
			</g>
		</g>
		<g>
			<g>
				<g>
					<g>
						<path fill="#6A655E" d="M689.123,468.552h-9.145c-1.113,0-2.016-0.901-2.016-2.015v-10.194c0-1.112,0.902-2.015,2.016-2.015
							c1.112,0,2.016,0.902,2.016,2.015v8.179h5.113v-47.686c0-1.113,0.902-2.016,2.016-2.016s2.015,0.902,2.015,2.016v49.701
							C691.138,467.65,690.236,468.552,689.123,468.552z"/>
					</g>
				</g>
			</g>
		</g>
	</g>
	<g>
		<g>
			<g>
				<g>
					<path fill="#6A655E" d="M640.447,456.854c-0.262,0-0.525-0.051-0.776-0.155c-0.708-0.296-1.186-0.968-1.234-1.733l-0.237-3.783
						l-3.253-1.95c-0.658-0.395-1.035-1.128-0.972-1.893c0.062-0.765,0.553-1.427,1.266-1.71l3.526-1.396l0.85-3.695
						c0.172-0.748,0.753-1.333,1.5-1.51c0.747-0.178,1.528,0.086,2.017,0.677l2.418,2.922l3.777-0.335
						c0.77-0.066,1.5,0.305,1.898,0.959c0.399,0.656,0.392,1.48-0.02,2.127l-2.032,3.203l1.485,3.49
						c0.301,0.705,0.175,1.52-0.325,2.102c-0.499,0.582-1.286,0.83-2.029,0.639l-3.673-0.943l-2.859,2.491
						C641.397,456.684,640.925,456.854,640.447,456.854z M640.519,447.873l0.661,0.396c0.568,0.341,0.933,0.94,0.975,1.603
						l0.048,0.767l0.58-0.505c0.501-0.436,1.185-0.597,1.824-0.433l0.745,0.191l-0.301-0.708c-0.261-0.609-0.203-1.309,0.152-1.868
						l0.412-0.649l-0.766,0.068c-0.656,0.059-1.309-0.213-1.73-0.724l-0.491-0.593l-0.173,0.75
						c-0.148,0.646-0.605,1.178-1.221,1.422L640.519,447.873z"/>
				</g>
			</g>
		</g>
	</g>
	<g>
		<g>
			<g>
				<g>
					<path fill="#6A655E" d="M669.684,461.264c-0.108,0-0.217-0.008-0.324-0.026l-12.246-1.999c-1.099-0.18-1.844-1.215-1.664-2.312
						l3.56-21.814c0.179-1.099,1.212-1.844,2.313-1.664l12.247,1.998c0.527,0.086,0.999,0.379,1.312,0.812
						c0.312,0.434,0.439,0.973,0.353,1.501l-3.562,21.814c-0.086,0.527-0.377,0.999-0.811,1.312
						C670.516,461.133,670.104,461.264,669.684,461.264z M659.751,455.586l8.269,1.35l2.912-17.838l-8.27-1.349L659.751,455.586z"/>
				</g>
			</g>
		</g>
	</g>
	<g>
		<g>
			<g>
				<g>
					<g>
						<path fill="#6A655E" d="M648.33,437.643c-0.527,0-1.035-0.207-1.412-0.578l-9.746-9.577c-0.309-0.304-0.512-0.7-0.579-1.128
							l-0.776-4.99c-0.106-0.686,0.146-1.376,0.669-1.83l3.878-3.373c0.404-0.351,0.905-0.512,1.403-0.492
							c0.119-0.005,0.238,0,0.359,0.016l4.957,0.676c0.427,0.058,0.824,0.25,1.133,0.551l9.442,9.172
							c0.384,0.374,0.604,0.885,0.61,1.421c0.008,0.536-0.199,1.052-0.575,1.435l-7.924,8.094c-0.374,0.383-0.886,0.6-1.421,0.605
							C648.344,437.643,648.337,437.643,648.33,437.643z M640.473,425.08l7.83,7.695l5.098-5.205l-7.516-7.302l-3.542-0.481
							l-2.372,2.062L640.473,425.08z"/>
					</g>
				</g>
			</g>
		</g>
		<g>
			<g>
				<g>
					<g>
						<path fill="#6A655E" d="M643.17,424.973c-0.65,0-1.412-0.307-1.865-1.201c-0.501-0.994-0.104-2.205,0.891-2.708
							c0.025-0.013,0.051-0.024,0.077-0.036c0.048-0.025,0.095-0.049,0.144-0.068c0.75-0.319,1.609-0.163,2.242,0.409
							c0.825,0.747,0.889,2.021,0.143,2.847c-0.128,0.14-0.27,0.258-0.422,0.354c-0.24,0.18-0.509,0.299-0.775,0.357
							C643.469,424.956,643.322,424.973,643.17,424.973z M644.902,421.953l-1.799,0.909l1.799-0.907
							C644.902,421.954,644.902,421.954,644.902,421.953L644.902,421.953z"/>
					</g>
				</g>
			</g>
		</g>
	</g>
	<g>
		<g>
			<g>
				<g>
					<path fill="#6A655E" d="M688.657,405.848h-9.145c-1.113,0-2.015-0.902-2.015-2.016c0-1.112,0.901-2.015,2.015-2.015h9.145
						c1.112,0,2.015,0.902,2.015,2.015C690.672,404.945,689.77,405.848,688.657,405.848z"/>
				</g>
			</g>
		</g>
	</g>
	<g>
		<g>
			<g>
				<g>
					<path fill="#6A655E" d="M629.436,405.848h-9.144c-1.113,0-2.015-0.902-2.015-2.016c0-1.112,0.902-2.015,2.015-2.015h9.144
						c1.113,0,2.015,0.902,2.015,2.015C631.451,404.945,630.549,405.848,629.436,405.848z"/>
				</g>
			</g>
		</g>
	</g>
	<g>
		<g>
			<g>
				<g>
					<path fill="#6A655E" d="M607.515,460.132h-21.083c-4.819,0-8.739-3.472-8.739-7.737v-65.768c0-4.357,3.92-7.901,8.739-7.901
						h38.666c4.749,0,8.612,3.544,8.612,7.901v11.846c0,1.113-0.902,2.016-2.015,2.016c-1.113,0-2.015-0.902-2.015-2.016v-11.846
						c0-2.135-2.056-3.871-4.583-3.871h-38.666c-2.553,0-4.709,1.773-4.709,3.871v65.768c0,2.045,2.112,3.707,4.709,3.707h21.083
						c1.113,0,2.015,0.902,2.015,2.016S608.627,460.132,607.515,460.132z"/>
				</g>
			</g>
		</g>
	</g>
	<g>
		<g>
			<g>
				<g>
					<path fill="#6A655E" d="M620.813,381.547c-1.113,0-2.015-0.902-2.015-2.016v-18.859c0-2.573-1.99-4.515-4.628-4.515h-16.811
						c-2.667,0-4.756,1.983-4.756,4.515v17.65c0,1.113-0.902,2.016-2.015,2.016c-1.113,0-2.015-0.902-2.015-2.016v-17.65
						c0-4.791,3.859-8.545,8.786-8.545h16.811c4.855,0,8.659,3.754,8.659,8.545v18.859
						C622.829,380.645,621.927,381.547,620.813,381.547z"/>
				</g>
			</g>
		</g>
	</g>
	<g>
		<g>
			<g>
				<g>
					<path fill="#6A655E" d="M587.364,467.789c-1.113,0-2.015-0.902-2.015-2.016v-7.254c0-1.112,0.902-2.015,2.015-2.015
						c1.113,0,2.015,0.902,2.015,2.015v7.254C589.379,466.887,588.478,467.789,587.364,467.789z"/>
				</g>
			</g>
		</g>
	</g>
	<g>
		<g>
			<g>
				<g>
					<path fill="#6A655E" d="M593.812,446.833c-1.113,0-2.015-0.901-2.015-2.015v-50.375c0-1.113,0.902-2.016,2.015-2.016
						c1.112,0,2.015,0.902,2.015,2.016v50.375C595.828,445.932,594.925,446.833,593.812,446.833z"/>
				</g>
			</g>
		</g>
	</g>
	<g>
		<g>
			<g>
				<g>
					<path fill="#6A655E" d="M605.902,446.833c-1.113,0-2.015-0.901-2.015-2.015v-50.375c0-1.113,0.902-2.016,2.015-2.016
						c1.113,0,2.015,0.902,2.015,2.016v50.375C607.917,445.932,607.016,446.833,605.902,446.833z"/>
				</g>
			</g>
		</g>
	</g>
	<g>
		<g>
			<g>
				<g>
					<path fill="#6A655E" d="M617.187,402.503c-1.113,0-2.015-0.902-2.015-2.015v-6.045c0-1.113,0.902-2.016,2.015-2.016
						c1.112,0,2.015,0.902,2.015,2.016v6.045C619.202,401.601,618.299,402.503,617.187,402.503z"/>
				</g>
			</g>
		</g>
	</g>
	<g>
		<g>
			<g>
				<g>
					<g>
						<g>
							<g>
								<g>
									<path fill="#6A655E" d="M656.902,381.787c-7.527,0-13.694-6.163-13.746-13.739c-0.053-7.593,6.07-13.812,13.648-13.864
										l0.084-0.001c4.816,0,8.762,2.797,11.098,5.687l22.161-0.152c0.004,0,0.009,0,0.013,0c0.561,0,1.095,0.232,1.477,0.643
										l4.572,4.916c0.707,0.761,0.721,1.934,0.03,2.711l-5.06,5.695c-0.683,0.768-1.832,0.9-2.671,0.307l-1.907-1.349
										l-1.637,1.602c-0.768,0.751-1.986,0.769-2.775,0.042l-1.788-1.648l-1.063,1.178c-0.716,0.792-1.925,0.888-2.757,0.22
										l-1.505-1.208l-2.09,2.279c-0.379,0.412-0.912,0.649-1.472,0.653l-3.23,0.022c-2.614,3.701-6.841,5.977-11.288,6.008
										H656.902z M656.889,358.213h-0.057c-5.355,0.037-9.683,4.437-9.646,9.808c0.037,5.368,4.396,9.736,9.717,9.736h0.066
										c3.368-0.023,6.697-1.99,8.48-5.01c0.36-0.61,1.014-0.985,1.722-0.991l3.438-0.023l2.773-3.022
										c0.718-0.782,1.919-0.874,2.746-0.21l1.494,1.2l1.153-1.277c0.361-0.398,0.866-0.637,1.404-0.661s1.062,0.166,1.457,0.531
										l1.877,1.73l1.471-1.439c0.695-0.682,1.779-0.768,2.572-0.206l1.808,1.279l2.646-2.979l-2.721-2.927L667,363.906
										c-0.004,0-0.009,0-0.014,0c-0.659,0-1.277-0.323-1.654-0.864C663.783,360.814,660.641,358.213,656.889,358.213z"/>
								</g>
							</g>
						</g>
					</g>
				</g>
			</g>
		</g>
		<g>
			<g>
				<g>
					<g>
						<circle fill="#6A655E" cx="656.303" cy="367.764" r="3.184"/>
					</g>
				</g>
			</g>
		</g>
	</g>
</g>
</svg>
