<?xml version="1.0" encoding="utf-8"?>
<!-- Generator: Adobe Illustrator 15.0.0, SVG Export Plug-In . SVG Version: 6.00 Build 0)  -->
<!DOCTYPE svg PUBLIC "-//W3C//DTD SVG 1.1//EN" "http://www.w3.org/Graphics/SVG/1.1/DTD/svg11.dtd">
<svg version="1.1" id="Layer_1" xmlns="http://www.w3.org/2000/svg" xmlns:xlink="http://www.w3.org/1999/xlink" x="0px" y="0px"
	 width="1280px" height="768px" viewBox="0 0 1280 768" enable-background="new 0 0 1280 768" xml:space="preserve">
<g>
	<g>
		<g>
			<g>
				<g>
					<path fill="#6A655E" d="M600.191,427.311c-13.177,0-16.821-3.586-17.804-5.275c-0.925-1.59-0.781-3.934,0.342-5.572
						c1.118-1.631,3.021-2.364,5.227-2.013c1.099,0.175,1.848,1.208,1.673,2.308c-0.176,1.099-1.207,1.848-2.307,1.672
						c-0.927-0.147-1.161,0.166-1.249,0.283c-0.312,0.42-0.291,1.112-0.198,1.305c0.67,1.152,5.49,3.973,19.494,3.09
						c1.11-0.072,2.067,0.774,2.137,1.885c0.07,1.111-0.773,2.068-1.884,2.139C603.654,427.254,601.847,427.311,600.191,427.311z"/>
				</g>
			</g>
		</g>
	</g>
	<g>
		<g>
			<g>
				<g>
					<path fill="#6A655E" d="M605.119,455.771c-12.569,0-14.569-12.011-16.035-20.803c-0.256-1.539-0.499-2.994-0.779-4.326
						c-0.257-1.222-0.864-2.182-1.633-3.396c-0.322-0.509-0.655-1.034-0.984-1.619c-0.547-0.969-0.205-2.198,0.764-2.745
						c0.97-0.547,2.199-0.205,2.746,0.764c0.279,0.496,0.585,0.979,0.88,1.445c0.868,1.371,1.766,2.788,2.172,4.722
						c0.298,1.415,0.548,2.91,0.812,4.493c1.699,10.197,3.569,17.435,12.071,17.435c0.086,0,0.172-0.001,0.259-0.003
						c0.032,0,2.678-0.045,6.807-0.115c14.587-0.249,48.575-0.828,49.558-0.847c12.461-0.547,14.551-11.81,16.572-22.702
						c1.307-7.041,2.436-13.122,6.414-15.918c0.911-0.64,2.168-0.42,2.807,0.49c0.641,0.91,0.422,2.168-0.489,2.807
						c-2.634,1.852-3.671,7.439-4.769,13.357c-1.022,5.506-2.181,11.748-4.951,16.682c-3.354,5.967-8.402,9.014-15.436,9.312
						c-0.044,0.002-0.072,0.003-49.637,0.849c-4.116,0.07-6.757,0.115-6.804,0.115C605.347,455.77,605.231,455.771,605.119,455.771z
						"/>
				</g>
			</g>
		</g>
	</g>
	<g>
		<g>
			<g>
				<g>
					<path fill="#6A655E" d="M597.993,418.697c-1.113,0-2.015-0.902-2.015-2.016v-43.45c0-7.948,6.538-14.413,14.574-14.413h0.18
						c2.935,0,7.159,1.797,9.208,5.13c0.583,0.948,0.288,2.188-0.661,2.772c-0.948,0.582-2.189,0.286-2.772-0.662
						c-1.271-2.066-4.221-3.211-5.775-3.211h-0.18c-5.913,0-10.544,4.561-10.544,10.384v43.45
						C600.008,417.795,599.106,418.697,597.993,418.697z"/>
				</g>
			</g>
		</g>
	</g>
	<g>
		<g>
			<g>
				<g>
					<path fill="#6A655E" d="M606.407,386.295c-0.562,0-1.098-0.235-1.479-0.647c-0.388-0.419-0.58-0.983-0.527-1.554
						c0.463-5.023,4.07-14.523,14.405-14.523c0.385,0,0.782,0.013,1.178,0.039c9.647,0.644,13.424,9.463,14.074,14.036
						c0.081,0.573-0.088,1.154-0.464,1.595c-0.377,0.439-0.925,0.695-1.503,0.703l-25.656,0.351
						C606.425,386.295,606.416,386.295,606.407,386.295z M618.805,373.6c-6.667,0-9.103,5.443-9.958,8.631l20.645-0.281
						c-0.999-2.988-3.575-7.905-9.778-8.318C619.407,373.609,619.101,373.6,618.805,373.6z"/>
				</g>
			</g>
		</g>
	</g>
	<g>
		<g>
			<g>
				<g>
					<path fill="#6A655E" d="M628.909,395.684c-1.029,0-1.907-0.783-2.004-1.828l-0.285-3.072c-0.103-1.108,0.712-2.09,1.82-2.193
						c1.107-0.104,2.09,0.713,2.192,1.82l0.285,3.072c0.104,1.108-0.712,2.09-1.82,2.193
						C629.033,395.682,628.971,395.684,628.909,395.684z"/>
				</g>
			</g>
		</g>
	</g>
	<g>
		<g>
			<g>
				<g>
					<path fill="#6A655E" d="M629.599,401.134c-0.528,0-1.048-0.218-1.423-0.593s-0.592-0.895-0.592-1.422
						c0-0.532,0.217-1.052,0.592-1.428c0.375-0.375,0.895-0.588,1.423-0.588c0.532,0,1.052,0.213,1.426,0.588
						c0.375,0.376,0.589,0.896,0.589,1.428c0,0.527-0.214,1.047-0.589,1.422C630.65,400.916,630.13,401.134,629.599,401.134z"/>
				</g>
			</g>
		</g>
	</g>
	<g>
		<g>
			<g>
				<g>
					<path fill="#6A655E" d="M619.78,396.24L619.78,396.24c-1.114,0-2.015-0.902-2.015-2.016l0-3.771
						c0-1.111,0.902-2.014,2.016-2.014l0,0c1.113,0,2.015,0.902,2.015,2.016l-0.001,3.771
						C621.795,395.339,620.893,396.24,619.78,396.24z"/>
				</g>
			</g>
		</g>
	</g>
	<g>
		<g>
			<g>
				<g>
					<path fill="#6A655E" d="M619.781,402.593c-0.532,0-1.052-0.214-1.426-0.589c-0.375-0.374-0.59-0.895-0.59-1.426
						c0-0.528,0.214-1.049,0.59-1.424c0.374-0.374,0.894-0.592,1.426-0.592c0.528,0,1.048,0.218,1.423,0.592
						c0.375,0.375,0.592,0.896,0.592,1.424c0,0.531-0.218,1.052-0.592,1.426C620.829,402.379,620.309,402.593,619.781,402.593z"/>
				</g>
			</g>
		</g>
	</g>
	<g>
		<g>
			<g>
				<g>
					<path fill="#6A655E" d="M610.511,396.068c-1.113,0-2.015-0.902-2.015-2.016v-3.369c0-1.113,0.902-2.016,2.015-2.016
						s2.015,0.902,2.015,2.016v3.369C612.526,395.166,611.624,396.068,610.511,396.068z"/>
				</g>
			</g>
		</g>
	</g>
	<g>
		<g>
			<g>
				<g>
					<path fill="#6A655E" d="M610.162,402.008c-0.532,0-1.052-0.217-1.426-0.592c-0.375-0.375-0.588-0.895-0.588-1.423
						c0-0.532,0.212-1.052,0.588-1.427c0.375-0.375,0.895-0.588,1.426-0.588c0.528,0,1.048,0.213,1.422,0.588
						c0.375,0.375,0.593,0.895,0.593,1.427c0,0.528-0.218,1.048-0.593,1.423C611.209,401.791,610.689,402.008,610.162,402.008z"/>
				</g>
			</g>
		</g>
	</g>
	<g>
		<g>
			<g>
				<g>
					<path fill="#6A655E" d="M611.79,461.205c-0.018,0-0.034,0-0.052,0c-4.796-0.041-8.354-5.301-8.745-5.9
						c-0.607-0.933-0.342-2.181,0.59-2.787c0.932-0.606,2.178-0.344,2.786,0.587c0.69,1.051,3.163,4.052,5.402,4.07
						c0.007,0.001,0.014,0.001,0.022,0.001c2.161,0,5.544-2.674,7.174-4.367c0.772-0.8,2.046-0.825,2.849-0.055
						c0.802,0.771,0.828,2.045,0.058,2.848C621.323,456.177,616.364,461.205,611.79,461.205z"/>
				</g>
			</g>
		</g>
	</g>
	<g>
		<g>
			<g>
				<g>
					<path fill="#6A655E" d="M653.678,461.205c-0.019,0-0.036,0-0.054,0c-4.794-0.041-8.354-5.301-8.743-5.9
						c-0.607-0.933-0.343-2.181,0.59-2.787c0.932-0.606,2.178-0.344,2.785,0.587c0.691,1.051,3.164,4.052,5.402,4.07
						c0.008,0.001,0.015,0.001,0.022,0.001c2.161,0,5.544-2.674,7.176-4.367c0.771-0.8,2.046-0.825,2.849-0.055
						c0.801,0.771,0.826,2.045,0.057,2.848C663.209,456.177,658.25,461.205,653.678,461.205z"/>
				</g>
			</g>
		</g>
	</g>
	<g>
		<g>
			<g>
				<g>
					<path fill="#6A655E" d="M648.826,420.065c-0.848,0-1.638-0.54-1.915-1.392c-0.345-1.059,0.233-2.195,1.292-2.54
						c1.957-0.638,4.031-1.225,6.164-1.743c1.08-0.264,2.17,0.401,2.434,1.482c0.263,1.082-0.4,2.171-1.482,2.434
						c-2.032,0.494-4.006,1.053-5.867,1.658C649.244,420.033,649.033,420.065,648.826,420.065z"/>
				</g>
			</g>
		</g>
	</g>
	<g>
		<g>
			<g>
				<g>
					<path fill="#6A655E" d="M600.158,419.579c-4.666,0-9.362-0.415-14.087-1.394c-1.09-0.226-1.791-1.292-1.565-2.381
						c0.226-1.091,1.292-1.791,2.381-1.566c17.584,3.639,35.194-1.033,52.224-5.551c11.264-2.988,22.912-6.078,34.602-6.826
						c6.272-0.4,11.198-0.047,15.501,1.109c3.383,0.909,5.654,3.773,5.401,6.811c-0.183,2.194-1.819,4.68-5.866,5.072
						c-0.924,0.09-2.34,0.121-4.3,0.166c-4.669,0.105-12.483,0.282-20.957,1.529c-1.1,0.162-2.124-0.6-2.286-1.7
						c-0.163-1.101,0.599-2.124,1.699-2.286c8.719-1.284,16.69-1.465,21.453-1.572c1.802-0.041,3.227-0.073,4.001-0.148
						c0.644-0.062,2.15-0.323,2.24-1.396c0.077-0.928-0.812-2.148-2.433-2.584c-3.865-1.04-8.377-1.351-14.197-0.979
						c-11.295,0.722-22.748,3.761-33.825,6.699C627.125,416.037,613.774,419.579,600.158,419.579z"/>
				</g>
			</g>
		</g>
	</g>
	<g>
		<g>
			<g>
				<g>
					<path fill="#6A655E" d="M650.904,447.836c-1.078,0-1.971-0.854-2.013-1.938c-0.042-1.112,0.825-2.048,1.937-2.091
						c13.668-0.52,16.377-9.778,17.832-14.752c0.482-1.646,0.801-2.734,1.471-3.473c0.747-0.824,2.021-0.887,2.846-0.139
						c0.801,0.727,0.882,1.951,0.199,2.775c-0.156,0.289-0.428,1.217-0.646,1.967c-1.49,5.094-4.98,17.018-21.547,17.648
						C650.956,447.836,650.93,447.836,650.904,447.836z"/>
				</g>
			</g>
		</g>
	</g>
	<g>
		<g>
			<g>
				<g>
					<path fill="#6A655E" d="M673.629,423.869c-0.361,0-0.727-0.098-1.057-0.301c-0.947-0.584-1.24-1.826-0.656-2.773
						c0.46-0.744,1.052-1.284,1.759-1.604c1.015-0.458,2.208-0.009,2.666,1.006c0.448,0.992,0.027,2.156-0.94,2.636
						c-0.013,0.016-0.031,0.041-0.055,0.08C674.965,423.529,674.305,423.869,673.629,423.869z"/>
				</g>
			</g>
		</g>
	</g>
</g>
</svg>
