<?xml version="1.0" encoding="utf-8"?>
<!-- Generator: Adobe Illustrator 15.0.0, SVG Export Plug-In . SVG Version: 6.00 Build 0)  -->
<!DOCTYPE svg PUBLIC "-//W3C//DTD SVG 1.1//EN" "http://www.w3.org/Graphics/SVG/1.1/DTD/svg11.dtd">
<svg version="1.1" id="Layer_1" xmlns="http://www.w3.org/2000/svg" xmlns:xlink="http://www.w3.org/1999/xlink" x="0px" y="0px"
	 width="1280px" height="768px" viewBox="0 0 1280 768" enable-background="new 0 0 1280 768" xml:space="preserve">
<g>
	<g>
		<g>
			<g>
				<g>
					<g>
						<path fill="#6A655E" d="M692.186,432.492h-3.752c-1.113,0-2.016-0.902-2.016-2.016s0.902-2.015,2.016-2.015h3.752
							c1.112,0,2.014,0.901,2.014,2.015S693.298,432.492,692.186,432.492z"/>
					</g>
				</g>
			</g>
		</g>
		<g>
			<g>
				<g>
					<g>
						<path fill="#6A655E" d="M681.856,432.492h-0.177c-1.113,0-2.016-0.902-2.016-2.016s0.902-2.015,2.016-2.015h0.177
							c1.112,0,2.015,0.901,2.015,2.015S682.969,432.492,681.856,432.492z"/>
					</g>
				</g>
			</g>
		</g>
		<g>
			<g>
				<g>
					<g>
						<path fill="#6A655E" d="M675.529,432.492h-10.973c-1.113,0-2.015-0.902-2.015-2.016s0.901-2.015,2.015-2.015h10.973
							c1.113,0,2.016,0.901,2.016,2.015S676.643,432.492,675.529,432.492z"/>
					</g>
				</g>
			</g>
		</g>
		<g>
			<g>
				<g>
					<g>
						<path fill="#6A655E" d="M693.107,422.938h-29.729c-1.113,0-2.016-0.901-2.016-2.015s0.902-2.016,2.016-2.016h29.729
							c1.113,0,2.015,0.902,2.015,2.016S694.221,422.938,693.107,422.938z"/>
					</g>
				</g>
			</g>
		</g>
		<g>
			<g>
				<g>
					<g>
						<path fill="#6A655E" d="M676.877,448.755c-0.271,0-0.549-0.056-0.813-0.173c-15.104-6.686-14.571-20.573-14.312-23.289
							c0.106-1.108,1.088-1.923,2.197-1.814c1.108,0.106,1.92,1.091,1.814,2.198c-0.213,2.233-0.643,13.654,11.93,19.22
							c1.018,0.451,1.479,1.641,1.027,2.658C678.389,448.307,677.65,448.755,676.877,448.755z"/>
					</g>
				</g>
			</g>
		</g>
		<g>
			<g>
				<g>
					<g>
						<path fill="#6A655E" d="M679.746,448.755c-0.773,0-1.512-0.447-1.846-1.2c-0.449-1.018,0.01-2.207,1.027-2.658
							c13.659-6.045,11.98-18.93,11.902-19.475c-0.157-1.1,0.604-2.122,1.701-2.283c1.102-0.161,2.121,0.594,2.285,1.691
							c0.025,0.169,0.607,4.209-0.861,9.139c-1.357,4.563-4.785,10.803-13.396,14.613
							C680.295,448.699,680.018,448.755,679.746,448.755z"/>
					</g>
				</g>
			</g>
		</g>
		<g>
			<g>
				<g>
					<g>
						<path fill="#6A655E" d="M688.098,465.785H668.33c-0.889,0-1.672-0.582-1.928-1.433c-0.257-0.851,0.072-1.769,0.812-2.261
							l9.192-6.107v-8.613c0-1.113,0.902-2.016,2.015-2.016c1.113,0,2.017,0.902,2.017,2.016v9.692c0,0.675-0.339,1.306-0.899,1.679
							l-4.535,3.013h13.094c1.113,0,2.016,0.902,2.016,2.015C690.113,464.883,689.211,465.785,688.098,465.785z"/>
					</g>
				</g>
			</g>
		</g>
		<g>
			<g>
				<g>
					<g>
						<path fill="#6A655E" d="M688.518,465.785c-0.4,0-0.803-0.118-1.154-0.363l-9.949-6.957c-0.912-0.638-1.135-1.894-0.496-2.806
							c0.637-0.913,1.895-1.134,2.805-0.497l9.95,6.957c0.911,0.637,1.134,1.894,0.497,2.806
							C689.777,465.485,689.152,465.785,688.518,465.785z"/>
					</g>
				</g>
			</g>
		</g>
	</g>
	<g>
		<g>
			<g>
				<g>
					<g>
						<path fill="#6A655E" d="M612.677,432.492h-4.312c-1.113,0-2.016-0.902-2.016-2.016s0.902-2.015,2.016-2.015h4.312
							c1.112,0,2.015,0.901,2.015,2.015S613.789,432.492,612.677,432.492z"/>
					</g>
				</g>
			</g>
		</g>
		<g>
			<g>
				<g>
					<g>
						<path fill="#6A655E" d="M602.348,432.492h-0.178c-1.113,0-2.016-0.902-2.016-2.016s0.902-2.015,2.016-2.015h0.178
							c1.112,0,2.014,0.901,2.014,2.015S603.46,432.492,602.348,432.492z"/>
					</g>
				</g>
			</g>
		</g>
		<g>
			<g>
				<g>
					<g>
						<path fill="#6A655E" d="M596.459,432.492h-11.412c-1.111,0-2.014-0.902-2.014-2.016s0.902-2.015,2.014-2.015h11.412
							c1.113,0,2.015,0.901,2.015,2.015S597.572,432.492,596.459,432.492z"/>
					</g>
				</g>
			</g>
		</g>
		<g>
			<g>
				<g>
					<g>
						<path fill="#6A655E" d="M613.6,422.938h-29.73c-1.113,0-2.014-0.901-2.014-2.015s0.9-2.016,2.014-2.016h29.73
							c1.113,0,2.016,0.902,2.016,2.016S614.713,422.938,613.6,422.938z"/>
					</g>
				</g>
			</g>
		</g>
		<g>
			<g>
				<g>
					<g>
						<path fill="#6A655E" d="M597.369,448.755c-0.273,0-0.551-0.056-0.814-0.173c-15.104-6.686-14.572-20.573-14.312-23.289
							c0.107-1.108,1.09-1.923,2.199-1.814c1.107,0.106,1.92,1.091,1.814,2.198c-0.215,2.233-0.645,13.654,11.93,19.22
							c1.018,0.451,1.477,1.641,1.027,2.658C598.879,448.307,598.142,448.755,597.369,448.755z"/>
					</g>
				</g>
			</g>
		</g>
		<g>
			<g>
				<g>
					<g>
						<path fill="#6A655E" d="M600.236,448.755c-0.773,0-1.511-0.447-1.844-1.2c-0.45-1.018,0.01-2.207,1.027-2.658
							c13.742-6.082,11.923-19.335,11.902-19.469c-0.165-1.101,0.594-2.126,1.693-2.292c1.102-0.163,2.127,0.594,2.292,1.694
							c0.026,0.169,0.606,4.209-0.86,9.139c-1.359,4.563-4.787,10.803-13.396,14.613
							C600.787,448.699,600.509,448.755,600.236,448.755z"/>
					</g>
				</g>
			</g>
		</g>
		<g>
			<g>
				<g>
					<g>
						<path fill="#6A655E" d="M608.59,465.785h-19.768c-0.889,0-1.672-0.582-1.93-1.433c-0.256-0.851,0.074-1.769,0.814-2.261
							l9.193-6.107v-8.613c0-1.113,0.901-2.016,2.014-2.016c1.113,0,2.016,0.902,2.016,2.016v9.692c0,0.675-0.338,1.306-0.898,1.679
							l-4.535,3.013h13.094c1.111,0,2.015,0.902,2.015,2.015C610.604,464.883,609.701,465.785,608.59,465.785z"/>
					</g>
				</g>
			</g>
		</g>
		<g>
			<g>
				<g>
					<g>
						<path fill="#6A655E" d="M609.008,465.785c-0.399,0-0.802-0.118-1.152-0.363l-9.951-6.957
							c-0.912-0.638-1.135-1.894-0.496-2.806c0.639-0.913,1.895-1.134,2.807-0.497l9.949,6.957c0.912,0.637,1.135,1.894,0.496,2.806
							C610.27,465.485,609.643,465.785,609.008,465.785z"/>
					</g>
				</g>
			</g>
		</g>
	</g>
	<g>
		<g>
			<g>
				<g>
					<path fill="#6A655E" d="M644.363,384.857c-1.113,0-2.016-0.901-2.016-2.015v-24.575h-7.005v24.575
						c0,1.113-0.902,2.015-2.015,2.015c-1.113,0-2.015-0.901-2.015-2.015v-26.591c0-1.113,0.901-2.015,2.015-2.015h11.035
						c1.111,0,2.014,0.901,2.014,2.015v26.591C646.377,383.956,645.475,384.857,644.363,384.857z"/>
				</g>
			</g>
		</g>
	</g>
	<g>
		<g>
			<g>
				<g>
					<path fill="#6A655E" d="M633.715,376.623c-1.108,0-2.01-0.896-2.016-2.005c-0.006-1.112,0.891-2.02,2.004-2.025l10.367-0.056
						c0.003,0,0.008,0,0.012,0c1.107,0,2.008,0.895,2.014,2.004c0.006,1.112-0.891,2.02-2.004,2.025l-10.367,0.057
						C633.721,376.623,633.719,376.623,633.715,376.623z"/>
				</g>
			</g>
		</g>
	</g>
	<g>
		<g>
			<g>
				<g>
					<path fill="#6A655E" d="M647.766,436.424h-17.84c-1.112,0-2.016-0.901-2.016-2.015v-21.63c0-1.113,0.903-2.016,2.016-2.016
						h17.84c1.113,0,2.016,0.902,2.016,2.016v21.63C649.781,435.522,648.879,436.424,647.766,436.424z M631.94,432.395h13.81
						v-17.601h-13.81V432.395z"/>
				</g>
			</g>
		</g>
	</g>
	<g>
		<g>
			<g>
				<g>
					<path fill="#6A655E" d="M651.377,395.424c-0.667,0-1.319-0.331-1.703-0.936c-2.125-3.352-5.258-5.564-5.291-5.586
						c-0.91-0.637-1.135-1.893-0.498-2.805c0.635-0.911,1.888-1.139,2.801-0.504c0.154,0.107,3.816,2.676,6.391,6.734
						c0.597,0.94,0.319,2.186-0.621,2.781C652.121,395.322,651.746,395.424,651.377,395.424z"/>
				</g>
			</g>
		</g>
	</g>
	<g>
		<g>
			<g>
				<g>
					<path fill="#6A655E" d="M653.264,466.102H624.1c-1.111,0-2.012-0.898-2.016-2.01c-0.006-2.48-0.162-60.796,0.021-64.485
						c0.42-8.56,8.87-13.46,9.229-13.665c0.97-0.551,2.198-0.211,2.749,0.756c0.549,0.966,0.213,2.193-0.752,2.745
						c-0.072,0.042-6.891,4.036-7.203,10.362c-0.158,3.212-0.047,51.718-0.02,62.267h25.16c0.064-6.292,0.258-26.22,0.338-41.857
						c0.006-1.109,0.906-2.005,2.016-2.005c0.003,0,0.006,0,0.01,0c1.113,0.006,2.01,0.912,2.006,2.025
						c-0.098,18.737-0.357,43.624-0.359,43.873C655.268,465.212,654.369,466.102,653.264,466.102z"/>
				</g>
			</g>
		</g>
	</g>
	<g>
		<g>
			<g>
				<g>
					<path fill="#6A655E" d="M644.801,457.848c-1.111,0-2.014-0.902-2.014-2.015v-13.385c0-1.112,0.902-2.016,2.014-2.016
						c1.113,0,2.016,0.903,2.016,2.016v13.385C646.816,456.945,645.914,457.848,644.801,457.848z"/>
				</g>
			</g>
		</g>
	</g>
	<g>
		<g>
			<g>
				<g>
					<g>
						<path fill="#6A655E" d="M651.563,416.167c-1.106,0-2.007-0.893-2.015-2.001c0,0-0.012-1.641-0.012-4.012
							c0-1.112,0.902-2.016,2.015-2.016s2.015,0.903,2.015,2.016c0,2.352,0.012,3.98,0.012,3.984c0.008,1.112-0.889,2.021-2,2.028
							C651.572,416.167,651.568,416.167,651.563,416.167z"/>
					</g>
				</g>
			</g>
		</g>
		<g>
			<g>
				<g>
					<g>
						<path fill="#6A655E" d="M651.693,396.614c-1.104,0-2.004-0.891-2.014-1.997l-0.035-4.125c-0.01-1.112,0.885-2.022,1.996-2.032
							c1.111-0.022,2.023,0.885,2.033,1.997l0.035,4.125c0.01,1.112-0.885,2.022-1.998,2.032
							C651.705,396.614,651.699,396.614,651.693,396.614z"/>
					</g>
				</g>
			</g>
		</g>
		<g>
			<g>
				<g>
					<g>
						<path fill="#6A655E" d="M663.584,404.537c0,0,0,0-0.002,0h-4.684c-1.113,0-2.016-0.902-2.016-2.016s0.902-2.015,2.016-2.015
							l4.687,0.001c1.112,0,2.015,0.903,2.015,2.016C665.6,403.637,664.697,404.537,663.584,404.537z"/>
					</g>
				</g>
			</g>
		</g>
		<g>
			<g>
				<g>
					<g>
						<path fill="#6A655E" d="M639.545,404.537c-1.111,0-2.014-0.9-2.014-2.014c-0.002-1.112,0.9-2.016,2.014-2.016l4.658-0.001
							c1.113,0,2.016,0.901,2.016,2.015s-0.902,2.016-2.016,2.016h-4.656H639.545z"/>
					</g>
				</g>
			</g>
		</g>
		<g>
			<g>
				<g>
					<g>
						<path fill="#6A655E" d="M651.732,412.285c-0.525,0-1.029-0.204-1.406-0.57l-7.961-7.75c-0.79-0.768-0.816-2.027-0.059-2.828
							l7.961-8.424c0.387-0.408,0.925-0.641,1.489-0.631c0.563,0.007,1.098,0.249,1.475,0.668l7.397,8.225
							c0.697,0.775,0.688,1.956-0.022,2.721l-7.399,7.947c-0.369,0.397-0.883,0.629-1.426,0.643
							C651.766,412.285,651.748,412.285,651.732,412.285z M646.6,402.463l5.061,4.926l4.738-5.09l-4.703-5.229L646.6,402.463z"/>
					</g>
				</g>
			</g>
		</g>
	</g>
</g>
</svg>
