<?xml version="1.0" encoding="utf-8"?>
<!-- Generator: Adobe Illustrator 15.0.0, SVG Export Plug-In . SVG Version: 6.00 Build 0)  -->
<!DOCTYPE svg PUBLIC "-//W3C//DTD SVG 1.1//EN" "http://www.w3.org/Graphics/SVG/1.1/DTD/svg11.dtd">
<svg version="1.1" id="Layer_1" xmlns="http://www.w3.org/2000/svg" xmlns:xlink="http://www.w3.org/1999/xlink" x="0px" y="0px"
	 width="1280px" height="768px" viewBox="0 0 1280 768" enable-background="new 0 0 1280 768" xml:space="preserve">
<g>
	<g>
		<g>
			<g>
				<g>
					<g>
						<path fill="#6A655E" d="M660.822,470.38h-42.487c-0.761,0-1.426-0.514-1.62-1.251l-14.889-56.779
							c-0.133-0.504-0.023-1.037,0.293-1.447c0.317-0.412,0.807-0.652,1.326-0.652h70.678c0.511,0,0.994,0.234,1.312,0.634
							c0.318,0.401,0.435,0.925,0.318,1.422l-13.303,56.78C662.273,469.844,661.599,470.38,660.822,470.38z M619.627,467.031h39.867
							l12.518-53.433h-66.397L619.627,467.031z"/>
					</g>
				</g>
			</g>
			<g>
				<g>
					<g>
						<path fill="#6A655E" d="M660.822,470.752h-42.487c-0.93,0-1.745-0.628-1.98-1.527l-14.889-56.78
							c-0.163-0.619-0.032-1.265,0.358-1.771s0.982-0.797,1.622-0.797h70.678c0.628,0,1.213,0.283,1.604,0.775
							c0.39,0.492,0.531,1.126,0.389,1.738l-13.303,56.781C662.596,470.102,661.777,470.752,660.822,470.752z M603.446,410.623
							c-0.407,0-0.782,0.185-1.031,0.507c-0.249,0.321-0.331,0.731-0.228,1.125l14.89,56.779c0.15,0.572,0.668,0.972,1.259,0.972
							h42.487c0.606,0,1.127-0.412,1.267-1.005l13.302-56.78c0.091-0.389,0.001-0.792-0.247-1.105
							c-0.248-0.312-0.62-0.492-1.02-0.492H603.446z M659.79,467.404h-40.45l-14.209-54.179h67.352L659.79,467.404z
							 M619.915,466.658h39.284l12.343-52.687h-65.444L619.915,466.658z"/>
					</g>
				</g>
			</g>
		</g>
	</g>
	<g>
		<g>
			<g>
				<g>
					<g>
						<g>
							<path fill="#6A655E" d="M621.909,408.668c-0.396,0-0.792-0.139-1.11-0.421l-7.545-6.684
								c-0.342-0.305-0.546-0.737-0.562-1.195c-0.016-0.459,0.157-0.903,0.478-1.23l7.082-7.214c0.647-0.659,1.707-0.67,2.367-0.021
								c0.118,0.115,0.215,0.244,0.292,0.381c0.054,0.041,0.107,0.086,0.158,0.135l6.618,6.354c0.663,0.637,0.689,1.688,0.059,2.355
								l-6.618,7.016C622.798,408.491,622.354,408.668,621.909,408.668z M616.794,400.226l5.011,4.439l4.365-4.627l-4.732-4.544
								L616.794,400.226z"/>
						</g>
					</g>
				</g>
				<g>
					<g>
						<g>
							<path fill="#6A655E" d="M621.909,409.041c-0.501,0-0.984-0.184-1.357-0.516l-7.545-6.683
								c-0.418-0.373-0.669-0.905-0.688-1.462c-0.02-0.557,0.193-1.105,0.584-1.504l7.082-7.214c0.388-0.396,0.907-0.613,1.46-0.613
								c0.54,0,1.049,0.208,1.434,0.587c0.12,0.117,0.227,0.251,0.316,0.397c0.044,0.035,0.088,0.074,0.131,0.115l6.617,6.354
								c0.806,0.775,0.838,2.067,0.071,2.88l-6.618,7.016C623.013,408.807,622.471,409.041,621.909,409.041z M621.446,391.795
								c-0.352,0-0.682,0.139-0.928,0.391l-7.082,7.213c-0.248,0.254-0.384,0.603-0.372,0.957c0.012,0.354,0.171,0.692,0.438,0.93
								l7.543,6.683c0.504,0.448,1.346,0.411,1.809-0.081l6.618-7.016c0.488-0.517,0.467-1.338-0.045-1.831l-6.617-6.354
								c-0.041-0.039-0.083-0.073-0.126-0.106l-0.062-0.047l-0.038-0.067c-0.062-0.11-0.138-0.21-0.227-0.296
								C622.112,391.928,621.789,391.795,621.446,391.795z M621.828,405.184l-5.575-4.939l5.177-5.274l5.265,5.056L621.828,405.184z
								 M617.335,400.207l4.446,3.939l3.864-4.096l-4.199-4.032L617.335,400.207z"/>
						</g>
					</g>
				</g>
			</g>
		</g>
		<g>
			<g>
				<g>
					<g>
						<g>
							<path fill="#6A655E" d="M609.711,413.025c-0.67,0-1.303-0.404-1.561-1.066l-1.699-4.357
								c-0.335-0.861,0.091-1.831,0.953-2.168c0.861-0.335,1.832,0.091,2.167,0.952l1.699,4.358c0.336,0.86-0.09,1.831-0.951,2.168
								C610.118,412.989,609.913,413.025,609.711,413.025z"/>
						</g>
					</g>
				</g>
				<g>
					<g>
						<g>
							<path fill="#6A655E" d="M609.711,413.398c-0.851,0-1.599-0.512-1.908-1.305l-1.699-4.357
								c-0.41-1.051,0.113-2.239,1.165-2.649c0.239-0.093,0.488-0.14,0.743-0.14c0.85,0,1.599,0.512,1.907,1.303l1.698,4.358
								c0.41,1.052-0.111,2.24-1.163,2.65C610.215,413.352,609.965,413.398,609.711,413.398z M608.012,405.692
								c-0.161,0-0.32,0.03-0.472,0.089c-0.669,0.262-1.001,1.017-0.741,1.685l1.699,4.357c0.197,0.504,0.672,0.829,1.213,0.829
								c0.162,0,0.32-0.029,0.473-0.089c0.667-0.261,1-1.016,0.738-1.684l-1.698-4.358
								C609.028,406.018,608.552,405.692,608.012,405.692z"/>
						</g>
					</g>
				</g>
			</g>
		</g>
		<g>
			<g>
				<g>
					<g>
						<g>
							<path fill="#6A655E" d="M619.239,412.531c-0.692,0-1.339-0.434-1.58-1.125l-1.82-5.221l-7.305,2.398
								c-0.877,0.289-1.824-0.188-2.114-1.068c-0.288-0.878,0.19-1.824,1.069-2.112l8.868-2.911
								c0.867-0.284,1.803,0.178,2.103,1.039l2.361,6.773c0.304,0.872-0.158,1.827-1.031,2.131
								C619.608,412.499,619.422,412.531,619.239,412.531z"/>
						</g>
					</g>
				</g>
				<g>
					<g>
						<g>
							<path fill="#6A655E" d="M619.239,412.903c-0.869,0-1.646-0.553-1.932-1.375l-1.7-4.874l-6.958,2.284
								c-0.208,0.067-0.422,0.103-0.639,0.103c-0.887,0-1.667-0.566-1.944-1.408c-0.352-1.073,0.235-2.232,1.307-2.584l8.868-2.911
								c0.207-0.067,0.422-0.103,0.638-0.103c0.871,0,1.646,0.552,1.933,1.374l2.36,6.772c0.18,0.516,0.148,1.071-0.089,1.564
								c-0.239,0.492-0.654,0.861-1.17,1.042C619.692,412.865,619.467,412.903,619.239,412.903z M616.07,405.718l1.941,5.565
								c0.229,0.658,0.968,1.04,1.657,0.801c0.328-0.114,0.592-0.351,0.744-0.663c0.151-0.313,0.171-0.666,0.057-0.993l-2.361-6.773
								c-0.182-0.522-0.676-0.873-1.229-0.873c-0.137,0-0.274,0.021-0.406,0.064l-8.868,2.912c-0.682,0.224-1.054,0.96-0.83,1.643
								c0.176,0.535,0.672,0.895,1.235,0.895c0.138,0,0.274-0.021,0.407-0.064L616.07,405.718z"/>
						</g>
					</g>
				</g>
			</g>
		</g>
	</g>
	<g>
		<g>
			<g>
				<g>
					<g>
						<path fill="#6A655E" d="M663.928,412.586c-0.396,0-0.791-0.139-1.109-0.42l-3.9-3.456c-0.344-0.304-0.547-0.735-0.562-1.194
							c-0.018-0.458,0.156-0.904,0.479-1.23l7.08-7.215c0.646-0.658,1.707-0.668,2.366-0.021c0.661,0.647,0.67,1.707,0.022,2.366
							l-5.848,5.956l2.582,2.288c0.691,0.612,0.756,1.672,0.145,2.362C664.851,412.396,664.389,412.586,663.928,412.586z"/>
					</g>
				</g>
			</g>
			<g>
				<g>
					<g>
						<path fill="#6A655E" d="M663.928,412.959c-0.5,0-0.982-0.183-1.357-0.514l-3.9-3.456c-0.418-0.37-0.669-0.903-0.688-1.462
							c-0.021-0.557,0.192-1.105,0.585-1.504l7.081-7.215c0.387-0.395,0.906-0.611,1.459-0.611c0.54,0,1.049,0.208,1.435,0.586
							c0.39,0.383,0.607,0.893,0.613,1.439s-0.202,1.064-0.586,1.455l-5.573,5.676l2.289,2.027c0.408,0.361,0.652,0.862,0.686,1.408
							s-0.148,1.072-0.511,1.48C665.073,412.707,664.515,412.959,663.928,412.959z M667.107,398.942
							c-0.352,0-0.682,0.139-0.928,0.39l-7.08,7.214c-0.25,0.253-0.385,0.602-0.371,0.956c0.011,0.355,0.17,0.693,0.436,0.929
							l3.9,3.456c0.238,0.21,0.544,0.326,0.863,0.326c0.373,0,0.729-0.16,0.975-0.438c0.23-0.26,0.345-0.594,0.323-0.941
							c-0.021-0.347-0.176-0.664-0.437-0.895l-2.874-2.549l6.122-6.235c0.243-0.249,0.375-0.577,0.372-0.925
							s-0.142-0.672-0.39-0.914C667.773,399.075,667.451,398.942,667.107,398.942z"/>
					</g>
				</g>
			</g>
		</g>
	</g>
	<g>
		<g>
			<g>
				<g>
					<g>
						<path fill="#6A655E" d="M670.416,412.801c-0.412,0-0.825-0.151-1.148-0.457c-0.672-0.635-0.704-1.693-0.068-2.366l2.635-2.793
							l-5.42-5.204c-0.669-0.64-0.69-1.699-0.049-2.367c0.639-0.666,1.7-0.688,2.365-0.048l6.619,6.354
							c0.661,0.636,0.688,1.688,0.058,2.356l-3.774,4C671.305,412.624,670.861,412.801,670.416,412.801z"/>
					</g>
				</g>
			</g>
			<g>
				<g>
					<g>
						<path fill="#6A655E" d="M670.416,413.174c-0.524,0-1.023-0.199-1.404-0.559c-0.398-0.376-0.625-0.884-0.642-1.431
							c-0.016-0.546,0.183-1.065,0.559-1.464l2.38-2.523l-5.153-4.947c-0.394-0.378-0.618-0.887-0.63-1.434s0.191-1.065,0.57-1.461
							c0.389-0.405,0.913-0.629,1.477-0.629c0.531,0,1.034,0.202,1.416,0.57l6.618,6.353c0.808,0.776,0.84,2.069,0.072,2.882
							l-3.774,4C671.514,412.945,670.984,413.174,670.416,413.174z M667.572,399.473c-0.358,0-0.691,0.142-0.938,0.398
							c-0.242,0.252-0.371,0.582-0.363,0.93s0.148,0.671,0.4,0.911l5.687,5.459l-2.888,3.062c-0.238,0.253-0.365,0.583-0.355,0.931
							c0.011,0.347,0.155,0.67,0.408,0.908c0.242,0.229,0.559,0.355,0.893,0.355c0.361,0,0.698-0.145,0.946-0.408l3.774-4
							c0.487-0.517,0.467-1.339-0.046-1.832l-6.618-6.354C668.229,399.601,667.91,399.473,667.572,399.473z"/>
					</g>
				</g>
			</g>
		</g>
	</g>
	<g>
		<g>
			<g>
				<g>
					<g>
						<path fill="#6A655E" d="M627.469,413.201c-0.123,0-0.247-0.013-0.373-0.041c-0.901-0.205-1.466-1.103-1.261-2.004
							c0.116-0.504,2.84-12.413,5.632-19.594c1.427-3.668,4.256-6.414,6.992-9.069c3.006-2.919,6.115-5.937,7.682-10.341
							c0.289-0.809,1.145-1.27,1.977-1.064l9.625,2.363c0.803,0.196,1.342,0.951,1.268,1.774
							c-0.681,7.634,0.619,12.402,1.662,16.233c0.446,1.633,0.831,3.044,1.018,4.466c0.63,4.846-2.305,15.591-2.43,16.047
							c-0.244,0.892-1.168,1.415-2.059,1.17c-0.893-0.245-1.415-1.166-1.17-2.059c0.803-2.92,2.787-11.259,2.336-14.726
							c-0.156-1.195-0.512-2.503-0.926-4.018c-0.992-3.644-2.33-8.556-1.874-15.976l-6.833-1.678
							c-1.933,4.375-5.11,7.459-7.944,10.21c-2.591,2.516-5.04,4.892-6.203,7.88c-2.703,6.952-5.459,19.001-5.486,19.123
							C628.923,412.675,628.232,413.201,627.469,413.201z"/>
					</g>
				</g>
			</g>
			<g>
				<g>
					<g>
						<path fill="#6A655E" d="M657.646,413.574c-0.184,0-0.367-0.024-0.545-0.073c-0.527-0.146-0.966-0.486-1.236-0.961
							c-0.27-0.476-0.338-1.028-0.193-1.556c0.797-2.901,2.769-11.178,2.326-14.579c-0.154-1.176-0.508-2.47-0.916-3.968
							c-0.977-3.584-2.309-8.474-1.904-15.785l-6.23-1.529c-1.973,4.291-5.115,7.342-7.896,10.04
							c-2.563,2.487-4.983,4.837-6.116,7.749c-2.683,6.898-5.443,18.951-5.47,19.068c-0.215,0.939-1.036,1.594-1.996,1.594
							c-0.155,0-0.309-0.018-0.457-0.051c-1.099-0.25-1.791-1.35-1.541-2.449c0.115-0.506,2.854-12.464,5.648-19.646
							c1.457-3.745,4.315-6.52,7.08-9.202c2.977-2.89,6.054-5.877,7.59-10.198c0.291-0.814,1.066-1.361,1.93-1.361
							c0.164,0,0.328,0.021,0.487,0.06l9.626,2.363c0.988,0.242,1.641,1.155,1.549,2.17c-0.675,7.567,0.615,12.3,1.65,16.103
							c0.45,1.643,0.837,3.062,1.026,4.515c0.64,4.908-2.312,15.736-2.438,16.195C659.377,412.956,658.564,413.574,657.646,413.574z
							 M648.52,374.25l7.438,1.826l-0.019,0.311c-0.452,7.361,0.886,12.27,1.862,15.854c0.416,1.524,0.774,2.841,0.937,4.067
							c0.457,3.523-1.539,11.932-2.347,14.873c-0.093,0.336-0.05,0.688,0.123,0.99c0.171,0.301,0.45,0.518,0.784,0.609
							c0.114,0.031,0.23,0.048,0.348,0.048c0.584,0,1.1-0.394,1.254-0.956c0.124-0.453,3.038-11.14,2.418-15.9
							c-0.183-1.402-0.564-2.799-1.006-4.415c-1.052-3.86-2.361-8.664-1.674-16.365c0.057-0.635-0.366-1.228-0.984-1.38
							l-9.625-2.363c-0.64-0.156-1.317,0.212-1.537,0.828c-1.595,4.485-4.735,7.534-7.773,10.482
							c-2.708,2.628-5.507,5.345-6.905,8.938c-2.773,7.132-5.501,19.038-5.616,19.541c-0.159,0.699,0.281,1.398,0.98,1.558
							c0.094,0.021,0.191,0.031,0.291,0.031c0.601,0,1.134-0.426,1.268-1.012c0.026-0.115,2.797-12.218,5.502-19.175
							c1.192-3.063,3.668-5.468,6.29-8.012c2.795-2.713,5.961-5.785,7.865-10.094L648.52,374.25z"/>
					</g>
				</g>
			</g>
		</g>
	</g>
	<g>
		<g>
			<g>
				<g>
					<g>
						<path fill="#6A655E" d="M657.535,376.693c-0.126,0-0.254-0.014-0.381-0.044c-0.9-0.21-1.46-1.108-1.25-2.009l4.381-18.824
							l-5.736-1.505l-4.877,19.081c-0.23,0.896-1.143,1.436-2.037,1.208c-0.896-0.229-1.436-1.141-1.208-2.037l5.294-20.714
							c0.111-0.431,0.39-0.802,0.773-1.027c0.385-0.227,0.844-0.291,1.274-0.177l8.939,2.346c0.877,0.23,1.412,1.116,1.206,1.998
							l-4.75,20.409C658.984,376.172,658.295,376.693,657.535,376.693z"/>
					</g>
				</g>
			</g>
			<g>
				<g>
					<g>
						<path fill="#6A655E" d="M657.535,377.065c-0.158,0-0.314-0.018-0.465-0.053c-1.1-0.257-1.785-1.359-1.53-2.457l4.3-18.472
							l-5.022-1.316l-4.784,18.717c-0.232,0.908-1.049,1.541-1.984,1.541c-0.17,0-0.341-0.021-0.506-0.063
							c-1.093-0.279-1.755-1.396-1.478-2.489l5.294-20.715c0.137-0.525,0.48-0.983,0.947-1.257c0.465-0.274,1.035-0.354,1.558-0.216
							l8.938,2.346c1.08,0.283,1.729,1.356,1.475,2.443l-4.75,20.408C659.311,376.414,658.49,377.065,657.535,377.065z
							 M654.281,353.855l6.449,1.691l-4.463,19.178c-0.163,0.698,0.272,1.398,0.971,1.562c0.096,0.021,0.195,0.033,0.297,0.033
							c0.606,0,1.128-0.414,1.266-1.007l4.75-20.408c0.162-0.69-0.25-1.373-0.938-1.554l-8.939-2.346
							c-0.334-0.088-0.693-0.037-0.99,0.138c-0.296,0.174-0.515,0.465-0.602,0.8l-5.294,20.713
							c-0.177,0.695,0.245,1.405,0.939,1.583c0.104,0.027,0.213,0.041,0.321,0.041c0.595,0,1.113-0.403,1.262-0.98L654.281,353.855z
							"/>
					</g>
				</g>
			</g>
		</g>
	</g>
	<g>
		<g>
			<g>
				<g>
					<g>
						<path fill="#6A655E" d="M634.219,413.599c-0.173,0-0.348-0.027-0.521-0.083c-0.879-0.288-1.357-1.234-1.071-2.112
							c0.893-2.724,3.125-9.49,4.584-13.493l0.177-0.486c1.304-3.602,2.651-7.326,9.363-5.124c0.845,0.277,1.546,0.516,2.222,0.744
							c0.953,0.325,1.857,0.632,3.045,1.007c1.641,0.519,2.727,1.342,3.318,2.515c1.293,2.567,0.076,6.111-2.591,13.875
							l-0.466,1.354c-0.299,0.875-1.254,1.341-2.125,1.041c-0.874-0.299-1.34-1.251-1.041-2.126l0.467-1.357
							c2.062-6.005,3.424-9.971,2.766-11.28c-0.068-0.132-0.244-0.483-1.338-0.83c-1.221-0.386-2.14-0.697-3.111-1.027
							c-0.666-0.226-1.357-0.461-2.19-0.732c-2.686-0.882-3.316-0.395-3.524-0.234c-0.62,0.48-1.095,1.795-1.645,3.316l-0.179,0.493
							c-1.484,4.067-3.857,11.275-4.549,13.388C635.578,413.151,634.923,413.599,634.219,413.599z"/>
					</g>
				</g>
			</g>
			<g>
				<g>
					<g>
						<path fill="#6A655E" d="M634.219,413.972c-0.214,0-0.429-0.034-0.637-0.102c-1.073-0.352-1.66-1.51-1.31-2.583
							c0.897-2.736,3.139-9.53,4.588-13.505l0.177-0.485c1.022-2.826,2.182-6.029,6.176-6.029c1.067,0,2.263,0.221,3.653,0.678
							c0.776,0.255,1.431,0.477,2.056,0.688l0.169,0.058c0.969,0.33,1.865,0.633,3.038,1.004c1.741,0.551,2.899,1.435,3.538,2.703
							c1.365,2.707,0.132,6.296-2.568,14.159l-0.467,1.358c-0.283,0.828-1.062,1.384-1.938,1.384c-0.225,0-0.447-0.038-0.662-0.111
							c-1.066-0.365-1.638-1.531-1.273-2.599l0.467-1.358c1.959-5.702,3.374-9.822,2.785-10.991
							c-0.116-0.229-0.492-0.444-1.116-0.642c-1.245-0.395-2.198-0.718-3.118-1.03l-0.107-0.037
							c-0.633-0.215-1.293-0.438-2.079-0.695c-1.001-0.328-1.805-0.494-2.391-0.494c-0.529,0-0.706,0.136-0.791,0.201
							c-0.532,0.412-1.011,1.736-1.52,3.139l-0.182,0.503c-1.482,4.064-3.853,11.267-4.545,13.377
							C635.887,413.404,635.106,413.972,634.219,413.972z M643.214,392.013c-3.471,0-4.445,2.69-5.475,5.538l-0.177,0.486
							c-1.447,3.965-3.685,10.749-4.581,13.482c-0.223,0.682,0.15,1.418,0.832,1.642c0.132,0.043,0.269,0.064,0.405,0.064
							c0.563,0,1.06-0.36,1.236-0.896c0.692-2.113,3.066-9.325,4.552-13.399l0.179-0.492c0.595-1.646,1.063-2.939,1.767-3.484
							c0.139-0.107,0.463-0.357,1.247-0.357c0.665,0,1.547,0.179,2.622,0.532c0.789,0.257,1.452,0.482,2.086,0.698l0.108,0.037
							c0.917,0.311,1.866,0.633,3.104,1.023c1.098,0.348,1.408,0.725,1.556,1.016c0.73,1.452-0.577,5.262-2.745,11.571l-0.466,1.357
							c-0.231,0.679,0.131,1.42,0.81,1.652c0.137,0.047,0.277,0.07,0.42,0.07c0.557,0,1.052-0.354,1.232-0.88l0.465-1.355
							c2.632-7.662,3.832-11.157,2.61-13.585c-0.545-1.079-1.558-1.841-3.098-2.327c-1.18-0.373-2.081-0.678-3.054-1.009
							l-0.168-0.058c-0.623-0.211-1.275-0.432-2.049-0.686C645.338,392.229,644.188,392.013,643.214,392.013z"/>
					</g>
				</g>
			</g>
		</g>
	</g>
	<g>
		<g>
			<g>
				<g>
					<g>
						<path fill="#6A655E" d="M624.423,394.771c-0.319,0-0.642-0.092-0.928-0.283c-0.77-0.512-0.977-1.551-0.464-2.32l3.043-4.566
							c0.449-0.672,1.314-0.929,2.056-0.608l5.294,2.283c0.85,0.366,1.241,1.351,0.875,2.199c-0.367,0.849-1.353,1.241-2.201,0.876
							l-4.013-1.731l-2.27,3.405C625.494,394.509,624.963,394.771,624.423,394.771z"/>
					</g>
				</g>
			</g>
			<g>
				<g>
					<g>
						<path fill="#6A655E" d="M624.423,395.145c-0.405,0-0.797-0.12-1.135-0.346c-0.455-0.303-0.764-0.765-0.872-1.301
							c-0.106-0.536,0.001-1.081,0.305-1.536l3.043-4.567c0.38-0.57,1.018-0.911,1.704-0.911c0.28,0,0.553,0.057,0.811,0.167
							l5.294,2.283c1.036,0.446,1.516,1.653,1.07,2.689c-0.325,0.752-1.064,1.238-1.883,1.238c-0.278,0-0.551-0.057-0.808-0.168
							l-3.727-1.607l-2.098,3.146C625.746,394.803,625.108,395.145,624.423,395.145z M627.468,387.229
							c-0.436,0-0.841,0.216-1.083,0.579l-3.044,4.566c-0.192,0.29-0.261,0.636-0.193,0.977s0.265,0.634,0.554,0.827
							c0.215,0.144,0.464,0.22,0.721,0.22c0.436,0,0.842-0.217,1.084-0.58l2.442-3.664l4.298,1.854
							c0.164,0.07,0.335,0.106,0.513,0.106c0.521,0,0.991-0.31,1.198-0.787c0.284-0.658-0.021-1.426-0.68-1.709l-5.295-2.283
							C627.819,387.265,627.646,387.229,627.468,387.229z"/>
					</g>
				</g>
			</g>
		</g>
	</g>
	<g>
		<g>
			<g>
				<g>
					<g>
						<path fill="#6A655E" d="M633.325,368.631c-0.925,0-1.674-0.75-1.674-1.674V355.64c0-0.925,0.75-1.674,1.674-1.674
							c0.923,0,1.673,0.749,1.673,1.674v11.317C634.998,367.881,634.248,368.631,633.325,368.631z"/>
					</g>
				</g>
			</g>
			<g>
				<g>
					<g>
						<path fill="#6A655E" d="M633.325,369.004c-1.128,0-2.047-0.918-2.047-2.047V355.64c0-1.129,0.918-2.047,2.047-2.047
							c1.129,0,2.047,0.918,2.047,2.047v11.317C635.372,368.086,634.454,369.004,633.325,369.004z M633.325,354.339
							c-0.718,0-1.301,0.583-1.301,1.301v11.317c0,0.717,0.583,1.301,1.301,1.301c0.717,0,1.301-0.584,1.301-1.301V355.64
							C634.625,354.922,634.042,354.339,633.325,354.339z"/>
					</g>
				</g>
			</g>
		</g>
	</g>
	<g>
		<g>
			<g>
				<g>
					<g>
						<path fill="#6A655E" d="M638.783,363.171h-11.315c-0.924,0-1.674-0.749-1.674-1.675c0-0.924,0.75-1.674,1.674-1.674h11.315
							c0.926,0,1.675,0.75,1.675,1.674C640.458,362.422,639.709,363.171,638.783,363.171z"/>
					</g>
				</g>
			</g>
			<g>
				<g>
					<g>
						<path fill="#6A655E" d="M638.783,363.543h-11.315c-1.128,0-2.047-0.918-2.047-2.047s0.918-2.047,2.047-2.047h11.315
							c1.13,0,2.048,0.918,2.048,2.047S639.913,363.543,638.783,363.543z M627.468,360.194c-0.718,0-1.302,0.584-1.302,1.302
							s0.584,1.302,1.302,1.302h11.315c0.718,0,1.303-0.584,1.303-1.302s-0.584-1.302-1.303-1.302H627.468z"/>
					</g>
				</g>
			</g>
		</g>
	</g>
	<g>
		<g>
			<g>
				<g>
					<g>
						<path fill="#6A655E" d="M621.611,381.139c-0.925,0-1.674-0.75-1.674-1.675v-8.14c0-0.925,0.749-1.674,1.674-1.674
							c0.925,0,1.674,0.749,1.674,1.674v8.14C623.285,380.389,622.536,381.139,621.611,381.139z"/>
					</g>
				</g>
			</g>
			<g>
				<g>
					<g>
						<path fill="#6A655E" d="M621.611,381.512c-1.128,0-2.046-0.919-2.046-2.048v-8.14c0-1.129,0.918-2.047,2.046-2.047
							s2.046,0.918,2.046,2.047v8.14C623.657,380.593,622.739,381.512,621.611,381.512z M621.611,370.023
							c-0.717,0-1.301,0.583-1.301,1.301v8.14c0,0.718,0.584,1.302,1.301,1.302c0.718,0,1.301-0.584,1.301-1.302v-8.14
							C622.912,370.606,622.329,370.023,621.611,370.023z"/>
					</g>
				</g>
			</g>
		</g>
	</g>
	<g>
		<g>
			<g>
				<g>
					<g>
						<path fill="#6A655E" d="M625.482,377.267h-8.14c-0.924,0-1.673-0.749-1.673-1.675c0-0.924,0.749-1.674,1.673-1.674h8.14
							c0.925,0,1.674,0.75,1.674,1.674C627.156,376.518,626.407,377.267,625.482,377.267z"/>
					</g>
				</g>
			</g>
			<g>
				<g>
					<g>
						<path fill="#6A655E" d="M625.482,377.64h-8.14c-1.129,0-2.047-0.919-2.047-2.048s0.918-2.047,2.047-2.047h8.14
							c1.129,0,2.046,0.918,2.046,2.047S626.612,377.64,625.482,377.64z M617.343,374.291c-0.718,0-1.301,0.584-1.301,1.301
							c0,0.718,0.583,1.302,1.301,1.302h8.14c0.718,0,1.301-0.584,1.301-1.302c0-0.717-0.583-1.301-1.301-1.301H617.343z"/>
					</g>
				</g>
			</g>
		</g>
	</g>
</g>
</svg>
