<?xml version="1.0" encoding="utf-8"?>
<!-- Generator: Adobe Illustrator 15.0.0, SVG Export Plug-In . SVG Version: 6.00 Build 0)  -->
<!DOCTYPE svg PUBLIC "-//W3C//DTD SVG 1.1//EN" "http://www.w3.org/Graphics/SVG/1.1/DTD/svg11.dtd">
<svg version="1.1" id="Layer_1" xmlns="http://www.w3.org/2000/svg" xmlns:xlink="http://www.w3.org/1999/xlink" x="0px" y="0px"
	 width="1280px" height="768px" viewBox="0 0 1280 768" enable-background="new 0 0 1280 768" xml:space="preserve">
<g>
	<g>
		<g>
			<g>
				<g>
					<path fill="#6A655E" d="M679.989,448.043c0.489,0,0.968-0.196,1.314-0.543c0.346-0.346,0.548-0.83,0.548-1.319
						c0-0.49-0.202-0.969-0.548-1.314c-0.697-0.697-1.937-0.697-2.634,0c-0.348,0.346-0.544,0.824-0.544,1.314
						c0,0.489,0.196,0.974,0.544,1.319C679.015,447.847,679.5,448.043,679.989,448.043z"/>
				</g>
			</g>
		</g>
	</g>
	<g>
		<g>
			<g>
				<g>
					<path fill="#6A655E" d="M697.357,430.76c0.006,0,0.012,0,0.019,0c1.022,0,1.622-0.893,1.622-1.913c0-0.005,0-0.012,0-0.018
						c0-0.604-0.189-1.138-0.639-1.474l0.07-0.029c-0.354-0.277-0.809-0.426-1.293-0.389c-0.978,0.074-1.721,0.896-1.721,1.861
						c0,0.048,0.002,0.107,0.006,0.155C695.496,429.924,696.38,430.76,697.357,430.76z"/>
				</g>
			</g>
		</g>
	</g>
	<g>
		<g>
			<g>
				<g>
					<path fill="#6A655E" d="M689.308,439.592c0.007,0,0.013,0,0.019,0c1.022,0,1.622-0.892,1.622-1.912c0-0.006,0-0.012,0-0.018
						c0-0.604-0.188-1.137-0.638-1.473l0.069-0.03c-0.354-0.278-0.809-0.426-1.292-0.39c-0.979,0.075-1.721,0.897-1.721,1.862
						c0,0.048,0.002,0.107,0.006,0.155C687.446,438.756,688.33,439.592,689.308,439.592z"/>
				</g>
			</g>
		</g>
	</g>
	<g>
		<g>
			<g>
				<g>
					<path fill="#6A655E" d="M690.018,447.84c0.006,0,0.012,0,0.019,0c1.021,0,1.622-0.892,1.622-1.911c0-0.007,0-0.013,0-0.019
						c0-0.604-0.189-1.137-0.639-1.473l0.07-0.029c-0.354-0.279-0.809-0.427-1.293-0.391c-0.977,0.075-1.721,0.898-1.721,1.862
						c0,0.048,0.002,0.107,0.006,0.155C688.156,447.004,689.04,447.84,690.018,447.84z"/>
				</g>
			</g>
		</g>
	</g>
	<g>
		<g>
			<g>
				<g>
					<path fill="#6A655E" d="M697.003,436.781c0,0.418,0.14,0.858,0.427,1.205c0.561,0.68,1.398,0.756,1.564,0.756
						c0.01,0,0.016,0,0.021,0c1.015,0,1.579-0.934,1.579-1.944c0-0.013,0-0.026,0-0.039c0-0.817-0.435-1.497-1.171-1.733
						l0.089-0.009c-0.603-0.222-1.303-0.121-1.832,0.317C697.233,435.702,697.003,436.245,697.003,436.781z"/>
				</g>
			</g>
		</g>
	</g>
	<g>
		<g>
			<g>
				<g>
					<path fill="#6A655E" d="M701.127,445.949c0-0.824-0.61-1.52-1.354-1.758l-0.099-0.014c-0.523-0.191-1.127-0.149-1.635,0.173
						c-0.561,0.354-0.867,0.953-0.867,1.571c0,0.34,0.093,0.674,0.289,0.983c0.551,0.871,1.543,0.885,1.693,0.885
						c0.003,0,0.007,0,0.008,0c1.023,0,1.965-0.802,1.965-1.823C701.127,445.961,701.127,445.955,701.127,445.949z"/>
				</g>
			</g>
		</g>
	</g>
	<g>
		<g>
			<g>
				<g>
					<path fill="#6A655E" d="M618.713,417.159c-7.415,0-13.448,6.031-13.448,13.445c0,7.415,6.033,13.445,13.448,13.445
						c7.413,0,13.444-6.03,13.444-13.445C632.157,423.19,626.126,417.159,618.713,417.159z M618.713,440.324
						c-5.36,0-9.722-4.359-9.722-9.72s4.362-9.72,9.722-9.72c5.358,0,9.718,4.359,9.718,9.72S624.072,440.324,618.713,440.324z"/>
				</g>
			</g>
		</g>
	</g>
	<g>
		<g>
			<g>
				<g>
					<path fill="#6A655E" d="M640.632,414.707c0.013-0.021,0.022-0.045,0.034-0.066c-1.076-1.058-2.068-2.201-2.985-3.4
						c-0.003,0.013-0.006,0.026-0.009,0.04c-4.942-4.851-11.708-7.85-19.163-7.85c-15.095,0-27.376,12.281-27.376,27.376
						c0,8.632,4.019,16.338,10.279,21.359c-11.776-1.001-21.054-10.899-21.054-22.931c0-9.224,9.059-19.416,13.85-23.516
						c0.501-0.431,1.292-1.268,2.488-2.535c3.101-3.288,8.746-9.267,14.569-13.424c0.612-0.057,1.139-0.45,1.44-0.988
						c3.236-2.12,6.468-3.567,9.292-3.567c6.827,0,11.936,0.688,14.677,4.048c2.345,2.874,3.039,7.962,2.104,15.451
						c0.087,0.122,0.162,0.263,0.209,0.435c0.122,0.441,0.295,0.859,0.507,1.244c0.235-0.011,0.488,0.052,0.745,0.223
						c0.298,0.197,0.588,0.303,0.873,0.347c0.49-0.28,0.946-0.74,1.277-1.237c1.166-8.821,0.29-14.85-2.708-18.656l0.903-2.602
						c1.325-3.82-0.744-8.155-4.519-9.467l-3.833-1.33c-3.688-1.279-7.793,0.838-9.144,4.725l-0.69,1.99
						c-0.129,0.371-0.132,0.755-0.034,1.107c-0.124-0.001-0.243-0.004-0.367-0.004c-3.67,0-7.647,1.764-11.499,4.298
						c-1.184-0.032-2.272-0.07-3.269-0.105c-6.464-0.229-9.708-0.344-13.066,2.107c-3.18,2.321-8.92,7.882-11.679,10.554
						l-0.688,0.666c-2.583,2.492-3.202,7.976-3.265,8.592c-0.013,0.136-0.012,0.272,0.004,0.408c0.027,0.227,0.667,5.59,0.967,7.64
						c0.078,0.531,0.377,0.972,0.786,1.255c-2.159,3.906-3.658,8.156-3.658,12.343c0,14.748,11.998,26.746,26.745,26.746
						c0.791,0,1.604-0.049,2.417-0.144c0.33-0.038,0.625-0.167,0.875-0.35c3.585,1.728,7.601,2.696,11.84,2.696
						c15.096,0,27.378-12.282,27.378-27.378C645.887,424.793,643.933,419.229,640.632,414.707z M626.607,379.607
						c0.676-1.946,2.651-3.036,4.403-2.428l3.832,1.33c1.835,0.638,2.874,2.846,2.221,4.726l-0.387,1.114
						c-2.819-1.794-6.436-2.532-10.754-2.771L626.607,379.607z M584.384,401.695l0.692-0.654c2.488-2.409,8.313-8.021,11.283-10.189
						c2.104-1.534,4.338-1.551,9.181-1.383c-4.656,3.846-8.804,8.242-11.556,11.158c-0.993,1.054-1.851,1.962-2.202,2.263
						c-2.581,2.21-5.98,5.716-8.907,9.881c-0.252-1.97-0.531-4.291-0.615-4.994C582.479,405.934,583.214,402.824,584.384,401.695z
						 M618.509,454.459c-13.041,0-23.65-10.61-23.65-23.652c0-13.041,10.609-23.65,23.65-23.65c13.042,0,23.651,10.609,23.651,23.65
						C642.16,443.849,631.551,454.459,618.509,454.459z"/>
				</g>
			</g>
		</g>
	</g>
	<g>
		<g>
			<g>
				<g>
					<path fill="#6A655E" d="M617.804,429.102c-0.346,0.346-0.543,0.825-0.543,1.314c0,0.49,0.197,0.969,0.543,1.32
						c0.346,0.346,0.831,0.543,1.32,0.543c0.49,0,0.969-0.197,1.314-0.543c0.347-0.352,0.549-0.83,0.549-1.32
						c0-0.489-0.202-0.969-0.549-1.314C619.747,428.404,618.501,428.404,617.804,429.102z"/>
				</g>
			</g>
		</g>
	</g>
	<g>
		<g>
			<g>
				<g>
					<path fill="#6A655E" d="M634.521,374.01c0.952,0.392,2.041-0.062,2.432-1.014c2.135-5.191,6.16-7.957,11.045-7.583
						c4.942,0.376,10.785,4.278,12.697,12.149c2.098,8.641,1.577,29.406,1.116,47.729c-0.153,6.106-0.298,10.273-0.34,15.307
						c-0.009,1.028,0.818,1.87,1.847,1.87c0.005,0,0.011,0,0.017,0c1.021,0,1.854-0.815,1.862-1.84
						c0.041-5.001,0.186-9.149,0.339-15.239c0.466-18.554,0.994-39.584-1.222-48.704c-2.037-8.388-8.48-14.41-16.033-14.985
						c-6.506-0.499-12.025,3.197-14.773,9.88C633.116,372.53,633.57,373.619,634.521,374.01z"/>
				</g>
			</g>
		</g>
	</g>
	<g>
		<g>
			<g>
				<g>
					<path fill="#6A655E" d="M653.493,446.46c0,1.028,0.834,1.862,1.863,1.862h15.434c1.028,0,1.862-0.834,1.862-1.862
						c0-1.029-0.834-1.863-1.862-1.863h-15.434C654.327,444.597,653.493,445.431,653.493,446.46z"/>
				</g>
			</g>
		</g>
	</g>
	<g>
		<g>
			<g>
				<g>
					<path fill="#6A655E" d="M643.381,453.911c0,1.029,0.834,1.862,1.863,1.862h38.852c1.028,0,1.862-0.833,1.862-1.862
						s-0.834-1.862-1.862-1.862h-38.852C644.215,452.049,643.381,452.882,643.381,453.911z"/>
				</g>
			</g>
		</g>
	</g>
</g>
</svg>
