<?xml version="1.0" encoding="utf-8"?>
<!-- Generator: Adobe Illustrator 15.0.0, SVG Export Plug-In . SVG Version: 6.00 Build 0)  -->
<!DOCTYPE svg PUBLIC "-//W3C//DTD SVG 1.1//EN" "http://www.w3.org/Graphics/SVG/1.1/DTD/svg11.dtd">
<svg version="1.1" id="Layer_1" xmlns="http://www.w3.org/2000/svg" xmlns:xlink="http://www.w3.org/1999/xlink" x="0px" y="0px"
	 width="1280px" height="768px" viewBox="0 0 1280 768" enable-background="new 0 0 1280 768" xml:space="preserve">
<g>
	<g>
		<g>
			<g>
				<g>
					<path fill="#6A655E" d="M632.01,465.249h-38.506c-3.295,0-6.08-2.853-6.08-6.229v-97.553c0-3.416,2.729-6.195,6.08-6.195
						h73.164c3.262,0,5.916,2.779,5.916,6.195v21.75h-4.031v-21.75c0-1.064-0.705-2.166-1.885-2.166h-73.164
						c-1.092,0-2.05,1.013-2.05,2.166v97.553c0,1.172,0.958,2.199,2.05,2.199h38.506V465.249z"/>
				</g>
			</g>
		</g>
	</g>
	<g>
		<g>
			<g>
				<g>
					<rect x="637.691" y="461.219" fill="#6A655E" width="8.273" height="4.03"/>
				</g>
			</g>
		</g>
	</g>
	<g>
		<g>
			<g>
				<g>
					<rect x="651.754" y="461.219" fill="#6A655E" width="0.285" height="4.03"/>
				</g>
			</g>
		</g>
	</g>
	<g>
		<g>
			<g>
				<g>
					<path fill="#6A655E" d="M666.668,465.249h-9.096v-4.03h9.096c1.164,0,1.885-1.142,1.885-2.199V435.45h4.031v23.569
						C672.584,462.454,669.93,465.249,666.668,465.249z"/>
				</g>
			</g>
		</g>
	</g>
	<g>
		<g>
			<g>
				<g>
					<path fill="#6A655E" d="M683.172,435.983h-25.209c-3.354,0-6.08-2.728-6.08-6.08v-40.398c0-3.353,2.727-6.08,6.08-6.08h25.209
						c3.354,0,6.08,2.728,6.08,6.08v40.398C689.252,433.256,686.525,435.983,683.172,435.983z M657.963,387.455
						c-1.131,0-2.051,0.92-2.051,2.05v40.398c0,1.131,0.92,2.05,2.051,2.05h25.209c1.131,0,2.051-0.919,2.051-2.05v-40.398
						c0-1.13-0.92-2.05-2.051-2.05H657.963z"/>
				</g>
			</g>
		</g>
	</g>
	<g>
		<g>
			<g>
				<g>
					<path fill="#6A655E" d="M679.434,405.607h-16.967c-0.795,0-1.516-0.467-1.84-1.191s-0.193-1.572,0.336-2.165l8.414-9.438
						c0.381-0.427,0.924-0.671,1.496-0.674c0.003,0,0.006,0,0.008,0c0.568,0,1.111,0.24,1.493,0.662l8.553,9.437
						c0.536,0.592,0.673,1.441,0.349,2.17C680.953,405.138,680.231,405.607,679.434,405.607z M666.963,401.577h7.926l-3.996-4.408
						L666.963,401.577z"/>
				</g>
			</g>
		</g>
	</g>
	<g>
		<g>
			<g>
				<g>
					<path fill="#6A655E" d="M670.881,426.898c-0.002,0-0.005,0-0.008,0c-0.572-0.002-1.116-0.247-1.496-0.674l-8.414-9.438
						c-0.529-0.592-0.66-1.439-0.336-2.165c0.324-0.725,1.045-1.19,1.84-1.19h16.967c0.798,0,1.52,0.47,1.842,1.198
						c0.324,0.729,0.188,1.579-0.349,2.169l-8.553,9.438C671.992,426.658,671.449,426.898,670.881,426.898z M666.963,417.461
						l3.93,4.409l3.996-4.409H666.963z"/>
				</g>
			</g>
		</g>
	</g>
	<g>
		<g>
			<g>
				<g>
					<path fill="#6A655E" d="M622.864,386.613c-5.306,0-9.622-4.316-9.622-9.623c0-5.305,4.316-9.621,9.622-9.621
						s9.622,4.316,9.622,9.621C632.486,382.297,628.17,386.613,622.864,386.613z M622.864,371.399c-3.083,0-5.592,2.508-5.592,5.591
						c0,3.084,2.509,5.593,5.592,5.593c3.084,0,5.593-2.509,5.593-5.593C628.457,373.907,625.948,371.399,622.864,371.399z"/>
				</g>
			</g>
		</g>
	</g>
	<g>
		<g>
			<g>
				<g>
					<path fill="#6A655E" d="M617.786,453.087c-4.001,0-5.37-3.985-5.536-6.092c-0.004-0.052-0.006-0.104-0.006-0.157v-37.7
						c-0.406,0.659-0.811,1.317-1.215,1.978c-1.188,1.934-2.418,3.935-3.664,5.889c-1.358,2.128-3.171,3.299-5.104,3.299
						c-0.391,0-0.782-0.049-1.17-0.145c-0.646-0.162-1.278-0.457-1.883-0.876c-2.389-1.663-3.191-4.909-1.866-7.551
						c1.134-2.263,2.352-4.526,3.53-6.714c0.412-0.77,0.826-1.537,1.235-2.305c0.352-0.66,0.694-1.342,1.058-2.063
						c1.148-2.284,2.337-4.646,3.981-6.649c3.294-4.011,7.023-6.13,10.789-6.13h10.118c4.422,0,8.682,2.233,11.111,5.828
						c1.34,1.985,9.236,17.101,9.707,18.384c0.353,0.964,1.046,3.43-0.13,5.516c-0.467,0.828-1.407,1.891-3.24,2.248
						c-0.38,0.075-0.762,0.113-1.136,0.113c-2.484,0-4.602-1.586-6.293-4.713c-1.218-2.255-2.434-4.512-3.648-6.768v37.74
						c0.057,0.66,0.143,3.078-1.4,4.827c-0.678,0.771-1.934,1.691-4.053,1.703c-3.373,0-4.99-2.349-5.607-4.311
						C622.74,450.422,621.064,453.087,617.786,453.087z M616.274,446.731c0.046,0.345,0.353,2.325,1.512,2.325
						c1.207,0,1.696-1.648,1.813-2.126l0.287-23.356c0.008-0.536,0.229-1.048,0.613-1.422c0.385-0.373,0.892-0.572,1.439-0.567
						l3.057,0.058c1.094,0.021,1.971,0.91,1.976,2.004l0.122,23.071c0.071,0.534,0.402,2.001,1.844,2.001
						c0.766-0.004,0.987-0.251,1.061-0.332c0.406-0.454,0.453-1.439,0.41-1.845c-0.006-0.068-0.011-0.156-0.011-0.226v-46.38
						c0-1.306,1.028-2.085,2.024-2.085c1.627,0,1.979,1.531,2.109,2.107c0.045,0.195,0.134,0.579,0.186,0.752
						c0.334,0.618,0.688,1.229,1.061,1.875c0.387,0.666,0.785,1.355,1.156,2.047l0.457,0.85c1.408,2.616,2.816,5.232,4.229,7.847
						c0.934,1.725,1.857,2.6,2.748,2.6c0.115,0,0.237-0.013,0.363-0.037c0.392-0.077,0.467-0.209,0.502-0.272
						c0.193-0.345,0.207-1.193-0.145-2.15c-0.543-1.355-8.125-15.832-9.262-17.515c-1.69-2.5-4.669-4.054-7.771-4.054h-10.118
						c-3.183,0-5.93,2.532-7.675,4.656c-1.359,1.657-2.445,3.815-3.496,5.904c-0.357,0.71-0.727,1.445-1.101,2.147
						c-0.413,0.773-0.827,1.545-1.243,2.317c-1.165,2.164-2.367,4.4-3.477,6.611c-0.426,0.85-0.178,1.92,0.565,2.438
						c0.2,0.139,0.388,0.23,0.556,0.273c0.066,0.016,0.131,0.024,0.195,0.024c0.486,0,1.141-0.55,1.707-1.437
						c1.227-1.925,2.447-3.91,3.625-5.83c0.429-0.697,0.855-1.394,1.285-2.089c0.537-0.87,1.069-1.74,1.6-2.611
						c0.432-0.71,0.863-1.42,1.301-2.13c0.105-0.226,0.354-0.973,0.542-1.631c0.276-0.967,1.224-1.581,2.218-1.442
						c0.994,0.14,1.735,0.99,1.735,1.995V446.731z"/>
				</g>
			</g>
		</g>
	</g>
</g>
</svg>
