<?xml version="1.0" encoding="utf-8"?>
<!-- Generator: Adobe Illustrator 15.0.0, SVG Export Plug-In . SVG Version: 6.00 Build 0)  -->
<!DOCTYPE svg PUBLIC "-//W3C//DTD SVG 1.1//EN" "http://www.w3.org/Graphics/SVG/1.1/DTD/svg11.dtd">
<svg version="1.1" id="Layer_1" xmlns="http://www.w3.org/2000/svg" xmlns:xlink="http://www.w3.org/1999/xlink" x="0px" y="0px"
	 width="1280px" height="768px" viewBox="0 0 1280 768" enable-background="new 0 0 1280 768" xml:space="preserve">
<g>
	<g>
		<g>
			<g>
				<g>
					<path fill="#6A655E" d="M672.256,387.166H590.54c-1.112,0-2.015-0.902-2.015-2.015c0-1.113,0.903-2.015,2.015-2.015h81.716
						c1.113,0,2.016,0.901,2.016,2.015C674.271,386.264,673.369,387.166,672.256,387.166z"/>
				</g>
			</g>
		</g>
	</g>
	<g>
		<g>
			<g>
				<g>
					<path fill="#6A655E" d="M666.67,397.748h-70.25c-3.739,0-8.335-4.596-8.335-8.334v-3.527c0-1.113,0.902-2.016,2.015-2.016
						c1.113,0,2.015,0.902,2.015,2.016v3.527c0,1.488,2.816,4.305,4.305,4.305h70.25c1.258,0,3.13-2.574,3.13-4.305v-3.527
						c0-1.113,0.902-2.016,2.015-2.016s2.016,0.902,2.016,2.016v3.527C673.83,393.088,670.459,397.748,666.67,397.748z"/>
				</g>
			</g>
		</g>
	</g>
	<g>
		<g>
			<g>
				<g>
					<path fill="#6A655E" d="M596.589,386.039c-0.961,0-1.812-0.689-1.982-1.669l-1.176-6.733c-0.191-1.096,0.542-2.14,1.638-2.332
						c1.096-0.19,2.14,0.543,2.332,1.639l1.175,6.733c0.192,1.097-0.541,2.14-1.637,2.332
						C596.821,386.029,596.704,386.039,596.589,386.039z"/>
				</g>
			</g>
		</g>
	</g>
	<g>
		<g>
			<g>
				<g>
					<path fill="#6A655E" d="M668.608,386.039c-0.115,0-0.231-0.01-0.349-0.03c-1.097-0.192-1.83-1.235-1.639-2.332l1.176-6.732
						c0.191-1.097,1.234-1.831,2.332-1.64c1.095,0.192,1.829,1.236,1.637,2.332l-1.175,6.732
						C670.42,385.349,669.569,386.039,668.608,386.039z"/>
				</g>
			</g>
		</g>
	</g>
	<g>
		<g>
			<g>
				<g>
					<g>
						<path fill="#6A655E" d="M605.823,384.963c-0.974,0-1.832-0.709-1.988-1.702l-0.881-5.585
							c-0.174-1.099,0.577-2.131,1.676-2.304c1.099-0.175,2.131,0.576,2.304,1.676l0.882,5.585c0.173,1.1-0.577,2.131-1.676,2.305
							C606.033,384.954,605.927,384.963,605.823,384.963z"/>
					</g>
				</g>
			</g>
		</g>
		<g>
			<g>
				<g>
					<g>
						<path fill="#6A655E" d="M616.288,384.962c-1.019,0-1.893-0.769-2.002-1.804l-0.588-5.585
							c-0.116-1.106,0.687-2.099,1.793-2.216c1.111-0.113,2.099,0.688,2.215,1.794l0.588,5.585c0.116,1.106-0.687,2.098-1.794,2.215
							C616.429,384.959,616.357,384.962,616.288,384.962z"/>
					</g>
				</g>
			</g>
		</g>
		<g>
			<g>
				<g>
					<g>
						<path fill="#6A655E" d="M626.752,384.962c-1.063,0-1.954-0.834-2.011-1.909l-0.293-5.585c-0.059-1.111,0.795-2.06,1.906-2.118
							c1.114-0.064,2.06,0.795,2.118,1.906l0.293,5.585c0.059,1.111-0.794,2.06-1.906,2.118
							C626.823,384.961,626.788,384.962,626.752,384.962z"/>
					</g>
				</g>
			</g>
		</g>
		<g>
			<g>
				<g>
					<g>
						<path fill="#6A655E" d="M636.836,384.962c-1.113,0-2.015-0.901-2.015-2.015v-5.585c0-1.113,0.902-2.016,2.015-2.016
							c1.113,0,2.015,0.902,2.015,2.016v5.585C638.851,384.061,637.949,384.962,636.836,384.962z"/>
					</g>
				</g>
			</g>
		</g>
		<g>
			<g>
				<g>
					<g>
						<path fill="#6A655E" d="M647.684,384.962c-0.035,0-0.07-0.001-0.107-0.003c-1.111-0.059-1.965-1.007-1.906-2.118l0.294-5.585
							c0.059-1.111,1.01-1.971,2.118-1.906c1.111,0.059,1.965,1.007,1.906,2.118l-0.293,5.585
							C649.639,384.128,648.748,384.962,647.684,384.962z"/>
					</g>
				</g>
			</g>
		</g>
		<g>
			<g>
				<g>
					<g>
						<path fill="#6A655E" d="M658.148,384.962c-0.07,0-0.142-0.003-0.213-0.011c-1.107-0.117-1.91-1.108-1.794-2.215l0.589-5.585
							c0.117-1.106,1.107-1.909,2.215-1.794c1.106,0.117,1.91,1.109,1.793,2.216l-0.588,5.585
							C660.041,384.193,659.167,384.962,658.148,384.962z"/>
					</g>
				</g>
			</g>
		</g>
	</g>
	<g>
		<g>
			<g>
				<g>
					<path fill="#6A655E" d="M670.785,366.297h-0.294c-1.112,0-2.015-0.902-2.015-2.016c0-1.112,0.902-2.015,2.015-2.015h0.294
						c1.113,0,2.016,0.902,2.016,2.015C672.801,365.395,671.898,366.297,670.785,366.297z"/>
				</g>
			</g>
		</g>
	</g>
	<g>
		<g>
			<g>
				<g>
					<path fill="#6A655E" d="M664.024,366.297h-78.481c-1.112,0-2.015-0.902-2.015-2.016c0-1.112,0.902-2.015,2.015-2.015h78.481
						c1.114,0,2.016,0.902,2.016,2.015C666.04,365.395,665.139,366.297,664.024,366.297z"/>
				</g>
			</g>
		</g>
	</g>
	<g>
		<g>
			<g>
				<g>
					<path fill="#6A655E" d="M677.84,378.349h-90.239c-2.236,0-4.513-2.278-4.513-4.514v-17.637c0-2.532,2.125-2.562,2.215-2.562
						c0.526,0,0.925,0.184,1.189,0.304c0.078,0.036,0.195,0.09,0.235,0.097l91.718-0.001c0.385-0.27,0.833-0.399,1.256-0.399
						c1.159,0,2.111,0.908,2.168,2.066c0.021,0.467-0.11,0.95-0.396,1.358v16.773C681.473,376.45,679.945,378.349,677.84,378.349z
						 M587.667,374.318h89.719c0.031-0.126,0.056-0.291,0.056-0.483v-15.769h-90.324v15.703
						C587.19,373.955,587.481,374.246,587.667,374.318z"/>
				</g>
			</g>
		</g>
	</g>
	<g>
		<g>
			<g>
				<g>
					<path fill="#6A655E" d="M663.807,441.475c-0.092,0-0.184-0.006-0.275-0.019c-0.514-0.069-1.025-0.183-1.523-0.333
						c-3.112-0.943-4.912-2.82-6.262-4.822c-3.117,2.616-6.945,2.37-9.764,0.684c-3.769-2.258-5.218-6.622-3.371-10.153
						c0.516-0.986,1.732-1.367,2.72-0.852c0.985,0.517,1.367,1.733,0.852,2.72c-0.97,1.854,0.207,3.831,1.87,4.827
						c1.777,1.063,4.377,1.172,6.344-1.72c0.391-0.574,1.046-0.912,1.743-0.88c0.694,0.026,1.325,0.409,1.671,1.011
						c1.592,2.777,2.703,4.521,5.367,5.329c0.294,0.09,0.595,0.155,0.897,0.196c1.103,0.15,1.875,1.166,1.725,2.27
						C665.662,440.742,664.798,441.475,663.807,441.475z"/>
				</g>
			</g>
		</g>
	</g>
	<g>
		<g>
			<g>
				<g>
					<path fill="#6A655E" d="M668.779,440.947c-0.29,0-0.559-0.062-0.799-0.171c-0.501-0.205-0.92-0.61-1.125-1.157
						c-0.391-1.041,0.136-2.203,1.178-2.595c0.673-0.254,1.281-0.172,1.756,0.084c0.396,0.199,0.729,0.526,0.925,0.959
						c0.459,1.009,0.03,2.193-0.976,2.658C669.402,440.88,669.08,440.947,668.779,440.947z"/>
				</g>
			</g>
		</g>
	</g>
	<g>
		<g>
			<g>
				<g>
					<path fill="#6A655E" d="M672.543,438.075c-0.566,0-1.129-0.237-1.527-0.7c-0.727-0.844-0.631-2.115,0.212-2.842
						c1.368-1.178,2.218-3.46,2.067-5.551c-0.079-1.106-0.468-2.612-1.865-3.502c-0.812-0.518-1.146-1.538-0.794-2.436
						c0.351-0.896,1.288-1.419,2.236-1.247c2.53,0.456,5.267-1.946,5.913-3.409c1.272-2.882,0.854-4.786-1.791-8.149
						c-0.688-0.875-0.536-2.142,0.338-2.829c0.875-0.688,2.143-0.537,2.83,0.338c2.971,3.777,4.5,7.309,2.309,12.27
						c-0.864,1.955-3.169,4.288-6.009,5.324c0.474,1.001,0.765,2.129,0.853,3.352c0.244,3.385-1.113,6.876-3.458,8.894
						C673.476,437.914,673.008,438.075,672.543,438.075z"/>
				</g>
			</g>
		</g>
	</g>
	<g>
		<g>
			<g>
				<g>
					<path fill="#6A655E" d="M684.823,425.35c-0.941,0-1.783-0.664-1.974-1.623c-0.217-1.092,0.492-2.152,1.584-2.369
						c3.439-0.683,5.414-2.939,5.559-6.355c0.096-2.249-1.791-6.268-3.891-6.412c-0.843-0.059-1.56-0.635-1.796-1.445
						c-0.237-0.81,0.057-1.682,0.734-2.184c1.999-1.481,3.232-3.529,3.567-5.923c0.385-2.749-0.463-5.873-2.214-8.151
						c-2.515-3.273-6.438-4.295-9.764-2.543c-0.983,0.521-2.203,0.143-2.722-0.843c-0.52-0.984-0.143-2.203,0.843-2.722
						c5.042-2.658,11.146-1.156,14.839,3.652c2.421,3.152,3.546,7.326,3.009,11.165c-0.333,2.387-1.274,4.533-2.761,6.336
						c2.887,2.245,4.288,6.695,4.182,9.24c-0.225,5.299-3.516,9.088-8.801,10.138C685.086,425.336,684.954,425.35,684.823,425.35z"
						/>
				</g>
			</g>
		</g>
	</g>
	<g>
		<g>
			<g>
				<g>
					<path fill="#6A655E" d="M654.168,445.994c-0.397,0-0.758-0.115-1.057-0.301c-0.398-0.229-0.723-0.596-0.891-1.062
						c-0.378-1.047,0.164-2.201,1.211-2.58c0.604-0.218,1.159-0.163,1.609,0.043c0.473,0.196,0.871,0.572,1.083,1.081
						c0.431,1.026-0.051,2.204-1.075,2.635C654.741,445.938,654.445,445.994,654.168,445.994z"/>
				</g>
			</g>
		</g>
	</g>
	<g>
		<g>
			<g>
				<g>
					<path fill="#6A655E" d="M648.532,446.723c-0.073,0-0.147-0.004-0.223-0.013c-2.015-0.221-3.918-0.927-5.653-2.098
						c-4.474-3.017-6.686-7.57-6.181-12.491c-2.77-0.732-5.302-2.867-6.601-5c-0.925-1.519-1.669-4.074-0.987-6.694
						c0.52-1.996,1.776-3.606,3.633-4.654c0.969-0.546,2.198-0.205,2.746,0.764c0.547,0.97,0.205,2.198-0.764,2.745
						c-0.909,0.514-1.469,1.221-1.715,2.162c-0.341,1.312,0.02,2.744,0.53,3.581c1.187,1.949,3.641,3.468,5.358,3.321
						c0.655-0.057,1.296,0.21,1.718,0.715c0.422,0.504,0.572,1.183,0.401,1.817c-1.105,4.096,0.395,7.884,4.116,10.393
						c1.206,0.813,2.462,1.282,3.841,1.435c1.106,0.121,1.904,1.116,1.783,2.223C650.42,445.959,649.547,446.723,648.532,446.723z"
						/>
				</g>
			</g>
		</g>
	</g>
	<g>
		<g>
			<g>
				<g>
					<path fill="#6A655E" d="M621.853,417.774c-2.983,0-5.739-1.034-8.013-3.106c-4.232-3.855-5.458-10.378-2.854-15.17
						c0.531-0.979,1.754-1.342,2.733-0.809c0.978,0.531,1.34,1.755,0.808,2.732c-1.745,3.211-0.873,7.624,2.027,10.268
						c3.202,2.918,7.838,2.715,12.717-0.557c0.925-0.619,2.177-0.373,2.796,0.551c0.621,0.925,0.374,2.177-0.551,2.797
						C628.243,416.675,624.928,417.774,621.853,417.774z"/>
				</g>
			</g>
		</g>
	</g>
	<g>
		<g>
			<g>
				<g>
					<path fill="#6A655E" d="M677.976,448.221c-1.885,0-3.753-0.46-5.391-1.413c-0.962-0.561-1.286-1.794-0.727-2.756
						c0.561-0.961,1.794-1.286,2.755-0.727c3.035,1.767,6.918,0.639,8.922-1.474c1.191-1.26,2.797-3.976,0.138-8.023
						c-0.61-0.931-0.353-2.18,0.577-2.791c0.932-0.611,2.18-0.352,2.791,0.578c3.011,4.584,2.793,9.446-0.582,13.008
						C684.234,446.971,681.084,448.221,677.976,448.221z"/>
				</g>
			</g>
		</g>
	</g>
	<g>
		<g>
			<g>
				<g>
					<path fill="#6A655E" d="M641.17,451.025c-0.348,0-0.7-0.09-1.022-0.279c-3.951-2.33-5.017-6.153-3.168-11.363
						c0.182-0.515,0.565-0.934,1.062-1.16c0.656-0.299,1.373-0.359,2.075-0.175c1.076,0.283,1.719,1.385,1.436,2.462
						c-0.161,0.611-0.588,1.084-1.124,1.325c-0.843,3.114,0.095,4.454,1.766,5.44c0.959,0.564,1.277,1.8,0.712,2.759
						C642.531,450.672,641.859,451.025,641.17,451.025z"/>
				</g>
			</g>
		</g>
	</g>
	<g>
		<g>
			<g>
				<g>
					<path fill="#6A655E" d="M659.232,460.407c-0.578,0-1.167-0.038-1.765-0.116c-1.104-0.145-1.882-1.155-1.737-2.259
						c0.144-1.104,1.156-1.878,2.259-1.737c2.61,0.34,4.833-0.349,6.254-1.941c1.263-1.415,1.71-3.337,1.229-5.274
						c-0.269-1.079,0.39-2.173,1.47-2.44c1.081-0.269,2.174,0.39,2.441,1.47c0.796,3.202-0.002,6.54-2.133,8.928
						C665.3,459.222,662.441,460.407,659.232,460.407z"/>
				</g>
			</g>
		</g>
	</g>
	<g>
		<g>
			<g>
				<g>
					<path fill="#6A655E" d="M638.387,462.031c-0.5,0-1.002-0.186-1.392-0.559c-1.561-1.492-2.226-3.475-1.824-5.438
						c0.422-2.063,1.997-3.791,4.213-4.624c1.042-0.392,2.204,0.136,2.595,1.178c0.392,1.041-0.137,2.203-1.179,2.595
						c-0.923,0.347-1.537,0.952-1.682,1.659c-0.12,0.586,0.115,1.195,0.661,1.718c0.804,0.769,0.833,2.044,0.063,2.849
						C639.447,461.822,638.917,462.031,638.387,462.031z"/>
				</g>
			</g>
		</g>
	</g>
	<g>
		<g>
			<g>
				<g>
					<path fill="#6A655E" d="M650.505,457.27c-0.532,0-1.052-0.214-1.427-0.588c-0.375-0.375-0.589-0.895-0.589-1.427
						c0-0.528,0.214-1.048,0.589-1.423s0.895-0.592,1.427-0.592s1.047,0.217,1.422,0.592s0.593,0.895,0.593,1.423
						c0,0.532-0.218,1.052-0.593,1.427C651.557,457.056,651.037,457.27,650.505,457.27z"/>
				</g>
			</g>
		</g>
	</g>
	<g>
		<g>
			<g>
				<g>
					<path fill="#6A655E" d="M646.979,466.97c-0.532,0-1.053-0.214-1.428-0.588c-0.374-0.375-0.588-0.896-0.588-1.427
						c0-0.532,0.214-1.048,0.588-1.423c0.375-0.374,0.896-0.592,1.428-0.592c0.531,0,1.047,0.218,1.422,0.592
						c0.375,0.375,0.593,0.895,0.593,1.423c0,0.531-0.218,1.052-0.593,1.427C648.025,466.756,647.506,466.97,646.979,466.97z"/>
				</g>
			</g>
		</g>
	</g>
</g>
</svg>
