<?xml version="1.0" encoding="utf-8"?>
<!-- Generator: Adobe Illustrator 15.0.0, SVG Export Plug-In . SVG Version: 6.00 Build 0)  -->
<!DOCTYPE svg PUBLIC "-//W3C//DTD SVG 1.1//EN" "http://www.w3.org/Graphics/SVG/1.1/DTD/svg11.dtd">
<svg version="1.1" id="Layer_1" xmlns="http://www.w3.org/2000/svg" xmlns:xlink="http://www.w3.org/1999/xlink" x="0px" y="0px"
	 width="1280px" height="768px" viewBox="0 0 1280 768" enable-background="new 0 0 1280 768" xml:space="preserve">
<g>
	<g>
		<g>
			<g>
				<g>
					<path fill="#6A655E" d="M664.496,424.704c-0.102,0-0.206-0.008-0.311-0.024c-1.1-0.17-1.854-1.2-1.683-2.3l6.306-40.694
						c0.17-1.1,1.193-1.857,2.3-1.684c1.1,0.17,1.853,1.2,1.683,2.3l-6.305,40.695C666.332,423.992,665.474,424.704,664.496,424.704
						z"/>
				</g>
			</g>
		</g>
	</g>
	<g>
		<g>
			<g>
				<g>
					<path fill="#6A655E" d="M686.447,383.398h-30.5c-1.113,0-2.016-0.902-2.016-2.016c0-1.111,0.902-2.015,2.016-2.015h29.043
						l5.12-15.503c0.35-1.057,1.491-1.631,2.546-1.281c1.057,0.348,1.63,1.488,1.281,2.545l-5.577,16.887
						C688.088,382.841,687.316,383.398,686.447,383.398z"/>
				</g>
			</g>
		</g>
	</g>
	<g>
		<g>
			<g>
				<g>
					<path fill="#6A655E" d="M590.312,401.69c-0.421,0-0.846-0.132-1.209-0.404c-0.89-0.669-1.069-1.932-0.4-2.821
						c5.987-7.965,15.128-12.533,25.08-12.533c7.063,0,13.995,2.707,21.189,8.274c0.88,0.681,1.042,1.946,0.36,2.827
						c-0.681,0.879-1.946,1.041-2.826,0.359c-6.552-5.069-12.501-7.431-18.724-7.431c-8.674,0-16.641,3.981-21.858,10.924
						C591.528,401.412,590.924,401.69,590.312,401.69z"/>
				</g>
			</g>
		</g>
	</g>
	<g>
		<g>
			<g>
				<g>
					<path fill="#6A655E" d="M586.865,406.828c-0.178,0-0.352-0.022-0.516-0.066c-0.422-0.111-0.837-0.374-1.125-0.775
						c-0.461-0.57-0.592-1.373-0.271-2.09c0.506-1.13,1.56-1.434,2.378-1.233c0.44,0.108,0.873,0.374,1.167,0.787
						c0.479,0.593,0.6,1.433,0.24,2.161C588.31,406.479,587.558,406.828,586.865,406.828z"/>
				</g>
			</g>
		</g>
	</g>
	<g>
		<g>
			<g>
				<g>
					<path fill="#6A655E" d="M613.782,448.642c-17.29,0-31.355-14.065-31.355-31.355c0-1.908,0.173-3.819,0.514-5.684
						c0.201-1.095,1.254-1.821,2.346-1.618c1.095,0.199,1.82,1.25,1.619,2.344c-0.297,1.625-0.449,3.293-0.449,4.958
						c0,15.067,12.259,27.325,27.326,27.325c0.364,0,0.728-0.008,1.09-0.021c1.12-0.051,2.047,0.826,2.089,1.938
						c0.042,1.112-0.826,2.048-1.938,2.089C614.611,448.633,614.197,448.642,613.782,448.642z"/>
				</g>
			</g>
		</g>
	</g>
	<g>
		<g>
			<g>
				<g>
					<path fill="#6A655E" d="M640.922,449.027c-12.846,0-26.219-0.32-28.829-0.387c-1.112-0.027-1.992-0.952-1.963-2.064
						c0.027-1.096,0.924-1.965,2.014-1.965c0.017,0,0.034,0.001,0.051,0.001c18.355,0.462,48.838,0.72,52.488-0.558
						c1.805-0.633,3.459-2.827,4.215-5.59c0.783-2.87,0.442-5.729-0.869-7.286c-4.48-5.317-36.093-34.302-36.412-34.595
						c-0.82-0.752-0.876-2.026-0.124-2.847c0.752-0.82,2.026-0.876,2.847-0.124c1.31,1.2,32.125,29.454,36.771,34.969
						c2.206,2.617,2.832,6.709,1.674,10.945c-1.128,4.126-3.658,7.24-6.77,8.33C663.402,448.772,652.371,449.027,640.922,449.027z"
						/>
				</g>
			</g>
		</g>
	</g>
	<g>
		<g>
			<g>
				<g>
					<path fill="#6A655E" d="M597.854,456.924c-1.108,0-2.01-0.896-2.015-2.006c-0.005-1.112,0.893-2.019,2.005-2.024l71.431-0.34
						c0.004,0,0.006,0,0.01,0c1.108,0,2.01,0.896,2.016,2.005c0.004,1.113-0.894,2.02-2.006,2.025l-71.432,0.34
						C597.86,456.924,597.856,456.924,597.854,456.924z"/>
				</g>
			</g>
		</g>
	</g>
	<g>
		<g>
			<g>
				<g>
					<path fill="#6A655E" d="M614.396,433.711c-9.491,0-17.213-7.723-17.213-17.215c0-9.49,7.722-17.213,17.213-17.213
						c9.492,0,17.213,7.723,17.213,17.213C631.609,425.988,623.888,433.711,614.396,433.711z M614.396,403.313
						c-7.269,0-13.183,5.914-13.183,13.183c0,7.27,5.914,13.184,13.183,13.184c7.27,0,13.184-5.914,13.184-13.184
						C627.58,409.228,621.666,403.313,614.396,403.313z"/>
				</g>
			</g>
		</g>
	</g>
	<g>
		<g>
			<g>
				<g>
					<path fill="#6A655E" d="M634.954,439.775c-0.493,0-0.988-0.18-1.376-0.543l-10.527-9.846c-0.813-0.76-0.855-2.035-0.095-2.848
						c0.759-0.812,2.035-0.855,2.848-0.096l10.527,9.846c0.813,0.76,0.855,2.035,0.095,2.848
						C636.029,439.561,635.492,439.775,634.954,439.775z"/>
				</g>
			</g>
		</g>
	</g>
	<g>
		<g>
			<g>
				<g>
					<path fill="#6A655E" d="M644.256,440.312h-15.998c-1.113,0-2.015-0.902-2.015-2.015c0-1.113,0.902-2.016,2.015-2.016h15.998
						c1.113,0,2.016,0.902,2.016,2.016C646.271,439.409,645.369,440.312,644.256,440.312z"/>
				</g>
			</g>
		</g>
	</g>
	<g>
		<g>
			<g>
				<g>
					<path fill="#6A655E" d="M631.482,385.859H598.27c-2.896,0-5.25-2.734-5.25-6.096v-0.146c0-3.36,2.354-6.095,5.25-6.095h33.212
						c2.896,0,5.252,2.734,5.252,6.095v0.146C636.735,383.125,634.378,385.859,631.482,385.859z M598.27,377.553
						c-0.564,0-1.221,0.902-1.221,2.065v0.146c0,1.163,0.657,2.065,1.221,2.065h33.212c0.577,0,1.222-0.884,1.222-2.065v-0.146
						c0-1.163-0.657-2.065-1.222-2.065H598.27z"/>
				</g>
			</g>
		</g>
	</g>
</g>
</svg>
