<?xml version="1.0" encoding="utf-8"?>
<!-- Generator: Adobe Illustrator 15.0.0, SVG Export Plug-In . SVG Version: 6.00 Build 0)  -->
<!DOCTYPE svg PUBLIC "-//W3C//DTD SVG 1.1//EN" "http://www.w3.org/Graphics/SVG/1.1/DTD/svg11.dtd">
<svg version="1.1" id="Layer_1" xmlns="http://www.w3.org/2000/svg" xmlns:xlink="http://www.w3.org/1999/xlink" x="0px" y="0px"
	 width="1280px" height="768px" viewBox="0 0 1280 768" enable-background="new 0 0 1280 768" xml:space="preserve">
<g>
	<g>
		<g>
			<g>
				<g>
					<path fill="#6A655E" d="M598.371,374.884c-0.757,0-1.482-0.429-1.826-1.16c-0.472-1.007-0.039-2.207,0.969-2.68l44.102-20.688
						c0.539-0.253,1.164-0.255,1.703-0.004l43.483,20.157c1.011,0.468,1.449,1.666,0.981,2.676c-0.469,1.009-1.666,1.448-2.677,0.98
						l-42.63-19.763l-43.251,20.29C598.949,374.822,598.657,374.884,598.371,374.884z"/>
				</g>
			</g>
		</g>
	</g>
	<g>
		<g>
			<g>
				<g>
					<path fill="#6A655E" d="M681.034,453.591h-9.043c-1.112,0-2.015-0.902-2.015-2.015c0-1.113,0.902-2.016,2.015-2.016h7.028
						v-76.705c0-1.113,0.902-2.016,2.015-2.016c1.113,0,2.015,0.902,2.015,2.016v78.721
						C683.049,452.688,682.147,453.591,681.034,453.591z"/>
				</g>
			</g>
		</g>
	</g>
	<g>
		<g>
			<g>
				<g>
					<path fill="#6A655E" d="M612.951,453.591h-10.105c-1.113,0-2.015-0.902-2.015-2.015v-78.721c0-1.113,0.902-2.016,2.015-2.016
						c1.112,0,2.015,0.902,2.015,2.016v76.705h8.09c1.113,0,2.015,0.902,2.015,2.016
						C614.966,452.688,614.064,453.591,612.951,453.591z"/>
				</g>
			</g>
		</g>
	</g>
	<g>
		<g>
			<g>
				<g>
					<path fill="#6A655E" d="M669.863,446.473c-1.111,0-2.014-0.902-2.014-2.015V433.91h-50.224v10.548
						c0,1.112-0.902,2.015-2.015,2.015c-1.113,0-2.015-0.902-2.015-2.015v-12.562c0-1.113,0.902-2.016,2.015-2.016h54.252
						c1.113,0,2.016,0.902,2.016,2.016v12.562C671.879,445.57,670.977,446.473,669.863,446.473z"/>
				</g>
			</g>
		</g>
	</g>
	<g>
		<g>
			<g>
				<g>
					<path fill="#6A655E" d="M691.672,462.633h-4.055c-1.112,0-2.016-0.902-2.016-2.016c0-1.112,0.903-2.015,2.016-2.015h2.039
						v-5.012h-95.434v5.012h8.935c1.113,0,2.015,0.902,2.015,2.015c0,1.113-0.902,2.016-2.015,2.016h-10.949
						c-1.113,0-2.015-0.902-2.015-2.016v-9.041c0-1.113,0.902-2.016,2.015-2.016h99.464c1.112,0,2.016,0.902,2.016,2.016v9.041
						C693.688,461.73,692.784,462.633,691.672,462.633z"/>
				</g>
			</g>
		</g>
	</g>
	<g>
		<g>
			<g>
				<g>
					<path fill="#6A655E" d="M667.521,462.633h-0.254c-1.112,0-2.015-0.902-2.015-2.016c0-1.112,0.902-2.015,2.015-2.015h0.254
						c1.112,0,2.015,0.902,2.015,2.015C669.535,461.73,668.633,462.633,667.521,462.633z"/>
				</g>
			</g>
		</g>
	</g>
	<g>
		<g>
			<g>
				<g>
					<path fill="#6A655E" d="M661.756,462.633h-17.729c-1.113,0-2.016-0.902-2.016-2.016c0-1.112,0.902-2.015,2.016-2.015h17.729
						c1.113,0,2.016,0.902,2.016,2.015C663.771,461.73,662.869,462.633,661.756,462.633z"/>
				</g>
			</g>
		</g>
	</g>
	<g>
		<g>
			<g>
				<g>
					<path fill="#6A655E" d="M706.033,471.675H577.314c-1.113,0-2.015-0.902-2.015-2.015v-9.043c0-1.112,0.901-2.015,2.015-2.015
						h61.608c1.113,0,2.016,0.902,2.016,2.015c0,1.113-0.903,2.016-2.016,2.016H579.33v5.012h124.688v-5.012h-31.109
						c-1.113,0-2.016-0.902-2.016-2.016c0-1.112,0.902-2.015,2.016-2.015h33.125c1.113,0,2.015,0.902,2.015,2.015v9.043
						C708.048,470.772,707.146,471.675,706.033,471.675z"/>
				</g>
			</g>
		</g>
	</g>
	<g>
		<g>
			<g>
				<g>
					<path fill="#6A655E" d="M623.058,400.401h-8.51c-1.113,0-2.015-0.902-2.015-2.015v-13.299c0-1.112,0.902-2.015,2.015-2.015
						h8.51c1.112,0,2.015,0.902,2.015,2.015v13.299C625.073,399.499,624.17,400.401,623.058,400.401z M616.562,396.371h4.479v-9.268
						h-4.479V396.371z"/>
				</g>
			</g>
		</g>
	</g>
	<g>
		<g>
			<g>
				<g>
					<path fill="#6A655E" d="M646.46,400.401h-8.51c-1.113,0-2.015-0.902-2.015-2.015v-13.299c0-1.112,0.902-2.015,2.015-2.015h8.51
						c1.113,0,2.016,0.902,2.016,2.015v13.299C648.476,399.499,647.573,400.401,646.46,400.401z M639.965,396.371h4.48v-9.268h-4.48
						V396.371z"/>
				</g>
			</g>
		</g>
	</g>
	<g>
		<g>
			<g>
				<g>
					<path fill="#6A655E" d="M669.863,400.401h-8.509c-1.113,0-2.015-0.902-2.015-2.015v-13.299c0-1.112,0.901-2.015,2.015-2.015
						h8.509c1.113,0,2.016,0.902,2.016,2.015v13.299C671.879,399.499,670.977,400.401,669.863,400.401z M663.369,396.371h4.48
						v-9.268h-4.48V396.371z"/>
				</g>
			</g>
		</g>
	</g>
	<g>
		<g>
			<g>
				<g>
					<path fill="#6A655E" d="M623.589,423.805h-8.509c-1.113,0-2.015-0.902-2.015-2.015v-13.298c0-1.113,0.902-2.015,2.015-2.015
						h8.509c1.112,0,2.016,0.901,2.016,2.015v13.298C625.604,422.902,624.701,423.805,623.589,423.805z M617.095,419.775h4.479
						v-9.268h-4.479V419.775z"/>
				</g>
			</g>
		</g>
	</g>
	<g>
		<g>
			<g>
				<g>
					<path fill="#6A655E" d="M646.992,423.805h-8.51c-1.112,0-2.016-0.902-2.016-2.015v-13.298c0-1.113,0.903-2.015,2.016-2.015
						h8.51c1.113,0,2.015,0.901,2.015,2.015v13.298C649.007,422.902,648.105,423.805,646.992,423.805z M640.498,419.775h4.48v-9.268
						h-4.48V419.775z"/>
				</g>
			</g>
		</g>
	</g>
	<g>
		<g>
			<g>
				<g>
					<path fill="#6A655E" d="M670.396,423.805h-8.51c-1.114,0-2.016-0.902-2.016-2.015v-13.298c0-1.113,0.901-2.015,2.016-2.015
						h8.51c1.112,0,2.015,0.901,2.015,2.015v13.298C672.411,422.902,671.509,423.805,670.396,423.805z M663.901,419.775h4.479
						v-9.268h-4.479V419.775z"/>
				</g>
			</g>
		</g>
	</g>
	<g>
		<g>
			<g>
				<g>
					<polygon fill="#6A655E" points="619.317,368.783 620.944,372.079 624.582,372.608 621.949,375.174 622.571,378.796 
						619.317,377.086 616.064,378.796 616.686,375.174 614.054,372.608 617.69,372.079 					"/>
				</g>
			</g>
		</g>
	</g>
	<g>
		<g>
			<g>
				<g>
					<polygon fill="#6A655E" points="642.423,368.783 644.051,372.079 647.688,372.608 645.055,375.174 645.677,378.796 
						642.423,377.086 639.171,378.796 639.792,375.174 637.159,372.608 640.796,372.079 					"/>
				</g>
			</g>
		</g>
	</g>
	<g>
		<g>
			<g>
				<g>
					<polygon fill="#6A655E" points="666.063,368.783 667.69,372.079 671.328,372.608 668.695,375.174 669.316,378.796 
						666.063,377.086 662.811,378.796 663.432,375.174 660.8,372.608 664.438,372.079 					"/>
				</g>
			</g>
		</g>
	</g>
	<g>
		<g>
			<g>
				<g>
					<polygon fill="#6A655E" points="654.289,368.783 655.916,372.079 659.555,372.608 656.922,375.174 657.543,378.796 
						654.289,377.086 651.037,378.796 651.657,375.174 649.025,372.608 652.662,372.079 					"/>
				</g>
			</g>
		</g>
	</g>
	<g>
		<g>
			<g>
				<g>
					<polygon fill="#6A655E" points="630.611,368.783 632.238,372.079 635.875,372.608 633.243,375.174 633.864,378.796 
						630.611,377.086 627.358,378.796 627.979,375.174 625.348,372.608 628.984,372.079 					"/>
				</g>
			</g>
		</g>
	</g>
</g>
</svg>
