<?xml version="1.0" encoding="utf-8"?>
<!-- Generator: Adobe Illustrator 15.0.0, SVG Export Plug-In . SVG Version: 6.00 Build 0)  -->
<!DOCTYPE svg PUBLIC "-//W3C//DTD SVG 1.1//EN" "http://www.w3.org/Graphics/SVG/1.1/DTD/svg11.dtd">
<svg version="1.1" id="Layer_1" xmlns="http://www.w3.org/2000/svg" xmlns:xlink="http://www.w3.org/1999/xlink" x="0px" y="0px"
	 width="1280px" height="768px" viewBox="0 0 1280 768" enable-background="new 0 0 1280 768" xml:space="preserve">
<g>
	<g>
		<g>
			<g>
				<g>
					<g>
						<path fill="#6A655E" d="M637.43,403.72c-2.643,0-5.312-0.427-7.907-1.31c-1.054-0.357-1.618-1.502-1.259-2.555
							c0.357-1.055,1.5-1.619,2.555-1.261c7.783,2.644,16.363,0.405,21.859-5.703c3.666-4.073,5.527-9.329,5.238-14.802
							c-0.287-5.473-2.689-10.506-6.762-14.172c-4.074-3.666-9.332-5.525-14.803-5.238c-5.473,0.288-10.506,2.689-14.172,6.763
							c-6.152,6.837-6.996,17.019-2.053,24.761c0.6,0.938,0.324,2.184-0.613,2.783c-0.938,0.6-2.184,0.324-2.782-0.613
							c-5.917-9.266-4.908-21.447,2.454-29.627c4.385-4.873,10.406-7.746,16.953-8.09c6.547-0.347,12.838,1.881,17.711,6.267
							s7.746,10.407,8.091,16.955c0.345,6.547-1.882,12.837-6.268,17.71C650.932,400.857,644.268,403.719,637.43,403.72z"/>
					</g>
				</g>
			</g>
		</g>
		<g>
			<g>
				<g>
					<g>
						<path fill="#6A655E" d="M599.973,431.959c-2.203,0-4.721-0.701-7.398-2.624c-8.096-5.813-4.223-12.856-2.95-15.17
							c0.101-0.184,0.189-0.343,0.257-0.476c0.934-1.857,16.838-19.055,23.631-26.363c0.758-0.814,2.033-0.861,2.848-0.104
							s0.861,2.033,0.104,2.848c-8.32,8.95-21.881,23.734-23.007,25.478c-0.081,0.159-0.184,0.347-0.302,0.56
							c-1.656,3.012-3.021,6.514,1.77,9.953c4.516,3.242,7.736,1.482,8.986,0.492l-0.061-5.258
							c-0.012-1.038,0.766-1.916,1.798-2.027l4.351-0.473l-0.172-4.455c-0.041-1.098,0.805-2.027,1.9-2.088l5.049-0.285l0.141-4.906
							c0.031-1.07,0.895-1.93,1.967-1.956l4.906-0.118l4.531-4.709c0.771-0.801,2.049-0.825,2.85-0.055
							c0.801,0.771,0.826,2.048,0.055,2.85l-5.107,5.307c-0.367,0.383-0.873,0.605-1.404,0.617l-3.823,0.092l-0.14,4.846
							c-0.029,1.046-0.854,1.895-1.9,1.953l-4.92,0.277l0.166,4.355c0.041,1.058-0.744,1.966-1.795,2.08l-4.4,0.477l0.051,4.326
							c0.006,0.506-0.179,0.995-0.518,1.371C606.135,430.217,603.445,431.958,599.973,431.959z"/>
					</g>
				</g>
			</g>
		</g>
		<g>
			<g>
				<g>
					<g>
						<path fill="#6A655E" d="M636.772,395.825c-4.856,0-8.496-1.576-8.649-1.644c-1.019-0.447-1.482-1.637-1.033-2.654
							c0.447-1.02,1.637-1.482,2.654-1.035c0.492,0.213,12.26,5.143,20.262-5.496c0.668-0.889,1.933-1.067,2.82-0.398
							c0.891,0.669,1.069,1.933,0.399,2.822c-5.198,6.91-11.763,8.385-16.354,8.405
							C636.838,395.825,636.805,395.825,636.772,395.825z"/>
					</g>
				</g>
			</g>
		</g>
		<g>
			<g>
				<g>
					<g>
						<path fill="#6A655E" d="M642.963,382.224c-2.19,0-4.295-0.808-5.924-2.274c-1.76-1.582-2.796-3.756-2.92-6.118
							c-0.125-2.362,0.678-4.632,2.262-6.391c1.677-1.864,4.077-2.933,6.586-2.933c2.19,0,4.295,0.809,5.924,2.274
							c3.631,3.267,3.926,8.88,0.658,12.51C647.871,381.154,645.471,382.224,642.963,382.224z M642.967,368.537
							c-1.367,0-2.678,0.583-3.591,1.6c-1.78,1.979-1.62,5.037,0.358,6.818c0.889,0.799,2.035,1.238,3.229,1.238
							c1.367,0,2.676-0.582,3.59-1.598c1.781-1.979,1.619-5.037-0.359-6.818C645.307,368.979,644.16,368.537,642.967,368.537z"/>
					</g>
				</g>
			</g>
		</g>
		<g>
			<g>
				<g>
					<g>
						<g>
							<path fill="#6A655E" d="M596.531,422.957c-0.48,0-0.963-0.171-1.348-0.518c-0.827-0.744-0.895-2.019-0.15-2.846l5.252-5.836
								c0.744-0.827,2.02-0.895,2.846-0.149c0.828,0.745,0.895,2.019,0.15,2.845l-5.252,5.836
								C597.631,422.732,597.082,422.957,596.531,422.957z"/>
						</g>
					</g>
				</g>
			</g>
			<g>
				<g>
					<g>
						<g>
							<path fill="#6A655E" d="M606.707,411.65c-0.48,0-0.963-0.172-1.348-0.518c-0.826-0.744-0.895-2.02-0.15-2.846l13.132-14.59
								c0.745-0.828,2.019-0.895,2.847-0.15c0.826,0.745,0.895,2.02,0.15,2.846l-13.133,14.59
								C607.807,411.425,607.258,411.65,606.707,411.65z"/>
						</g>
					</g>
				</g>
			</g>
		</g>
		<g>
			<g>
				<g>
					<g>
						<path fill="#6A655E" d="M634.982,465.93c-0.197,0-0.396-0.002-0.596-0.008c-5.721-0.153-11.309-2.509-15.736-6.632
							l-0.043-0.04c-9.238-8.602-10.533-22.272-2.893-30.479l21.123-22.686c0.758-0.814,2.033-0.859,2.848-0.101
							s0.859,2.033,0.102,2.848l-21.123,22.685c-6.127,6.58-4.922,17.695,2.686,24.779l0.041,0.039
							c3.716,3.459,8.367,5.43,13.104,5.558c4.641,0.122,8.812-1.544,11.748-4.697l37.564-40.343
							c2.936-3.154,4.303-7.435,3.848-12.053c-0.464-4.717-2.762-9.216-6.471-12.67l-0.055-0.051
							c-4.01-3.732-9.264-5.749-14.41-5.518c-1.117,0.045-2.053-0.812-2.104-1.924c-0.049-1.111,0.812-2.053,1.924-2.103
							c6.217-0.272,12.541,2.131,17.344,6.602l0.055,0.052c4.42,4.115,7.168,9.521,7.729,15.217
							c0.569,5.785-1.174,11.181-4.91,15.193l-37.564,40.343C645.584,463.816,640.557,465.93,634.982,465.93z"/>
					</g>
				</g>
			</g>
		</g>
		<g>
			<g>
				<g>
					<g>
						<path fill="#6A655E" d="M651.297,447.379c-0.492,0-0.985-0.18-1.374-0.541l-20.83-19.396c-0.392-0.364-0.62-0.868-0.64-1.402
							s0.174-1.054,0.538-1.445l13.042-14.007c0.365-0.391,0.869-0.621,1.404-0.641c0.537-0.021,1.053,0.176,1.443,0.539
							l20.83,19.396c0.391,0.363,0.623,0.868,0.641,1.402c0.02,0.533-0.175,1.055-0.538,1.445l-13.041,14.006
							C652.374,447.162,651.836,447.379,651.297,447.379z M633.314,425.866l17.881,16.649l10.295-11.057l-17.881-16.649
							L633.314,425.866z"/>
					</g>
				</g>
			</g>
		</g>
		<g>
			<g>
				<g>
					<g>
						<path fill="#6A655E" d="M669.843,427.1c-0.491,0-0.984-0.179-1.372-0.541l-19.754-18.392
							c-0.814-0.759-0.859-2.033-0.102-2.848c0.758-0.815,2.033-0.86,2.848-0.102l19.754,18.392
							c0.814,0.759,0.859,2.033,0.102,2.848C670.922,426.884,670.383,427.1,669.843,427.1z"/>
					</g>
				</g>
			</g>
		</g>
		<g>
			<g>
				<g>
					<g>
						<path fill="#6A655E" d="M644.738,453.342c-0.492,0-0.984-0.18-1.373-0.541l-20.111-18.727
							c-0.814-0.759-0.859-2.033-0.102-2.848s2.033-0.861,2.848-0.102l20.111,18.727c0.814,0.758,0.861,2.033,0.102,2.848
							C645.816,453.125,645.277,453.342,644.738,453.342z"/>
					</g>
				</g>
			</g>
		</g>
		<g>
			<g>
				<g>
					<g>
						<path fill="#6A655E" d="M671.086,410.181L671.086,410.181c-2.13,0-4.16-0.8-5.719-2.251
							c-3.387-3.154-3.578-8.477-0.424-11.864c1.582-1.699,3.822-2.675,6.145-2.675c2.131,0,4.16,0.801,5.72,2.252
							c3.388,3.154,3.577,8.477,0.424,11.863C675.648,409.205,673.408,410.181,671.086,410.181z M671.088,397.422
							c-1.225,0-2.359,0.493-3.195,1.39c-1.639,1.761-1.541,4.528,0.221,6.169c0.811,0.754,1.866,1.17,2.973,1.17
							c1.226,0,2.359-0.494,3.195-1.391c1.641-1.761,1.541-4.527-0.22-6.168C673.252,397.837,672.195,397.422,671.088,397.422z"/>
					</g>
				</g>
			</g>
		</g>
		<g>
			<g>
				<g>
					<g>
						<path fill="#6A655E" d="M642.307,376.572c-0.45,0-0.904-0.15-1.28-0.461c-0.858-0.708-0.981-1.979-0.272-2.836
							c0.31-0.374,0.635-0.746,0.971-1.107c4.25-4.564,9.952-7.272,16.057-7.626c6.141-0.356,11.945,1.709,16.352,5.813
							c0.724,0.672,1.406,1.4,2.033,2.166c0.703,0.862,0.576,2.132-0.285,2.836c-0.863,0.705-2.131,0.576-2.836-0.285
							c-0.51-0.625-1.068-1.219-1.656-1.768c-3.597-3.348-8.344-5.031-13.375-4.74c-5.062,0.294-9.801,2.549-13.34,6.35
							c-0.281,0.303-0.555,0.613-0.811,0.926C643.465,376.322,642.889,376.572,642.307,376.572z"/>
					</g>
				</g>
			</g>
		</g>
		<g>
			<g>
				<g>
					<g>
						<path fill="#6A655E" d="M671.682,404.9c-0.553,0-1.104-0.228-1.502-0.672c-0.741-0.83-0.672-2.104,0.158-2.846
							c0.467-0.418,0.92-0.861,1.346-1.319c4.924-5.288,6.637-12.685,4.467-19.302c-0.346-1.058,0.23-2.196,1.288-2.543
							c1.058-0.346,2.196,0.23,2.543,1.288c2.625,8.011,0.575,16.94-5.349,23.302c-0.508,0.547-1.049,1.078-1.607,1.578
							C672.64,404.73,672.16,404.9,671.682,404.9z"/>
					</g>
				</g>
			</g>
		</g>
	</g>
	<g>
		<g>
			<g>
				<g>
					<path fill="#6A655E" d="M604.502,377.424"/>
				</g>
			</g>
		</g>
	</g>
</g>
</svg>
