<?xml version="1.0" encoding="utf-8"?>
<!-- Generator: Adobe Illustrator 15.0.0, SVG Export Plug-In . SVG Version: 6.00 Build 0)  -->
<!DOCTYPE svg PUBLIC "-//W3C//DTD SVG 1.1//EN" "http://www.w3.org/Graphics/SVG/1.1/DTD/svg11.dtd">
<svg version="1.1" id="Layer_1" xmlns="http://www.w3.org/2000/svg" xmlns:xlink="http://www.w3.org/1999/xlink" x="0px" y="0px"
	 width="1280px" height="768px" viewBox="0 0 1280 768" enable-background="new 0 0 1280 768" xml:space="preserve">
<g>
	<g>
		<g>
			<g>
				<g>
					<g>
						<path fill="#6A655E" d="M607.758,382.686c-1.108,0-2.009-0.896-2.015-2.005c-0.001-0.161-0.001-0.321,0.002-0.482
							c0.087-5.415,2.28-10.477,6.174-14.247c3.895-3.771,9.01-5.806,14.445-5.713c0.264,0.004,0.529,0.014,0.792,0.027
							c1.112,0.059,1.965,1.008,1.906,2.118c-0.059,1.112-1.006,1.97-2.119,1.906c-0.213-0.011-0.428-0.019-0.643-0.022
							c-4.362-0.062-8.458,1.557-11.579,4.578c-3.121,3.022-4.878,7.079-4.948,11.423c-0.003,0.135-0.003,0.263-0.001,0.39
							c0.006,1.113-0.891,2.021-2.004,2.027C607.766,382.686,607.762,382.686,607.758,382.686z"/>
					</g>
				</g>
			</g>
		</g>
		<g>
			<g>
				<g>
					<g>
						<path fill="#6A655E" d="M615.903,382.686c-1.113,0-2.015-0.902-2.015-2.016c0-0.09,0-0.18,0.002-0.271
							c0.05-3.107,1.311-6.02,3.551-8.189c2.241-2.169,5.177-3.351,8.309-3.285c0.147,0.002,0.301,0.007,0.455,0.016
							c1.112,0.059,1.965,1.007,1.906,2.118c-0.058,1.111-1.007,1.963-2.119,1.905c-0.1-0.004-0.199-0.008-0.299-0.01
							c-2.032-0.039-3.981,0.73-5.448,2.151c-1.467,1.421-2.292,3.327-2.325,5.368l-0.001,0.197
							C617.917,381.783,617.016,382.686,615.903,382.686z"/>
					</g>
				</g>
			</g>
		</g>
		<g>
			<g>
				<g>
					<g>
						<path fill="#6A655E" d="M600.318,382.686c-1.11,0-2.01-0.897-2.015-2.007c-0.001-0.195,0-0.392,0.002-0.587
							c0.241-14.935,12.462-26.914,27.339-26.914c0.149,0,0.296,0,0.445,0.003l0.302,0.007c1.113,0.027,1.992,0.951,1.964,2.064
							c-0.027,1.096-0.924,1.965-2.014,1.965c-0.017,0-0.034,0-0.052-0.001l-0.259-0.005c-12.874-0.195-23.489,10.084-23.697,22.939
							c-0.002,0.166-0.002,0.338-0.002,0.511c0.005,1.112-0.893,2.019-2.005,2.024C600.323,382.686,600.32,382.686,600.318,382.686z
							"/>
					</g>
				</g>
			</g>
		</g>
	</g>
	<g>
		<g>
			<g>
				<g>
					<g>
						<path fill="#6A655E" d="M659.898,453.605h-0.082c-2.939,0-5.719-2.799-5.719-5.758v-7.013
							c-1.566-1.47-3.003-3.763-3.003-6.472c0-4.692,3.861-8.51,8.608-8.51c4.672,0,8.333,3.738,8.333,8.51
							c0,2.672-1.286,5.094-3.494,6.68v6.805C664.542,451.238,662.633,453.605,659.898,453.605z M659.703,429.885
							c-2.482,0-4.578,2.051-4.578,4.479c0,1.685,1.183,3.167,2.195,3.924c0.509,0.381,0.809,0.979,0.809,1.613v7.947
							c0,0.742,0.962,1.729,1.688,1.729h0.082c0.321,0,0.613-0.824,0.613-1.729v-7.92c0-0.746,0.411-1.43,1.068-1.779
							c1.52-0.809,2.426-2.223,2.426-3.785C664.006,431.852,662.115,429.885,659.703,429.885z"/>
					</g>
				</g>
			</g>
		</g>
	</g>
	<g>
		<g>
			<g>
				<g>
					<path fill="#6A655E" d="M636.263,421.692c-1.113,0-2.015-0.901-2.015-2.015v-9.162c0-1.113,0.902-2.015,2.015-2.015
						c1.113,0,2.015,0.901,2.015,2.015v9.162C638.278,420.791,637.376,421.692,636.263,421.692z"/>
				</g>
			</g>
		</g>
	</g>
	<g>
		<g>
			<g>
				<g>
					<path fill="#6A655E" d="M672.451,466.127h-25.042c-7.011,0-13.162-6.151-13.162-13.162v-33.898
						c0-1.113,0.902-2.015,2.015-2.015c1.113,0,2.015,0.901,2.015,2.015v33.898c0,4.779,4.353,9.131,9.131,9.131h25.042
						c4.531,0,8.217-4.096,8.217-9.131v-0.305c0-1.113,0.901-2.016,2.015-2.016c1.112,0,2.015,0.902,2.015,2.016v0.305
						C684.697,460.223,679.203,466.127,672.451,466.127z"/>
				</g>
			</g>
		</g>
	</g>
	<g>
		<g>
			<g>
				<g>
					<path fill="#6A655E" d="M682.683,447.735c-1.113,0-2.015-0.901-2.015-2.015v-0.306c0-1.113,0.901-2.015,2.015-2.015
						c1.112,0,2.015,0.901,2.015,2.015v0.306C684.697,446.834,683.795,447.735,682.683,447.735z"/>
				</g>
			</g>
		</g>
	</g>
	<g>
		<g>
			<g>
				<g>
					<path fill="#6A655E" d="M682.683,440.932c-1.113,0-2.015-0.902-2.015-2.016v-49.473c0-1.113,0.901-2.015,2.015-2.015
						c1.112,0,2.015,0.901,2.015,2.015v49.473C684.697,440.029,683.795,440.932,682.683,440.932z"/>
				</g>
			</g>
		</g>
	</g>
	<g>
		<g>
			<g>
				<g>
					<path fill="#6A655E" d="M682.683,379.549c-1.113,0-2.015-0.902-2.015-2.015v-0.306c0-1.113,0.901-2.016,2.015-2.016
						c1.112,0,2.015,0.902,2.015,2.016v0.306C684.697,378.646,683.795,379.549,682.683,379.549z"/>
				</g>
			</g>
		</g>
	</g>
	<g>
		<g>
			<g>
				<g>
					<path fill="#6A655E" d="M682.683,385.352c-1.113,0-2.015-0.902-2.015-2.016v-0.305c0-1.113,0.901-2.016,2.015-2.016
						c1.112,0,2.015,0.902,2.015,2.016v0.305C684.697,384.449,683.795,385.352,682.683,385.352z"/>
				</g>
			</g>
		</g>
	</g>
	<g>
		<g>
			<g>
				<g>
					<path fill="#6A655E" d="M636.263,380.159c-1.113,0-2.015-0.901-2.015-2.015v-12.826c0-6.752,5.905-12.246,13.162-12.246h25.042
						c6.981,0,12.246,5.266,12.246,12.246v6.414c0,1.112-0.902,2.014-2.015,2.014c-1.113,0-2.015-0.901-2.015-2.014v-6.414
						c0-4.76-3.456-8.215-8.217-8.215h-25.042c-5.035,0-9.131,3.685-9.131,8.215v12.826
						C638.278,379.258,637.376,380.159,636.263,380.159z"/>
				</g>
			</g>
		</g>
	</g>
	<g>
		<g>
			<g>
				<g>
					<path fill="#6A655E" d="M636.263,388.71c-1.113,0-2.015-0.901-2.015-2.015v-9.161c0-1.113,0.902-2.015,2.015-2.015
						c1.113,0,2.015,0.901,2.015,2.015v9.161C638.278,387.809,637.376,388.71,636.263,388.71z"/>
				</g>
			</g>
		</g>
	</g>
	<g>
		<g>
			<g>
				<g>
					<path fill="#6A655E" d="M659.799,416.451c-4.871,0-9.449-1.898-12.89-5.346c-0.786-0.788-0.785-2.064,0.003-2.85
						c0.787-0.787,2.063-0.785,2.85,0.002c2.679,2.685,6.244,4.163,10.037,4.163c7.82,0,14.183-6.362,14.183-14.183
						s-6.362-14.183-14.183-14.183c-3.493,0-6.849,1.28-9.449,3.605c-0.829,0.741-2.103,0.671-2.845-0.159
						c-0.741-0.829-0.671-2.104,0.159-2.846c3.34-2.986,7.649-4.631,12.135-4.631c10.042,0,18.213,8.17,18.213,18.213
						S669.841,416.451,659.799,416.451z"/>
				</g>
			</g>
		</g>
	</g>
	<g>
		<g>
			<g>
				<g>
					<path fill="#6A655E" d="M658.1,407.797h-56.193c-4.9,0-8.886-3.985-8.886-8.885c0-4.901,3.986-8.887,8.886-8.887H658.1
						c4.898,0,8.885,3.985,8.885,8.885C666.984,403.812,662.998,407.797,658.1,407.797z M601.907,394.055
						c-2.677,0-4.856,2.178-4.856,4.855c0,2.679,2.179,4.857,4.856,4.857H658.1c2.678,0,4.855-2.179,4.855-4.855
						c0-2.68-2.178-4.857-4.855-4.857H601.907z"/>
				</g>
			</g>
		</g>
	</g>
</g>
</svg>
