<?xml version="1.0" encoding="utf-8"?>
<!-- Generator: Adobe Illustrator 15.0.0, SVG Export Plug-In . SVG Version: 6.00 Build 0)  -->
<!DOCTYPE svg PUBLIC "-//W3C//DTD SVG 1.1//EN" "http://www.w3.org/Graphics/SVG/1.1/DTD/svg11.dtd">
<svg version="1.1" id="Layer_1" xmlns="http://www.w3.org/2000/svg" xmlns:xlink="http://www.w3.org/1999/xlink" x="0px" y="0px"
	 width="1280px" height="768px" viewBox="0 0 1280 768" enable-background="new 0 0 1280 768" xml:space="preserve">
<g>
	<g>
		<g>
			<g>
				<g>
					<path fill="#6A655E" d="M666.697,459.144h-56.146c-5.605,0-10.34-4.702-10.34-10.269v-44.551
						c0-5.537,4.639-10.041,10.34-10.041h34.052c0.058,0,0.115,0.002,0.171,0.007c0.057-0.005,0.114-0.007,0.171-0.007h21.752
						c5.605,0,9.995,4.41,9.995,10.041v44.551C676.692,454.537,672.209,459.144,666.697,459.144z M610.552,398.312
						c-3.479,0-6.31,2.697-6.31,6.012v44.551c0,3.382,2.889,6.238,6.31,6.238h56.146c3.345,0,5.965-2.74,5.965-6.238v-44.551
						c0-3.427-2.564-6.012-5.965-6.012h-21.752c-0.057,0-0.114-0.002-0.171-0.007c-0.056,0.005-0.113,0.007-0.171,0.007H610.552z"/>
				</g>
			</g>
		</g>
	</g>
	<g>
		<g>
			<g>
				<g>
					<path fill="#6A655E" d="M664.284,398.457c-0.005,0-0.01,0-0.015,0c-1.112-0.008-2.008-0.916-2-2.029
						c0.004-0.693,0.006-1.409,0.006-1.658c0-9.04-2.321-30.066-23.824-30.066c-20.729,0-23.823,18.838-23.823,30.066l0.001,0.296
						c0.008,1.113-0.887,2.022-2,2.03c-1.099,0.007-2.022-0.887-2.03-2l-0.001-0.326c0-21.669,10.151-34.097,27.853-34.097
						c17.441,0,27.854,12.747,27.854,34.097c0,0.253-0.002,0.981-0.007,1.686C666.291,397.563,665.391,398.457,664.284,398.457z"/>
				</g>
			</g>
		</g>
	</g>
	<g>
		<g>
			<g>
				<g>
					<path fill="#6A655E" d="M652.857,397.725c-0.018,0-0.035-0.001-0.055-0.002c-1.112-0.029-1.989-0.955-1.96-2.067
						c0.008-0.293,0.011-0.588,0.011-0.885c0-3.202-0.315-6.14-0.938-8.729c-0.261-1.082,0.405-2.17,1.488-2.431
						c1.081-0.261,2.169,0.405,2.431,1.487c0.697,2.898,1.051,6.153,1.051,9.673c0,0.333-0.005,0.663-0.014,0.992
						C654.842,396.857,653.945,397.725,652.857,397.725z"/>
				</g>
			</g>
		</g>
	</g>
	<g>
		<g>
			<g>
				<g>
					<path fill="#6A655E" d="M624.871,396.58c-1.072,0-1.964-0.845-2.011-1.926l-0.014-0.287c-0.014-0.297-0.022-0.449-0.022-0.885
						c0-6.646,1.215-11.94,3.608-15.737c2.738-4.341,7.033-6.636,12.422-6.636c3.662,0,6.816,1.188,9.377,3.531
						c0.821,0.751,0.877,2.025,0.126,2.847s-2.026,0.878-2.847,0.126c-1.794-1.642-4.034-2.474-6.657-2.474
						c-9.918,0-12,9.975-12,18.343c0,0.339,0.006,0.457,0.017,0.688l0.014,0.306c0.049,1.111-0.812,2.053-1.924,2.102
						C624.931,396.579,624.9,396.58,624.871,396.58z"/>
				</g>
			</g>
		</g>
	</g>
	<g>
		<g>
			<g>
				<g>
					<g>
						<path fill="#6A655E" d="M633.487,432.658c-0.366,0-0.736-0.1-1.069-0.309c-3.284-2.062-5.245-5.604-5.245-9.477
							c0-6.164,5.016-11.18,11.18-11.18c6.166,0,11.181,5.016,11.181,11.18c0,1.758-0.398,3.442-1.182,5.006
							c-0.498,0.994-1.709,1.396-2.703,0.899c-0.996-0.499-1.398-1.71-0.898-2.705c0.5-0.998,0.753-2.075,0.753-3.2
							c0-3.942-3.208-7.149-7.151-7.149c-3.942,0-7.15,3.207-7.15,7.149c0,2.478,1.254,4.744,3.356,6.062
							c0.943,0.592,1.228,1.835,0.636,2.777C634.813,432.323,634.157,432.658,633.487,432.658z"/>
					</g>
				</g>
			</g>
		</g>
		<g>
			<g>
				<g>
					<g>
						<path fill="#6A655E" d="M638.538,444.952c-3.333,0-5.945-2.678-5.945-6.097v-6.873c-0.002-0.014-0.006-0.047-0.01-0.081
							c-0.025-0.228-0.067-0.61,0.017-1.056c0.205-1.094,1.26-1.812,2.351-1.61c1.041,0.195,1.743,1.155,1.634,2.19
							c0.001,0.013,0.003,0.026,0.004,0.039c0.014,0.13,0.033,0.308,0.033,0.518v6.873c0,1.179,0.823,2.066,1.915,2.066
							s1.915-0.888,1.915-2.066v-6.867c-0.261-1.041,0.343-2.111,1.381-2.42c1.064-0.317,2.188,0.29,2.506,1.357
							c0.014,0.049,0.022,0.074,0.027,0.089c0.07,0.198,0.156,0.509,0.116,0.928l-0.001,0.04v6.873
							C644.482,442.274,641.871,444.952,638.538,444.952z"/>
					</g>
				</g>
			</g>
		</g>
	</g>
	<g>
		<g>
			<g>
				<g>
					<path fill="#6A655E" d="M652.379,410.615h-27.682c-1.113,0-2.015-0.902-2.015-2.015v-12.645c0-1.113,0.902-2.016,2.015-2.016
						c1.113,0,2.015,0.902,2.015,2.016v10.629h23.651v-10.287c0-1.112,0.902-2.015,2.016-2.015c1.112,0,2.016,0.902,2.016,2.015
						v12.303C654.395,409.713,653.491,410.615,652.379,410.615z"/>
				</g>
			</g>
		</g>
	</g>
	<g>
		<g>
			<g>
				<g>
					<path fill="#6A655E" d="M631.532,409.59c-1.113,0-2.015-0.902-2.015-2.015V396.98c0-1.112,0.902-2.015,2.015-2.015
						c1.113,0,2.015,0.902,2.015,2.015v10.595C633.547,408.688,632.645,409.59,631.532,409.59z"/>
				</g>
			</g>
		</g>
	</g>
	<g>
		<g>
			<g>
				<g>
					<path fill="#6A655E" d="M638.367,409.59c-1.113,0-2.015-0.902-2.015-2.015V396.98c0-1.112,0.902-2.015,2.015-2.015
						c1.113,0,2.015,0.902,2.015,2.015v10.595C640.382,408.688,639.48,409.59,638.367,409.59z"/>
				</g>
			</g>
		</g>
	</g>
	<g>
		<g>
			<g>
				<g>
					<path fill="#6A655E" d="M644.859,409.59c-1.112,0-2.015-0.902-2.015-2.015V396.98c0-1.112,0.902-2.015,2.015-2.015
						c1.113,0,2.016,0.902,2.016,2.015v10.595C646.875,408.688,645.973,409.59,644.859,409.59z"/>
				</g>
			</g>
		</g>
	</g>
	<g>
		<g>
			<g>
				<g>
					<path fill="#6A655E" d="M649.617,382.167c-0.738,0-1.45-0.408-1.803-1.114c-0.37-0.738-0.287-1.588,0.216-2.218
						c0.194-0.243,0.479-0.474,0.833-0.616c0.988-0.471,2.177-0.066,2.669,0.918c0.37,0.738,0.286,1.588-0.216,2.218
						c-0.195,0.243-0.479,0.473-0.833,0.616C650.204,382.104,649.908,382.167,649.617,382.167z"/>
				</g>
			</g>
		</g>
	</g>
</g>
</svg>
