<?xml version="1.0" encoding="utf-8"?>
<!-- Generator: Adobe Illustrator 15.0.0, SVG Export Plug-In . SVG Version: 6.00 Build 0)  -->
<!DOCTYPE svg PUBLIC "-//W3C//DTD SVG 1.1//EN" "http://www.w3.org/Graphics/SVG/1.1/DTD/svg11.dtd">
<svg version="1.1" id="Layer_1" xmlns="http://www.w3.org/2000/svg" xmlns:xlink="http://www.w3.org/1999/xlink" x="0px" y="0px"
	 width="1280px" height="768px" viewBox="0 0 1280 768" enable-background="new 0 0 1280 768" xml:space="preserve">
<g>
	<g>
		<g>
			<g>
				<g>
					<path fill="#6A655E" d="M672.796,364.891c-1.042,0-1.925-0.803-2.007-1.858c-0.086-1.109,0.743-2.079,1.853-2.165
						c1.998-0.156,3.563-1.85,3.563-3.857c0-2.134-1.736-3.87-3.869-3.87c-1.753,0-3.291,1.181-3.74,2.87
						c-0.287,1.076-1.391,1.714-2.467,1.43c-1.074-0.287-1.715-1.391-1.428-2.466c0.918-3.452,4.058-5.864,7.635-5.864
						c4.354,0,7.898,3.545,7.898,7.9c0,4.099-3.197,7.558-7.279,7.875C672.901,364.889,672.849,364.891,672.796,364.891z"/>
				</g>
			</g>
		</g>
	</g>
	<g>
		<g>
			<g>
				<g>
					<path fill="#6A655E" d="M672.713,371.663c-1.107,0-2.008-0.895-2.016-2.003l-0.033-5.957c-0.007-1.112,0.891-2.02,2.002-2.026
						c0.004,0,0.009,0,0.013,0c1.107,0,2.009,0.895,2.015,2.003l0.035,5.956c0.006,1.113-0.891,2.021-2.004,2.027
						C672.721,371.663,672.717,371.663,672.713,371.663z"/>
				</g>
			</g>
		</g>
	</g>
	<g>
		<g>
			<g>
				<g>
					<path fill="#6A655E" d="M700.259,394.553c-1.099,0-1.997-0.883-2.013-1.984c-0.018-1.113,0.87-2.029,1.983-2.046
						c3.926-0.061,5.003-0.123,5.296-0.155c0.298-0.032,1.084-0.117,1.265-1.214c0.148-0.89-0.245-1.653-0.456-1.752
						c-2.311-1.075-33.525-15.611-33.525-15.611l1.701-3.653c0,0,31.214,14.535,33.524,15.61c2.011,0.937,3.158,3.486,2.732,6.063
						c-0.42,2.539-2.261,4.287-4.805,4.562c-0.415,0.046-1.457,0.114-5.671,0.179C700.28,394.553,700.27,394.553,700.259,394.553z"
						/>
				</g>
			</g>
		</g>
	</g>
	<g>
		<g>
			<g>
				<g>
					<path fill="#6A655E" d="M648.08,394.741c-1.112,0-2.015-0.901-2.015-2.015s0.901-2.016,2.015-2.016l8.152-0.002h0.001
						c1.112,0,2.015,0.901,2.015,2.014c0,1.113-0.9,2.016-2.014,2.017L648.08,394.741L648.08,394.741z"/>
				</g>
			</g>
		</g>
	</g>
	<g>
		<g>
			<g>
				<g>
					<path fill="#6A655E" d="M650.577,381.442c-0.771,0-1.505-0.443-1.841-1.192c-0.454-1.016,0-2.207,1.016-2.662
						c9.59-4.293,21.193-9.465,21.193-9.465l1.641,3.682c0,0-11.6,5.17-21.188,9.461
						C651.132,381.386,650.852,381.442,650.577,381.442z"/>
				</g>
			</g>
		</g>
	</g>
	<g>
		<g>
			<g>
				<g>
					<path fill="#6A655E" d="M655.434,385.128c-2.633,0-4.775-2.143-4.775-4.776c0-1.926,1.146-3.654,2.922-4.402
						c1.026-0.433,2.207,0.049,2.639,1.074c0.434,1.025-0.049,2.207-1.073,2.639c-0.211,0.09-0.457,0.323-0.457,0.689
						c0,0.412,0.334,0.746,0.745,0.746c0.355,0,0.664-0.252,0.732-0.598c0.218-1.092,1.276-1.802,2.369-1.585
						c1.092,0.217,1.801,1.278,1.584,2.369C659.678,383.512,657.706,385.128,655.434,385.128z"/>
				</g>
			</g>
		</g>
	</g>
	<g>
		<g>
			<g>
				<g>
					<path fill="#6A655E" d="M690.096,385.443c-2.273,0-4.243-1.616-4.685-3.844c-0.216-1.092,0.493-2.152,1.585-2.369
						c1.088-0.218,2.151,0.493,2.367,1.585c0.07,0.347,0.377,0.599,0.732,0.599c0.412,0,0.747-0.336,0.747-0.746
						c0-0.366-0.247-0.601-0.458-0.689c-1.025-0.434-1.506-1.615-1.073-2.641s1.614-1.506,2.64-1.072
						c1.774,0.748,2.922,2.477,2.922,4.402C694.873,383.301,692.73,385.443,690.096,385.443z"/>
				</g>
			</g>
		</g>
	</g>
	<g>
		<g>
			<g>
				<g>
					<g>
						<path fill="#6A655E" d="M643.461,470.49H572.65c-3.995,0-7.246-3.25-7.246-7.246v-90.525c0-3.996,3.25-7.246,7.246-7.246
							h70.811c3.995,0,7.246,3.25,7.246,7.246v90.525C650.707,467.24,647.456,470.49,643.461,470.49z M572.65,369.503
							c-1.773,0-3.215,1.442-3.215,3.216v90.525c0,1.773,1.442,3.216,3.215,3.216h70.811c1.773,0,3.216-1.442,3.216-3.216v-90.525
							c0-1.773-1.442-3.216-3.216-3.216H572.65z"/>
					</g>
				</g>
			</g>
		</g>
		<g>
			<g>
				<g>
					<g>
						<path fill="#6A655E" d="M648.406,395.253h-9.084c-1.113,0-2.015-0.901-2.015-2.015s0.902-2.016,2.015-2.016h9.084
							c1.113,0,2.016,0.902,2.016,2.016S649.52,395.253,648.406,395.253z"/>
					</g>
				</g>
			</g>
		</g>
		<g>
			<g>
				<g>
					<g>
						<path fill="#6A655E" d="M633.611,395.253h-11.008c-1.113,0-2.015-0.901-2.015-2.015s0.902-2.016,2.015-2.016h11.008
							c1.112,0,2.015,0.902,2.015,2.016S634.724,395.253,633.611,395.253z"/>
					</g>
				</g>
			</g>
		</g>
		<g>
			<g>
				<g>
					<g>
						<path fill="#6A655E" d="M617.711,395.253h-0.408c-1.113,0-2.015-0.901-2.015-2.015s0.902-2.016,2.015-2.016h0.408
							c1.113,0,2.014,0.902,2.014,2.016S618.824,395.253,617.711,395.253z"/>
					</g>
				</g>
			</g>
		</g>
		<g>
			<g>
				<g>
					<g>
						<path fill="#6A655E" d="M611.596,395.253h-42.768c-1.113,0-2.014-0.901-2.014-2.015s0.901-2.016,2.014-2.016h42.768
							c1.112,0,2.015,0.902,2.015,2.016S612.708,395.253,611.596,395.253z"/>
					</g>
				</g>
			</g>
		</g>
		<g>
			<g>
				<g>
					<g>
						<path fill="#6A655E" d="M618.695,386.992c-3.89,0-7.055-3.164-7.055-7.053c0-3.89,3.165-7.055,7.055-7.055
							c3.889,0,7.053,3.165,7.053,7.055C625.748,383.828,622.584,386.992,618.695,386.992z M618.695,376.914
							c-1.668,0-3.024,1.357-3.024,3.025c0,1.667,1.356,3.023,3.024,3.023c1.667,0,3.023-1.356,3.023-3.023
							C621.718,378.271,620.362,376.914,618.695,376.914z"/>
					</g>
				</g>
			</g>
		</g>
		<g>
			<g>
				<g>
					<g>
						<path fill="#6A655E" d="M635.773,386.546c-3.693,0-6.697-3.005-6.697-6.697s3.004-6.697,6.697-6.697s6.697,3.005,6.697,6.697
							S639.466,386.546,635.773,386.546z M635.773,377.182c-1.47,0-2.667,1.196-2.667,2.667s1.197,2.667,2.667,2.667
							c1.471,0,2.668-1.196,2.668-2.667S637.245,377.182,635.773,377.182z"/>
					</g>
				</g>
			</g>
		</g>
		<g>
			<g>
				<g>
					<g>
						<path fill="#6A655E" d="M586.239,415.461c-0.435,0-0.872-0.139-1.241-0.428c-0.876-0.687-1.03-1.953-0.344-2.829
							c0.095-0.122,0.255-0.325,0.502-0.507c-0.162,0.116-0.269,0.229-0.32,0.287l0.04-0.048c0.714-0.854,1.985-0.967,2.839-0.253
							c0.854,0.715,0.966,1.985,0.252,2.839c-0.028,0.034-0.064,0.077-0.108,0.126l-0.032,0.04
							C587.429,415.196,586.837,415.461,586.239,415.461z"/>
					</g>
				</g>
			</g>
		</g>
		<g>
			<g>
				<g>
					<g>
						<path fill="#6A655E" d="M608.491,461.947c-16.862,0-30.581-13.718-30.581-30.581c0-4.849,1.165-9.678,3.368-13.964
							c0.509-0.99,1.723-1.381,2.713-0.871c0.99,0.508,1.38,1.723,0.872,2.713c-1.939,3.772-2.922,7.852-2.922,12.122
							c0,14.641,11.911,26.552,26.551,26.552c14.641,0,26.552-11.911,26.552-26.552c0-14.64-11.911-26.551-26.552-26.551
							c-6.108,0-11.85,2.017-16.604,5.831c-0.868,0.697-2.136,0.559-2.833-0.311c-0.697-0.867-0.558-2.136,0.311-2.832
							c5.399-4.332,12.191-6.719,19.126-6.719c16.863,0,30.582,13.719,30.582,30.581
							C639.073,448.229,625.354,461.947,608.491,461.947z"/>
					</g>
				</g>
			</g>
		</g>
		<g>
			<g>
				<g>
					<g>
						<path fill="#6A655E" d="M608.491,451.756c-11.02,0-19.985-8.967-19.985-19.986c0-11.021,8.965-19.987,19.985-19.987
							c7.688,0,14.781,4.491,18.073,11.441c0.476,1.005,0.046,2.207-0.959,2.683c-1.004,0.477-2.207,0.048-2.684-0.958
							c-2.628-5.55-8.292-9.136-14.431-9.136c-8.797,0-15.956,7.158-15.956,15.957c0,8.798,7.158,15.956,15.956,15.956
							c5.906,0,11.304-3.239,14.088-8.455c0.524-0.982,1.745-1.353,2.727-0.829c0.982,0.524,1.353,1.745,0.829,2.727
							C622.648,447.699,615.888,451.756,608.491,451.756z"/>
					</g>
				</g>
			</g>
		</g>
		<g>
			<g>
				<g>
					<g>
						<path fill="#6A655E" d="M624.744,440.851c-0.179,0-0.361-0.024-0.542-0.074c-4.159-1.157-7.063-4.984-7.063-9.306
							c0-3.82,2.258-7.289,5.752-8.836c1.018-0.452,2.208,0.008,2.658,1.025c0.451,1.018-0.009,2.209-1.026,2.658
							c-2.037,0.902-3.354,2.925-3.354,5.152c0,2.519,1.691,4.749,4.114,5.424c1.073,0.298,1.699,1.409,1.401,2.48
							C626.436,440.267,625.625,440.851,624.744,440.851z"/>
					</g>
				</g>
			</g>
		</g>
		<g>
			<g>
				<g>
					<g>
						<path fill="#6A655E" d="M605.465,423.812c-0.554,0-1.091-0.225-1.485-0.654c-0.396-0.431-0.69-1.161-0.438-1.978
							c0.106-0.522,0.42-1.002,0.909-1.307c0.833-0.52,1.886-0.407,2.557,0.273c0.423,0.429,0.746,1.161,0.5,1.987
							c-0.106,0.589-0.472,1.124-1.042,1.426C606.144,423.73,605.801,423.812,605.465,423.812z"/>
					</g>
				</g>
			</g>
		</g>
		<g>
			<g>
				<g>
					<g>
						<path fill="#6A655E" d="M604.328,443.93c-0.271,0-0.547-0.056-0.812-0.172c-4.5-1.982-7.408-6.441-7.408-11.359
							c0-2.807,0.964-5.558,2.714-7.746c0.695-0.868,1.962-1.009,2.832-0.314c0.869,0.696,1.01,1.964,0.314,2.833
							c-1.198,1.497-1.831,3.305-1.831,5.228c0,3.321,1.964,6.332,5.004,7.671c1.018,0.449,1.48,1.639,1.032,2.657
							C605.84,443.48,605.102,443.93,604.328,443.93z"/>
					</g>
				</g>
			</g>
		</g>
		<g>
			<g>
				<g>
					<g>
						<path fill="#6A655E" d="M596.481,387.206h-19.499c-1.947,0-3.531-1.48-3.531-3.301v-7.085c0-1.819,1.584-3.301,3.531-3.301
							h19.499c1.947,0,3.531,1.481,3.531,3.301v7.085C600.012,385.726,598.428,387.206,596.481,387.206z M577.482,383.176h18.5
							v-5.626h-18.5V383.176z"/>
					</g>
				</g>
			</g>
		</g>
		<g>
			<g>
				<g>
					<g>
						<path fill="#6A655E" d="M608.058,378.96c-0.532,0-1.052-0.218-1.427-0.593s-0.589-0.895-0.589-1.422
							c0-0.533,0.214-1.053,0.589-1.428c0.375-0.374,0.895-0.592,1.427-0.592c0.528,0,1.048,0.218,1.423,0.592
							c0.375,0.375,0.592,0.895,0.592,1.428c0,0.527-0.217,1.047-0.592,1.422S608.586,378.96,608.058,378.96z"/>
					</g>
				</g>
			</g>
		</g>
		<g>
			<g>
				<g>
					<g>
						<path fill="#6A655E" d="M608.058,384.992c-0.532,0-1.052-0.213-1.427-0.592c-0.375-0.375-0.589-0.895-0.589-1.423
							c0-0.532,0.214-1.052,0.589-1.427s0.895-0.588,1.427-0.588c0.528,0,1.048,0.213,1.423,0.588s0.592,0.895,0.592,1.427
							c0,0.528-0.217,1.048-0.592,1.423C609.105,384.779,608.586,384.992,608.058,384.992z"/>
					</g>
				</g>
			</g>
		</g>
	</g>
	<g>
		<g>
			<g>
				<g>
					<path fill="#6A655E" d="M699.518,433.227c-1.113,0-2.016-0.901-2.016-2.015v-10.075c0-1.113,0.902-2.015,2.016-2.015
						s2.015,0.901,2.015,2.015v10.075C701.532,432.325,700.631,433.227,699.518,433.227z"/>
				</g>
			</g>
		</g>
	</g>
	<g>
		<g>
			<g>
				<g>
					<path fill="#6A655E" d="M699.518,416.704c-1.113,0-2.016-0.902-2.016-2.016v-0.402c0-1.113,0.902-2.016,2.016-2.016
						s2.015,0.902,2.015,2.016v0.402C701.532,415.802,700.631,416.704,699.518,416.704z"/>
				</g>
			</g>
		</g>
	</g>
	<g>
		<g>
			<g>
				<g>
					<path fill="#6A655E" d="M699.518,410.659c-1.113,0-2.016-0.902-2.016-2.016V389.3H659.62v14.911
						c0,1.113-0.901,2.015-2.015,2.015s-2.016-0.901-2.016-2.015v-16.926c0-1.113,0.902-2.016,2.016-2.016h41.912
						c1.113,0,2.015,0.902,2.015,2.016v21.358C701.532,409.757,700.631,410.659,699.518,410.659z"/>
				</g>
			</g>
		</g>
	</g>
	<g>
		<g>
			<g>
				<g>
					<path fill="#6A655E" d="M683.545,403.705c-0.833,0-1.612-0.521-1.902-1.353l-2.742-7.87l-2.615,7.845
						c-0.352,1.056-1.495,1.626-2.549,1.274c-1.057-0.353-1.627-1.494-1.274-2.549l4.485-13.453
						c0.271-0.818,1.035-1.371,1.896-1.377c0.006,0,0.01,0,0.014,0c0.857,0,1.621,0.541,1.903,1.352l4.688,13.452
						c0.365,1.051-0.189,2.2-1.24,2.566C683.989,403.669,683.766,403.705,683.545,403.705z"/>
				</g>
			</g>
		</g>
	</g>
	<g>
		<g>
			<g>
				<g>
					<path fill="#6A655E" d="M698.711,434.436h-16.522c-1.113,0-2.016-0.901-2.016-2.015s0.902-2.015,2.016-2.015h16.522
						c1.113,0,2.016,0.901,2.016,2.015S699.824,434.436,698.711,434.436z"/>
				</g>
			</g>
		</g>
	</g>
	<g>
		<g>
			<g>
				<g>
					<g>
						<path fill="#6A655E" d="M662.068,467.871c-0.005,0-0.011,0-0.015,0l-5.308-0.036c-0.533-0.003-1.045-0.22-1.42-0.6
							c-0.375-0.381-0.584-0.895-0.58-1.429l0.367-53.642c0.004-0.534,0.22-1.046,0.601-1.421c0.38-0.375,0.899-0.574,1.429-0.58
							l5.307,0.037c1.111,0.008,2.008,0.916,2,2.029l-0.367,53.639C664.074,466.979,663.174,467.871,662.068,467.871z
							 M658.789,463.818l1.277,0.009l0.34-49.61l-1.276-0.009L658.789,463.818z"/>
					</g>
				</g>
			</g>
		</g>
		<g>
			<g>
				<g>
					<g>
						<path fill="#6A655E" d="M687.428,470.28c-0.005,0-0.01,0-0.014,0l-18.783-0.129c-0.961-0.007-1.784-0.691-1.965-1.637
							c-0.062-0.297-0.727-3.071-3.622-3.515c-1.1-0.168-1.854-1.196-1.687-2.297c0.168-1.1,1.191-1.854,2.297-1.687
							c3.879,0.594,5.669,3.314,6.441,5.114l15.843,0.109c0.581-2.271,1.495-7.4,0.274-14.264
							c-1.545-8.686-6.926-22.018-23.781-36.197c-0.852-0.717-0.961-1.988-0.244-2.84s1.986-0.961,2.839-0.244
							c17.917,15.073,23.597,29.459,25.206,38.873c1.776,10.391-0.818,17.152-0.93,17.436
							C688.999,469.774,688.255,470.28,687.428,470.28z"/>
					</g>
				</g>
			</g>
		</g>
		<g>
			<g>
				<g>
					<g>
						<path fill="#6A655E" d="M676.529,463.128L676.529,463.128c-1.837,0-3.424-0.396-4.717-1.175
							c-2.24-1.351-3.512-3.784-3.777-7.232c-0.286-3.736-0.289-8.535-0.007-12.523c0.013-0.183,0.019-0.368,0.025-0.555
							c0.039-1.119,0.093-2.653,1.306-3.922c0.664-0.692,1.553-1.058,2.571-1.058c1.7,0,3.372,1.032,4.218,1.648
							c1.965,1.431,3.178,2.813,4.449,4.344c1.787,2.149,2.74,4.464,3.564,6.649c0.55,1.461,1.836,6.277,0.579,9.155
							c-0.948,2.173-2.101,3.647-4.905,4.28C678.701,462.998,677.588,463.128,676.529,463.128z M672.172,440.732
							c-0.063,0.261-0.078,0.674-0.09,1.051c-0.009,0.234-0.018,0.468-0.033,0.697c-0.27,3.807-0.268,8.378,0.005,11.932
							c0.159,2.074,0.778,3.45,1.839,4.09c0.656,0.396,1.543,0.596,2.637,0.596l0,0c0.748,0,1.584-0.1,2.417-0.288
							c1.175-0.265,1.489-0.559,2.103-1.963c0.489-1.121,0.04-4.267-0.659-6.122c-0.731-1.941-1.503-3.823-2.892-5.494
							c-1.135-1.365-2.129-2.502-3.722-3.661C673.183,441.137,672.557,440.836,672.172,440.732z"/>
					</g>
				</g>
			</g>
		</g>
		<g>
			<g>
				<g>
					<g>
						<path fill="#6A655E" d="M674.541,454.451c-0.004,0-0.01,0-0.014,0c-1.113-0.008-2.01-0.916-2.002-2.028l0.048-6.954
							c0.009-1.107,0.909-2.001,2.015-2.001c0.005,0,0.01,0,0.015,0c1.112,0.008,2.009,0.917,2.001,2.029l-0.048,6.953
							C676.548,453.559,675.647,454.451,674.541,454.451z"/>
					</g>
				</g>
			</g>
		</g>
		<g>
			<g>
				<g>
					<g>
						<path fill="#6A655E" d="M690.54,468.427c-1.017,0-1.89-0.767-2.001-1.801c-0.119-1.106,0.684-2.1,1.789-2.218l0.936-0.1
							c0.297-0.033,0.5-0.267,0.516-0.354l0.045-6.842c-0.056-0.064-0.188-0.159-0.359-0.187l-0.837-0.129
							c-1.101-0.168-1.855-1.195-1.688-2.296c0.168-1.1,1.194-1.855,2.296-1.688l0.854,0.131c2.168,0.351,3.778,2.11,3.766,4.098
							l-0.048,6.949c-0.016,2.175-1.822,4.073-4.111,4.323l-0.94,0.101C690.684,468.423,690.611,468.427,690.54,468.427z"/>
					</g>
				</g>
			</g>
		</g>
	</g>
</g>
</svg>
