<?xml version="1.0" encoding="utf-8"?>
<!-- Generator: Adobe Illustrator 15.0.0, SVG Export Plug-In . SVG Version: 6.00 Build 0)  -->
<!DOCTYPE svg PUBLIC "-//W3C//DTD SVG 1.1//EN" "http://www.w3.org/Graphics/SVG/1.1/DTD/svg11.dtd">
<svg version="1.1" id="Layer_1" xmlns="http://www.w3.org/2000/svg" xmlns:xlink="http://www.w3.org/1999/xlink" x="0px" y="0px"
	 width="1280px" height="768px" viewBox="0 0 1280 768" enable-background="new 0 0 1280 768" xml:space="preserve">
<g>
	<g>
		<g>
			<g>
				<g>
					<g>
						<path fill="#6A655E" d="M607.234,382.072c-1.108,0-2.01-0.896-2.015-2.006c-0.005-1.113,0.893-2.02,2.005-2.024l13.233-0.062
							c0.003,0,0.006,0,0.01,0c1.108,0,2.01,0.896,2.014,2.006c0.006,1.112-0.893,2.019-2.005,2.023l-13.233,0.062
							C607.241,382.072,607.237,382.072,607.234,382.072z"/>
					</g>
				</g>
			</g>
		</g>
		<g>
			<g>
				<g>
					<g>
						<g>
							<g>
								<path fill="#6A655E" d="M609.641,404.516c-1.112,0-2.014-0.9-2.015-2.014c-0.002-1.112,0.9-2.016,2.013-2.017l8.712-0.011
									h0.002c1.111,0,2.013,0.9,2.015,2.013c0,1.113-0.9,2.017-2.013,2.018l-8.712,0.011
									C609.643,404.516,609.642,404.516,609.641,404.516z"/>
							</g>
						</g>
					</g>
				</g>
				<g>
					<g>
						<g>
							<g>
								<path fill="#6A655E" d="M614.049,403.803c-0.005,0-0.011,0-0.018,0c-1.112-0.01-2.007-0.92-1.997-2.032l0.062-7.47
									c0.009-1.107,0.91-1.998,2.014-1.998c0.006,0,0.012,0,0.018,0c1.113,0.009,2.007,0.918,1.998,2.031l-0.062,7.47
									C616.055,402.911,615.154,403.803,614.049,403.803z"/>
							</g>
						</g>
					</g>
				</g>
			</g>
			<g>
				<g>
					<g>
						<g>
							<path fill="#6A655E" d="M613.783,396.106c0,0-0.001,0-0.002,0c-4.933-0.003-8.947-4.019-8.949-8.953l0.004-6.423
								c0.001-0.286,0.015-0.572,0.043-0.878c0.103-1.108,1.08-1.924,2.192-1.821c1.108,0.104,1.923,1.085,1.82,2.193
								c-0.017,0.183-0.025,0.35-0.026,0.511l-0.004,6.419c0.001,2.712,2.208,4.921,4.919,4.922h0.002
								c2.712,0,4.921-2.206,4.923-4.919l0.001-3.636c0-0.167-0.007-0.325-0.022-0.489c-0.104-1.108,0.711-2.091,1.819-2.194
								c1.107-0.104,2.09,0.712,2.194,1.82c0.027,0.29,0.04,0.583,0.039,0.871l-0.001,3.63
								C622.734,392.094,618.717,396.106,613.783,396.106z"/>
						</g>
					</g>
				</g>
			</g>
		</g>
	</g>
	<g>
		<g>
			<g>
				<g>
					<path fill="#6A655E" d="M638.319,442.986h-49.212c-1.113,0-2.016-0.902-2.016-2.016v-70.463c0-1.112,0.902-2.015,2.016-2.015
						h43.978c1.113,0,2.015,0.902,2.015,2.015c0,1.113-0.902,2.016-2.015,2.016h-41.963v66.433h47.198
						c1.113,0,2.015,0.902,2.015,2.015C640.334,442.084,639.432,442.986,638.319,442.986z"/>
				</g>
			</g>
		</g>
	</g>
	<g>
		<g>
			<g>
				<g>
					<path fill="#6A655E" d="M638.711,374.415"/>
				</g>
			</g>
		</g>
	</g>
	<g>
		<g>
			<g>
				<g>
					<path fill="#6A655E" d="M687.924,442.986h-49.212c-1.113,0-2.015-0.902-2.015-2.016c0-1.112,0.902-2.015,2.015-2.015h47.198
						v-66.433h-21.267c-1.112,0-2.015-0.902-2.015-2.016c0-1.112,0.902-2.015,2.015-2.015h23.281c1.113,0,2.016,0.902,2.016,2.015
						v70.463C689.939,442.084,689.037,442.986,687.924,442.986z"/>
				</g>
			</g>
		</g>
	</g>
	<g>
		<g>
			<g>
				<g>
					<path fill="#6A655E" d="M660.965,388.171"/>
				</g>
			</g>
		</g>
	</g>
	<g>
		<g>
			<g>
				<g>
					<path fill="#6A655E" d="M638.886,451.854c-2.945,0-5.609-1.63-6.951-4.254l-0.917-1.793l3.587-1.836l0.918,1.794
						c0.649,1.27,1.938,2.059,3.363,2.059c1.402,0,2.682-0.771,3.337-2.014l0.942-1.781l3.562,1.884l-0.941,1.781
						C644.43,450.259,641.786,451.854,638.886,451.854z"/>
				</g>
			</g>
		</g>
	</g>
	<g>
		<g>
			<g>
				<g>
					<path fill="#6A655E" d="M634.849,448.615h-51.502c-1.113,0-2.015-0.902-2.015-2.015v-73.52c0-1.112,0.902-2.015,2.015-2.015
						h7.329v4.029h-5.314v69.489h49.487V448.615z"/>
				</g>
			</g>
		</g>
	</g>
	<g>
		<g>
			<g>
				<g>
					<path fill="#6A655E" d="M693.979,448.911h-51.501v-4.03h49.486v-68.896h-4.425v-4.03h6.439c1.112,0,2.015,0.902,2.015,2.016
						v72.926C695.994,448.009,695.092,448.911,693.979,448.911z"/>
				</g>
			</g>
		</g>
	</g>
	<g>
		<g>
			<g>
				<g>
					<path fill="#6A655E" d="M638.576,375.874c-0.413,0-0.826-0.127-1.177-0.379l-4.252-3.058c-0.903-0.649-1.109-1.908-0.459-2.812
						c0.649-0.903,1.909-1.109,2.812-0.459l3.096,2.225l3.79-2.635c0.338-0.234,0.739-0.361,1.149-0.361h10.31
						c1.112,0,2.015,0.902,2.015,2.016c0,1.112-0.902,2.015-2.015,2.015h-9.677l-4.442,3.089
						C639.381,375.754,638.979,375.874,638.576,375.874z"/>
				</g>
			</g>
		</g>
	</g>
	<g>
		<g>
			<g>
				<g>
					<g>
						<rect x="600.168" y="408.847" fill="#6A655E" width="27.503" height="4.03"/>
					</g>
				</g>
			</g>
		</g>
		<g>
			<g>
				<g>
					<g>
						<rect x="600.168" y="418.203" fill="#6A655E" width="27.503" height="4.03"/>
					</g>
				</g>
			</g>
		</g>
		<g>
			<g>
				<g>
					<g>
						<rect x="600.168" y="427.394" fill="#6A655E" width="27.503" height="4.03"/>
					</g>
				</g>
			</g>
		</g>
	</g>
	<g>
		<g>
			<g>
				<g>
					<g>
						<rect x="658.164" y="380.828" fill="#6A655E" width="19.666" height="4.029"/>
					</g>
				</g>
			</g>
		</g>
		<g>
			<g>
				<g>
					<g>
						<rect x="650.327" y="390.185" fill="#6A655E" width="27.503" height="4.03"/>
					</g>
				</g>
			</g>
		</g>
		<g>
			<g>
				<g>
					<g>
						<rect x="650.327" y="399.375" fill="#6A655E" width="27.503" height="4.03"/>
					</g>
				</g>
			</g>
		</g>
		<g>
			<g>
				<g>
					<g>
						<rect x="650.522" y="408.584" fill="#6A655E" width="27.503" height="4.03"/>
					</g>
				</g>
			</g>
		</g>
	</g>
	<g>
		<g>
			<g>
				<g>
					<path fill="#6A655E" d="M636.038,435.366c0-1.112,0.903-2.015,2.015-2.015l0,0c1.112,0,2.015,0.902,2.015,2.015l0,0
						c0,1.112-0.903,2.015-2.015,2.015l0,0C636.94,437.381,636.038,436.479,636.038,435.366z M636.038,427.306
						c0-1.112,0.903-2.015,2.015-2.015l0,0c1.112,0,2.015,0.902,2.015,2.015l0,0c0,1.112-0.903,2.016-2.015,2.016l0,0
						C636.94,429.321,636.038,428.418,636.038,427.306z M636.038,419.246c0-1.112,0.903-2.016,2.015-2.016l0,0
						c1.112,0,2.015,0.903,2.015,2.016l0,0c0,1.112-0.903,2.015-2.015,2.015l0,0C636.94,421.261,636.038,420.358,636.038,419.246z
						 M636.038,411.186c0-1.111,0.903-2.015,2.015-2.015l0,0c1.112,0,2.015,0.903,2.015,2.015l0,0c0,1.113-0.903,2.016-2.015,2.016
						l0,0C636.94,413.201,636.038,412.299,636.038,411.186z M636.038,403.126c0-1.112,0.903-2.015,2.015-2.015l0,0
						c1.112,0,2.015,0.902,2.015,2.015l0,0c0,1.112-0.903,2.015-2.015,2.015l0,0C636.94,405.141,636.038,404.238,636.038,403.126z
						 M636.038,395.066c0-1.113,0.903-2.016,2.015-2.016l0,0c1.112,0,2.015,0.902,2.015,2.016l0,0c0,1.111-0.903,2.015-2.015,2.015
						l0,0C636.94,397.081,636.038,396.178,636.038,395.066z M636.038,387.006c0-1.112,0.903-2.016,2.015-2.016l0,0
						c1.112,0,2.015,0.903,2.015,2.016l0,0c0,1.112-0.903,2.015-2.015,2.015l0,0C636.94,389.021,636.038,388.118,636.038,387.006z
						 M636.038,378.945c0-1.111,0.903-2.015,2.015-2.015l0,0c1.112,0,2.015,0.903,2.015,2.015l0,0c0,1.113-0.903,2.016-2.015,2.016
						l0,0C636.94,380.961,636.038,380.059,636.038,378.945z"/>
				</g>
			</g>
		</g>
	</g>
	<g>
		<g>
			<g>
				<g>
					<path fill="#6A655E" d="M637.372,435.366c0-1.112,0.902-2.015,2.015-2.015l0,0c1.112,0,2.015,0.902,2.015,2.015l0,0
						c0,1.112-0.903,2.015-2.015,2.015l0,0C638.274,437.381,637.372,436.479,637.372,435.366z M637.372,427.306
						c0-1.112,0.902-2.015,2.015-2.015l0,0c1.112,0,2.015,0.902,2.015,2.015l0,0c0,1.112-0.903,2.016-2.015,2.016l0,0
						C638.274,429.321,637.372,428.418,637.372,427.306z M637.372,419.246c0-1.112,0.902-2.016,2.015-2.016l0,0
						c1.112,0,2.015,0.903,2.015,2.016l0,0c0,1.112-0.903,2.015-2.015,2.015l0,0C638.274,421.261,637.372,420.358,637.372,419.246z
						 M637.372,411.186c0-1.111,0.902-2.015,2.015-2.015l0,0c1.112,0,2.015,0.903,2.015,2.015l0,0c0,1.113-0.903,2.016-2.015,2.016
						l0,0C638.274,413.201,637.372,412.299,637.372,411.186z M637.372,403.126c0-1.112,0.902-2.015,2.015-2.015l0,0
						c1.112,0,2.015,0.902,2.015,2.015l0,0c0,1.112-0.903,2.015-2.015,2.015l0,0C638.274,405.141,637.372,404.238,637.372,403.126z
						 M637.372,395.066c0-1.113,0.902-2.016,2.015-2.016l0,0c1.112,0,2.015,0.902,2.015,2.016l0,0c0,1.111-0.903,2.015-2.015,2.015
						l0,0C638.274,397.081,637.372,396.178,637.372,395.066z M637.372,387.006c0-1.112,0.902-2.016,2.015-2.016l0,0
						c1.112,0,2.015,0.903,2.015,2.016l0,0c0,1.112-0.903,2.015-2.015,2.015l0,0C638.274,389.021,637.372,388.118,637.372,387.006z
						 M637.372,378.945c0-1.111,0.902-2.015,2.015-2.015l0,0c1.112,0,2.015,0.903,2.015,2.015l0,0c0,1.113-0.903,2.016-2.015,2.016
						l0,0C638.274,380.961,637.372,380.059,637.372,378.945z"/>
				</g>
			</g>
		</g>
	</g>
	<g>
		<g>
			<g>
				<g>
					<path fill="#6A655E" d="M659.322,372.599c-0.531,0-1.051-0.214-1.425-0.589c-0.375-0.374-0.59-0.895-0.59-1.426
						c0-0.528,0.215-1.049,0.59-1.423c0.374-0.375,0.894-0.593,1.425-0.593c0.529,0,1.049,0.218,1.424,0.593
						c0.375,0.374,0.592,0.895,0.592,1.423c0,0.531-0.217,1.052-0.592,1.426C660.371,372.385,659.852,372.599,659.322,372.599z"/>
				</g>
			</g>
		</g>
	</g>
</g>
</svg>
