<?xml version="1.0" encoding="utf-8"?>
<!-- Generator: Adobe Illustrator 15.0.0, SVG Export Plug-In . SVG Version: 6.00 Build 0)  -->
<!DOCTYPE svg PUBLIC "-//W3C//DTD SVG 1.1//EN" "http://www.w3.org/Graphics/SVG/1.1/DTD/svg11.dtd">
<svg version="1.1" id="Layer_1" xmlns="http://www.w3.org/2000/svg" xmlns:xlink="http://www.w3.org/1999/xlink" x="0px" y="0px"
	 width="1280px" height="768px" viewBox="0 0 1280 768" enable-background="new 0 0 1280 768" xml:space="preserve">
<g>
	<g>
		<g>
			<g>
				<g>
					<path fill="#6A655E" d="M647.112,467.902c-1.315,0-2.599-0.268-3.813-0.793l-56.022-24.232
						c-2.357-1.019-4.177-2.896-5.122-5.283c-0.946-2.388-0.905-5.001,0.114-7.358l32.408-74.923
						c1.524-3.523,4.989-5.799,8.828-5.799c1.315,0,2.599,0.266,3.814,0.791l56.021,24.231c4.866,2.105,7.113,7.776,5.008,12.643
						l-32.407,74.923C654.416,465.625,650.951,467.902,647.112,467.902z M623.504,353.543c-2.23,0-4.244,1.322-5.129,3.37
						l-32.408,74.923c-0.592,1.369-0.615,2.887-0.066,4.273c0.55,1.387,1.606,2.478,2.976,3.069l56.022,24.232
						c0.708,0.306,1.452,0.461,2.214,0.461c2.23,0,4.244-1.323,5.129-3.37l32.409-74.924c1.222-2.826-0.084-6.12-2.91-7.344
						l-56.021-24.23C625.011,353.698,624.266,353.543,623.504,353.543z"/>
				</g>
			</g>
		</g>
	</g>
	<g>
		<g>
			<g>
				<g>
					<path fill="#6A655E" d="M653.445,470.199c-1.318,0-2.658-0.238-3.943-0.746c-1.034-0.41-1.542-1.581-1.133-2.615
						c0.41-1.036,1.58-1.543,2.615-1.133c2.971,1.176,6.661-0.036,7.744-2.541l32.073-74.15c0.572-1.324,0.589-2.793,0.048-4.137
						c-0.535-1.322-1.553-2.376-2.874-2.978c-0.044-0.014-0.093-0.029-0.151-0.05c-1.055-0.353-1.624-1.494-1.271-2.55
						s1.495-1.624,2.551-1.271l0.021,0.007c0.18,0.016,0.156,0.036,0.349,0.119c2.35,1.017,4.165,2.868,5.112,5.213
						c0.949,2.351,0.919,4.924-0.086,7.245l-32.073,74.151C660.965,468.146,657.303,470.199,653.445,470.199z"/>
				</g>
			</g>
		</g>
	</g>
	<g>
		<g>
			<g>
				<g>
					<path fill="#6A655E" d="M645.055,446.685c-0.268,0-0.539-0.054-0.799-0.166l-43.433-18.786
						c-1.021-0.441-1.491-1.628-1.049-2.649s1.628-1.491,2.649-1.049l43.433,18.786c1.021,0.441,1.49,1.627,1.049,2.648
						C646.575,446.229,645.834,446.685,645.055,446.685z"/>
				</g>
			</g>
		</g>
	</g>
	<g>
		<g>
			<g>
				<g>
					<path fill="#6A655E" d="M638.761,422.286c-3.22,0-6.361-0.653-9.338-1.94c-11.918-5.155-17.42-19.045-12.266-30.964
						c3.732-8.63,12.221-14.206,21.625-14.206c3.22,0,6.36,0.654,9.339,1.941c11.918,5.154,17.419,19.045,12.265,30.963
						C656.652,416.71,648.164,422.286,638.761,422.286z M638.782,379.206c-7.795,0-14.832,4.622-17.926,11.776
						c-4.273,9.878,0.288,21.391,10.166,25.664c2.469,1.068,5.073,1.61,7.739,1.61c7.795,0,14.832-4.623,17.926-11.776
						c4.271-9.879-0.289-21.393-10.167-25.664C644.051,379.748,641.447,379.206,638.782,379.206z"/>
				</g>
			</g>
		</g>
	</g>
	<g>
		<g>
			<g>
				<g>
					<path fill="#6A655E" d="M658.296,409.448c-0.267,0-0.538-0.054-0.799-0.167l-38.606-16.698
						c-1.021-0.441-1.491-1.628-1.049-2.649c0.441-1.021,1.628-1.491,2.649-1.049l38.607,16.698c1.021,0.441,1.49,1.628,1.049,2.649
						C659.816,408.993,659.075,409.448,658.296,409.448z"/>
				</g>
			</g>
		</g>
	</g>
	<g>
		<g>
			<g>
				<g>
					<path fill="#6A655E" d="M630.373,420.163c-0.265,0-0.534-0.053-0.793-0.164c-1.023-0.438-1.496-1.624-1.058-2.646l16.58-38.649
						c0.438-1.023,1.622-1.497,2.646-1.058c1.022,0.438,1.496,1.624,1.058,2.646l-16.58,38.649
						C631.897,419.705,631.154,420.163,630.373,420.163z"/>
				</g>
			</g>
		</g>
	</g>
	<g>
		<g>
			<g>
				<g>
					<path fill="#6A655E" d="M630.004,419.449c-0.516,0-1.031-0.194-1.426-0.584c-2.782-2.742-8.873-20.64,2.528-33.198
						c2.499-2.751,5.92-6.52,13.271-8.458c1.075-0.282,2.179,0.359,2.462,1.436s-0.358,2.179-1.435,2.462
						c-6.197,1.633-8.916,4.628-11.314,7.27c-5.234,5.766-5.92,12.581-5.575,17.282c0.395,5.357,2.263,9.633,2.907,10.354
						c0.792,0.781,0.794,2.049,0.013,2.842C631.043,419.252,630.524,419.449,630.004,419.449z"/>
				</g>
			</g>
		</g>
	</g>
	<g>
		<g>
			<g>
				<g>
					<path fill="#6A655E" d="M631.776,420.205c-0.036,0-0.071,0-0.105-0.001c-1.112-0.043-1.979-0.979-1.936-2.092
						c0.042-1.111,0.967-1.993,2.091-1.936c1.217-0.05,10.312-3.428,15.366-11.55c4.183-6.721,4.303-14.639,0.356-23.535
						c-0.451-1.017,0.008-2.207,1.024-2.658c1.017-0.452,2.208,0.008,2.659,1.024c5.856,13.202,2.582,22.614-1.195,28.188
						C644.412,415.939,634.699,420.205,631.776,420.205z"/>
				</g>
			</g>
		</g>
	</g>
</g>
</svg>
