<?xml version="1.0" encoding="utf-8"?>
<!-- Generator: Adobe Illustrator 15.0.0, SVG Export Plug-In . SVG Version: 6.00 Build 0)  -->
<!DOCTYPE svg PUBLIC "-//W3C//DTD SVG 1.1//EN" "http://www.w3.org/Graphics/SVG/1.1/DTD/svg11.dtd">
<svg version="1.1" id="Layer_1" xmlns="http://www.w3.org/2000/svg" xmlns:xlink="http://www.w3.org/1999/xlink" x="0px" y="0px"
	 width="1280px" height="768px" viewBox="0 0 1280 768" enable-background="new 0 0 1280 768" xml:space="preserve">
<g>
	<g>
		<g>
			<g>
				<g>
					<g>
						<path fill="#6A655E" d="M659.826,455.646c-0.106,0-0.213-0.008-0.316-0.024c-0.033,0.001-0.07,0.001-0.112,0.002
							c-1.112,0.021-2.036-0.854-2.062-1.967s0.854-2.036,1.968-2.062c0.098-0.003,0.193-0.002,0.283,0.001
							c0.086-0.024,0.176-0.047,0.271-0.067c1.085-0.241,2.161,0.443,2.403,1.529c0.242,1.087-0.443,2.162-1.529,2.404
							c-0.049,0.011-0.088,0.02-0.123,0.027c-0.168,0.07-0.348,0.119-0.535,0.142C659.99,455.643,659.908,455.646,659.826,455.646z"
							/>
					</g>
				</g>
			</g>
		</g>
		<g>
			<g>
				<g>
					<g>
						<path fill="#6A655E" d="M666.232,452.639c-0.594,0-1.182-0.262-1.58-0.764c-0.691-0.872-0.545-2.139,0.329-2.83
							c0.646-0.514,1.161-0.981,1.62-1.475c2.27-2.432,2.93-3.823,2.824-5.953c-0.053-1.111,0.806-2.057,1.916-2.109
							c1.109-0.058,2.057,0.803,2.109,1.914c0.182,3.729-1.357,6.169-3.9,8.897c-0.594,0.635-1.27,1.251-2.068,1.884
							C667.113,452.496,666.672,452.639,666.232,452.639z"/>
					</g>
				</g>
			</g>
		</g>
		<g>
			<g>
				<g>
					<g>
						<path fill="#6A655E" d="M621.404,456.229c-4.547,0.001-9.387-2.07-12.332-4.256c-5.422-4.021-7.677-9.147-6.521-14.828
							c1.471-7.223,7.098-11.447,12.539-15.534c3.402-2.554,6.615-4.966,8.809-8.024c0.564-0.789,1.051-1.552,1.521-2.291
							c1.314-2.064,2.557-4.015,5.077-5.904c3.807-2.855,8.222-3.748,12.426-2.515c5.146,1.51,9.583,6.082,11.871,12.23
							c1.304,3.498,4.042,7.274,7.518,10.359c0.837,0.744,1.812,1.471,2.843,2.24c2.703,2.016,5.766,4.302,7.131,7.657
							c0.42,1.031-0.076,2.207-1.107,2.626s-2.206-0.077-2.626-1.107c-0.941-2.316-3.415-4.161-5.808-5.945
							c-1.053-0.786-2.143-1.599-3.109-2.457c-2.321-2.062-6.528-6.358-8.617-11.967c-1.848-4.964-5.299-8.616-9.23-9.77
							c-2.998-0.88-6.066-0.233-8.873,1.871c-1.932,1.449-2.887,2.948-4.096,4.846c-0.498,0.784-1.016,1.596-1.645,2.474
							c-2.553,3.562-6.168,6.275-9.664,8.9c-5.062,3.801-9.845,7.392-11.01,13.114c-0.834,4.094,0.84,7.723,4.973,10.787
							c2.988,2.218,7.466,3.663,10.648,3.438c2.279-0.159,4.593-0.776,7.039-1.429c3.51-0.937,7.139-1.904,10.912-1.529
							c2.613,0.261,5.157,0.808,7.616,1.336c1.619,0.349,3.149,0.678,4.67,0.924c1.099,0.178,1.845,1.212,1.668,2.311
							s-1.213,1.845-2.312,1.668c-1.623-0.263-3.275-0.618-4.875-0.962c-2.351-0.506-4.781-1.028-7.167-1.267
							c-3.044-0.302-6.167,0.53-9.474,1.413c-2.523,0.673-5.131,1.369-7.795,1.556C622.074,456.218,621.739,456.229,621.404,456.229
							z"/>
					</g>
				</g>
			</g>
		</g>
		<g>
			<g>
				<g>
					<g>
						<path fill="#6A655E" d="M625.779,399.891c-6.241,0-12.108-6.655-13.949-15.825c-2.031-10.132,1.648-19.127,8.377-20.478
							c0.551-0.11,1.115-0.167,1.68-0.167c6.242,0,12.109,6.655,13.949,15.826c0.937,4.663,0.673,9.306-0.742,13.073
							c-1.537,4.096-4.248,6.725-7.635,7.403C626.909,399.834,626.344,399.891,625.779,399.891z M621.887,367.451
							c-0.299,0-0.597,0.029-0.887,0.088c-4.363,0.876-6.754,8.081-5.219,15.733c1.418,7.059,5.809,12.588,9.998,12.588
							c0.299,0,0.597-0.029,0.887-0.088c1.973-0.396,3.625-2.124,4.655-4.868c1.153-3.072,1.353-6.93,0.563-10.863
							C630.469,372.981,626.075,367.451,621.887,367.451z"/>
					</g>
				</g>
			</g>
		</g>
		<g>
			<g>
				<g>
					<g>
						<path fill="#6A655E" d="M605.959,420.072c-5.9,0-11.953-5.771-14.719-14.032c-3.279-9.8-0.749-19.183,5.76-21.361
							c0.877-0.294,1.799-0.442,2.74-0.442c5.9,0,11.953,5.77,14.719,14.032c3.279,9.8,0.75,19.183-5.76,21.36
							C607.823,419.923,606.9,420.072,605.959,420.072z M599.74,388.266c-0.506,0-0.996,0.079-1.461,0.234
							c-4.221,1.413-5.693,8.859-3.217,16.262c2.152,6.431,6.838,11.28,10.896,11.28c0.506,0,0.997-0.079,1.461-0.233
							c4.221-1.413,5.695-8.859,3.219-16.262C608.484,393.116,603.799,388.266,599.74,388.266z"/>
					</g>
				</g>
			</g>
		</g>
		<g>
			<g>
				<g>
					<g>
						<g>
							<path fill="#6A655E" d="M651.119,401.34L651.119,401.34c-0.634,0-1.265-0.07-1.879-0.209
								c-3.369-0.758-6.018-3.449-7.459-7.579c-1.326-3.8-1.48-8.447-0.436-13.087c2.021-8.98,7.958-15.498,14.114-15.498
								c0.633,0,1.264,0.07,1.878,0.209c6.695,1.508,10.164,10.586,7.895,20.667C663.209,394.822,657.273,401.34,651.119,401.34z
								 M655.46,368.997c-4.148,0-8.622,5.426-10.183,12.353c-0.882,3.915-0.771,7.777,0.309,10.874
								c0.966,2.768,2.579,4.534,4.539,4.977c0.324,0.072,0.658,0.109,0.994,0.109c4.148,0.001,8.621-5.425,10.182-12.352
								c1.715-7.614-0.507-14.873-4.848-15.851C656.129,369.034,655.795,368.997,655.46,368.997z"/>
						</g>
					</g>
				</g>
			</g>
			<g>
				<g>
					<g>
						<g>
							<path fill="#6A655E" d="M670.469,421.98L670.469,421.98c-1.016,0-2.004-0.172-2.939-0.51
								c-3.248-1.172-5.541-4.173-6.457-8.45c-0.841-3.936-0.416-8.566,1.2-13.039c2.909-8.059,9.009-13.687,14.832-13.687
								c1.015,0,2.004,0.171,2.94,0.51c6.455,2.33,8.765,11.77,5.258,21.489C682.393,416.353,676.293,421.98,670.469,421.98z
								 M677.104,390.325c-4.026,0-8.772,4.739-11.041,11.024c-1.364,3.774-1.736,7.619-1.049,10.828
								c0.612,2.866,1.991,4.82,3.884,5.503c0.494,0.179,1.023,0.27,1.57,0.27c4.025,0,8.773-4.739,11.042-11.024
								c2.649-7.341,1.353-14.82-2.835-16.331C678.18,390.416,677.65,390.325,677.104,390.325z"/>
						</g>
					</g>
				</g>
			</g>
		</g>
	</g>
	<g>
		<g>
			<g>
				<g>
					<g>
						<path fill="#6A655E" d="M639.189,446.289c-0.672,0-1.326-0.336-1.709-0.945c-0.592-0.943-0.307-2.187,0.637-2.777
							c3.482-2.184,11.639-7.295,11.977-13.452c0.161-2.956-2.405-6.048-5.185-6.242c-0.822-0.058-1.534,0.011-1.952,0.188
							c-1.361,0.579-2.443,1.517-2.561,1.882c-0.307,1.07-1.424,1.688-2.492,1.381c-1.07-0.307-1.689-1.423-1.382-2.492
							c0.75-2.615,4.18-4.19,4.86-4.48c1.027-0.435,2.309-0.602,3.808-0.497c4.954,0.346,9.208,5.343,8.927,10.481
							c-0.396,7.264-7.229,12.491-13.86,16.646C639.925,446.189,639.555,446.289,639.189,446.289z"/>
					</g>
				</g>
			</g>
		</g>
		<g>
			<g>
				<g>
					<g>
						<path fill="#6A655E" d="M638.36,446.289c-0.369,0-0.741-0.102-1.075-0.313c-1.429-0.904-13.971-9.056-14.385-16.641
							c-0.283-5.14,3.973-10.137,8.926-10.482c1.499-0.104,2.78,0.062,3.807,0.497c0.682,0.29,4.111,1.864,4.863,4.479
							c0.043,0.15,0.068,0.307,0.076,0.463l0.103,2.225c0.052,1.111-0.808,2.055-1.919,2.105c-1.11,0.048-2.055-0.807-2.105-1.92
							l-0.087-1.881c-0.271-0.421-1.273-1.237-2.506-1.762c-0.415-0.176-1.126-0.244-1.95-0.187
							c-2.777,0.194-5.346,3.286-5.185,6.242c0.229,4.175,7.8,10.47,12.517,13.456c0.941,0.596,1.221,1.841,0.625,2.781
							C639.682,445.957,639.029,446.289,638.36,446.289z"/>
					</g>
				</g>
			</g>
		</g>
	</g>
</g>
</svg>
