<?xml version="1.0" encoding="utf-8"?>
<!-- Generator: Adobe Illustrator 15.0.0, SVG Export Plug-In . SVG Version: 6.00 Build 0)  -->
<!DOCTYPE svg PUBLIC "-//W3C//DTD SVG 1.1//EN" "http://www.w3.org/Graphics/SVG/1.1/DTD/svg11.dtd">
<svg version="1.1" id="Layer_1" xmlns="http://www.w3.org/2000/svg" xmlns:xlink="http://www.w3.org/1999/xlink" x="0px" y="0px"
	 width="1280px" height="768px" viewBox="0 0 1280 768" enable-background="new 0 0 1280 768" xml:space="preserve">
<g>
	<g>
		<g>
			<g>
				<g>
					<g>
						<g>
							<g>
								<g>
									<path fill="#6A655E" d="M601.126,417.365c-4.17,0-5.767-1.982-6.356-3.221c-0.759-1.591-0.611-3.578,0.346-4.622
										c0.451-0.491,1.745-1.626,4.89-4.372c1.566-1.367,3.463-3.023,5.612-4.918c4.307-3.797,7.96-7.265,11.185-10.325
										c7.044-6.687,12.133-11.517,17.452-13.419c0.031-0.011,0.062-0.021,0.094-0.03c0.274-0.083,2.81-0.788,7.154,0.099
										c0.807,0.166,2.902,0.766,6.846,1.9c7.438,2.14,24.855,7.147,27.443,6.742c1.584-0.291,3.523-0.999,5.764-2.105
										c0.998-0.492,2.207-0.082,2.699,0.916c0.493,0.997,0.084,2.205-0.914,2.698c-2.576,1.271-4.871,2.098-6.825,2.454
										c-2.843,0.525-12.483-2-29.282-6.832c-3.139-0.904-5.848-1.684-6.538-1.824c-3.057-0.625-4.876-0.26-5.165-0.193
										c-4.494,1.641-9.308,6.209-15.954,12.518c-3.249,3.084-6.932,6.58-11.293,10.426c-2.155,1.899-4.057,3.56-5.627,4.931
										c-1.96,1.712-3.691,3.223-4.34,3.834c0.003,0.144,0.041,0.37,0.213,0.58c0.215,0.261,0.958,0.854,3.225,0.715
										c3.089-0.19,13.521-6.929,24.804-16.021c3.14-2.531,4.841-4.348,4.858-4.365c0.758-0.814,2.032-0.861,2.847-0.104
										s0.862,2.03,0.106,2.847c-0.076,0.08-1.893,2.029-5.283,4.761c-4.802,3.87-20.948,16.527-27.084,16.905
										C601.698,417.356,601.406,417.365,601.126,417.365z"/>
								</g>
							</g>
						</g>
					</g>
					<g>
						<g>
							<g>
								<g>
									<path fill="#6A655E" d="M686.425,384.407c-0.611,0-1.218-0.278-1.613-0.808c-0.521-0.693-0.524-1.615-0.079-2.305
										c0.152-0.258,0.365-0.487,0.633-0.662c1.787-1.172,2.922,0.404,2.934,0.42c0.115,0.164,1.076,1.645-0.666,2.951
										C687.27,384.275,686.846,384.407,686.425,384.407z"/>
								</g>
							</g>
						</g>
					</g>
				</g>
				<g>
					<g>
						<g>
							<g>
								<path fill="#6A655E" d="M612.898,419.246c-0.234,0-0.472-0.011-0.716-0.033c-4.179-0.391-6.669-3.922-6.773-4.072
									l-1.147-1.656l3.312-2.294l1.142,1.647c0.06,0.082,1.589,2.152,3.841,2.361c1.577,0.148,2.948-0.781,6.168-3.086
									c0.713-0.51,1.491-1.065,2.357-1.666l1.656-1.148l2.296,3.312l-1.656,1.148c-0.848,0.587-1.611,1.133-2.308,1.632
									C617.877,417.676,615.683,419.246,612.898,419.246z"/>
							</g>
						</g>
					</g>
				</g>
				<g>
					<g>
						<g>
							<g>
								<path fill="#6A655E" d="M661.973,415.256c-11.665,0-32.763-2.852-34.436-3.437c-3.102-1.088-5.02-3.298-5.133-5.913
									c-0.146-3.347,1.448-6.094,4.158-7.169c3.465-1.374,23.439-1.464,27.408-1.468c0.001,0,0.002,0,0.002,0
									c1.112,0,2.014,0.9,2.016,2.014c0.002,1.111-0.9,2.016-2.014,2.016c-11.305,0.012-24.094,0.459-25.925,1.186
									c-1.083,0.429-1.688,1.643-1.618,3.246c0.058,1.324,1.82,2.064,2.41,2.275c2.91,0.797,32.542,4.457,38.292,2.842
									c3.018-0.848,10.809-4.402,16.295-7.209c0.992-0.508,2.205-0.115,2.712,0.876c0.508,0.991,0.114,2.204-0.876,2.712
									c-4.549,2.326-13.198,6.421-17.04,7.501C666.893,415.102,664.688,415.256,661.973,415.256z"/>
							</g>
						</g>
					</g>
				</g>
				<g>
					<g>
						<g>
							<g>
								<path fill="#6A655E" d="M642.945,401.289c-0.232,0-0.466-0.04-0.695-0.125c-2.755-1.012-8.009-3.493-10.211-4.946
									c-0.929-0.612-1.186-1.862-0.574-2.791c0.612-0.93,1.862-1.187,2.792-0.573c1.799,1.186,6.623,3.514,9.383,4.528
									c1.045,0.384,1.581,1.543,1.196,2.587C644.537,400.783,643.766,401.289,642.945,401.289z"/>
							</g>
						</g>
					</g>
				</g>
			</g>
			<g>
				<g>
					<g>
						<g>
							<polygon fill="#6A655E" points="699.365,406.096 681.606,372.483 694.43,364.877 696.486,368.342 686.961,373.992 
								701.02,400.602 711.726,394.762 713.656,398.301 							"/>
						</g>
					</g>
				</g>
			</g>
			<g>
				<g>
					<g>
						<g>
							<path fill="#6A655E" d="M630.843,455.822h-48.208c-1.112,0-2.015-0.902-2.015-2.016s0.903-2.015,2.015-2.015h48.208
								c1.113,0,2.015,0.901,2.015,2.015S631.956,455.822,630.843,455.822z"/>
						</g>
					</g>
				</g>
			</g>
			<g>
				<g>
					<g>
						<g>
							<path fill="#6A655E" d="M630.469,455.695c-1.084,0-1.979-0.861-2.013-1.952c-0.363-11.763-9.872-20.977-21.648-20.977
								c-11.473,0-20.97,8.962-21.623,20.403c-0.063,1.111-1.011,1.952-2.127,1.896c-1.11-0.062-1.96-1.016-1.896-2.126
								c0.774-13.572,12.04-24.204,25.646-24.204c6.721,0,13.077,2.578,17.898,7.261c4.809,4.672,7.572,10.93,7.779,17.622
								c0.034,1.111-0.84,2.041-1.952,2.076C630.511,455.695,630.489,455.695,630.469,455.695z"/>
						</g>
					</g>
				</g>
			</g>
			<g>
				<g>
					<g>
						<g>
							<path fill="#6A655E" d="M620.398,449.223c-0.808,0-1.571-0.49-1.88-1.289c-0.852-2.203-2.323-4.098-4.253-5.48
								c-0.906-0.648-1.113-1.906-0.465-2.812c0.648-0.904,1.907-1.111,2.812-0.465c2.571,1.842,4.531,4.367,5.666,7.305
								c0.402,1.038-0.114,2.205-1.152,2.605C620.885,449.18,620.64,449.223,620.398,449.223z"/>
						</g>
					</g>
				</g>
			</g>
			<g>
				<g>
					<g>
						<g>
							<path fill="#6A655E" d="M609.636,440.039c-0.13,0-0.262-0.014-0.394-0.039c-1.146-0.227-1.63-1.121-1.697-1.818
								c-0.026-0.266,0.003-0.572,0.108-0.873c0.28-0.936,1.206-1.555,2.205-1.416c1.115,0.152,1.712,1,1.81,1.771
								c0.037,0.288,0.008,0.601-0.095,0.903C611.33,439.443,610.528,440.039,609.636,440.039z"/>
						</g>
					</g>
				</g>
			</g>
			<g>
				<g>
					<g>
						<g>
							<path fill="#6A655E" d="M610.757,431.842c-0.053,0-0.109-0.001-0.164-0.006c-1.109-0.09-1.936-1.061-1.846-2.17
								c0.005-0.059,0.007-0.118,0.007-0.178c0-1.15-0.938-2.088-2.088-2.088c-1.151,0-2.089,0.938-2.089,2.088
								c0.04,1.113-0.83,2.044-1.942,2.084c-1.115,0.037-2.046-0.834-2.086-1.945c-0.001-0.046-0.002-0.092-0.002-0.139
								c0-3.373,2.745-6.118,6.119-6.118c3.374,0,6.119,2.745,6.119,6.118c0,0.169-0.007,0.336-0.02,0.502
								C612.679,431.043,611.796,431.842,610.757,431.842z"/>
						</g>
					</g>
				</g>
			</g>
			<g>
				<g>
					<g>
						<g>
							<path fill="#6A655E" d="M574.498,445.793c-0.047,0-0.095-0.002-0.144-0.006c-1.11-0.077-1.947-1.041-1.869-2.15
								c0.653-9.27,7.325-18.209,16.224-21.74c1.035-0.41,2.206,0.096,2.617,1.131c0.41,1.033-0.095,2.205-1.13,2.615
								c-7.513,2.981-13.143,10.496-13.69,18.277C576.431,444.982,575.546,445.793,574.498,445.793z"/>
						</g>
					</g>
				</g>
			</g>
			<g>
				<g>
					<g>
						<g>
							<path fill="#6A655E" d="M564.858,444.908c-1.089,0-1.985-0.867-2.014-1.962c-0.351-13.356,9.069-26.272,22.398-30.714
								c1.056-0.35,2.197,0.22,2.549,1.275c0.352,1.057-0.22,2.197-1.276,2.549c-11.687,3.894-19.948,15.158-19.643,26.783
								c0.029,1.113-0.849,2.039-1.961,2.068C564.894,444.908,564.875,444.908,564.858,444.908z"/>
						</g>
					</g>
				</g>
			</g>
		</g>
		<g>
			<g>
				<g>
					<g>
						<path fill="#6A655E" d="M583.128,405.75c-0.978,0-1.836-0.713-1.989-1.709l-1.022-6.642l-4.086,2.497
							c-0.569,0.348-1.274,0.393-1.882,0.117c-0.607-0.275-1.039-0.834-1.154-1.491l-1.481-8.521
							c-0.191-1.097,0.543-2.14,1.639-2.329c1.098-0.191,2.14,0.543,2.33,1.639l0.975,5.602l4.14-2.529
							c0.575-0.353,1.289-0.393,1.9-0.108c0.611,0.284,1.04,0.854,1.142,1.521l1.482,9.633c0.169,1.099-0.584,2.129-1.685,2.298
							C583.333,405.742,583.23,405.75,583.128,405.75z"/>
					</g>
				</g>
			</g>
		</g>
	</g>
	<g>
		<g>
			<circle fill="#6A655E" cx="682.191" cy="385.52" r="2.015"/>
		</g>
	</g>
</g>
</svg>
