<?xml version="1.0" encoding="utf-8"?>
<!-- Generator: Adobe Illustrator 15.0.0, SVG Export Plug-In . SVG Version: 6.00 Build 0)  -->
<!DOCTYPE svg PUBLIC "-//W3C//DTD SVG 1.1//EN" "http://www.w3.org/Graphics/SVG/1.1/DTD/svg11.dtd">
<svg version="1.1" id="Layer_1" xmlns="http://www.w3.org/2000/svg" xmlns:xlink="http://www.w3.org/1999/xlink" x="0px" y="0px"
	 width="1280px" height="768px" viewBox="0 0 1280 768" enable-background="new 0 0 1280 768" xml:space="preserve">
<g>
	<g>
		<g>
			<g>
				<g>
					<path fill="#6A655E" d="M692.107,446.885c-0.001,0-0.004,0-0.006,0c-1.113-0.004-2.012-0.908-2.009-2.021l0.229-69.852
						c-2.889,1.245-7.3,4.127-7.3,10.128v24.499l4.663,0.135c1.111,0.033,1.987,0.961,1.955,2.073
						c-0.032,1.113-0.955,1.969-2.072,1.956l-6.619-0.193c-1.09-0.031-1.957-0.924-1.957-2.014V385.14
						c0-9.624,8.464-13.948,12.939-14.892c0.596-0.125,1.216,0.025,1.687,0.41c0.472,0.383,0.745,0.961,0.743,1.568l-0.238,72.65
						C694.119,445.987,693.218,446.885,692.107,446.885z"/>
				</g>
			</g>
		</g>
	</g>
	<g>
		<g>
			<g>
				<g>
					<path fill="#6A655E" d="M637.854,438.753l-0.226-0.001c-7.198-0.059-13.942-2.918-18.989-8.049
						c-5.048-5.133-7.794-11.922-7.735-19.12c0.12-14.737,12.207-26.726,26.942-26.726l0.226,0.001
						c7.197,0.06,13.941,2.918,18.989,8.05c5.048,5.131,7.795,11.922,7.735,19.119C664.676,426.764,652.589,438.753,637.854,438.753
						z M637.846,388.888c-12.532,0-22.81,10.196-22.913,22.729c-0.051,6.122,2.286,11.896,6.578,16.261
						c4.292,4.363,10.028,6.795,16.149,6.846h0.193c12.531,0,22.811-10.195,22.914-22.729c0.051-6.121-2.286-11.896-6.578-16.26
						c-4.293-4.365-10.029-6.796-16.15-6.846L637.846,388.888z"/>
				</g>
			</g>
		</g>
	</g>
	<g>
		<g>
			<g>
				<g>
					<path fill="#6A655E" d="M637.85,450.685c-21.438,0-38.878-17.441-38.878-38.88c0-21.438,17.441-38.879,38.878-38.879
						c21.438,0,38.88,17.441,38.88,38.879C676.729,433.243,659.288,450.685,637.85,450.685z M637.85,376.957
						c-19.215,0-34.848,15.633-34.848,34.848c0,19.217,15.633,34.85,34.848,34.85c19.217,0,34.85-15.633,34.85-34.85
						C672.699,392.59,657.066,376.957,637.85,376.957z"/>
				</g>
			</g>
		</g>
	</g>
	<g>
		<g>
			<g>
				<g>
					<g>
						<path fill="#6A655E" d="M639.792,430.495c-1.025,0-1.902-0.778-2.003-1.82c-0.107-1.107,0.704-2.093,1.811-2.2
							c7.081-0.688,12.422-6.58,12.422-13.707c0-3.04-0.971-5.921-2.805-8.331c-0.675-0.886-0.503-2.149,0.383-2.823
							c0.885-0.675,2.148-0.504,2.823,0.383c2.374,3.117,3.628,6.842,3.628,10.771c0,9.212-6.904,16.829-16.062,17.719
							C639.923,430.492,639.856,430.495,639.792,430.495z"/>
					</g>
				</g>
			</g>
		</g>
	</g>
	<g>
		<g>
			<g>
				<g>
					<path fill="#6A655E" d="M583.731,394.488c-1.113,0-2.015-0.902-2.015-2.016v-17.751c0-1.112,0.902-2.015,2.015-2.015
						s2.015,0.902,2.015,2.015v17.751C585.747,393.586,584.844,394.488,583.731,394.488z"/>
				</g>
			</g>
		</g>
	</g>
	<g>
		<g>
			<g>
				<g>
					<path fill="#6A655E" d="M590.477,392.713c-1.113,0-2.015-0.902-2.015-2.016v-16.33c0-1.113,0.902-2.016,2.015-2.016
						c1.113,0,2.015,0.902,2.015,2.016v16.33C592.492,391.811,591.59,392.713,590.477,392.713z"/>
				</g>
			</g>
		</g>
	</g>
	<g>
		<g>
			<g>
				<g>
					<path fill="#6A655E" d="M597.222,394.488c-1.113,0-2.015-0.902-2.015-2.016v-17.751c0-1.112,0.902-2.015,2.015-2.015
						s2.015,0.902,2.015,2.015v17.751C599.237,393.586,598.335,394.488,597.222,394.488z"/>
				</g>
			</g>
		</g>
	</g>
	<g>
		<g>
			<g>
				<g>
					<path fill="#6A655E" d="M589.605,399.719c-0.456,0-0.909-0.153-1.278-0.456l-5.728-4.698c-0.86-0.707-0.986-1.977-0.28-2.836
						c0.705-0.861,1.975-0.986,2.835-0.281l4.6,3.773l6.343-4.033c0.938-0.598,2.185-0.32,2.781,0.619
						c0.598,0.939,0.32,2.185-0.619,2.781l-7.574,4.816C590.355,399.615,589.979,399.719,589.605,399.719z"/>
				</g>
			</g>
		</g>
	</g>
	<g>
		<g>
			<g>
				<g>
					<path fill="#6A655E" d="M589.781,446.99c-0.001,0-0.005,0-0.007,0c-1.113-0.005-2.012-0.91-2.007-2.023l0.173-46.572
						c0.004-1.109,0.906-2.007,2.015-2.007c0.002,0,0.004,0,0.007,0c1.113,0.005,2.012,0.909,2.008,2.022l-0.174,46.572
						C591.792,446.093,590.892,446.99,589.781,446.99z"/>
				</g>
			</g>
		</g>
	</g>
</g>
</svg>
