<?xml version="1.0" encoding="utf-8"?>
<!-- Generator: Adobe Illustrator 15.0.0, SVG Export Plug-In . SVG Version: 6.00 Build 0)  -->
<!DOCTYPE svg PUBLIC "-//W3C//DTD SVG 1.1//EN" "http://www.w3.org/Graphics/SVG/1.1/DTD/svg11.dtd">
<svg version="1.1" id="Layer_1" xmlns="http://www.w3.org/2000/svg" xmlns:xlink="http://www.w3.org/1999/xlink" x="0px" y="0px"
	 width="1280px" height="768px" viewBox="0 0 1280 768" enable-background="new 0 0 1280 768" xml:space="preserve">
<g>
	<g>
		<g>
			<g>
				<g>
					<path fill="#6A655E" d="M699.252,417.76h-0.004l-121.185-0.238c-1.114-0.002-2.015-0.906-2.013-2.019
						c0.004-1.112,0.904-2.011,2.016-2.011h0.004l121.185,0.237c1.112,0.002,2.015,0.906,2.011,2.019
						C701.264,416.859,700.363,417.76,699.252,417.76z"/>
				</g>
			</g>
		</g>
	</g>
	<g>
		<g>
			<g>
				<g>
					<path fill="#6A655E" d="M681.038,415.537c-1.032,0-1.912-0.789-2.005-1.837c-1.949-21.974-20.823-39.188-42.967-39.188
						c-5.744,0-11.246,0.95-16.355,2.821c-1.045,0.383-2.202-0.154-2.585-1.199s0.153-2.202,1.198-2.585
						c5.555-2.035,11.523-3.067,17.742-3.067c11.84,0,23.171,4.412,31.904,12.42c8.688,7.969,14.041,18.779,15.076,30.441
						c0.1,1.108-0.721,2.087-1.828,2.186C681.157,415.534,681.098,415.537,681.038,415.537z"/>
				</g>
			</g>
		</g>
	</g>
	<g>
		<g>
			<g>
				<g>
					<path fill="#6A655E" d="M607.684,383.707c-0.597,0-1.187-0.264-1.584-0.77c-0.688-0.875-0.536-2.142,0.339-2.83
						c2.236-1.759,4.714-3.314,7.362-4.621c0.998-0.492,2.205-0.083,2.697,0.914c0.493,0.998,0.084,2.207-0.914,2.699
						c-2.396,1.184-4.636,2.59-6.656,4.176C608.559,383.566,608.119,383.707,607.684,383.707z"/>
				</g>
			</g>
		</g>
	</g>
	<g>
		<g>
			<g>
				<g>
					<path fill="#6A655E" d="M603.568,387.42c-0.543,0-1.084-0.219-1.482-0.65c-0.754-0.818-0.701-2.093,0.116-2.847
						c0.161-0.147,0.32-0.294,0.483-0.438c0.828-0.743,2.101-0.674,2.846,0.154c0.742,0.828,0.674,2.102-0.155,2.846
						c-0.149,0.133-0.295,0.267-0.442,0.402C604.547,387.242,604.057,387.42,603.568,387.42z"/>
				</g>
			</g>
		</g>
	</g>
	<g>
		<g>
			<g>
				<g>
					<path fill="#6A655E" d="M590.969,417.373c-0.032,0-0.066,0-0.1-0.002c-1.111-0.053-1.969-0.997-1.916-2.108
						c0.47-9.823,3.951-19.102,10.07-26.835c0.691-0.872,1.959-1.02,2.832-0.329c0.871,0.69,1.02,1.958,0.328,2.831
						c-5.593,7.067-8.775,15.549-9.204,24.525C592.927,416.533,592.037,417.373,590.969,417.373z"/>
				</g>
			</g>
		</g>
	</g>
	<g>
		<g>
			<g>
				<g>
					<path fill="#6A655E" d="M630.236,374.008c-0.748,0-1.467-0.418-1.814-1.137c-0.547-1.126-0.824-2.336-0.824-3.596
						c0-4.551,3.703-8.254,8.254-8.254s8.255,3.703,8.255,8.254c0,0.933-0.155,1.847-0.459,2.718
						c-0.368,1.051-1.519,1.604-2.567,1.237c-1.051-0.367-1.605-1.516-1.238-2.566c0.155-0.443,0.233-0.91,0.233-1.389
						c0-2.329-1.894-4.225-4.224-4.225c-2.329,0-4.223,1.896-4.223,4.225c0,0.646,0.141,1.264,0.418,1.838
						c0.486,1.002,0.068,2.207-0.934,2.693C630.83,373.943,630.531,374.008,630.236,374.008z"/>
				</g>
			</g>
		</g>
	</g>
	<g>
		<g>
			<g>
				<g>
					<g>
						<path fill="#6A655E" d="M669.301,410.881c-0.903,0-1.728-0.613-1.953-1.531c-3.658-14.801-11.95-21.069-18.264-23.721
							c-1.026-0.432-1.508-1.611-1.077-2.639c0.432-1.025,1.612-1.507,2.639-1.076c7.163,3.008,16.554,10.043,20.614,26.469
							c0.267,1.08-0.393,2.173-1.473,2.439C669.624,410.863,669.461,410.881,669.301,410.881z"/>
					</g>
				</g>
			</g>
		</g>
		<g>
			<g>
				<g>
					<g>
						<path fill="#6A655E" d="M644.072,384.15c-0.124,0-0.25-0.012-0.375-0.035c-0.129-0.024-0.25-0.046-0.369-0.065
							c-1.097-0.185-1.837-1.224-1.652-2.321s1.225-1.839,2.321-1.652c0.142,0.023,0.29,0.049,0.444,0.078
							c1.094,0.205,1.813,1.26,1.607,2.353C645.867,383.475,645.022,384.15,644.072,384.15z"/>
					</g>
				</g>
			</g>
		</g>
	</g>
	<g>
		<g>
			<g>
				<g>
					<g>
						<g>
							<path fill="#6A655E" d="M575.736,443.115c0.109,0.311,0.321,0.59,0.628,0.792c0.804,0.531,1.948,0.343,2.571-0.423
								c1.094-1.352,2.205-2.697,3.328-4.039c1.77-2.115,3.443-4.357,5.109-6.514c4.558-5.893,9.248-11.421,16.809-13.863
								c6.48-2.072,12.406-1.635,19.111-0.887c1.269,0.143,2.547,0.296,3.848,0.444c3.08,0.353,6.299-0.011,9.154-0.284
								c1.146-0.11,2.232-0.207,3.174-0.235c0.814-0.023,1.713-0.103,2.664-0.181c2.707-0.23,6.436-0.455,7.332,0.941
								c0.252,0.387,0.762,1.187-0.816,2.201c-1.662,1.074-3.729,1.818-5.842,2.111c-2.516,0.348-5.811,0.637-8.992,0.984
								c-2.018,0.218-4.098,0.47-5.971,0.76c-5.477,0.852-8.451,1.486-9.67,1.925c-0.877,0.321-1.371,1.17-1.162,1.979
								c0.209,0.812,1.052,1.346,1.975,1.26c9.801-1.037,24.047-1.03,25.206-0.906c1.05,0.113,2.124-0.408,3.423-1.088
								c0.158-0.082,0.291-0.153,0.387-0.197c2.125-1.23,19.475-7.997,22.643-8.643c3.462-0.96,4.701-0.43,5.115-0.047
								c0.052,0.047,0.078,0.08,0.095,0.1c-0.087,0.463-1.419,1.53-1.987,1.996c-0.312,0.253-0.611,0.496-0.869,0.728
								c-1.914,1.704-3.912,3.088-5.799,4.001c-0.621,0.303-1.451,0.713-2.426,1.205c-5.215,2.485-16.555,9.072-18.771,9.829
								c-2.226,0.293-28.552,3.206-44.023,7.628c-0.378,0.096-0.714,0.305-0.957,0.598c-3.166,3.787-6.175,7.637-9.022,11.535
								c-0.559,0.763-0.377,1.814,0.387,2.352c0.766,0.539,1.82,0.367,2.377-0.387c2.732-3.709,5.609-7.372,8.634-10.979
								c7.716-2.754,40.644-7.354,43.676-7.533c2.524-0.771,11.081-5.908,19.558-10.094c0.959-0.482,1.781-0.885,2.395-1.179
								c2.791-1.343,5.189-3.226,6.727-4.569c0.227-0.2,0.486-0.41,0.76-0.629c1.393-1.121,3.163-2.486,3.242-4.327
								c0.025-0.634-0.149-1.589-1.16-2.534c-2.834-2.642-7.68-1.357-9.229-0.904c-2.14,0.566-10.61,3.515-16.599,6.047
								c1.062-1.465,1.15-3.197,0.102-4.855c-2.061-3.271-7.292-2.99-11.066-2.665c-0.892,0.073-1.732,0.147-2.418,0.168
								c-1.076,0.032-2.232,0.136-3.457,0.253c-2.633,0.252-5.599,0.586-8.167,0.291c-1.296-0.15-2.571-0.305-3.836-0.448
								c-6.912-0.781-13.598-1.286-20.94,1.067c-8.751,2.836-14.021,9.117-18.686,15.215c-1.625,2.124-3.26,4.334-4.945,6.366
								c-1.12,1.35-2.23,2.704-3.324,4.062C575.642,442.023,575.555,442.611,575.736,443.115z"/>
						</g>
					</g>
				</g>
			</g>
		</g>
	</g>
	<g>
		<g>
			<g>
				<g>
					<path fill="#6A655E" d="M590.477,389.682c-0.995-0.496-1.398-1.709-0.898-2.701l0,0c0.496-0.994,1.709-1.397,2.705-0.902l0,0
						c0.994,0.496,1.396,1.709,0.898,2.705l0,0c-0.352,0.705-1.064,1.111-1.803,1.111l0,0
						C591.073,389.895,590.768,389.826,590.477,389.682z M593.967,383.793c-0.842-0.725-0.939-1.998-0.21-2.841l0,0l0,0l0,0
						c0.726-0.843,1.999-0.938,2.841-0.21l0,0c0.843,0.726,0.936,1.999,0.21,2.842l0,0c-0.399,0.463-0.958,0.697-1.526,0.697l0,0
						C594.816,384.281,594.346,384.119,593.967,383.793z M598.602,378.744c-0.727-0.843-0.629-2.116,0.213-2.842l0,0
						c0.842-0.729,2.116-0.633,2.842,0.21l0,0c0.725,0.843,0.633,2.116-0.214,2.841l0,0c-0.378,0.33-0.847,0.492-1.313,0.492l0,0
						C599.564,379.445,599,379.207,598.602,378.744z"/>
				</g>
			</g>
		</g>
	</g>
	<g>
		<g>
			<g>
				<g>
					<path fill="#6A655E" d="M672.656,379.516c-0.557,0-1.111-0.23-1.509-0.681c-2.558-2.89-8.202-6.433-11.843-7.435
						c-1.072-0.295-1.703-1.404-1.407-2.477c0.294-1.074,1.403-1.704,2.477-1.409c4.397,1.21,10.712,5.171,13.792,8.649
						c0.736,0.834,0.658,2.107-0.174,2.845C673.608,379.348,673.131,379.516,672.656,379.516z"/>
				</g>
			</g>
		</g>
	</g>
	<g>
		<g>
			<g>
				<g>
					<path fill="#6A655E" d="M675.688,382.29c0-1.112,0.897-2.015,2.014-2.015l0,0c1.112,0,2.015,0.902,2.015,2.015l0,0
						c0,1.112-0.902,2.015-2.015,2.015l0,0C676.586,384.305,675.688,383.402,675.688,382.29z"/>
				</g>
			</g>
		</g>
	</g>
</g>
</svg>
