<?xml version="1.0" encoding="utf-8"?>
<!-- Generator: Adobe Illustrator 15.0.0, SVG Export Plug-In . SVG Version: 6.00 Build 0)  -->
<!DOCTYPE svg PUBLIC "-//W3C//DTD SVG 1.1//EN" "http://www.w3.org/Graphics/SVG/1.1/DTD/svg11.dtd">
<svg version="1.1" id="Layer_1" xmlns="http://www.w3.org/2000/svg" xmlns:xlink="http://www.w3.org/1999/xlink" x="0px" y="0px"
	 width="1280px" height="768px" viewBox="0 0 1280 768" enable-background="new 0 0 1280 768" xml:space="preserve">
<g>
	<g>
		<g>
			<g>
				<g>
					<path fill="#6A655E" d="M648.127,383.29c-0.271,0-0.546-0.056-0.812-0.172c-5.626-2.481-11.92-4.197-18.705-5.103
						c-1.104-0.146-1.877-1.16-1.73-2.263c0.146-1.104,1.162-1.877,2.263-1.731c7.161,0.955,13.823,2.774,19.8,5.409
						c1.018,0.449,1.479,1.639,1.03,2.657C649.64,382.841,648.9,383.29,648.127,383.29z"/>
				</g>
			</g>
		</g>
	</g>
	<g>
		<g>
			<g>
				<g>
					<path fill="#6A655E" d="M653.189,385.583c-0.325,0-0.656-0.08-0.963-0.247l-0.168-0.092c-0.977-0.533-1.336-1.757-0.805-2.734
						c0.535-0.977,1.758-1.336,2.734-0.803l0.169,0.092c0.978,0.533,1.337,1.757,0.803,2.734
						C654.596,385.203,653.904,385.583,653.189,385.583z"/>
				</g>
			</g>
		</g>
	</g>
	<g>
		<g>
			<g>
				<g>
					<path fill="#6A655E" d="M676.239,411.799c-0.325,0-0.649-0.08-0.941-0.234c-0.476-0.252-0.831-0.683-0.986-1.196
						c-0.038-0.12-3.964-12.478-17.569-21.972c-0.912-0.637-1.136-1.893-0.499-2.805c0.638-0.913,1.894-1.137,2.806-0.5
						c11.674,8.145,16.719,18.082,18.414,22.197l3.519-1.098c-19.425-42.455-54.7-49.904-68.048-46.691
						c-6.566,1.58-8.932,5.609-9.029,5.779c-0.548,0.961-1.771,1.307-2.738,0.768c-0.965-0.541-1.318-1.75-0.787-2.721
						c0.129-0.232,3.227-5.726,11.612-7.744c7.599-1.828,20.96-0.901,35.677,7.188c11.314,6.219,27.076,18.877,37.923,43.867
						c0.228,0.523,0.223,1.121-0.017,1.641c-0.238,0.52-0.686,0.914-1.23,1.085l-7.504,2.344
						C676.645,411.768,676.441,411.799,676.239,411.799z"/>
				</g>
			</g>
		</g>
	</g>
	<g>
		<g>
			<g>
				<g>
					<path fill="#6A655E" d="M683.547,425.707c-0.799,0-1.582-0.212-2.32-0.631c-2.516-1.428-3.562-4.679-3.896-6.011
						c-0.596-2.377-1.935-6.077-2.949-8.505l3.717-1.555c1.041,2.488,2.467,6.391,3.141,9.08c0.407,1.622,1.221,3.057,1.979,3.486
						c0.222,0.126,0.363,0.121,0.531,0.07c1.586-0.477,1.613-1.613,0.191-7.601l-0.072-0.304c-0.176-0.74-0.608-1.867-1.066-3.059
						c-0.299-0.779-0.639-1.662-0.959-2.571l3.801-1.339c0.303,0.856,0.616,1.674,0.921,2.465c0.529,1.379,0.987,2.57,1.226,3.573
						l0.07,0.303c0.663,2.784,1.233,5.189,1.126,7.171c-0.183,3.357-2.317,4.691-4.077,5.221
						C684.455,425.639,683.998,425.707,683.547,425.707z"/>
				</g>
			</g>
		</g>
	</g>
	<g>
		<g>
			<g>
				<g>
					<path fill="#6A655E" d="M652.031,466.244c-8.092,0-16.516-3.496-23.648-10.036c-3.59-3.292-7.673-7.158-10.695-11.398
						l3.281-2.34c2.797,3.923,6.699,7.614,10.138,10.768c8.442,7.741,18.78,10.724,27.653,7.976
						c15.85-4.904,23.555-17.011,23.555-37.01h4.029c0,21.693-8.879,35.44-26.391,40.859
						C657.389,465.856,654.729,466.244,652.031,466.244z"/>
				</g>
			</g>
		</g>
	</g>
	<g>
		<g>
			<g>
				<g>
					<path fill="#6A655E" d="M625.989,384.834l-29.073-12.653l3.823-10.276l29.825,12.778L625.989,384.834z M602.023,370.009
						l21.926,9.543l1.254-2.781l-22.162-9.496L602.023,370.009z"/>
				</g>
			</g>
		</g>
	</g>
	<g>
		<g>
			<g>
				<g>
					<path fill="#6A655E" d="M589.997,393.73c-1.017-0.447-1.481-1.641-1.032-2.656l0,0c0.451-1.02,1.64-1.479,2.658-1.031l0,0
						c1.016,0.447,1.48,1.64,1.029,2.656l0,0c-0.331,0.753-1.068,1.204-1.843,1.204l0,0
						C590.535,393.903,590.262,393.848,589.997,393.73z M593.086,386.722c-1.02-0.447-1.479-1.636-1.031-2.655l0,0
						c0.447-1.016,1.641-1.479,2.656-1.031l0,0c1.021,0.451,1.479,1.64,1.031,2.659l0,0c-0.33,0.753-1.072,1.201-1.845,1.201l0,0
						C593.627,386.896,593.348,386.839,593.086,386.722z M596.173,379.718c-1.015-0.447-1.478-1.636-1.025-2.655l0,0
						c0.445-1.02,1.636-1.479,2.655-1.032l0,0c1.019,0.451,1.479,1.641,1.031,2.655l0,0c-0.336,0.754-1.072,1.205-1.846,1.205l0,0
						C596.717,379.891,596.439,379.835,596.173,379.718z"/>
				</g>
			</g>
		</g>
	</g>
	<g>
		<g>
			<g>
				<g>
					<path fill="#6A655E" d="M601.063,398.986c-1.028-0.436-1.505-1.617-1.069-2.641l0,0c0.432-1.023,1.615-1.504,2.641-1.068l0,0
						c1.022,0.432,1.502,1.616,1.066,2.641l0,0c-0.326,0.77-1.072,1.229-1.854,1.229l0,0
						C601.586,399.146,601.316,399.094,601.063,398.986z M604.049,391.938c-1.024-0.436-1.5-1.616-1.067-2.641l0,0
						c0.435-1.027,1.614-1.503,2.643-1.072l0,0c1.024,0.436,1.503,1.621,1.067,2.645l0,0c-0.326,0.766-1.07,1.229-1.857,1.229l0,0
						C604.572,392.098,604.307,392.046,604.049,391.938z M607.039,384.889c-1.023-0.436-1.504-1.616-1.068-2.645l0,0
						c0.436-1.023,1.615-1.503,2.645-1.067l0,0c1.023,0.435,1.498,1.616,1.066,2.644l0,0c-0.325,0.766-1.071,1.229-1.857,1.229l0,0
						C607.563,385.05,607.298,384.997,607.039,384.889z"/>
				</g>
			</g>
		</g>
	</g>
	<g>
		<g>
			<g>
				<g>
					<path fill="#6A655E" d="M612.673,403.181c-1.024-0.436-1.495-1.62-1.06-2.644l0,0c0.438-1.023,1.623-1.496,2.646-1.061l0,0
						c1.023,0.439,1.496,1.625,1.061,2.648l0,0c-0.33,0.762-1.072,1.221-1.854,1.221l0,0
						C613.201,403.346,612.931,403.293,612.673,403.181z M615.688,396.145c-1.024-0.439-1.497-1.624-1.058-2.648l0,0
						c0.436-1.02,1.621-1.494,2.645-1.055l0,0c1.023,0.438,1.498,1.619,1.059,2.643l0,0c-0.33,0.766-1.072,1.226-1.853,1.226l0,0
						C616.215,396.31,615.945,396.258,615.688,396.145z M618.701,389.107c-1.02-0.439-1.494-1.624-1.055-2.647l0,0
						c0.439-1.023,1.619-1.495,2.643-1.06l0,0c1.024,0.439,1.5,1.624,1.061,2.647l0,0c-0.327,0.766-1.072,1.221-1.854,1.221l0,0
						C619.23,389.269,618.963,389.217,618.701,389.107z"/>
				</g>
			</g>
		</g>
	</g>
</g>
</svg>
