<?xml version="1.0" encoding="utf-8"?>
<!-- Generator: Adobe Illustrator 15.0.0, SVG Export Plug-In . SVG Version: 6.00 Build 0)  -->
<!DOCTYPE svg PUBLIC "-//W3C//DTD SVG 1.1//EN" "http://www.w3.org/Graphics/SVG/1.1/DTD/svg11.dtd">
<svg version="1.1" id="Layer_1" xmlns="http://www.w3.org/2000/svg" xmlns:xlink="http://www.w3.org/1999/xlink" x="0px" y="0px"
	 width="1280px" height="768px" viewBox="0 0 1280 768" enable-background="new 0 0 1280 768" xml:space="preserve">
<g>
	<g>
		<g>
			<g>
				<g>
					<path fill="#6A655E" d="M679.779,405.57c-1.112,0-2.015-0.902-2.015-2.016v-30.451h-7.089v4.656
						c0,1.113-0.902,2.015-2.015,2.015h-62.71c-1.112,0-2.015-0.901-2.015-2.015v-4.656h-6.199v30.451
						c0,1.113-0.902,2.016-2.015,2.016c-1.112,0-2.015-0.902-2.015-2.016v-32.467c0-1.112,0.902-2.015,2.015-2.015h10.229
						c1.113,0,2.016,0.902,2.016,2.015v4.656h58.68v-4.656c0-1.112,0.902-2.015,2.015-2.015h11.118c1.112,0,2.016,0.902,2.016,2.015
						v32.467C681.795,404.668,680.892,405.57,679.779,405.57z"/>
				</g>
			</g>
		</g>
	</g>
	<g>
		<g>
			<g>
				<g>
					<g>
						<path fill="#6A655E" d="M614.061,406.566c-0.882,0-1.692-0.584-1.94-1.476c-1.635-5.876-0.088-12.673-0.021-12.958
							c0.249-1.07,1.31-1.744,2.383-1.515c0.039,0.009,3.919,0.824,7.285,0.664c1.002-0.047,2.061-0.456,3.402-0.973
							c2.625-1.013,6.22-2.401,12.09-1.939c1.109,0.087,1.938,1.057,1.852,2.166c-0.087,1.109-1.051,1.943-2.167,1.852
							c-4.958-0.388-7.809,0.712-10.325,1.683c-1.547,0.596-3.009,1.16-4.663,1.237c-2.257,0.108-4.626-0.148-6.258-0.389
							c-0.303,2.18-0.587,5.888,0.304,9.091c0.298,1.072-0.329,2.184-1.401,2.482C614.421,406.542,614.239,406.566,614.061,406.566z
							"/>
					</g>
				</g>
			</g>
		</g>
		<g>
			<g>
				<g>
					<g>
						<path fill="#6A655E" d="M660.871,406.566c-0.179,0-0.359-0.024-0.541-0.075c-1.072-0.298-1.699-1.409-1.4-2.481
							c0.891-3.202,0.606-6.91,0.303-9.091c-1.631,0.241-4,0.496-6.258,0.389c-1.653-0.077-3.115-0.642-4.662-1.237
							c-2.516-0.971-5.369-2.07-10.325-1.683c-1.109,0.091-2.079-0.742-2.167-1.852c-0.087-1.109,0.743-2.079,1.852-2.166
							c5.871-0.462,9.465,0.927,12.09,1.939c1.341,0.517,2.399,0.926,3.401,0.973c3.369,0.161,7.247-0.655,7.286-0.664
							c1.074-0.231,2.134,0.444,2.383,1.514c0.067,0.286,1.614,7.083-0.021,12.959C662.563,405.982,661.754,406.566,660.871,406.566
							z"/>
					</g>
				</g>
			</g>
		</g>
	</g>
	<g>
		<g>
			<g>
				<g>
					<path fill="#6A655E" d="M689.564,438.188H586.828c-1.113,0-2.015-0.902-2.015-2.016v-25.945c0-1.113,0.902-2.016,2.015-2.016
						h102.737c1.112,0,2.015,0.902,2.015,2.016v25.945C691.579,437.285,690.677,438.188,689.564,438.188z M588.843,434.157h98.706
						V412.24h-98.706V434.157z"/>
				</g>
			</g>
		</g>
	</g>
	<g>
		<g>
			<g>
				<g>
					<g>
						<path fill="#6A655E" d="M605.221,450.641h-12.167c-1.113,0-2.015-0.902-2.015-2.016v-8.45c0-1.112,0.902-2.015,2.015-2.015
							c1.112,0,2.015,0.902,2.015,2.015v6.436h9.186l8.307-10.35c0.697-0.868,1.965-1.007,2.833-0.31
							c0.868,0.696,1.007,1.965,0.31,2.832l-8.912,11.104C606.41,450.363,605.832,450.641,605.221,450.641z"/>
					</g>
				</g>
			</g>
		</g>
		<g>
			<g>
				<g>
					<g>
						<path fill="#6A655E" d="M682.448,451.085h-11.137c-0.591,0-1.153-0.26-1.536-0.711l-9.426-11.103
							c-0.721-0.849-0.617-2.12,0.231-2.84c0.849-0.721,2.12-0.617,2.841,0.231l8.822,10.392h8.189v-6.436
							c0-1.113,0.902-2.015,2.015-2.015s2.015,0.901,2.015,2.015v8.451C684.463,450.184,683.561,451.085,682.448,451.085z"/>
					</g>
				</g>
			</g>
		</g>
	</g>
	<g>
		<g>
			<g>
				<g>
					<path fill="#6A655E" d="M598.835,442.635h-5.337c-1.112,0-2.014-0.902-2.014-2.016s0.902-2.015,2.014-2.015h5.337
						c1.113,0,2.015,0.901,2.015,2.015S599.948,442.635,598.835,442.635z"/>
				</g>
			</g>
		</g>
	</g>
	<g>
		<g>
			<g>
				<g>
					<path fill="#6A655E" d="M682.004,442.635h-5.338c-1.111,0-2.014-0.902-2.014-2.016s0.902-2.015,2.014-2.015h5.338
						c1.113,0,2.015,0.901,2.015,2.015S683.117,442.635,682.004,442.635z"/>
				</g>
			</g>
		</g>
	</g>
</g>
</svg>
