<?xml version="1.0" encoding="utf-8"?>
<!-- Generator: Adobe Illustrator 15.0.0, SVG Export Plug-In . SVG Version: 6.00 Build 0)  -->
<!DOCTYPE svg PUBLIC "-//W3C//DTD SVG 1.1//EN" "http://www.w3.org/Graphics/SVG/1.1/DTD/svg11.dtd">
<svg version="1.1" id="Layer_1" xmlns="http://www.w3.org/2000/svg" xmlns:xlink="http://www.w3.org/1999/xlink" x="0px" y="0px"
	 width="1280px" height="768px" viewBox="0 0 1280 768" enable-background="new 0 0 1280 768" xml:space="preserve">
<g>
	<g>
		<g>
			<g>
				<g>
					<g>
						<path fill="#6A655E" d="M639.526,448.269c-0.323,0-0.647-0.078-0.942-0.234c-0.574-0.304-14.073-7.613-16.708-22.539
							c-2.053-11.621,3.078-24.358,15.252-37.858c0.499-0.554,1.237-0.766,1.917-0.621c0.664-0.143,1.385,0.057,1.886,0.587
							c11.944,12.653,17.198,24.937,15.616,36.51c-2.096,15.335-15.413,23.526-15.979,23.867
							C640.248,448.172,639.888,448.269,639.526,448.269z M639.068,391.52c-10.544,12.076-14.993,23.266-13.224,33.275
							c1.904,10.786,10.623,17.17,13.615,19.073c2.936-2.104,11.592-9.183,13.099-20.341
							C653.904,413.57,649.366,402.808,639.068,391.52z"/>
					</g>
				</g>
			</g>
		</g>
		<g>
			<g>
				<g>
					<g>
						<path fill="#6A655E" d="M641.629,448.855c-1.106,0-2.007-0.893-2.015-2c-0.007-1.113,0.889-2.021,2.001-2.029
							c0.148-0.002,15.342-0.285,24.346-11.67c6.721-8.496,8.457-20.979,5.174-37.127c-4.939,1.709-9.958,4.344-12.705,5.879
							c-0.974,0.544-2.199,0.196-2.742-0.774c-0.543-0.972-0.196-2.199,0.775-2.743c4.01-2.241,9.973-5.257,15.613-6.891
							c0.534-0.154,1.107-0.082,1.586,0.2c0.478,0.282,0.818,0.749,0.941,1.29c4.176,18.464,2.321,32.832-5.511,42.704
							c-10.229,12.895-26.752,13.157-27.45,13.161C641.639,448.855,641.633,448.855,641.629,448.855z"/>
					</g>
				</g>
			</g>
		</g>
		<g>
			<g>
				<g>
					<g>
						<path fill="#6A655E" d="M637.036,448.855c-0.004,0-0.009,0-0.013,0c-0.699-0.004-17.221-0.267-27.451-13.161
							c-7.833-9.872-9.686-24.24-5.51-42.704c0.122-0.541,0.463-1.008,0.941-1.29c0.478-0.282,1.052-0.354,1.584-0.2
							c5.64,1.633,11.604,4.649,15.615,6.891c0.971,0.544,1.318,1.771,0.775,2.742c-0.543,0.972-1.771,1.318-2.741,0.775
							c-2.749-1.536-7.768-4.17-12.706-5.879c-3.288,16.169-1.542,28.664,5.199,37.16c9.043,11.398,24.168,11.635,24.321,11.637
							c1.112,0.008,2.009,0.916,2,2.029C639.043,447.963,638.143,448.855,637.036,448.855z"/>
					</g>
				</g>
			</g>
		</g>
		<g>
			<g>
				<g>
					<g>
						<path fill="#6A655E" d="M628.692,449.836c-0.008,0-0.016,0-0.023,0c-20.375-0.233-31.447-7.325-37.146-13.233
							c-6.297-6.525-7.623-13.029-7.676-13.304c-0.109-0.557,0.022-1.133,0.361-1.588c0.338-0.455,0.853-0.746,1.417-0.803
							l10.221-1.014c1.103-0.106,2.094,0.699,2.204,1.807c0.11,1.107-0.699,2.094-1.807,2.204l-7.757,0.77
							c0.848,2.188,2.627,5.758,6.111,9.31c7.418,7.562,19.216,11.65,34.118,11.821c1.114,0.013,2.005,0.925,1.993,2.038
							C630.694,448.949,629.794,449.836,628.692,449.836z"/>
					</g>
				</g>
			</g>
		</g>
		<g>
			<g>
				<g>
					<g>
						<path fill="#6A655E" d="M647.79,449.836c-1.102,0-2.001-0.887-2.015-1.992c-0.012-1.113,0.88-2.025,1.992-2.038
							c29.37-0.337,38.013-15.432,40.23-21.131l-7.76-0.77c-1.107-0.11-1.915-1.097-1.806-2.204s1.093-1.913,2.204-1.807
							l10.222,1.014c0.564,0.057,1.08,0.348,1.418,0.803c0.339,0.455,0.47,1.031,0.361,1.588c-0.054,0.274-1.38,6.778-7.677,13.304
							c-5.699,5.908-16.771,13-37.146,13.233C647.807,449.836,647.799,449.836,647.79,449.836z"/>
					</g>
				</g>
			</g>
		</g>
	</g>
	<g>
		<g>
			<g>
				<g>
					<path fill="#6A655E" d="M636.234,469.446c0-1.112,0.902-2.015,2.015-2.015l0,0c1.112,0,2.015,0.902,2.015,2.015l0,0
						c0,1.113-0.903,2.016-2.015,2.016l0,0C637.137,471.462,636.234,470.56,636.234,469.446z M629.532,470.846L629.532,470.846
						L629.532,470.846c-1.101-0.158-1.866-1.177-1.709-2.277l0,0c0.158-1.104,1.177-1.87,2.277-1.713l0,0
						c1.101,0.157,1.87,1.177,1.713,2.281l0,0c-0.146,1.004-1.007,1.729-1.991,1.729l0,0
						C629.726,470.865,629.629,470.861,629.532,470.846z M644.689,469.133c-0.162-1.101,0.604-2.12,1.709-2.277l0,0
						c1.1-0.157,2.119,0.608,2.276,1.709l0,0c0.157,1.1-0.604,2.123-1.708,2.281l0,0c-0.098,0.012-0.194,0.02-0.287,0.02l0,0
						C645.692,470.865,644.83,470.141,644.689,469.133z M620.989,469c-1.068-0.314-1.68-1.436-1.366-2.503l0,0
						c0.31-1.068,1.43-1.681,2.499-1.366l0,0c1.068,0.311,1.68,1.431,1.366,2.498l0,0c-0.255,0.879-1.061,1.451-1.931,1.451l0,0
						C621.367,469.08,621.178,469.052,620.989,469z M653.012,467.625c-0.314-1.068,0.298-2.188,1.365-2.498l0,0
						c1.068-0.314,2.186,0.298,2.499,1.366l0,0c0.314,1.067-0.298,2.188-1.367,2.498l0,0c-0.188,0.057-0.378,0.085-0.567,0.085l0,0
						C654.071,469.076,653.266,468.504,653.012,467.625z M612.792,465.941L612.792,465.941L612.792,465.941
						c-1.012-0.464-1.459-1.661-0.995-2.672l0,0c0.464-1.013,1.66-1.455,2.671-0.992v-0.004c1.012,0.463,1.459,1.66,0.996,2.672l0,0
						c-0.338,0.742-1.072,1.177-1.838,1.177l0,0C613.348,466.122,613.062,466.065,612.792,465.941z M661.031,464.941
						c-0.464-1.012-0.021-2.209,0.995-2.672v0.004c1.008-0.463,2.205-0.021,2.668,0.991l0,0c0.463,1.012,0.016,2.209-0.991,2.672
						l0,0l0,0l0,0c-0.274,0.125-0.556,0.182-0.839,0.182l0,0C662.1,466.118,661.369,465.683,661.031,464.941z M605.119,461.746
						c-0.935-0.605-1.205-1.851-0.601-2.785l0,0c0.601-0.939,1.846-1.209,2.785-0.604l0,0c0.935,0.601,1.205,1.85,0.601,2.784l0,0
						c-0.382,0.597-1.032,0.924-1.697,0.924l0,0C605.835,462.064,605.457,461.959,605.119,461.746z M668.58,461.141
						c-0.601-0.938-0.331-2.184,0.604-2.788l0,0c0.935-0.601,2.185-0.331,2.785,0.604l0,0c0.6,0.935,0.33,2.184-0.604,2.784l0,0
						c-0.335,0.218-0.714,0.323-1.089,0.323l0,0C669.615,462.064,668.966,461.737,668.58,461.141z M675.515,456.301
						c-0.729-0.842-0.641-2.115,0.202-2.846l0,0c0.842-0.729,2.111-0.637,2.845,0.202l0,0c0.726,0.842,0.637,2.116-0.205,2.841l0,0
						c0,0,0,0,0,0.004l0,0c-0.38,0.331-0.851,0.492-1.317,0.492l0,0C676.474,456.994,675.914,456.76,675.515,456.301z
						 M598.126,456.498c-0.841-0.729-0.935-1.999-0.205-2.841l0,0c0.729-0.843,2.001-0.931,2.844-0.202l0,0
						c0.839,0.73,0.931,2.004,0.201,2.842l0,0c-0.398,0.459-0.958,0.697-1.522,0.697l0,0
						C598.977,456.994,598.505,456.829,598.126,456.498z M681.697,450.521c-0.843-0.725-0.936-1.999-0.206-2.841l0,0
						c0.729-0.839,2.003-0.931,2.845-0.202l0,0c0.839,0.73,0.932,2,0.202,2.842l0,0l0,0l0,0c-0.399,0.459-0.96,0.697-1.524,0.697
						l0,0C682.547,451.018,682.076,450.853,681.697,450.521z M591.945,450.32L591.945,450.32L591.945,450.32
						c-0.73-0.842-0.637-2.111,0.202-2.842l0,0c0.842-0.729,2.111-0.641,2.84,0.202h0.004c0.726,0.842,0.637,2.112-0.206,2.841l0,0
						c-0.378,0.331-0.85,0.492-1.317,0.492l0,0C592.903,451.014,592.344,450.779,591.945,450.32z M586.701,443.328
						c-0.6-0.936-0.33-2.18,0.605-2.785l0,0c0.935-0.6,2.18-0.33,2.785,0.605l0,0c0.6,0.935,0.33,2.18-0.604,2.784l0,0
						c-0.339,0.218-0.714,0.322-1.088,0.322l0,0C587.737,444.255,587.088,443.929,586.701,443.328z M686.996,443.929
						c-0.936-0.601-1.205-1.846-0.604-2.784l0,0c0.604-0.936,1.85-1.205,2.789-0.602l0,0c0.935,0.602,1.205,1.85,0.601,2.785l0,0
						c-0.383,0.597-1.031,0.923-1.697,0.923l0,0C687.713,444.251,687.335,444.146,686.996,443.929z M582.506,435.667
						c-0.46-1.016-0.017-2.208,0.995-2.672l0,0c1.011-0.464,2.208-0.016,2.671,0.995v-0.004c0.464,1.016,0.017,2.209-0.995,2.672
						l0,0c-0.271,0.125-0.556,0.186-0.838,0.186l0,0C583.579,436.844,582.845,436.404,582.506,435.667z M691.308,436.65
						c-1.011-0.463-1.454-1.66-0.991-2.672l0,0c0.46-1.012,1.656-1.459,2.668-0.995l0,0c1.012,0.464,1.459,1.66,0.996,2.672l0,0
						c-0.339,0.741-1.072,1.177-1.834,1.177l0,0C691.865,436.832,691.583,436.775,691.308,436.65z M579.451,427.475
						c-0.314-1.068,0.294-2.188,1.365-2.499l0,0c1.068-0.314,2.185,0.298,2.5,1.366l0,0c0.314,1.068-0.299,2.185-1.367,2.498l0,0
						c-0.189,0.057-0.378,0.085-0.568,0.085l0,0C580.511,428.925,579.709,428.353,579.451,427.475z M694.537,428.824
						c-1.068-0.311-1.681-1.431-1.367-2.498l0,0c0.314-1.068,1.431-1.682,2.498-1.367l0,0c1.068,0.311,1.682,1.431,1.371,2.499l0,0
						c-0.258,0.878-1.064,1.45-1.935,1.45l0,0C694.916,428.908,694.726,428.881,694.537,428.824z M577.598,418.931
						c-0.157-1.101,0.608-2.12,1.708-2.276l0,0c1.104-0.158,2.124,0.604,2.281,1.708l0,0c0.158,1.101-0.608,2.12-1.708,2.277l0,0
						c-0.101,0.016-0.193,0.023-0.29,0.023l0,0C578.601,420.663,577.739,419.938,577.598,418.931z M696.607,420.627
						c-1.101-0.156-1.865-1.177-1.709-2.281l0,0c0.158-1.1,1.177-1.865,2.277-1.708l0,0c1.101,0.153,1.871,1.177,1.713,2.276l0,0
						l0,0l0,0c-0.145,1.008-1.008,1.733-1.994,1.733l0,0C696.801,420.647,696.705,420.64,696.607,420.627z M576.981,410.214
						c0,0,0,0-0.004,0l0,0c0-1.112,0.902-2.015,2.019-2.015l0,0c1.112,0,2.011,0.902,2.015,2.015l0,0
						c0,1.112-0.903,2.015-2.015,2.015l0,0C577.879,412.229,576.981,411.33,576.981,410.214z M695.476,410.246
						c-0.005-0.028-0.005-0.053-0.005-0.077l0,0c0-1.116,0.903-2.019,2.016-2.019l0,0c1.113,0,2.016,0.902,2.016,2.015l0,0
						c0,0.009,0,0.013,0,0.017l0,0c0,0.008,0,0.012,0,0.016l0,0c0,1.112-0.898,2.016-2.012,2.016l0,0
						C696.391,412.213,695.5,411.338,695.476,410.246z M579.302,403.777c-1.1-0.157-1.866-1.176-1.709-2.276l0,0
						c0.157-1.104,1.177-1.87,2.277-1.713l0,0c1.101,0.157,1.871,1.177,1.713,2.276l0,0c-0.145,1.008-1.008,1.733-1.995,1.733l0,0
						C579.496,403.798,579.398,403.789,579.302,403.777z M694.891,402.021h0.005c-0.161-1.1,0.604-2.124,1.709-2.281l0,0
						c1.1-0.157,2.119,0.608,2.28,1.709l0,0c0.157,1.104-0.608,2.124-1.713,2.281l0,0c-0.097,0.017-0.189,0.021-0.285,0.021l0,0
						C695.898,403.75,695.035,403.024,694.891,402.021z M580.809,395.455c-1.068-0.314-1.68-1.434-1.37-2.502l0,0
						c0.314-1.068,1.43-1.681,2.502-1.366l0,0c1.064,0.314,1.677,1.431,1.366,2.499l0,0c-0.257,0.882-1.063,1.45-1.934,1.45l0,0
						C581.188,395.536,580.995,395.508,580.809,395.455z M693.162,394.041L693.162,394.041c-0.314-1.068,0.299-2.188,1.366-2.498
						l0,0c1.067-0.314,2.185,0.298,2.499,1.365l0,0c0.313,1.068-0.298,2.186-1.367,2.499l0,0c-0.189,0.057-0.378,0.081-0.568,0.081
						l0,0C694.223,395.488,693.42,394.92,693.162,394.041z M583.489,387.428c-1.011-0.463-1.455-1.66-0.992-2.672l0,0
						c0.46-1.012,1.657-1.455,2.668-0.995l0,0c1.011,0.463,1.458,1.66,0.996,2.672l0,0c-0.339,0.741-1.069,1.177-1.834,1.177l0,0
						C584.046,387.609,583.763,387.553,583.489,387.428z M690.305,386.396c-0.463-1.012-0.02-2.209,0.992-2.672l0,0
						c1.011-0.464,2.208-0.021,2.672,0.991l0,0c0.463,1.012,0.016,2.208-0.992,2.672l0,0c-0.273,0.125-0.561,0.181-0.838,0.181l0,0
						C691.373,387.568,690.645,387.134,690.305,386.396z M587.293,379.867c-0.935-0.6-1.205-1.846-0.601-2.784l0,0
						c0.601-0.936,1.846-1.205,2.786-0.604l0,0c0.935,0.604,1.205,1.85,0.601,2.789l0,0c-0.383,0.596-1.032,0.922-1.692,0.922l0,0
						C588.011,380.189,587.632,380.085,587.293,379.867z M686.384,379.238c-0.604-0.938-0.335-2.184,0.604-2.788l0,0
						c0.932-0.601,2.181-0.33,2.781,0.604l0,0c0.604,0.935,0.335,2.18-0.601,2.785l0,0c-0.339,0.217-0.718,0.322-1.089,0.322l0,0
						C687.416,380.162,686.771,379.836,686.384,379.238z M592.137,372.932c-0.842-0.729-0.93-2.003-0.201-2.845l0,0
						c0.726-0.839,1.999-0.931,2.841-0.202l0,0c0.842,0.73,0.931,2.004,0.202,2.846l0,0c-0.4,0.459-0.959,0.693-1.524,0.693l0,0
						C592.988,373.424,592.517,373.262,592.137,372.932z M681.483,372.706c-0.729-0.842-0.641-2.116,0.202-2.841l0,0
						c0.837-0.734,2.111-0.641,2.84,0.197l0,0c0.73,0.842,0.642,2.116-0.201,2.846l0,0c-0.379,0.33-0.851,0.491-1.318,0.491l0,0
						C682.441,373.399,681.883,373.166,681.483,372.706z M597.913,366.75c-0.729-0.843-0.64-2.111,0.201-2.842l0,0
						c0.838-0.729,2.112-0.641,2.842,0.202l0,0c0.729,0.838,0.637,2.111-0.202,2.841l0,0c-0.382,0.33-0.85,0.492-1.318,0.492l0,0
						C598.872,367.443,598.312,367.209,597.913,366.75z M675.705,366.932h0.003c-0.842-0.729-0.935-2.004-0.205-2.842l0,0
						c0.729-0.842,2.003-0.931,2.841-0.205l0,0c0.842,0.729,0.936,2.003,0.206,2.845l0,0c-0.399,0.46-0.96,0.693-1.524,0.693l0,0
						C676.559,367.423,676.087,367.262,675.705,366.932z M604.502,361.45c-0.604-0.938-0.335-2.185,0.601-2.784l0,0
						c0.934-0.605,2.184-0.335,2.784,0.6l0,0c0.604,0.936,0.334,2.185-0.6,2.785l0,0c-0.339,0.218-0.719,0.322-1.093,0.322l0,0
						C605.533,362.373,604.885,362.047,604.502,361.45z M669.168,362.035c-0.936-0.604-1.205-1.85-0.604-2.785l0,0
						c0.604-0.939,1.849-1.209,2.784-0.604l0,0c0.939,0.601,1.209,1.85,0.604,2.785l0,0c-0.382,0.596-1.032,0.923-1.696,0.923l0,0
						C669.885,362.354,669.506,362.252,669.168,362.035z M611.772,357.139c-0.465-1.012-0.016-2.209,0.995-2.668l0,0
						c1.011-0.468,2.204-0.021,2.672,0.991l0,0c0.459,1.012,0.016,2.208-0.995,2.672l0,0c-0.274,0.125-0.557,0.181-0.838,0.181l0,0
						C612.844,358.314,612.11,357.88,611.772,357.139z M662.002,358.117c-1.016-0.463-1.459-1.66-0.995-2.672l0,0
						c0.46-1.012,1.655-1.458,2.668-0.995l0,0c1.012,0.464,1.458,1.656,0.995,2.672l0,0c-0.338,0.737-1.068,1.177-1.834,1.177l0,0
						C662.558,358.299,662.272,358.238,662.002,358.117z M619.59,353.91c-0.314-1.068,0.298-2.188,1.366-2.498l0,0c0,0,0,0,0-0.004
						l0,0c1.068-0.311,2.189,0.298,2.503,1.365l0,0c0.31,1.068-0.298,2.188-1.366,2.503l0,0c-0.189,0.057-0.383,0.081-0.568,0.081
						l0,0C620.655,355.357,619.849,354.789,619.59,353.91z M654.346,355.265c-1.068-0.314-1.682-1.435-1.366-2.503l0,0
						c0.31-1.068,1.43-1.681,2.499-1.366l0,0c1.066,0.311,1.68,1.431,1.365,2.499l0,0c-0.258,0.878-1.06,1.45-1.93,1.45l0,0
						C654.724,355.345,654.534,355.316,654.346,355.265z M627.792,351.835c-0.158-1.101,0.608-2.124,1.708-2.281l0,0l0,0l0,0
						c1.101-0.157,2.124,0.608,2.281,1.713l0,0c0.157,1.101-0.608,2.12-1.713,2.28v-0.004c-0.093,0.017-0.19,0.021-0.287,0.021l0,0
						C628.795,353.563,627.932,352.838,627.792,351.835z M646.365,353.539c-1.1-0.156-1.869-1.176-1.713-2.28l0,0
						c0.157-1.101,1.178-1.866,2.281-1.709l0,0c1.101,0.153,1.867,1.177,1.709,2.276l0,0c-0.141,1.008-1.004,1.733-1.99,1.733l0,0
						C646.555,353.56,646.463,353.552,646.365,353.539z M636.203,350.952c0-1.112,0.902-2.015,2.014-2.015l0,0l0,0l0,0
						c1.113,0,2.016,0.902,2.016,2.015l0,0c0,1.112-0.903,2.015-2.016,2.015l0,0C637.104,352.967,636.203,352.064,636.203,350.952z"
						/>
				</g>
			</g>
		</g>
	</g>
</g>
</svg>
