<?xml version="1.0" encoding="utf-8"?>
<!-- Generator: Adobe Illustrator 15.0.0, SVG Export Plug-In . SVG Version: 6.00 Build 0)  -->
<!DOCTYPE svg PUBLIC "-//W3C//DTD SVG 1.1//EN" "http://www.w3.org/Graphics/SVG/1.1/DTD/svg11.dtd">
<svg version="1.1" id="Layer_1" xmlns="http://www.w3.org/2000/svg" xmlns:xlink="http://www.w3.org/1999/xlink" x="0px" y="0px"
	 width="1280px" height="768px" viewBox="0 0 1280 768" enable-background="new 0 0 1280 768" xml:space="preserve">
<g>
	<g>
		<g>
			<g>
				<path fill="#6A655E" d="M672.01,441.932c-0.123,0-0.248-0.01-0.37-0.028l-21.486-3.323c-0.698-0.107-1.313-0.516-1.685-1.115
					c-10.475-16.898-3.066-66.19-2.746-68.28c0.098-0.635,0.443-1.204,0.961-1.584s1.164-0.536,1.799-0.439l47.268,7.31
					c0.646,0.1,1.227,0.458,1.604,0.992c0.379,0.534,0.523,1.199,0.404,1.842c-0.027,0.147-2.809,14.912-7.078,29.989
					c-2.525,8.912-5.074,16.21-7.58,21.689c-3.404,7.448-6.781,11.644-10.326,12.824
					C672.527,441.891,672.268,441.932,672.01,441.932z M652.039,433.979l19.67,3.042c2.271-1.177,7.408-6.655,14.316-31.044
					c3.189-11.26,5.535-22.335,6.497-27.111l-42.356-6.55C648.846,382.184,644.463,419.759,652.039,433.979z"/>
			</g>
		</g>
		<g>
			<g>
				<path fill="#6A655E" d="M693.859,385.859c-0.123,0-0.246-0.01-0.373-0.029l-46.227-7.148c-1.32-0.204-2.225-1.439-2.021-2.759
					c0.205-1.32,1.441-2.224,2.76-2.021l46.229,7.148c1.32,0.205,2.225,1.439,2.02,2.76
					C696.061,385.005,695.031,385.859,693.859,385.859z"/>
			</g>
		</g>
		<g>
			<g>
				<path fill="#6A655E" d="M671.629,456.16c-0.115,0-0.23-0.008-0.346-0.024l-24.451-3.5c-0.641-0.091-1.217-0.435-1.601-0.954
					c-0.386-0.52-0.546-1.17-0.446-1.809l2.258-14.6c0.205-1.32,1.441-2.223,2.758-2.02c1.32,0.204,2.225,1.439,2.021,2.759
					l-1.884,12.183l19.664,2.814l1.85-11.961c0.203-1.32,1.443-2.225,2.76-2.021c1.318,0.204,2.223,1.439,2.02,2.759l-2.217,14.324
					C673.83,455.305,672.801,456.16,671.629,456.16z"/>
			</g>
		</g>
		<g>
			<g>
				<path fill="#6A655E" d="M658.475,448.169c-0.123,0-0.248-0.01-0.373-0.028l-9.245-1.43c-1.319-0.204-2.224-1.439-2.021-2.76
					c0.205-1.32,1.441-2.223,2.76-2.02l9.246,1.43c1.318,0.203,2.223,1.439,2.02,2.759
					C660.676,447.314,659.646,448.169,658.475,448.169z"/>
			</g>
		</g>
		<g>
			<g>
				<path fill="#6A655E" d="M672.102,450.654c-0.123,0-0.248-0.009-0.373-0.028l-7.396-1.144c-1.32-0.204-2.225-1.439-2.02-2.76
					c0.203-1.319,1.441-2.223,2.758-2.02l7.398,1.144c1.318,0.204,2.223,1.439,2.02,2.759
					C674.303,449.801,673.272,450.654,672.102,450.654z"/>
			</g>
		</g>
		<g>
			<g>
				<path fill="#6A655E" d="M666.35,420.853c-0.818,0-1.646-0.063-2.462-0.189c-8.718-1.349-14.714-9.538-13.365-18.256
					c1.214-7.854,7.856-13.556,15.794-13.556c0.818,0,1.646,0.064,2.461,0.19c4.225,0.653,7.941,2.911,10.465,6.359
					c2.525,3.448,3.555,7.673,2.902,11.896C680.93,415.152,674.287,420.853,666.35,420.853z M666.316,393.688
					c-5.445,0-10.182,4.065-11.014,9.458c-0.941,6.082,3.242,11.797,9.324,12.737c0.57,0.088,1.15,0.133,1.723,0.133
					c5.445,0,10.182-4.065,11.016-9.458c0.455-2.947-0.264-5.895-2.025-8.301c-1.762-2.405-4.354-3.981-7.302-4.437
					C667.469,393.732,666.888,393.688,666.316,393.688z"/>
			</g>
		</g>
	</g>
	<g>
		<g>
			<g>
				<path fill="#6A655E" d="M700.225,435.923c-0.123,0-0.246-0.01-0.371-0.028c-1.32-0.204-2.225-1.439-2.021-2.76l1.653-10.691
					c0.204-1.32,1.44-2.223,2.759-2.021c1.32,0.204,2.225,1.439,2.02,2.759l-1.652,10.692
					C702.428,435.068,701.396,435.923,700.225,435.923z"/>
			</g>
		</g>
		<g>
			<g>
				<path fill="#6A655E" d="M705.912,431.328c-0.123,0-0.246-0.01-0.373-0.028l-9.719-1.503c-1.32-0.204-2.225-1.439-2.02-2.76
					c0.203-1.32,1.443-2.224,2.758-2.02l9.721,1.503c1.318,0.204,2.223,1.439,2.02,2.759
					C708.113,430.474,707.084,431.328,705.912,431.328z"/>
			</g>
		</g>
	</g>
	<g>
		<g>
			<path fill="#6A655E" d="M705.594,388.458c-0.199,0-0.449-0.022-0.719-0.1c-1.303-0.22-2.191-1.447-1.988-2.757
				c0.227-1.451,1.236-2.109,2.107-2.242c0.166-0.025,0.705-0.08,1.293,0.154c1.131,0.312,1.898,1.412,1.756,2.615
				c-0.174,1.464-1.176,2.146-2.055,2.298C705.916,388.439,705.775,388.458,705.594,388.458z"/>
		</g>
	</g>
	<g>
		<g>
			<path fill="#6A655E" d="M705.835,380.746c-0.124,0-0.248-0.01-0.372-0.029c-1.32-0.204-2.225-1.439-2.021-2.759
				c0.41-2.651,0.02-4.628-1.232-6.22c-3.65-4.645-15.203-6.212-26.023-7.133c-1.33-0.113-2.318-1.284-2.204-2.615
				c0.112-1.331,1.284-2.318,2.614-2.204c14.39,1.226,24.898,3.219,29.416,8.964c2.078,2.645,2.822,5.99,2.209,9.947
				C708.037,379.892,707.008,380.746,705.835,380.746z"/>
		</g>
	</g>
	<g>
		<g>
			<path fill="#6A655E" d="M606.561,448.101c-5.041,0-9.359-3.434-10.5-8.351l-10.173-43.844
				c-1.343-5.795,2.278-11.602,8.071-12.946l13.951-3.236c0.803-0.187,1.627-0.281,2.445-0.281c5.043,0,9.361,3.435,10.5,8.351
				l10.172,43.844c0.652,2.808,0.17,5.7-1.354,8.146c-1.525,2.444-3.91,4.149-6.717,4.801l-13.951,3.237
				C608.201,448.006,607.379,448.101,606.561,448.101z M610.355,384.278c-0.451,0-0.906,0.053-1.353,0.156l-13.952,3.236
				c-3.195,0.741-5.193,3.945-4.451,7.143l10.17,43.843c0.631,2.713,3.012,4.608,5.791,4.608c0.451,0,0.906-0.052,1.352-0.155
				l13.951-3.237c1.549-0.359,2.865-1.3,3.706-2.648s1.106-2.944,0.747-4.493l-10.17-43.844
				C615.516,386.174,613.135,384.278,610.355,384.278z"/>
		</g>
	</g>
	<g>
		<g>
			<path fill="#6A655E" d="M591.93,387.179c-1.1,0-2.094-0.755-2.354-1.872l-2.877-12.397c-1.092-4.715,2.025-9.479,6.951-10.623
				l5.888-1.365c2.325-0.539,4.681-0.155,6.632,1.082c1.934,1.227,3.295,3.18,3.832,5.5l2.877,12.397
				c0.301,1.301-0.508,2.6-1.81,2.902c-1.304,0.302-2.601-0.509-2.901-1.81l-2.877-12.397c-0.248-1.076-0.857-1.967-1.711-2.509
				c-0.85-0.538-1.896-0.7-2.949-0.455l-5.887,1.365c-2.29,0.531-3.816,2.738-3.334,4.819l2.877,12.396
				c0.303,1.301-0.508,2.601-1.809,2.902C592.295,387.158,592.111,387.179,591.93,387.179z"/>
		</g>
	</g>
	<g>
		<g>
			<path fill="#6A655E" d="M608.443,427.064c-6.252,0-11.605-4.258-13.021-10.355c-0.808-3.479-0.212-7.066,1.679-10.098
				c1.891-3.032,4.848-5.146,8.328-5.954c0.996-0.231,2.018-0.349,3.033-0.349c6.25,0,11.605,4.259,13.02,10.355
				c1.666,7.185-2.822,14.386-10.008,16.053C610.479,426.947,609.459,427.064,608.443,427.064z M608.463,405.145
				c-0.648,0-1.301,0.075-1.94,0.224c-2.222,0.516-4.108,1.865-5.316,3.801c-1.206,1.937-1.587,4.226-1.071,6.447
				c0.902,3.894,4.318,6.612,8.309,6.612c0.648,0,1.301-0.075,1.939-0.223c4.586-1.064,7.452-5.662,6.389-10.249
				C615.867,407.863,612.451,405.145,608.463,405.145z"/>
		</g>
	</g>
	<g>
		<g>
			<path fill="#6A655E" d="M603.59,379.479c-1.101,0-2.094-0.755-2.354-1.872l-1.777-7.654c-0.301-1.302,0.508-2.601,1.809-2.902
				c1.303-0.303,2.6,0.508,2.902,1.809l1.777,7.655c0.301,1.301-0.508,2.6-1.809,2.901
				C603.954,379.459,603.77,379.479,603.59,379.479z"/>
		</g>
	</g>
	<g>
		<g>
			<path fill="#6A655E" d="M615.826,400.896c-1.098,0-2.09-0.749-2.35-1.865c-1.129-4.865-1.748-7.537-2.549-8.415
				c-0.031-0.034-0.064-0.064-0.1-0.089c-1.088-0.774-1.343-2.284-0.568-3.372c0.773-1.088,2.283-1.343,3.373-0.568
				c0.312,0.222,0.604,0.481,0.867,0.769c1.652,1.813,2.248,4.377,3.686,10.569c0.301,1.301-0.508,2.606-1.809,2.909
				C616.193,400.876,616.008,400.896,615.826,400.896z"/>
		</g>
	</g>
	<g>
		<g>
			<path fill="#6A655E" d="M607.744,391.222c-1.259,0-2.32-0.974-2.41-2.247c-0.095-1.332,0.908-2.488,2.24-2.583l0.059-0.005
				c1.334-0.094,2.488,0.909,2.584,2.241c0.094,1.332-0.91,2.489-2.242,2.583l-0.057,0.004
				C607.859,391.22,607.801,391.222,607.744,391.222z"/>
		</g>
	</g>
	<g>
		<g>
			<g>
				<path fill="#6A655E" d="M609.096,357.539c-1.1,0-2.094-0.755-2.354-1.872l-1.633-7.038c-0.301-1.301,0.51-2.6,1.81-2.901
					c1.302-0.304,2.601,0.508,2.901,1.809l1.633,7.038c0.303,1.301-0.508,2.6-1.809,2.901
					C609.461,357.519,609.277,357.539,609.096,357.539z"/>
			</g>
		</g>
		<g>
			<g>
				<path fill="#6A655E" d="M605.082,354.763c-1.1,0-2.094-0.755-2.354-1.872c-0.303-1.301,0.508-2.601,1.809-2.902l6.398-1.484
					c1.302-0.303,2.6,0.508,2.902,1.809c0.301,1.301-0.508,2.601-1.809,2.902l-6.398,1.484
					C605.447,354.742,605.262,354.763,605.082,354.763z"/>
			</g>
		</g>
	</g>
	<g>
		<g>
			<g>
				<path fill="#6A655E" d="M582.756,430.842c-1.1,0-2.094-0.755-2.354-1.872l-1.898-8.185c-0.302-1.301,0.508-2.6,1.809-2.901
					c1.303-0.304,2.602,0.509,2.902,1.81l1.898,8.184c0.303,1.301-0.508,2.6-1.81,2.901
					C583.121,430.821,582.938,430.842,582.756,430.842z"/>
			</g>
		</g>
		<g>
			<g>
				<path fill="#6A655E" d="M578.087,427.613c-1.099,0-2.093-0.756-2.353-1.873c-0.303-1.301,0.508-2.6,1.809-2.901l7.439-1.727
					c1.301-0.302,2.6,0.509,2.902,1.81c0.301,1.301-0.508,2.6-1.809,2.901l-7.44,1.727
					C578.453,427.592,578.268,427.613,578.087,427.613z"/>
			</g>
		</g>
	</g>
	<g>
		<g>
			<path fill="#6A655E" d="M601.439,460.424h-0.006c-1.734-0.005-3.299-0.35-4.783-1.056c-3.283-1.558-4.26-3.854-5.047-5.7
				c-0.479-1.123-0.855-2.01-1.721-2.803c-0.986-0.9-1.055-2.43-0.154-3.416c0.9-0.985,2.43-1.054,3.416-0.152
				c1.642,1.5,2.345,3.15,2.908,4.477c0.652,1.531,1.045,2.455,2.672,3.227c0.838,0.398,1.703,0.585,2.721,0.588
				c1.336,0.003,2.416,1.088,2.412,2.424C603.854,459.345,602.771,460.424,601.439,460.424z"/>
		</g>
	</g>
	<g>
		<g>
			<path fill="#6A655E" d="M607.576,459.359c-0.848,0-1.635-0.449-2.07-1.172c-0.178-0.278-0.289-0.573-0.342-0.84
				c-0.072-0.385-0.314-2.334,2.205-2.903c1.201-0.272,2.402,0.407,2.809,1.543c0.08,0.201,0.111,0.346,0.117,0.368
				c0.047,0.233,0.395,2.296-2.125,2.931C607.971,459.336,607.772,459.359,607.576,459.359z"/>
		</g>
	</g>
	<g>
		<g>
			<path fill="#6A655E" d="M635.906,363.646c-3.986,0-7.23-3.244-7.23-7.231c0-3.986,3.244-7.23,7.23-7.23
				c3.988,0,7.23,3.244,7.23,7.23C643.137,360.401,639.895,363.646,635.906,363.646z M635.906,354.02
				c-1.32,0-2.395,1.074-2.395,2.395s1.074,2.396,2.395,2.396c1.322,0,2.395-1.075,2.395-2.396S637.229,354.02,635.906,354.02z"/>
		</g>
	</g>
	<g>
		<g>
			<path fill="#6A655E" d="M639.744,476.309c-4.396,0-7.975-3.578-7.975-7.975c0-4.397,3.578-7.975,7.975-7.975
				s7.975,3.577,7.975,7.975C647.719,472.73,644.141,476.309,639.744,476.309z M639.744,465.195c-1.73,0-3.138,1.408-3.138,3.139
				s1.407,3.139,3.138,3.139s3.139-1.408,3.139-3.139S641.475,465.195,639.744,465.195z"/>
		</g>
	</g>
</g>
</svg>
