<?xml version="1.0" encoding="utf-8"?>
<!-- Generator: Adobe Illustrator 15.0.0, SVG Export Plug-In . SVG Version: 6.00 Build 0)  -->
<!DOCTYPE svg PUBLIC "-//W3C//DTD SVG 1.1//EN" "http://www.w3.org/Graphics/SVG/1.1/DTD/svg11.dtd">
<svg version="1.1" id="Layer_1" xmlns="http://www.w3.org/2000/svg" xmlns:xlink="http://www.w3.org/1999/xlink" x="0px" y="0px"
	 width="1280px" height="768px" viewBox="0 0 1280 768" enable-background="new 0 0 1280 768" xml:space="preserve">
<g>
	<g>
		<g>
			<g>
				<g>
					<g>
						<path fill="#6A655E" d="M617.971,389.328l-0.014-2.016c0,0-0.008-1.117-0.008-2.732v-2.015h4.031v2.015
							c0,1.595,0.008,2.701,0.008,2.705l0.014,2.014L617.971,389.328z"/>
					</g>
				</g>
			</g>
		</g>
		<g>
			<g>
				<g>
					<g>
						
							<rect x="616.714" y="370.368" transform="matrix(0.0096 1 -1 0.0096 986.3782 -251.1335)" fill="#6A655E" width="6.507" height="4.029"/>
					</g>
				</g>
			</g>
		</g>
		<g>
			<g>
				<g>
					<g>
						<rect x="623.136" y="377.267" fill="#6A655E" width="6.974" height="4.03"/>
					</g>
				</g>
			</g>
		</g>
		<g>
			<g>
				<g>
					<g>
						<rect x="609.976" y="377.267" fill="#6A655E" width="7.198" height="4.029"/>
					</g>
				</g>
			</g>
		</g>
		<g>
			<g>
				<g>
					<g>
						<path fill="#6A655E" d="M619.92,387.418l-7.898-8.18l7.984-7.793l8.076,7.881L619.92,387.418z M617.705,379.323l2.277,2.358
							l2.352-2.334l-2.328-2.271L617.705,379.323z"/>
					</g>
				</g>
			</g>
		</g>
	</g>
	<g>
		<g>
			<g>
				<g>
					<path fill="#6A655E" d="M604.654,384.639h-2.557v-2.729c0-1.033-0.91-1.941-2.018-1.941c-1.105,0-2.014,0.908-2.014,1.941
						v2.729h-3.238c-1.09,0-1.941,0.753-1.941,1.812c0,1.061,0.852,1.814,1.941,1.814h3.238v3.094c0,1.034,0.908,1.941,2.014,1.941
						c1.107,0,2.018-0.907,2.018-1.941v-3.094h2.557c1.088,0,1.941-0.754,1.941-1.814
						C606.596,385.392,605.742,384.639,604.654,384.639z"/>
				</g>
			</g>
		</g>
	</g>
	<g>
		<g>
			<g>
				<g>
					<path fill="#6A655E" d="M606.956,368.921h-1.636v-1.751c0-1.089-0.754-1.941-1.812-1.941c-1.061,0-1.814,0.853-1.814,1.941
						v1.751h-1.883c-1.09,0-1.941,0.956-1.941,2.015c0,1.061,0.852,2.016,1.941,2.016h1.883v1.365c0,1.089,0.754,1.941,1.814,1.941
						c1.059,0,1.812-0.853,1.812-1.941v-1.365h1.636c1.089,0,1.942-0.955,1.942-2.016
						C608.898,369.877,608.045,368.921,606.956,368.921z"/>
				</g>
			</g>
		</g>
	</g>
	<g>
		<g>
			<g>
				<g>
					<path fill="#6A655E" d="M694.365,426.717l-0.113-0.046c-0.646-0.27-1.41-0.142-1.932,0.317l-56.463,24.849l-45.022-16.804
						c-3.897-1.398-4.565-2.668-4.677-3.025c-0.877-2.803,1.496-4.631,3.549-4.569c4.881,1.903,44.381,17.226,44.803,17.39
						c0.215,0.082,0.439,0.125,0.668,0.125c0.248,0,0.488-0.049,0.719-0.146l56.578-23.896c0.455-0.193,0.809-0.55,0.994-1.007
						c0.185-0.457,0.182-0.959-0.01-1.413c-0.291-0.687-0.959-1.13-1.703-1.13c-0.246,0-0.488,0.05-0.718,0.146l-55.89,23.606
						l-5.184-2.011c-11.611-4.505-38.807-15.057-39.344-15.272c-1.382-0.569-2.609-1.821-2.92-2.978
						c-0.17-0.633-0.051-1.186,0.375-1.739c0.328-0.428,0.926-0.645,1.777-0.645c1.316,0,3.164,0.523,5.076,1.441
						c0.033,0.014,0.066,0.029,0.102,0.043l0.092,0.037c2.361,0.953,14.729,5.948,26.314,10.793
						c1.346,0.539,2.549,1.049,3.609,1.498c1.619,0.686,3.016,1.277,4.274,1.701c2.78,1.085,4.206,1.584,4.358,1.637
						c0.432,0.148,0.908,0.133,1.328-0.046l0.059-0.025c4.793-2.042,46.943-20.01,51.16-21.933c3.326-1.52,4.58-3.812,5.047-5.469
						c0.721-2.559,0.094-5.562-1.715-8.242c-1.941-2.871-11.68-5.977-31.428-11.438c-4.389-1.214-8.182-2.262-10.232-2.947
						c-0.369-0.124-0.771-0.128-1.144-0.01l-59.185,18.727c-0.738,0.234-1.256,0.911-1.289,1.686
						c-0.031,0.773,0.43,1.491,1.146,1.785c2.607,1.066,7.764,2.891,13.732,5.002l0.049,0.017
						c11.873,4.199,25.787,9.866,26.375,10.105c0.504,0.206,1.012,0.478,1.549,0.765c0.4,0.215,0.816,0.438,1.234,0.633
						c4.561,2.128,5.494,3.059,4.76,4.744c-0.33,0.76-0.799,1.209-1.514,1.451c-0.799,0.272-1.882,0.28-3.186,0.023
						c-2.27-0.889-4.783-1.909-7.477-3.035l-0.035-0.015c-11.725-4.901-24.084-9.894-26.444-10.845
						c-1.717-0.818-4.265-1.795-6.642-1.795c-2.035,0-3.611,0.708-4.684,2.105c-1.135,1.479-1.484,3.188-1.012,4.947
						c0.295,1.102,0.891,2.096,1.633,2.939c-1.24,0.576-2.172,1.354-2.807,2.345c-1.402,2.191-0.859,4.321-0.328,6.017
						c0.689,2.201,2.961,3.966,6.945,5.396l45.711,17.054c0.201,0.074,0.414,0.112,0.633,0.112c0.258,0,0.508-0.053,0.744-0.157
						l57.729-25.404c0.676-0.298,1.109-0.968,1.104-1.707C695.49,427.664,695.045,427.002,694.365,426.717z M638.875,426.398
						c-0.688-2.043-2.957-3.479-4.605-4.383c-2.65-1.451-5.504-2.65-8.193-3.729c-7.494-3.006-15.545-6.183-23.637-9.044
						c-3.182-1.125-6.203-2.193-8.678-3.091l53.542-16.942c2.204,0.704,5.733,1.681,9.843,2.817l0.061,0.016
						c5.777,1.6,12.967,3.588,18.781,5.479c9.332,3.035,10.416,4.315,10.51,4.451c1.199,1.777,1.645,3.663,1.221,5.174
						c-0.371,1.314-1.389,2.36-3.025,3.107c-3.543,1.616-35.291,15.166-46,19.732C639.049,428.961,639.264,427.555,638.875,426.398z
						"/>
				</g>
			</g>
		</g>
	</g>
	<g>
		<g>
			<g>
				<g>
					<g>
						<g>
							<path fill="#6A655E" d="M668.828,406.249"/>
						</g>
					</g>
				</g>
			</g>
		</g>
	</g>
</g>
</svg>
