<?xml version="1.0" encoding="utf-8"?>
<!-- Generator: Adobe Illustrator 15.0.0, SVG Export Plug-In . SVG Version: 6.00 Build 0)  -->
<!DOCTYPE svg PUBLIC "-//W3C//DTD SVG 1.1//EN" "http://www.w3.org/Graphics/SVG/1.1/DTD/svg11.dtd">
<svg version="1.1" id="Layer_1" xmlns="http://www.w3.org/2000/svg" xmlns:xlink="http://www.w3.org/1999/xlink" x="0px" y="0px"
	 width="1280px" height="768px" viewBox="0 0 1280 768" enable-background="new 0 0 1280 768" xml:space="preserve">
<g>
	<g>
		<g>
			<g>
				<g>
					<path fill="#6A655E" d="M639.152,395.178c-1.042,0-1.924-0.803-2.007-1.859c-0.086-1.109,0.744-2.078,1.853-2.165
						c2.42-0.188,4.316-2.241,4.316-4.673c0-2.586-2.104-4.688-4.688-4.688c-2.123,0-3.986,1.431-4.531,3.478
						c-0.287,1.075-1.389,1.715-2.466,1.429c-1.075-0.286-1.715-1.391-1.429-2.466c1.015-3.81,4.479-6.471,8.426-6.471
						c4.807,0,8.717,3.911,8.717,8.719c0,4.522-3.528,8.34-8.033,8.691C639.257,395.176,639.205,395.178,639.152,395.178z"/>
				</g>
			</g>
		</g>
	</g>
	<g>
		<g>
			<g>
				<g>
					<path fill="#6A655E" d="M639.181,404.624c-1.108,0-2.008-0.895-2.015-2.003l-0.054-9.447c-0.006-1.113,0.891-2.021,2.003-2.026
						c0.004,0,0.008,0,0.013,0c1.107,0,2.007,0.895,2.014,2.003l0.055,9.447c0.007,1.112-0.891,2.021-2.003,2.026
						C639.189,404.624,639.185,404.624,639.181,404.624z"/>
				</g>
			</g>
		</g>
	</g>
	<g>
		<g>
			<g>
				<g>
					<path fill="#6A655E" d="M586.592,441.233c-3.737,0-6.84-2.565-7.729-6.397c-0.769-3.312,0.392-7.589,4.717-9.682
						c3.68-1.781,51.257-22.983,53.28-23.885c1.017-0.453,2.208,0.004,2.661,1.02c0.453,1.018-0.004,2.208-1.021,2.661
						c-0.495,0.221-49.542,22.078-53.166,23.832c-2.478,1.199-2.939,3.442-2.545,5.142c0.352,1.516,1.559,3.279,3.803,3.279
						c0.008,0,0.016,0,0.023,0c1.124-0.006,4.993-0.006,10.849-0.007c24.303-0.002,88.859-0.007,93.888-0.553
						c2.154-0.233,2.843-1.709,3.041-2.906c0.308-1.856-0.487-3.62-1.392-4.042l-53.17-24.759l1.701-3.653l53.17,24.759
						c2.672,1.244,4.248,4.835,3.666,8.353c-0.575,3.481-3.098,5.879-6.582,6.256c-4.649,0.504-52.85,0.572-94.322,0.576
						c-5.85,0.001-9.715,0.001-10.828,0.007C586.623,441.233,586.607,441.233,586.592,441.233z"/>
				</g>
			</g>
		</g>
	</g>
	<g>
		<g>
			<g>
				<g>
					<path fill="#6A655E" d="M611.778,425.98c-3.526,0-6.395-2.869-6.395-6.395c0-2.58,1.537-4.894,3.914-5.895
						c1.026-0.433,2.207,0.05,2.639,1.074c0.431,1.026-0.05,2.208-1.075,2.64c-0.879,0.37-1.448,1.226-1.448,2.181
						c0,1.304,1.061,2.364,2.365,2.364c1.125,0,2.101-0.799,2.319-1.899c0.217-1.092,1.276-1.803,2.369-1.585
						c1.092,0.217,1.801,1.276,1.584,2.368C617.459,423.816,614.821,425.98,611.778,425.98z"/>
				</g>
			</g>
		</g>
	</g>
	<g>
		<g>
			<g>
				<g>
					<path fill="#6A655E" d="M666.752,426.48c-3.044,0-5.682-2.164-6.273-5.146c-0.216-1.092,0.494-2.152,1.585-2.368
						c1.091-0.219,2.151,0.493,2.368,1.584c0.219,1.101,1.193,1.9,2.32,1.9c1.303,0,2.364-1.061,2.364-2.365
						c0-0.954-0.568-1.811-1.448-2.18c-1.025-0.432-1.506-1.614-1.074-2.64s1.614-1.506,2.639-1.075
						c2.377,1.001,3.914,3.314,3.914,5.895C673.146,423.612,670.277,426.48,666.752,426.48z"/>
				</g>
			</g>
		</g>
	</g>
</g>
</svg>
